<svg width="164" height="56" viewBox="0 0 164 56" fill="none" xmlns="http://www.w3.org/2000/svg">
<g clip-path="url(#clip0_774_10899)">
<rect width="164" height="56" rx="20" fill="#FAFAFA"/>
<path d="M28.196 43V13.9091H32.5852V39.2216H45.767V43H28.196ZM74.9112 28.4545C74.9112 31.5606 74.343 34.2311 73.2067 36.4659C72.0703 38.6913 70.5125 40.4053 68.5334 41.608C66.5637 42.8011 64.3241 43.3977 61.8146 43.3977C59.2957 43.3977 57.0466 42.8011 55.0675 41.608C53.0978 40.4053 51.5447 38.6866 50.4084 36.4517C49.272 34.2169 48.7038 31.5511 48.7038 28.4545C48.7038 25.3485 49.272 22.6828 50.4084 20.4574C51.5447 18.2225 53.0978 16.5085 55.0675 15.3153C57.0466 14.1127 59.2957 13.5114 61.8146 13.5114C64.3241 13.5114 66.5637 14.1127 68.5334 15.3153C70.5125 16.5085 72.0703 18.2225 73.2067 20.4574C74.343 22.6828 74.9112 25.3485 74.9112 28.4545ZM70.5646 28.4545C70.5646 26.0871 70.1811 24.0937 69.4141 22.4744C68.6565 20.8456 67.6148 19.6146 66.2891 18.7812C64.9728 17.9384 63.4813 17.517 61.8146 17.517C60.1385 17.517 58.6423 17.9384 57.326 18.7812C56.0097 19.6146 54.968 20.8456 54.201 22.4744C53.4434 24.0937 53.0646 26.0871 53.0646 28.4545C53.0646 30.822 53.4434 32.8201 54.201 34.4489C54.968 36.0682 56.0097 37.2992 57.326 38.142C58.6423 38.9754 60.1385 39.392 61.8146 39.392C63.4813 39.392 64.9728 38.9754 66.2891 38.142C67.6148 37.2992 68.6565 36.0682 69.4141 34.4489C70.1811 32.8201 70.5646 30.822 70.5646 28.4545ZM100.071 23.0994C99.7964 22.2377 99.4271 21.4659 98.9631 20.7841C98.5085 20.0928 97.964 19.5057 97.3295 19.0227C96.6951 18.5303 95.9706 18.1562 95.1562 17.9006C94.3513 17.6449 93.4659 17.517 92.5 17.517C90.8617 17.517 89.3845 17.9384 88.0682 18.7812C86.7519 19.6241 85.7102 20.8598 84.9432 22.4886C84.1856 24.108 83.8068 26.0919 83.8068 28.4403C83.8068 30.7983 84.1903 32.7917 84.9574 34.4205C85.7244 36.0492 86.7756 37.285 88.1108 38.1278C89.446 38.9706 90.9659 39.392 92.6705 39.392C94.2519 39.392 95.6297 39.0701 96.804 38.4261C97.9877 37.7822 98.9015 36.8731 99.5455 35.6989C100.199 34.5152 100.526 33.1231 100.526 31.5227L101.662 31.7358H93.3381V28.1136H104.773V31.4233C104.773 33.8665 104.252 35.9877 103.21 37.7869C102.178 39.5767 100.748 40.9593 98.9205 41.9347C97.1023 42.91 95.0189 43.3977 92.6705 43.3977C90.0379 43.3977 87.7273 42.7917 85.7386 41.5795C83.7595 40.3674 82.2159 38.6487 81.108 36.4233C80 34.1884 79.446 31.5369 79.446 28.4688C79.446 26.1487 79.768 24.0653 80.4119 22.2188C81.0559 20.3722 81.9602 18.8049 83.125 17.517C84.2992 16.2197 85.6771 15.2301 87.2585 14.5483C88.8494 13.857 90.5871 13.5114 92.4716 13.5114C94.0436 13.5114 95.5066 13.7434 96.8608 14.2074C98.2244 14.6714 99.4366 15.3295 100.497 16.1818C101.567 17.0341 102.453 18.0473 103.153 19.2216C103.854 20.3864 104.328 21.679 104.574 23.0994H100.071ZM135.614 28.4545C135.614 31.5606 135.046 34.2311 133.91 36.4659C132.773 38.6913 131.216 40.4053 129.237 41.608C127.267 42.8011 125.027 43.3977 122.518 43.3977C119.999 43.3977 117.75 42.8011 115.771 41.608C113.801 40.4053 112.248 38.6866 111.112 36.4517C109.975 34.2169 109.407 31.5511 109.407 28.4545C109.407 25.3485 109.975 22.6828 111.112 20.4574C112.248 18.2225 113.801 16.5085 115.771 15.3153C117.75 14.1127 119.999 13.5114 122.518 13.5114C125.027 13.5114 127.267 14.1127 129.237 15.3153C131.216 16.5085 132.773 18.2225 133.91 20.4574C135.046 22.6828 135.614 25.3485 135.614 28.4545ZM131.268 28.4545C131.268 26.0871 130.884 24.0937 130.117 22.4744C129.36 20.8456 128.318 19.6146 126.992 18.7812C125.676 17.9384 124.184 17.517 122.518 17.517C120.842 17.517 119.345 17.9384 118.029 18.7812C116.713 19.6146 115.671 20.8456 114.904 22.4744C114.147 24.0937 113.768 26.0871 113.768 28.4545C113.768 30.822 114.147 32.8201 114.904 34.4489C115.671 36.0682 116.713 37.2992 118.029 38.142C119.345 38.9754 120.842 39.392 122.518 39.392C124.184 39.392 125.676 38.9754 126.992 38.142C128.318 37.2992 129.36 36.0682 130.117 34.4489C130.884 32.8201 131.268 30.822 131.268 28.4545Z" fill="#006A4E"/>
</g>
<defs>
<clipPath id="clip0_774_10899">
<rect width="164" height="56" rx="8" fill="white"/>
</clipPath>
</defs>
</svg>
