<svg width="737" height="267" viewBox="0 0 737 267" fill="none" xmlns="http://www.w3.org/2000/svg">
<circle cx="301" cy="27" r="6.5" fill="white" stroke="#717FFE" stroke-width="3"/>
<circle cx="550" cy="24" r="6.5" fill="white" stroke="#717FFE" stroke-width="3"/>
<path d="M70 54.5H736" stroke="#CECECE"/>
<path d="M70 91.5H736" stroke="#CECECE"/>
<path d="M70 128.5H736" stroke="#CECECE"/>
<path d="M70 165.5H736" stroke="#CECECE"/>
<path d="M70 202.5H736" stroke="#CECECE"/>
<path fill-rule="evenodd" clip-rule="evenodd" d="M70.1658 174C70.1658 174 69.5594 62.94 70.6658 62C78.9069 54.998 90.5082 47.6295 98.7235 47.1462C112.701 46.3238 120.669 57.4867 136.73 57.4867C152.791 57.4867 169.233 47.9097 189.738 47.1462C210.244 46.3826 222.982 53.6029 241.036 53.6029C259.089 53.6029 279.78 26.4165 299.963 26.4165C320.146 26.4165 339.489 69.138 366.447 69.138C393.404 69.138 398.874 32.937 415.826 32.937C432.778 32.937 444.069 45.7383 460.353 46.3694C476.636 47.0005 476.636 57.4867 490.357 57.4867C504.078 57.4867 523.722 23 545.343 23C566.964 23 591.937 47.4951 607.392 47.4951C622.848 47.4951 614.375 30.3003 632.67 30.3003C650.965 30.3003 640.699 46.7183 659 47.4951C677.301 48.2719 689.022 53.6029 706.822 53.6029C711.958 53.6029 719.004 52.2065 724.141 48.2719C729.279 44.3373 733.911 38.0145 733.911 38.0145H736.166C736.166 38.0145 736.166 40.8689 736.166 41.6937C736.166 50.7083 736.166 174 736.166 174H70.1658Z" fill="url(#paint0_linear_697_15976)"/>
<path d="M71 61.2557C71 61.2557 85.1095 47.8938 99.1692 47.0739C113.229 46.254 121.243 57.3835 137.399 57.3835C153.554 57.3835 170.093 47.8352 190.719 47.0739C211.345 46.3127 224.158 53.5114 242.318 53.5114C260.478 53.5114 281.29 26.4063 301.592 26.4063C321.894 26.4063 341.35 69 368.466 69C395.582 69 401.084 32.9073 418.136 32.9073C435.187 32.9073 446.545 46.4447 462.924 47.0739C479.304 47.7031 478.215 57.3835 493.106 57.3835C507.996 57.3835 524.643 23 546.39 23C568.138 23 590.668 47.0739 606.215 47.0739C621.761 47.0739 615.769 30.2784 634.172 30.2784C652.574 30.2784 641.52 47.0739 659.535 47.0739C677.549 47.0739 690.926 53.5114 708.831 53.5114C726.735 53.5114 735 37.5 735 37.5" stroke="#717FFE" stroke-width="2"/>
<line x1="737" y1="202.5" x2="69.9997" y2="202.5" stroke="#343A40" stroke-dasharray="2 2"/>
<line x1="145.5" y1="203" x2="129.5" y2="220" stroke="#1D1D1F"/>
<path d="M133.103 235L131.108 228.455H132.165L133.58 233.466H133.648L135.046 228.455H136.12L137.5 233.449H137.569L138.983 228.455H140.04L138.046 235H137.057L135.625 229.972H135.523L134.091 235H133.103ZM143.891 235.136C143.261 235.136 142.717 234.997 142.259 234.719C141.805 234.438 141.454 234.045 141.207 233.543C140.962 233.037 140.84 232.449 140.84 231.778C140.84 231.108 140.962 230.517 141.207 230.006C141.454 229.491 141.798 229.091 142.238 228.804C142.681 228.514 143.198 228.369 143.789 228.369C144.13 228.369 144.467 228.426 144.799 228.54C145.131 228.653 145.434 228.838 145.707 229.094C145.979 229.347 146.197 229.682 146.359 230.099C146.521 230.517 146.602 231.031 146.602 231.642V232.068H141.556V231.199H145.579C145.579 230.83 145.505 230.5 145.357 230.21C145.212 229.92 145.005 229.692 144.735 229.524C144.468 229.357 144.153 229.273 143.789 229.273C143.388 229.273 143.042 229.372 142.749 229.571C142.46 229.767 142.237 230.023 142.08 230.338C141.924 230.653 141.846 230.991 141.846 231.352V231.932C141.846 232.426 141.931 232.845 142.102 233.189C142.275 233.53 142.515 233.79 142.822 233.969C143.129 234.145 143.485 234.233 143.891 234.233C144.156 234.233 144.394 234.196 144.607 234.122C144.823 234.045 145.009 233.932 145.165 233.781C145.322 233.628 145.442 233.437 145.528 233.21L146.499 233.483C146.397 233.812 146.225 234.102 145.984 234.352C145.742 234.599 145.444 234.793 145.089 234.932C144.734 235.068 144.335 235.136 143.891 235.136ZM150.876 235.136C150.245 235.136 149.701 234.997 149.244 234.719C148.789 234.438 148.438 234.045 148.191 233.543C147.947 233.037 147.825 232.449 147.825 231.778C147.825 231.108 147.947 230.517 148.191 230.006C148.438 229.491 148.782 229.091 149.222 228.804C149.665 228.514 150.183 228.369 150.773 228.369C151.114 228.369 151.451 228.426 151.783 228.54C152.116 228.653 152.418 228.838 152.691 229.094C152.964 229.347 153.181 229.682 153.343 230.099C153.505 230.517 153.586 231.031 153.586 231.642V232.068H148.54V231.199H152.563C152.563 230.83 152.489 230.5 152.342 230.21C152.197 229.92 151.989 229.692 151.719 229.524C151.452 229.357 151.137 229.273 150.773 229.273C150.373 229.273 150.026 229.372 149.734 229.571C149.444 229.767 149.221 230.023 149.065 230.338C148.908 230.653 148.83 230.991 148.83 231.352V231.932C148.83 232.426 148.915 232.845 149.086 233.189C149.259 233.53 149.499 233.79 149.806 233.969C150.113 234.145 150.469 234.233 150.876 234.233C151.14 234.233 151.379 234.196 151.592 234.122C151.808 234.045 151.994 233.932 152.15 233.781C152.306 233.628 152.427 233.437 152.512 233.21L153.484 233.483C153.381 233.812 153.21 234.102 152.968 234.352C152.727 234.599 152.428 234.793 152.073 234.932C151.718 235.068 151.319 235.136 150.876 235.136ZM156.053 232.614L156.036 231.369H156.241L159.104 228.455H160.349L157.298 231.54H157.212L156.053 232.614ZM155.116 235V226.273H156.121V235H155.116ZM159.275 235L156.718 231.761L157.434 231.062L160.553 235H159.275ZM164.694 226.273V235H163.637V227.381H163.586L161.456 228.795V227.722L163.637 226.273H164.694Z" fill="#414141"/>
<line x1="274.5" y1="203" x2="258.5" y2="220" stroke="#1D1D1F"/>
<path d="M261.259 235L259.265 228.455H260.321L261.736 233.466H261.804L263.202 228.455H264.276L265.657 233.449H265.725L267.14 228.455H268.196L266.202 235H265.213L263.782 229.972H263.679L262.248 235H261.259ZM272.048 235.136C271.417 235.136 270.873 234.997 270.415 234.719C269.961 234.438 269.61 234.045 269.363 233.543C269.119 233.037 268.996 232.449 268.996 231.778C268.996 231.108 269.119 230.517 269.363 230.006C269.61 229.491 269.954 229.091 270.394 228.804C270.837 228.514 271.354 228.369 271.945 228.369C272.286 228.369 272.623 228.426 272.955 228.54C273.288 228.653 273.59 228.838 273.863 229.094C274.136 229.347 274.353 229.682 274.515 230.099C274.677 230.517 274.758 231.031 274.758 231.642V232.068H269.712V231.199H273.735C273.735 230.83 273.661 230.5 273.513 230.21C273.369 229.92 273.161 229.692 272.891 229.524C272.624 229.357 272.309 229.273 271.945 229.273C271.545 229.273 271.198 229.372 270.906 229.571C270.616 229.767 270.393 230.023 270.237 230.338C270.08 230.653 270.002 230.991 270.002 231.352V231.932C270.002 232.426 270.087 232.845 270.258 233.189C270.431 233.53 270.671 233.79 270.978 233.969C271.285 234.145 271.641 234.233 272.048 234.233C272.312 234.233 272.55 234.196 272.763 234.122C272.979 234.045 273.165 233.932 273.322 233.781C273.478 233.628 273.599 233.437 273.684 233.21L274.656 233.483C274.553 233.812 274.381 234.102 274.14 234.352C273.898 234.599 273.6 234.793 273.245 234.932C272.89 235.068 272.491 235.136 272.048 235.136ZM279.032 235.136C278.401 235.136 277.857 234.997 277.4 234.719C276.945 234.438 276.594 234.045 276.347 233.543C276.103 233.037 275.981 232.449 275.981 231.778C275.981 231.108 276.103 230.517 276.347 230.006C276.594 229.491 276.938 229.091 277.379 228.804C277.822 228.514 278.339 228.369 278.93 228.369C279.271 228.369 279.607 228.426 279.94 228.54C280.272 228.653 280.575 228.838 280.847 229.094C281.12 229.347 281.337 229.682 281.499 230.099C281.661 230.517 281.742 231.031 281.742 231.642V232.068H276.697V231.199H280.719C280.719 230.83 280.646 230.5 280.498 230.21C280.353 229.92 280.146 229.692 279.876 229.524C279.609 229.357 279.293 229.273 278.93 229.273C278.529 229.273 278.183 229.372 277.89 229.571C277.6 229.767 277.377 230.023 277.221 230.338C277.065 230.653 276.987 230.991 276.987 231.352V231.932C276.987 232.426 277.072 232.845 277.242 233.189C277.415 233.53 277.656 233.79 277.962 233.969C278.269 234.145 278.626 234.233 279.032 234.233C279.296 234.233 279.535 234.196 279.748 234.122C279.964 234.045 280.15 233.932 280.306 233.781C280.462 233.628 280.583 233.437 280.668 233.21L281.64 233.483C281.538 233.812 281.366 234.102 281.124 234.352C280.883 234.599 280.585 234.793 280.229 234.932C279.874 235.068 279.475 235.136 279.032 235.136ZM284.21 232.614L284.192 231.369H284.397L287.261 228.455H288.505L285.454 231.54H285.369L284.21 232.614ZM283.272 235V226.273H284.278V235H283.272ZM287.431 235L284.874 231.761L285.59 231.062L288.71 235H287.431ZM289.782 235V234.233L292.663 231.08C293.001 230.71 293.279 230.389 293.498 230.116C293.717 229.841 293.879 229.582 293.984 229.341C294.092 229.097 294.146 228.841 294.146 228.574C294.146 228.267 294.072 228.001 293.924 227.777C293.779 227.553 293.581 227.379 293.328 227.257C293.075 227.135 292.791 227.074 292.475 227.074C292.14 227.074 291.848 227.143 291.598 227.283C291.35 227.419 291.159 227.611 291.022 227.858C290.889 228.105 290.822 228.395 290.822 228.727H289.816C289.816 228.216 289.934 227.767 290.17 227.381C290.406 226.994 290.727 226.693 291.133 226.477C291.542 226.261 292.001 226.153 292.51 226.153C293.021 226.153 293.474 226.261 293.869 226.477C294.264 226.693 294.574 226.984 294.798 227.351C295.022 227.717 295.135 228.125 295.135 228.574C295.135 228.895 295.076 229.209 294.96 229.516C294.846 229.82 294.647 230.159 294.363 230.534C294.082 230.906 293.691 231.361 293.191 231.898L291.231 233.994V234.062H295.288V235H289.782Z" fill="#414141"/>
<line x1="421.5" y1="203" x2="405.5" y2="220" stroke="#1D1D1F"/>
<path d="M404.384 235L402.39 228.455H403.446L404.861 233.466H404.929L406.327 228.455H407.401L408.782 233.449H408.85L410.265 228.455H411.321L409.327 235H408.338L406.907 229.972H406.804L405.373 235H404.384ZM415.173 235.136C414.542 235.136 413.998 234.997 413.54 234.719C413.086 234.438 412.735 234.045 412.488 233.543C412.244 233.037 412.121 232.449 412.121 231.778C412.121 231.108 412.244 230.517 412.488 230.006C412.735 229.491 413.079 229.091 413.519 228.804C413.962 228.514 414.479 228.369 415.07 228.369C415.411 228.369 415.748 228.426 416.08 228.54C416.413 228.653 416.715 228.838 416.988 229.094C417.261 229.347 417.478 229.682 417.64 230.099C417.802 230.517 417.883 231.031 417.883 231.642V232.068H412.837V231.199H416.86C416.86 230.83 416.786 230.5 416.638 230.21C416.494 229.92 416.286 229.692 416.016 229.524C415.749 229.357 415.434 229.273 415.07 229.273C414.67 229.273 414.323 229.372 414.031 229.571C413.741 229.767 413.518 230.023 413.362 230.338C413.205 230.653 413.127 230.991 413.127 231.352V231.932C413.127 232.426 413.212 232.845 413.383 233.189C413.556 233.53 413.796 233.79 414.103 233.969C414.41 234.145 414.766 234.233 415.173 234.233C415.437 234.233 415.675 234.196 415.888 234.122C416.104 234.045 416.29 233.932 416.447 233.781C416.603 233.628 416.724 233.437 416.809 233.21L417.781 233.483C417.678 233.812 417.506 234.102 417.265 234.352C417.023 234.599 416.725 234.793 416.37 234.932C416.015 235.068 415.616 235.136 415.173 235.136ZM422.157 235.136C421.526 235.136 420.982 234.997 420.525 234.719C420.07 234.438 419.719 234.045 419.472 233.543C419.228 233.037 419.106 232.449 419.106 231.778C419.106 231.108 419.228 230.517 419.472 230.006C419.719 229.491 420.063 229.091 420.504 228.804C420.947 228.514 421.464 228.369 422.055 228.369C422.396 228.369 422.732 228.426 423.065 228.54C423.397 228.653 423.7 228.838 423.972 229.094C424.245 229.347 424.462 229.682 424.624 230.099C424.786 230.517 424.867 231.031 424.867 231.642V232.068H419.822V231.199H423.844C423.844 230.83 423.771 230.5 423.623 230.21C423.478 229.92 423.271 229.692 423.001 229.524C422.734 229.357 422.418 229.273 422.055 229.273C421.654 229.273 421.308 229.372 421.015 229.571C420.725 229.767 420.502 230.023 420.346 230.338C420.19 230.653 420.112 230.991 420.112 231.352V231.932C420.112 232.426 420.197 232.845 420.367 233.189C420.54 233.53 420.781 233.79 421.087 233.969C421.394 234.145 421.751 234.233 422.157 234.233C422.421 234.233 422.66 234.196 422.873 234.122C423.089 234.045 423.275 233.932 423.431 233.781C423.587 233.628 423.708 233.437 423.793 233.21L424.765 233.483C424.663 233.812 424.491 234.102 424.249 234.352C424.008 234.599 423.71 234.793 423.354 234.932C422.999 235.068 422.6 235.136 422.157 235.136ZM427.335 232.614L427.317 231.369H427.522L430.386 228.455H431.63L428.579 231.54H428.494L427.335 232.614ZM426.397 235V226.273H427.403V235H426.397ZM430.556 235L427.999 231.761L428.715 231.062L431.835 235H430.556ZM439.231 235.119C438.669 235.119 438.167 235.023 437.727 234.83C437.289 234.636 436.941 234.368 436.683 234.024C436.427 233.678 436.288 233.276 436.265 232.818H437.339C437.362 233.099 437.458 233.342 437.629 233.547C437.799 233.749 438.022 233.905 438.298 234.016C438.574 234.126 438.879 234.182 439.214 234.182C439.589 234.182 439.922 234.116 440.211 233.986C440.501 233.855 440.728 233.673 440.893 233.44C441.058 233.207 441.14 232.938 441.14 232.631C441.14 232.31 441.061 232.027 440.902 231.783C440.743 231.536 440.51 231.342 440.203 231.203C439.896 231.064 439.521 230.994 439.078 230.994H438.379V230.057H439.078C439.424 230.057 439.728 229.994 439.99 229.869C440.254 229.744 440.46 229.568 440.608 229.341C440.758 229.114 440.833 228.847 440.833 228.54C440.833 228.244 440.768 227.987 440.637 227.768C440.507 227.55 440.322 227.379 440.083 227.257C439.848 227.135 439.569 227.074 439.248 227.074C438.947 227.074 438.663 227.129 438.396 227.24C438.132 227.348 437.916 227.506 437.748 227.713C437.581 227.918 437.49 228.165 437.475 228.455H436.453C436.47 227.997 436.608 227.597 436.866 227.253C437.125 226.906 437.463 226.636 437.88 226.443C438.301 226.25 438.762 226.153 439.265 226.153C439.805 226.153 440.268 226.263 440.654 226.482C441.041 226.697 441.338 226.983 441.545 227.338C441.752 227.693 441.856 228.077 441.856 228.489C441.856 228.98 441.727 229.399 441.468 229.746C441.213 230.092 440.865 230.332 440.424 230.466V230.534C440.975 230.625 441.406 230.859 441.716 231.237C442.025 231.612 442.18 232.077 442.18 232.631C442.18 233.105 442.051 233.531 441.792 233.909C441.537 234.284 441.187 234.58 440.744 234.795C440.301 235.011 439.797 235.119 439.231 235.119Z" fill="#414141"/>
<line x1="566.5" y1="203" x2="550.5" y2="220" stroke="#1D1D1F"/>
<path d="M548.355 235L546.36 228.455H547.417L548.832 233.466H548.9L550.298 228.455H551.372L552.752 233.449H552.82L554.235 228.455H555.292L553.298 235H552.309L550.877 229.972H550.775L549.343 235H548.355ZM559.143 235.136C558.513 235.136 557.969 234.997 557.511 234.719C557.057 234.438 556.706 234.045 556.459 233.543C556.214 233.037 556.092 232.449 556.092 231.778C556.092 231.108 556.214 230.517 556.459 230.006C556.706 229.491 557.05 229.091 557.49 228.804C557.933 228.514 558.45 228.369 559.041 228.369C559.382 228.369 559.719 228.426 560.051 228.54C560.383 228.653 560.686 228.838 560.959 229.094C561.231 229.347 561.449 229.682 561.611 230.099C561.773 230.517 561.854 231.031 561.854 231.642V232.068H556.808V231.199H560.831C560.831 230.83 560.757 230.5 560.609 230.21C560.464 229.92 560.257 229.692 559.987 229.524C559.72 229.357 559.405 229.273 559.041 229.273C558.64 229.273 558.294 229.372 558.001 229.571C557.711 229.767 557.488 230.023 557.332 230.338C557.176 230.653 557.098 230.991 557.098 231.352V231.932C557.098 232.426 557.183 232.845 557.354 233.189C557.527 233.53 557.767 233.79 558.074 233.969C558.381 234.145 558.737 234.233 559.143 234.233C559.407 234.233 559.646 234.196 559.859 234.122C560.075 234.045 560.261 233.932 560.417 233.781C560.574 233.628 560.694 233.437 560.78 233.21L561.751 233.483C561.649 233.812 561.477 234.102 561.236 234.352C560.994 234.599 560.696 234.793 560.341 234.932C559.986 235.068 559.586 235.136 559.143 235.136ZM566.128 235.136C565.497 235.136 564.953 234.997 564.496 234.719C564.041 234.438 563.69 234.045 563.443 233.543C563.199 233.037 563.077 232.449 563.077 231.778C563.077 231.108 563.199 230.517 563.443 230.006C563.69 229.491 564.034 229.091 564.474 228.804C564.917 228.514 565.434 228.369 566.025 228.369C566.366 228.369 566.703 228.426 567.035 228.54C567.368 228.653 567.67 228.838 567.943 229.094C568.216 229.347 568.433 229.682 568.595 230.099C568.757 230.517 568.838 231.031 568.838 231.642V232.068H563.792V231.199H567.815C567.815 230.83 567.741 230.5 567.594 230.21C567.449 229.92 567.241 229.692 566.971 229.524C566.704 229.357 566.389 229.273 566.025 229.273C565.625 229.273 565.278 229.372 564.986 229.571C564.696 229.767 564.473 230.023 564.317 230.338C564.16 230.653 564.082 230.991 564.082 231.352V231.932C564.082 232.426 564.167 232.845 564.338 233.189C564.511 233.53 564.751 233.79 565.058 233.969C565.365 234.145 565.721 234.233 566.128 234.233C566.392 234.233 566.631 234.196 566.844 234.122C567.059 234.045 567.246 233.932 567.402 233.781C567.558 233.628 567.679 233.437 567.764 233.21L568.736 233.483C568.633 233.812 568.461 234.102 568.22 234.352C567.979 234.599 567.68 234.793 567.325 234.932C566.97 235.068 566.571 235.136 566.128 235.136ZM571.305 232.614L571.288 231.369H571.493L574.356 228.455H575.601L572.55 231.54H572.464L571.305 232.614ZM570.368 235V226.273H571.373V235H570.368ZM574.527 235L571.97 231.761L572.686 231.062L575.805 235H574.527ZM580.048 233.21V232.341L583.884 226.273H584.514V227.619H584.088L581.191 232.205V232.273H586.355V233.21H580.048ZM584.156 235V232.946V232.541V226.273H585.162V235H584.156Z" fill="#414141"/>
<line x1="687.5" y1="203" x2="671.5" y2="220" stroke="#1D1D1F"/>
<path d="M669.554 235L667.559 228.455H668.616L670.031 233.466H670.099L671.497 228.455H672.571L673.952 233.449H674.02L675.434 228.455H676.491L674.497 235H673.508L672.077 229.972H671.974L670.542 235H669.554ZM680.343 235.136C679.712 235.136 679.168 234.997 678.71 234.719C678.256 234.438 677.905 234.045 677.658 233.543C677.414 233.037 677.291 232.449 677.291 231.778C677.291 231.108 677.414 230.517 677.658 230.006C677.905 229.491 678.249 229.091 678.689 228.804C679.132 228.514 679.649 228.369 680.24 228.369C680.581 228.369 680.918 228.426 681.25 228.54C681.583 228.653 681.885 228.838 682.158 229.094C682.431 229.347 682.648 229.682 682.81 230.099C682.972 230.517 683.053 231.031 683.053 231.642V232.068H678.007V231.199H682.03C682.03 230.83 681.956 230.5 681.808 230.21C681.664 229.92 681.456 229.692 681.186 229.524C680.919 229.357 680.604 229.273 680.24 229.273C679.84 229.273 679.493 229.372 679.2 229.571C678.911 229.767 678.688 230.023 678.531 230.338C678.375 230.653 678.297 230.991 678.297 231.352V231.932C678.297 232.426 678.382 232.845 678.553 233.189C678.726 233.53 678.966 233.79 679.273 233.969C679.58 234.145 679.936 234.233 680.343 234.233C680.607 234.233 680.845 234.196 681.058 234.122C681.274 234.045 681.46 233.932 681.617 233.781C681.773 233.628 681.894 233.437 681.979 233.21L682.95 233.483C682.848 233.812 682.676 234.102 682.435 234.352C682.193 234.599 681.895 234.793 681.54 234.932C681.185 235.068 680.786 235.136 680.343 235.136ZM687.327 235.136C686.696 235.136 686.152 234.997 685.695 234.719C685.24 234.438 684.889 234.045 684.642 233.543C684.398 233.037 684.276 232.449 684.276 231.778C684.276 231.108 684.398 230.517 684.642 230.006C684.889 229.491 685.233 229.091 685.673 228.804C686.117 228.514 686.634 228.369 687.225 228.369C687.566 228.369 687.902 228.426 688.235 228.54C688.567 228.653 688.869 228.838 689.142 229.094C689.415 229.347 689.632 229.682 689.794 230.099C689.956 230.517 690.037 231.031 690.037 231.642V232.068H684.992V231.199H689.014C689.014 230.83 688.941 230.5 688.793 230.21C688.648 229.92 688.441 229.692 688.171 229.524C687.904 229.357 687.588 229.273 687.225 229.273C686.824 229.273 686.477 229.372 686.185 229.571C685.895 229.767 685.672 230.023 685.516 230.338C685.36 230.653 685.281 230.991 685.281 231.352V231.932C685.281 232.426 685.367 232.845 685.537 233.189C685.71 233.53 685.95 233.79 686.257 233.969C686.564 234.145 686.921 234.233 687.327 234.233C687.591 234.233 687.83 234.196 688.043 234.122C688.259 234.045 688.445 233.932 688.601 233.781C688.757 233.628 688.878 233.437 688.963 233.21L689.935 233.483C689.833 233.812 689.661 234.102 689.419 234.352C689.178 234.599 688.879 234.793 688.524 234.932C688.169 235.068 687.77 235.136 687.327 235.136ZM692.504 232.614L692.487 231.369H692.692L695.556 228.455H696.8L693.749 231.54H693.664L692.504 232.614ZM691.567 235V226.273H692.573V235H691.567ZM695.726 235L693.169 231.761L693.885 231.062L697.004 235H695.726ZM704.18 235.119C703.68 235.119 703.229 235.02 702.829 234.821C702.428 234.622 702.107 234.349 701.866 234.003C701.624 233.656 701.492 233.261 701.469 232.818H702.492C702.532 233.213 702.711 233.54 703.029 233.798C703.35 234.054 703.733 234.182 704.18 234.182C704.537 234.182 704.856 234.098 705.134 233.93C705.415 233.763 705.635 233.533 705.795 233.24C705.956 232.945 706.037 232.611 706.037 232.239C706.037 231.858 705.954 231.518 705.786 231.22C705.621 230.919 705.394 230.682 705.104 230.509C704.814 230.335 704.483 230.247 704.111 230.244C703.844 230.241 703.57 230.283 703.289 230.368C703.008 230.45 702.776 230.557 702.594 230.688L701.606 230.568L702.134 226.273H706.668V227.21H703.02L702.714 229.784H702.765C702.944 229.642 703.168 229.524 703.438 229.43C703.708 229.337 703.989 229.29 704.282 229.29C704.816 229.29 705.292 229.418 705.709 229.673C706.13 229.926 706.459 230.273 706.698 230.713C706.939 231.153 707.06 231.656 707.06 232.222C707.06 232.778 706.935 233.276 706.685 233.713C706.438 234.148 706.097 234.491 705.662 234.744C705.228 234.994 704.733 235.119 704.18 235.119Z" fill="#414141"/>
<path d="M71 220V203" stroke="#1D1D1F"/>
<path d="M4.48242 49.4219V58H3.39844V50.7754L1.21289 51.5723V50.5938L4.3125 49.4219H4.48242ZM13.0254 53.0547V54.3555C13.0254 55.0547 12.9629 55.6445 12.8379 56.125C12.7129 56.6055 12.5332 56.9922 12.2988 57.2852C12.0645 57.5781 11.7812 57.791 11.4492 57.9238C11.1211 58.0527 10.75 58.1172 10.3359 58.1172C10.0078 58.1172 9.70508 58.0762 9.42773 57.9941C9.15039 57.9121 8.90039 57.7812 8.67773 57.6016C8.45898 57.418 8.27148 57.1797 8.11523 56.8867C7.95898 56.5938 7.83984 56.2383 7.75781 55.8203C7.67578 55.4023 7.63477 54.9141 7.63477 54.3555V53.0547C7.63477 52.3555 7.69727 51.7695 7.82227 51.2969C7.95117 50.8242 8.13281 50.4453 8.36719 50.1602C8.60156 49.8711 8.88281 49.6641 9.21094 49.5391C9.54297 49.4141 9.91406 49.3516 10.3242 49.3516C10.6562 49.3516 10.9609 49.3926 11.2383 49.4746C11.5195 49.5527 11.7695 49.6797 11.9883 49.8555C12.207 50.0273 12.3926 50.2578 12.5449 50.5469C12.7012 50.832 12.8203 51.1816 12.9023 51.5957C12.9844 52.0098 13.0254 52.4961 13.0254 53.0547ZM11.9355 54.5312V52.873C11.9355 52.4902 11.9121 52.1543 11.8652 51.8652C11.8223 51.5723 11.7578 51.3223 11.6719 51.1152C11.5859 50.9082 11.4766 50.7402 11.3438 50.6113C11.2148 50.4824 11.0645 50.3887 10.8926 50.3301C10.7246 50.2676 10.5352 50.2363 10.3242 50.2363C10.0664 50.2363 9.83789 50.2852 9.63867 50.3828C9.43945 50.4766 9.27148 50.627 9.13477 50.834C9.00195 51.041 8.90039 51.3125 8.83008 51.6484C8.75977 51.9844 8.72461 52.3926 8.72461 52.873V54.5312C8.72461 54.9141 8.74609 55.252 8.78906 55.5449C8.83594 55.8379 8.9043 56.0918 8.99414 56.3066C9.08398 56.5176 9.19336 56.6914 9.32227 56.8281C9.45117 56.9648 9.59961 57.0664 9.76758 57.1328C9.93945 57.1953 10.1289 57.2266 10.3359 57.2266C10.6016 57.2266 10.834 57.1758 11.0332 57.0742C11.2324 56.9727 11.3984 56.8145 11.5312 56.5996C11.668 56.3809 11.7695 56.1016 11.8359 55.7617C11.9023 55.418 11.9355 55.0078 11.9355 54.5312ZM19.7754 53.0547V54.3555C19.7754 55.0547 19.7129 55.6445 19.5879 56.125C19.4629 56.6055 19.2832 56.9922 19.0488 57.2852C18.8145 57.5781 18.5312 57.791 18.1992 57.9238C17.8711 58.0527 17.5 58.1172 17.0859 58.1172C16.7578 58.1172 16.4551 58.0762 16.1777 57.9941C15.9004 57.9121 15.6504 57.7812 15.4277 57.6016C15.209 57.418 15.0215 57.1797 14.8652 56.8867C14.709 56.5938 14.5898 56.2383 14.5078 55.8203C14.4258 55.4023 14.3848 54.9141 14.3848 54.3555V53.0547C14.3848 52.3555 14.4473 51.7695 14.5723 51.2969C14.7012 50.8242 14.8828 50.4453 15.1172 50.1602C15.3516 49.8711 15.6328 49.6641 15.9609 49.5391C16.293 49.4141 16.6641 49.3516 17.0742 49.3516C17.4062 49.3516 17.7109 49.3926 17.9883 49.4746C18.2695 49.5527 18.5195 49.6797 18.7383 49.8555C18.957 50.0273 19.1426 50.2578 19.2949 50.5469C19.4512 50.832 19.5703 51.1816 19.6523 51.5957C19.7344 52.0098 19.7754 52.4961 19.7754 53.0547ZM18.6855 54.5312V52.873C18.6855 52.4902 18.6621 52.1543 18.6152 51.8652C18.5723 51.5723 18.5078 51.3223 18.4219 51.1152C18.3359 50.9082 18.2266 50.7402 18.0938 50.6113C17.9648 50.4824 17.8145 50.3887 17.6426 50.3301C17.4746 50.2676 17.2852 50.2363 17.0742 50.2363C16.8164 50.2363 16.5879 50.2852 16.3887 50.3828C16.1895 50.4766 16.0215 50.627 15.8848 50.834C15.752 51.041 15.6504 51.3125 15.5801 51.6484C15.5098 51.9844 15.4746 52.3926 15.4746 52.873V54.5312C15.4746 54.9141 15.4961 55.252 15.5391 55.5449C15.5859 55.8379 15.6543 56.0918 15.7441 56.3066C15.834 56.5176 15.9434 56.6914 16.0723 56.8281C16.2012 56.9648 16.3496 57.0664 16.5176 57.1328C16.6895 57.1953 16.8789 57.2266 17.0859 57.2266C17.3516 57.2266 17.584 57.1758 17.7832 57.0742C17.9824 56.9727 18.1484 56.8145 18.2812 56.5996C18.418 56.3809 18.5195 56.1016 18.5859 55.7617C18.6523 55.418 18.6855 55.0078 18.6855 54.5312ZM26.918 51.6602V52.4922H23.4902V51.6602H26.918ZM24.6504 50.1191H25.7344V56.4297C25.7344 56.6445 25.7676 56.8066 25.834 56.916C25.9004 57.0254 25.9863 57.0977 26.0918 57.1328C26.1973 57.168 26.3105 57.1855 26.4316 57.1855C26.5215 57.1855 26.6152 57.1777 26.7129 57.1621C26.8145 57.1426 26.8906 57.127 26.9414 57.1152L26.9473 58C26.8613 58.0273 26.748 58.0527 26.6074 58.0762C26.4707 58.1035 26.3047 58.1172 26.1094 58.1172C25.8438 58.1172 25.5996 58.0645 25.377 57.959C25.1543 57.8535 24.9766 57.6777 24.8438 57.4316C24.7148 57.1816 24.6504 56.8457 24.6504 56.4238V50.1191ZM29.2734 52.6562V58H28.1895V51.6602H29.2441L29.2734 52.6562ZM31.2539 51.625L31.248 52.6328C31.1582 52.6133 31.0723 52.6016 30.9902 52.5977C30.9121 52.5898 30.8223 52.5859 30.7207 52.5859C30.4707 52.5859 30.25 52.625 30.0586 52.7031C29.8672 52.7812 29.7051 52.8906 29.5723 53.0312C29.4395 53.1719 29.334 53.3398 29.2559 53.5352C29.1816 53.7266 29.1328 53.9375 29.1094 54.168L28.8047 54.3438C28.8047 53.9609 28.8418 53.6016 28.916 53.2656C28.9941 52.9297 29.1133 52.6328 29.2734 52.375C29.4336 52.1133 29.6367 51.9102 29.8828 51.7656C30.1328 51.6172 30.4297 51.543 30.7734 51.543C30.8516 51.543 30.9414 51.5527 31.043 51.5723C31.1445 51.5879 31.2148 51.6055 31.2539 51.625ZM35.7598 56.916V53.6523C35.7598 53.4023 35.709 53.1855 35.6074 53.002C35.5098 52.8145 35.3613 52.6699 35.1621 52.5684C34.9629 52.4668 34.7168 52.416 34.4238 52.416C34.1504 52.416 33.9102 52.4629 33.7031 52.5566C33.5 52.6504 33.3398 52.7734 33.2227 52.9258C33.1094 53.0781 33.0527 53.2422 33.0527 53.418H31.9688C31.9688 53.1914 32.0273 52.9668 32.1445 52.7441C32.2617 52.5215 32.4297 52.3203 32.6484 52.1406C32.8711 51.957 33.1367 51.8125 33.4453 51.707C33.7578 51.5977 34.1055 51.543 34.4883 51.543C34.9492 51.543 35.3555 51.6211 35.707 51.7773C36.0625 51.9336 36.3398 52.1699 36.5391 52.4863C36.7422 52.7988 36.8438 53.1914 36.8438 53.6641V56.6172C36.8438 56.8281 36.8613 57.0527 36.8965 57.291C36.9355 57.5293 36.9922 57.7344 37.0664 57.9062V58H35.9355C35.8809 57.875 35.8379 57.709 35.8066 57.502C35.7754 57.291 35.7598 57.0957 35.7598 56.916ZM35.9473 54.1562L35.959 54.918H34.8633C34.5547 54.918 34.2793 54.9434 34.0371 54.9941C33.7949 55.041 33.5918 55.1133 33.4277 55.2109C33.2637 55.3086 33.1387 55.4316 33.0527 55.5801C32.9668 55.7246 32.9238 55.8945 32.9238 56.0898C32.9238 56.2891 32.9688 56.4707 33.0586 56.6348C33.1484 56.7988 33.2832 56.9297 33.4629 57.0273C33.6465 57.1211 33.8711 57.168 34.1367 57.168C34.4688 57.168 34.7617 57.0977 35.0156 56.957C35.2695 56.8164 35.4707 56.6445 35.6191 56.4414C35.7715 56.2383 35.8535 56.041 35.8652 55.8496L36.3281 56.3711C36.3008 56.5352 36.2266 56.7168 36.1055 56.916C35.9844 57.1152 35.8223 57.3066 35.6191 57.4902C35.4199 57.6699 35.1816 57.8203 34.9043 57.9414C34.6309 58.0586 34.3223 58.1172 33.9785 58.1172C33.5488 58.1172 33.1719 58.0332 32.8477 57.8652C32.5273 57.6973 32.2773 57.4727 32.0977 57.1914C31.9219 56.9062 31.834 56.5879 31.834 56.2363C31.834 55.8965 31.9004 55.5977 32.0332 55.3398C32.166 55.0781 32.3574 54.8613 32.6074 54.6895C32.8574 54.5137 33.1582 54.3809 33.5098 54.291C33.8613 54.2012 34.2539 54.1562 34.6875 54.1562H35.9473ZM39.7266 51.6602V58H38.6367V51.6602H39.7266ZM38.5547 49.9785C38.5547 49.8027 38.6074 49.6543 38.7129 49.5332C38.8223 49.4121 38.9824 49.3516 39.1934 49.3516C39.4004 49.3516 39.5586 49.4121 39.668 49.5332C39.7812 49.6543 39.8379 49.8027 39.8379 49.9785C39.8379 50.1465 39.7812 50.291 39.668 50.4121C39.5586 50.5293 39.4004 50.5879 39.1934 50.5879C38.9824 50.5879 38.8223 50.5293 38.7129 50.4121C38.6074 50.291 38.5547 50.1465 38.5547 49.9785ZM42.5508 53.0137V58H41.4668V51.6602H42.4922L42.5508 53.0137ZM42.293 54.5898L41.8418 54.5723C41.8457 54.1387 41.9102 53.7383 42.0352 53.3711C42.1602 53 42.3359 52.6777 42.5625 52.4043C42.7891 52.1309 43.0586 51.9199 43.3711 51.7715C43.6875 51.6191 44.0371 51.543 44.4199 51.543C44.7324 51.543 45.0137 51.5859 45.2637 51.6719C45.5137 51.7539 45.7266 51.8867 45.9023 52.0703C46.082 52.2539 46.2188 52.4922 46.3125 52.7852C46.4062 53.0742 46.4531 53.4277 46.4531 53.8457V58H45.3633V53.834C45.3633 53.502 45.3145 53.2363 45.2168 53.0371C45.1191 52.834 44.9766 52.6875 44.7891 52.5977C44.6016 52.5039 44.3711 52.457 44.0977 52.457C43.8281 52.457 43.582 52.5137 43.3594 52.627C43.1406 52.7402 42.9512 52.8965 42.791 53.0957C42.6348 53.2949 42.5117 53.5234 42.4219 53.7812C42.3359 54.0352 42.293 54.3047 42.293 54.5898ZM50.7305 58.1172C50.2891 58.1172 49.8887 58.043 49.5293 57.8945C49.1738 57.7422 48.8672 57.5293 48.6094 57.2559C48.3555 56.9824 48.1602 56.6582 48.0234 56.2832C47.8867 55.9082 47.8184 55.498 47.8184 55.0527V54.8066C47.8184 54.291 47.8945 53.832 48.0469 53.4297C48.1992 53.0234 48.4062 52.6797 48.668 52.3984C48.9297 52.1172 49.2266 51.9043 49.5586 51.7598C49.8906 51.6152 50.2344 51.543 50.5898 51.543C51.043 51.543 51.4336 51.6211 51.7617 51.7773C52.0938 51.9336 52.3652 52.1523 52.5762 52.4336C52.7871 52.7109 52.9434 53.0391 53.0449 53.418C53.1465 53.793 53.1973 54.2031 53.1973 54.6484V55.1348H48.4629V54.25H52.1133V54.168C52.0977 53.8867 52.0391 53.6133 51.9375 53.3477C51.8398 53.082 51.6836 52.8633 51.4688 52.6914C51.2539 52.5195 50.9609 52.4336 50.5898 52.4336C50.3438 52.4336 50.1172 52.4863 49.9102 52.5918C49.7031 52.6934 49.5254 52.8457 49.377 53.0488C49.2285 53.252 49.1133 53.5 49.0312 53.793C48.9492 54.0859 48.9082 54.4238 48.9082 54.8066V55.0527C48.9082 55.3535 48.9492 55.6367 49.0312 55.9023C49.1172 56.1641 49.2402 56.3945 49.4004 56.5938C49.5645 56.793 49.7617 56.9492 49.9922 57.0625C50.2266 57.1758 50.4922 57.2324 50.7891 57.2324C51.1719 57.2324 51.4961 57.1543 51.7617 56.998C52.0273 56.8418 52.2598 56.6328 52.459 56.3711L53.1152 56.8926C52.9785 57.0996 52.8047 57.2969 52.5938 57.4844C52.3828 57.6719 52.123 57.8242 51.8145 57.9414C51.5098 58.0586 51.1484 58.1172 50.7305 58.1172ZM57.0938 58.1172C56.6523 58.1172 56.252 58.043 55.8926 57.8945C55.5371 57.7422 55.2305 57.5293 54.9727 57.2559C54.7188 56.9824 54.5234 56.6582 54.3867 56.2832C54.25 55.9082 54.1816 55.498 54.1816 55.0527V54.8066C54.1816 54.291 54.2578 53.832 54.4102 53.4297C54.5625 53.0234 54.7695 52.6797 55.0312 52.3984C55.293 52.1172 55.5898 51.9043 55.9219 51.7598C56.2539 51.6152 56.5977 51.543 56.9531 51.543C57.4062 51.543 57.7969 51.6211 58.125 51.7773C58.457 51.9336 58.7285 52.1523 58.9395 52.4336C59.1504 52.7109 59.3066 53.0391 59.4082 53.418C59.5098 53.793 59.5605 54.2031 59.5605 54.6484V55.1348H54.8262V54.25H58.4766V54.168C58.4609 53.8867 58.4023 53.6133 58.3008 53.3477C58.2031 53.082 58.0469 52.8633 57.832 52.6914C57.6172 52.5195 57.3242 52.4336 56.9531 52.4336C56.707 52.4336 56.4805 52.4863 56.2734 52.5918C56.0664 52.6934 55.8887 52.8457 55.7402 53.0488C55.5918 53.252 55.4766 53.5 55.3945 53.793C55.3125 54.0859 55.2715 54.4238 55.2715 54.8066V55.0527C55.2715 55.3535 55.3125 55.6367 55.3945 55.9023C55.4805 56.1641 55.6035 56.3945 55.7637 56.5938C55.9277 56.793 56.125 56.9492 56.3555 57.0625C56.5898 57.1758 56.8555 57.2324 57.1523 57.2324C57.5352 57.2324 57.8594 57.1543 58.125 56.998C58.3906 56.8418 58.623 56.6328 58.8223 56.3711L59.4785 56.8926C59.3418 57.0996 59.168 57.2969 58.957 57.4844C58.7461 57.6719 58.4863 57.8242 58.1777 57.9414C57.873 58.0586 57.5117 58.1172 57.0938 58.1172Z" fill="#414141"/>
<path d="M13.1836 87.4688V88.0781L9.65039 96H8.50781L12.0352 88.3594H7.41797V87.4688H13.1836ZM15.791 91.9395L14.9238 91.7168L15.3516 87.4688H19.7285V88.4707H16.2715L16.0137 90.791C16.1699 90.7012 16.3672 90.6172 16.6055 90.5391C16.8477 90.4609 17.125 90.4219 17.4375 90.4219C17.832 90.4219 18.1855 90.4902 18.498 90.627C18.8105 90.7598 19.0762 90.9512 19.2949 91.2012C19.5176 91.4512 19.6875 91.752 19.8047 92.1035C19.9219 92.4551 19.9805 92.8477 19.9805 93.2812C19.9805 93.6914 19.9238 94.0684 19.8105 94.4121C19.7012 94.7559 19.5352 95.0566 19.3125 95.3145C19.0898 95.5684 18.8086 95.7656 18.4688 95.9062C18.1328 96.0469 17.7363 96.1172 17.2793 96.1172C16.9355 96.1172 16.6094 96.0703 16.3008 95.9766C15.9961 95.8789 15.7227 95.7324 15.4805 95.5371C15.2422 95.3379 15.0469 95.0918 14.8945 94.7988C14.7461 94.502 14.6523 94.1543 14.6133 93.7559H15.6445C15.6914 94.0762 15.7852 94.3457 15.9258 94.5645C16.0664 94.7832 16.25 94.9492 16.4766 95.0625C16.707 95.1719 16.9746 95.2266 17.2793 95.2266C17.5371 95.2266 17.7656 95.1816 17.9648 95.0918C18.1641 95.002 18.332 94.873 18.4688 94.7051C18.6055 94.5371 18.709 94.334 18.7793 94.0957C18.8535 93.8574 18.8906 93.5898 18.8906 93.293C18.8906 93.0234 18.8535 92.7734 18.7793 92.543C18.7051 92.3125 18.5938 92.1113 18.4453 91.9395C18.3008 91.7676 18.123 91.6348 17.9121 91.541C17.7012 91.4434 17.459 91.3945 17.1855 91.3945C16.8223 91.3945 16.5469 91.4434 16.3594 91.541C16.1758 91.6387 15.9863 91.7715 15.791 91.9395ZM26.918 89.6602V90.4922H23.4902V89.6602H26.918ZM24.6504 88.1191H25.7344V94.4297C25.7344 94.6445 25.7676 94.8066 25.834 94.916C25.9004 95.0254 25.9863 95.0977 26.0918 95.1328C26.1973 95.168 26.3105 95.1855 26.4316 95.1855C26.5215 95.1855 26.6152 95.1777 26.7129 95.1621C26.8145 95.1426 26.8906 95.127 26.9414 95.1152L26.9473 96C26.8613 96.0273 26.748 96.0527 26.6074 96.0762C26.4707 96.1035 26.3047 96.1172 26.1094 96.1172C25.8438 96.1172 25.5996 96.0645 25.377 95.959C25.1543 95.8535 24.9766 95.6777 24.8438 95.4316C24.7148 95.1816 24.6504 94.8457 24.6504 94.4238V88.1191ZM29.2734 90.6562V96H28.1895V89.6602H29.2441L29.2734 90.6562ZM31.2539 89.625L31.248 90.6328C31.1582 90.6133 31.0723 90.6016 30.9902 90.5977C30.9121 90.5898 30.8223 90.5859 30.7207 90.5859C30.4707 90.5859 30.25 90.625 30.0586 90.7031C29.8672 90.7812 29.7051 90.8906 29.5723 91.0312C29.4395 91.1719 29.334 91.3398 29.2559 91.5352C29.1816 91.7266 29.1328 91.9375 29.1094 92.168L28.8047 92.3438C28.8047 91.9609 28.8418 91.6016 28.916 91.2656C28.9941 90.9297 29.1133 90.6328 29.2734 90.375C29.4336 90.1133 29.6367 89.9102 29.8828 89.7656C30.1328 89.6172 30.4297 89.543 30.7734 89.543C30.8516 89.543 30.9414 89.5527 31.043 89.5723C31.1445 89.5879 31.2148 89.6055 31.2539 89.625ZM35.7598 94.916V91.6523C35.7598 91.4023 35.709 91.1855 35.6074 91.002C35.5098 90.8145 35.3613 90.6699 35.1621 90.5684C34.9629 90.4668 34.7168 90.416 34.4238 90.416C34.1504 90.416 33.9102 90.4629 33.7031 90.5566C33.5 90.6504 33.3398 90.7734 33.2227 90.9258C33.1094 91.0781 33.0527 91.2422 33.0527 91.418H31.9688C31.9688 91.1914 32.0273 90.9668 32.1445 90.7441C32.2617 90.5215 32.4297 90.3203 32.6484 90.1406C32.8711 89.957 33.1367 89.8125 33.4453 89.707C33.7578 89.5977 34.1055 89.543 34.4883 89.543C34.9492 89.543 35.3555 89.6211 35.707 89.7773C36.0625 89.9336 36.3398 90.1699 36.5391 90.4863C36.7422 90.7988 36.8438 91.1914 36.8438 91.6641V94.6172C36.8438 94.8281 36.8613 95.0527 36.8965 95.291C36.9355 95.5293 36.9922 95.7344 37.0664 95.9062V96H35.9355C35.8809 95.875 35.8379 95.709 35.8066 95.502C35.7754 95.291 35.7598 95.0957 35.7598 94.916ZM35.9473 92.1562L35.959 92.918H34.8633C34.5547 92.918 34.2793 92.9434 34.0371 92.9941C33.7949 93.041 33.5918 93.1133 33.4277 93.2109C33.2637 93.3086 33.1387 93.4316 33.0527 93.5801C32.9668 93.7246 32.9238 93.8945 32.9238 94.0898C32.9238 94.2891 32.9688 94.4707 33.0586 94.6348C33.1484 94.7988 33.2832 94.9297 33.4629 95.0273C33.6465 95.1211 33.8711 95.168 34.1367 95.168C34.4688 95.168 34.7617 95.0977 35.0156 94.957C35.2695 94.8164 35.4707 94.6445 35.6191 94.4414C35.7715 94.2383 35.8535 94.041 35.8652 93.8496L36.3281 94.3711C36.3008 94.5352 36.2266 94.7168 36.1055 94.916C35.9844 95.1152 35.8223 95.3066 35.6191 95.4902C35.4199 95.6699 35.1816 95.8203 34.9043 95.9414C34.6309 96.0586 34.3223 96.1172 33.9785 96.1172C33.5488 96.1172 33.1719 96.0332 32.8477 95.8652C32.5273 95.6973 32.2773 95.4727 32.0977 95.1914C31.9219 94.9062 31.834 94.5879 31.834 94.2363C31.834 93.8965 31.9004 93.5977 32.0332 93.3398C32.166 93.0781 32.3574 92.8613 32.6074 92.6895C32.8574 92.5137 33.1582 92.3809 33.5098 92.291C33.8613 92.2012 34.2539 92.1562 34.6875 92.1562H35.9473ZM39.7266 89.6602V96H38.6367V89.6602H39.7266ZM38.5547 87.9785C38.5547 87.8027 38.6074 87.6543 38.7129 87.5332C38.8223 87.4121 38.9824 87.3516 39.1934 87.3516C39.4004 87.3516 39.5586 87.4121 39.668 87.5332C39.7812 87.6543 39.8379 87.8027 39.8379 87.9785C39.8379 88.1465 39.7812 88.291 39.668 88.4121C39.5586 88.5293 39.4004 88.5879 39.1934 88.5879C38.9824 88.5879 38.8223 88.5293 38.7129 88.4121C38.6074 88.291 38.5547 88.1465 38.5547 87.9785ZM42.5508 91.0137V96H41.4668V89.6602H42.4922L42.5508 91.0137ZM42.293 92.5898L41.8418 92.5723C41.8457 92.1387 41.9102 91.7383 42.0352 91.3711C42.1602 91 42.3359 90.6777 42.5625 90.4043C42.7891 90.1309 43.0586 89.9199 43.3711 89.7715C43.6875 89.6191 44.0371 89.543 44.4199 89.543C44.7324 89.543 45.0137 89.5859 45.2637 89.6719C45.5137 89.7539 45.7266 89.8867 45.9023 90.0703C46.082 90.2539 46.2188 90.4922 46.3125 90.7852C46.4062 91.0742 46.4531 91.4277 46.4531 91.8457V96H45.3633V91.834C45.3633 91.502 45.3145 91.2363 45.2168 91.0371C45.1191 90.834 44.9766 90.6875 44.7891 90.5977C44.6016 90.5039 44.3711 90.457 44.0977 90.457C43.8281 90.457 43.582 90.5137 43.3594 90.627C43.1406 90.7402 42.9512 90.8965 42.791 91.0957C42.6348 91.2949 42.5117 91.5234 42.4219 91.7812C42.3359 92.0352 42.293 92.3047 42.293 92.5898ZM50.7305 96.1172C50.2891 96.1172 49.8887 96.043 49.5293 95.8945C49.1738 95.7422 48.8672 95.5293 48.6094 95.2559C48.3555 94.9824 48.1602 94.6582 48.0234 94.2832C47.8867 93.9082 47.8184 93.498 47.8184 93.0527V92.8066C47.8184 92.291 47.8945 91.832 48.0469 91.4297C48.1992 91.0234 48.4062 90.6797 48.668 90.3984C48.9297 90.1172 49.2266 89.9043 49.5586 89.7598C49.8906 89.6152 50.2344 89.543 50.5898 89.543C51.043 89.543 51.4336 89.6211 51.7617 89.7773C52.0938 89.9336 52.3652 90.1523 52.5762 90.4336C52.7871 90.7109 52.9434 91.0391 53.0449 91.418C53.1465 91.793 53.1973 92.2031 53.1973 92.6484V93.1348H48.4629V92.25H52.1133V92.168C52.0977 91.8867 52.0391 91.6133 51.9375 91.3477C51.8398 91.082 51.6836 90.8633 51.4688 90.6914C51.2539 90.5195 50.9609 90.4336 50.5898 90.4336C50.3438 90.4336 50.1172 90.4863 49.9102 90.5918C49.7031 90.6934 49.5254 90.8457 49.377 91.0488C49.2285 91.252 49.1133 91.5 49.0312 91.793C48.9492 92.0859 48.9082 92.4238 48.9082 92.8066V93.0527C48.9082 93.3535 48.9492 93.6367 49.0312 93.9023C49.1172 94.1641 49.2402 94.3945 49.4004 94.5938C49.5645 94.793 49.7617 94.9492 49.9922 95.0625C50.2266 95.1758 50.4922 95.2324 50.7891 95.2324C51.1719 95.2324 51.4961 95.1543 51.7617 94.998C52.0273 94.8418 52.2598 94.6328 52.459 94.3711L53.1152 94.8926C52.9785 95.0996 52.8047 95.2969 52.5938 95.4844C52.3828 95.6719 52.123 95.8242 51.8145 95.9414C51.5098 96.0586 51.1484 96.1172 50.7305 96.1172ZM57.0938 96.1172C56.6523 96.1172 56.252 96.043 55.8926 95.8945C55.5371 95.7422 55.2305 95.5293 54.9727 95.2559C54.7188 94.9824 54.5234 94.6582 54.3867 94.2832C54.25 93.9082 54.1816 93.498 54.1816 93.0527V92.8066C54.1816 92.291 54.2578 91.832 54.4102 91.4297C54.5625 91.0234 54.7695 90.6797 55.0312 90.3984C55.293 90.1172 55.5898 89.9043 55.9219 89.7598C56.2539 89.6152 56.5977 89.543 56.9531 89.543C57.4062 89.543 57.7969 89.6211 58.125 89.7773C58.457 89.9336 58.7285 90.1523 58.9395 90.4336C59.1504 90.7109 59.3066 91.0391 59.4082 91.418C59.5098 91.793 59.5605 92.2031 59.5605 92.6484V93.1348H54.8262V92.25H58.4766V92.168C58.4609 91.8867 58.4023 91.6133 58.3008 91.3477C58.2031 91.082 58.0469 90.8633 57.832 90.6914C57.6172 90.5195 57.3242 90.4336 56.9531 90.4336C56.707 90.4336 56.4805 90.4863 56.2734 90.5918C56.0664 90.6934 55.8887 90.8457 55.7402 91.0488C55.5918 91.252 55.4766 91.5 55.3945 91.793C55.3125 92.0859 55.2715 92.4238 55.2715 92.8066V93.0527C55.2715 93.3535 55.3125 93.6367 55.3945 93.9023C55.4805 94.1641 55.6035 94.3945 55.7637 94.5938C55.9277 94.793 56.125 94.9492 56.3555 95.0625C56.5898 95.1758 56.8555 95.2324 57.1523 95.2324C57.5352 95.2324 57.8594 95.1543 58.125 94.998C58.3906 94.8418 58.623 94.6328 58.8223 94.3711L59.4785 94.8926C59.3418 95.0996 59.168 95.2969 58.957 95.4844C58.7461 95.6719 58.4863 95.8242 58.1777 95.9414C57.873 96.0586 57.5117 96.1172 57.0938 96.1172Z" fill="#414141"/>
<path d="M9.04102 128.939L8.17383 128.717L8.60156 124.469H12.9785V125.471H9.52148L9.26367 127.791C9.41992 127.701 9.61719 127.617 9.85547 127.539C10.0977 127.461 10.375 127.422 10.6875 127.422C11.082 127.422 11.4355 127.49 11.748 127.627C12.0605 127.76 12.3262 127.951 12.5449 128.201C12.7676 128.451 12.9375 128.752 13.0547 129.104C13.1719 129.455 13.2305 129.848 13.2305 130.281C13.2305 130.691 13.1738 131.068 13.0605 131.412C12.9512 131.756 12.7852 132.057 12.5625 132.314C12.3398 132.568 12.0586 132.766 11.7188 132.906C11.3828 133.047 10.9863 133.117 10.5293 133.117C10.1855 133.117 9.85938 133.07 9.55078 132.977C9.24609 132.879 8.97266 132.732 8.73047 132.537C8.49219 132.338 8.29688 132.092 8.14453 131.799C7.99609 131.502 7.90234 131.154 7.86328 130.756H8.89453C8.94141 131.076 9.03516 131.346 9.17578 131.564C9.31641 131.783 9.5 131.949 9.72656 132.062C9.95703 132.172 10.2246 132.227 10.5293 132.227C10.7871 132.227 11.0156 132.182 11.2148 132.092C11.4141 132.002 11.582 131.873 11.7188 131.705C11.8555 131.537 11.959 131.334 12.0293 131.096C12.1035 130.857 12.1406 130.59 12.1406 130.293C12.1406 130.023 12.1035 129.773 12.0293 129.543C11.9551 129.312 11.8438 129.111 11.6953 128.939C11.5508 128.768 11.373 128.635 11.1621 128.541C10.9512 128.443 10.709 128.395 10.4355 128.395C10.0723 128.395 9.79688 128.443 9.60938 128.541C9.42578 128.639 9.23633 128.771 9.04102 128.939ZM19.7754 128.055V129.355C19.7754 130.055 19.7129 130.645 19.5879 131.125C19.4629 131.605 19.2832 131.992 19.0488 132.285C18.8145 132.578 18.5312 132.791 18.1992 132.924C17.8711 133.053 17.5 133.117 17.0859 133.117C16.7578 133.117 16.4551 133.076 16.1777 132.994C15.9004 132.912 15.6504 132.781 15.4277 132.602C15.209 132.418 15.0215 132.18 14.8652 131.887C14.709 131.594 14.5898 131.238 14.5078 130.82C14.4258 130.402 14.3848 129.914 14.3848 129.355V128.055C14.3848 127.355 14.4473 126.77 14.5723 126.297C14.7012 125.824 14.8828 125.445 15.1172 125.16C15.3516 124.871 15.6328 124.664 15.9609 124.539C16.293 124.414 16.6641 124.352 17.0742 124.352C17.4062 124.352 17.7109 124.393 17.9883 124.475C18.2695 124.553 18.5195 124.68 18.7383 124.855C18.957 125.027 19.1426 125.258 19.2949 125.547C19.4512 125.832 19.5703 126.182 19.6523 126.596C19.7344 127.01 19.7754 127.496 19.7754 128.055ZM18.6855 129.531V127.873C18.6855 127.49 18.6621 127.154 18.6152 126.865C18.5723 126.572 18.5078 126.322 18.4219 126.115C18.3359 125.908 18.2266 125.74 18.0938 125.611C17.9648 125.482 17.8145 125.389 17.6426 125.33C17.4746 125.268 17.2852 125.236 17.0742 125.236C16.8164 125.236 16.5879 125.285 16.3887 125.383C16.1895 125.477 16.0215 125.627 15.8848 125.834C15.752 126.041 15.6504 126.312 15.5801 126.648C15.5098 126.984 15.4746 127.393 15.4746 127.873V129.531C15.4746 129.914 15.4961 130.252 15.5391 130.545C15.5859 130.838 15.6543 131.092 15.7441 131.307C15.834 131.518 15.9434 131.691 16.0723 131.828C16.2012 131.965 16.3496 132.066 16.5176 132.133C16.6895 132.195 16.8789 132.227 17.0859 132.227C17.3516 132.227 17.584 132.176 17.7832 132.074C17.9824 131.973 18.1484 131.814 18.2812 131.6C18.418 131.381 18.5195 131.102 18.5859 130.762C18.6523 130.418 18.6855 130.008 18.6855 129.531ZM26.918 126.66V127.492H23.4902V126.66H26.918ZM24.6504 125.119H25.7344V131.43C25.7344 131.645 25.7676 131.807 25.834 131.916C25.9004 132.025 25.9863 132.098 26.0918 132.133C26.1973 132.168 26.3105 132.186 26.4316 132.186C26.5215 132.186 26.6152 132.178 26.7129 132.162C26.8145 132.143 26.8906 132.127 26.9414 132.115L26.9473 133C26.8613 133.027 26.748 133.053 26.6074 133.076C26.4707 133.104 26.3047 133.117 26.1094 133.117C25.8438 133.117 25.5996 133.064 25.377 132.959C25.1543 132.854 24.9766 132.678 24.8438 132.432C24.7148 132.182 24.6504 131.846 24.6504 131.424V125.119ZM29.2734 127.656V133H28.1895V126.66H29.2441L29.2734 127.656ZM31.2539 126.625L31.248 127.633C31.1582 127.613 31.0723 127.602 30.9902 127.598C30.9121 127.59 30.8223 127.586 30.7207 127.586C30.4707 127.586 30.25 127.625 30.0586 127.703C29.8672 127.781 29.7051 127.891 29.5723 128.031C29.4395 128.172 29.334 128.34 29.2559 128.535C29.1816 128.727 29.1328 128.938 29.1094 129.168L28.8047 129.344C28.8047 128.961 28.8418 128.602 28.916 128.266C28.9941 127.93 29.1133 127.633 29.2734 127.375C29.4336 127.113 29.6367 126.91 29.8828 126.766C30.1328 126.617 30.4297 126.543 30.7734 126.543C30.8516 126.543 30.9414 126.553 31.043 126.572C31.1445 126.588 31.2148 126.605 31.2539 126.625ZM35.7598 131.916V128.652C35.7598 128.402 35.709 128.186 35.6074 128.002C35.5098 127.814 35.3613 127.67 35.1621 127.568C34.9629 127.467 34.7168 127.416 34.4238 127.416C34.1504 127.416 33.9102 127.463 33.7031 127.557C33.5 127.65 33.3398 127.773 33.2227 127.926C33.1094 128.078 33.0527 128.242 33.0527 128.418H31.9688C31.9688 128.191 32.0273 127.967 32.1445 127.744C32.2617 127.521 32.4297 127.32 32.6484 127.141C32.8711 126.957 33.1367 126.812 33.4453 126.707C33.7578 126.598 34.1055 126.543 34.4883 126.543C34.9492 126.543 35.3555 126.621 35.707 126.777C36.0625 126.934 36.3398 127.17 36.5391 127.486C36.7422 127.799 36.8438 128.191 36.8438 128.664V131.617C36.8438 131.828 36.8613 132.053 36.8965 132.291C36.9355 132.529 36.9922 132.734 37.0664 132.906V133H35.9355C35.8809 132.875 35.8379 132.709 35.8066 132.502C35.7754 132.291 35.7598 132.096 35.7598 131.916ZM35.9473 129.156L35.959 129.918H34.8633C34.5547 129.918 34.2793 129.943 34.0371 129.994C33.7949 130.041 33.5918 130.113 33.4277 130.211C33.2637 130.309 33.1387 130.432 33.0527 130.58C32.9668 130.725 32.9238 130.895 32.9238 131.09C32.9238 131.289 32.9688 131.471 33.0586 131.635C33.1484 131.799 33.2832 131.93 33.4629 132.027C33.6465 132.121 33.8711 132.168 34.1367 132.168C34.4688 132.168 34.7617 132.098 35.0156 131.957C35.2695 131.816 35.4707 131.645 35.6191 131.441C35.7715 131.238 35.8535 131.041 35.8652 130.85L36.3281 131.371C36.3008 131.535 36.2266 131.717 36.1055 131.916C35.9844 132.115 35.8223 132.307 35.6191 132.49C35.4199 132.67 35.1816 132.82 34.9043 132.941C34.6309 133.059 34.3223 133.117 33.9785 133.117C33.5488 133.117 33.1719 133.033 32.8477 132.865C32.5273 132.697 32.2773 132.473 32.0977 132.191C31.9219 131.906 31.834 131.588 31.834 131.236C31.834 130.896 31.9004 130.598 32.0332 130.34C32.166 130.078 32.3574 129.861 32.6074 129.689C32.8574 129.514 33.1582 129.381 33.5098 129.291C33.8613 129.201 34.2539 129.156 34.6875 129.156H35.9473ZM39.7266 126.66V133H38.6367V126.66H39.7266ZM38.5547 124.979C38.5547 124.803 38.6074 124.654 38.7129 124.533C38.8223 124.412 38.9824 124.352 39.1934 124.352C39.4004 124.352 39.5586 124.412 39.668 124.533C39.7812 124.654 39.8379 124.803 39.8379 124.979C39.8379 125.146 39.7812 125.291 39.668 125.412C39.5586 125.529 39.4004 125.588 39.1934 125.588C38.9824 125.588 38.8223 125.529 38.7129 125.412C38.6074 125.291 38.5547 125.146 38.5547 124.979ZM42.5508 128.014V133H41.4668V126.66H42.4922L42.5508 128.014ZM42.293 129.59L41.8418 129.572C41.8457 129.139 41.9102 128.738 42.0352 128.371C42.1602 128 42.3359 127.678 42.5625 127.404C42.7891 127.131 43.0586 126.92 43.3711 126.771C43.6875 126.619 44.0371 126.543 44.4199 126.543C44.7324 126.543 45.0137 126.586 45.2637 126.672C45.5137 126.754 45.7266 126.887 45.9023 127.07C46.082 127.254 46.2188 127.492 46.3125 127.785C46.4062 128.074 46.4531 128.428 46.4531 128.846V133H45.3633V128.834C45.3633 128.502 45.3145 128.236 45.2168 128.037C45.1191 127.834 44.9766 127.688 44.7891 127.598C44.6016 127.504 44.3711 127.457 44.0977 127.457C43.8281 127.457 43.582 127.514 43.3594 127.627C43.1406 127.74 42.9512 127.896 42.791 128.096C42.6348 128.295 42.5117 128.523 42.4219 128.781C42.3359 129.035 42.293 129.305 42.293 129.59ZM50.7305 133.117C50.2891 133.117 49.8887 133.043 49.5293 132.895C49.1738 132.742 48.8672 132.529 48.6094 132.256C48.3555 131.982 48.1602 131.658 48.0234 131.283C47.8867 130.908 47.8184 130.498 47.8184 130.053V129.807C47.8184 129.291 47.8945 128.832 48.0469 128.43C48.1992 128.023 48.4062 127.68 48.668 127.398C48.9297 127.117 49.2266 126.904 49.5586 126.76C49.8906 126.615 50.2344 126.543 50.5898 126.543C51.043 126.543 51.4336 126.621 51.7617 126.777C52.0938 126.934 52.3652 127.152 52.5762 127.434C52.7871 127.711 52.9434 128.039 53.0449 128.418C53.1465 128.793 53.1973 129.203 53.1973 129.648V130.135H48.4629V129.25H52.1133V129.168C52.0977 128.887 52.0391 128.613 51.9375 128.348C51.8398 128.082 51.6836 127.863 51.4688 127.691C51.2539 127.52 50.9609 127.434 50.5898 127.434C50.3438 127.434 50.1172 127.486 49.9102 127.592C49.7031 127.693 49.5254 127.846 49.377 128.049C49.2285 128.252 49.1133 128.5 49.0312 128.793C48.9492 129.086 48.9082 129.424 48.9082 129.807V130.053C48.9082 130.354 48.9492 130.637 49.0312 130.902C49.1172 131.164 49.2402 131.395 49.4004 131.594C49.5645 131.793 49.7617 131.949 49.9922 132.062C50.2266 132.176 50.4922 132.232 50.7891 132.232C51.1719 132.232 51.4961 132.154 51.7617 131.998C52.0273 131.842 52.2598 131.633 52.459 131.371L53.1152 131.893C52.9785 132.1 52.8047 132.297 52.5938 132.484C52.3828 132.672 52.123 132.824 51.8145 132.941C51.5098 133.059 51.1484 133.117 50.7305 133.117ZM57.0938 133.117C56.6523 133.117 56.252 133.043 55.8926 132.895C55.5371 132.742 55.2305 132.529 54.9727 132.256C54.7188 131.982 54.5234 131.658 54.3867 131.283C54.25 130.908 54.1816 130.498 54.1816 130.053V129.807C54.1816 129.291 54.2578 128.832 54.4102 128.43C54.5625 128.023 54.7695 127.68 55.0312 127.398C55.293 127.117 55.5898 126.904 55.9219 126.76C56.2539 126.615 56.5977 126.543 56.9531 126.543C57.4062 126.543 57.7969 126.621 58.125 126.777C58.457 126.934 58.7285 127.152 58.9395 127.434C59.1504 127.711 59.3066 128.039 59.4082 128.418C59.5098 128.793 59.5605 129.203 59.5605 129.648V130.135H54.8262V129.25H58.4766V129.168C58.4609 128.887 58.4023 128.613 58.3008 128.348C58.2031 128.082 58.0469 127.863 57.832 127.691C57.6172 127.52 57.3242 127.434 56.9531 127.434C56.707 127.434 56.4805 127.486 56.2734 127.592C56.0664 127.693 55.8887 127.846 55.7402 128.049C55.5918 128.252 55.4766 128.5 55.3945 128.793C55.3125 129.086 55.2715 129.424 55.2715 129.807V130.053C55.2715 130.354 55.3125 130.637 55.3945 130.902C55.4805 131.164 55.6035 131.395 55.7637 131.594C55.9277 131.793 56.125 131.949 56.3555 132.062C56.5898 132.176 56.8555 132.232 57.1523 132.232C57.5352 132.232 57.8594 132.154 58.125 131.998C58.3906 131.842 58.623 131.633 58.8223 131.371L59.4785 131.893C59.3418 132.1 59.168 132.297 58.957 132.484C58.7461 132.672 58.4863 132.824 58.1777 132.941C57.873 133.059 57.5117 133.117 57.0938 133.117Z" fill="#414141"/>
<path d="M13.2598 169.109V170H7.67578V169.221L10.4707 166.109C10.8145 165.727 11.0801 165.402 11.2676 165.137C11.459 164.867 11.5918 164.627 11.666 164.416C11.7441 164.201 11.7832 163.982 11.7832 163.76C11.7832 163.479 11.7246 163.225 11.6074 162.998C11.4941 162.768 11.3262 162.584 11.1035 162.447C10.8809 162.311 10.6113 162.242 10.2949 162.242C9.91602 162.242 9.59961 162.316 9.3457 162.465C9.0957 162.609 8.9082 162.812 8.7832 163.074C8.6582 163.336 8.5957 163.637 8.5957 163.977H7.51172C7.51172 163.496 7.61719 163.057 7.82812 162.658C8.03906 162.26 8.35156 161.943 8.76562 161.709C9.17969 161.471 9.68945 161.352 10.2949 161.352C10.834 161.352 11.2949 161.447 11.6777 161.639C12.0605 161.826 12.3535 162.092 12.5566 162.436C12.7637 162.775 12.8672 163.174 12.8672 163.631C12.8672 163.881 12.8242 164.135 12.7383 164.393C12.6562 164.646 12.541 164.9 12.3926 165.154C12.248 165.408 12.0781 165.658 11.8828 165.904C11.6914 166.15 11.4863 166.393 11.2676 166.631L8.98242 169.109H13.2598ZM15.791 165.939L14.9238 165.717L15.3516 161.469H19.7285V162.471H16.2715L16.0137 164.791C16.1699 164.701 16.3672 164.617 16.6055 164.539C16.8477 164.461 17.125 164.422 17.4375 164.422C17.832 164.422 18.1855 164.49 18.498 164.627C18.8105 164.76 19.0762 164.951 19.2949 165.201C19.5176 165.451 19.6875 165.752 19.8047 166.104C19.9219 166.455 19.9805 166.848 19.9805 167.281C19.9805 167.691 19.9238 168.068 19.8105 168.412C19.7012 168.756 19.5352 169.057 19.3125 169.314C19.0898 169.568 18.8086 169.766 18.4688 169.906C18.1328 170.047 17.7363 170.117 17.2793 170.117C16.9355 170.117 16.6094 170.07 16.3008 169.977C15.9961 169.879 15.7227 169.732 15.4805 169.537C15.2422 169.338 15.0469 169.092 14.8945 168.799C14.7461 168.502 14.6523 168.154 14.6133 167.756H15.6445C15.6914 168.076 15.7852 168.346 15.9258 168.564C16.0664 168.783 16.25 168.949 16.4766 169.062C16.707 169.172 16.9746 169.227 17.2793 169.227C17.5371 169.227 17.7656 169.182 17.9648 169.092C18.1641 169.002 18.332 168.873 18.4688 168.705C18.6055 168.537 18.709 168.334 18.7793 168.096C18.8535 167.857 18.8906 167.59 18.8906 167.293C18.8906 167.023 18.8535 166.773 18.7793 166.543C18.7051 166.312 18.5938 166.111 18.4453 165.939C18.3008 165.768 18.123 165.635 17.9121 165.541C17.7012 165.443 17.459 165.395 17.1855 165.395C16.8223 165.395 16.5469 165.443 16.3594 165.541C16.1758 165.639 15.9863 165.771 15.791 165.939ZM26.918 163.66V164.492H23.4902V163.66H26.918ZM24.6504 162.119H25.7344V168.43C25.7344 168.645 25.7676 168.807 25.834 168.916C25.9004 169.025 25.9863 169.098 26.0918 169.133C26.1973 169.168 26.3105 169.186 26.4316 169.186C26.5215 169.186 26.6152 169.178 26.7129 169.162C26.8145 169.143 26.8906 169.127 26.9414 169.115L26.9473 170C26.8613 170.027 26.748 170.053 26.6074 170.076C26.4707 170.104 26.3047 170.117 26.1094 170.117C25.8438 170.117 25.5996 170.064 25.377 169.959C25.1543 169.854 24.9766 169.678 24.8438 169.432C24.7148 169.182 24.6504 168.846 24.6504 168.424V162.119ZM29.2734 164.656V170H28.1895V163.66H29.2441L29.2734 164.656ZM31.2539 163.625L31.248 164.633C31.1582 164.613 31.0723 164.602 30.9902 164.598C30.9121 164.59 30.8223 164.586 30.7207 164.586C30.4707 164.586 30.25 164.625 30.0586 164.703C29.8672 164.781 29.7051 164.891 29.5723 165.031C29.4395 165.172 29.334 165.34 29.2559 165.535C29.1816 165.727 29.1328 165.938 29.1094 166.168L28.8047 166.344C28.8047 165.961 28.8418 165.602 28.916 165.266C28.9941 164.93 29.1133 164.633 29.2734 164.375C29.4336 164.113 29.6367 163.91 29.8828 163.766C30.1328 163.617 30.4297 163.543 30.7734 163.543C30.8516 163.543 30.9414 163.553 31.043 163.572C31.1445 163.588 31.2148 163.605 31.2539 163.625ZM35.7598 168.916V165.652C35.7598 165.402 35.709 165.186 35.6074 165.002C35.5098 164.814 35.3613 164.67 35.1621 164.568C34.9629 164.467 34.7168 164.416 34.4238 164.416C34.1504 164.416 33.9102 164.463 33.7031 164.557C33.5 164.65 33.3398 164.773 33.2227 164.926C33.1094 165.078 33.0527 165.242 33.0527 165.418H31.9688C31.9688 165.191 32.0273 164.967 32.1445 164.744C32.2617 164.521 32.4297 164.32 32.6484 164.141C32.8711 163.957 33.1367 163.812 33.4453 163.707C33.7578 163.598 34.1055 163.543 34.4883 163.543C34.9492 163.543 35.3555 163.621 35.707 163.777C36.0625 163.934 36.3398 164.17 36.5391 164.486C36.7422 164.799 36.8438 165.191 36.8438 165.664V168.617C36.8438 168.828 36.8613 169.053 36.8965 169.291C36.9355 169.529 36.9922 169.734 37.0664 169.906V170H35.9355C35.8809 169.875 35.8379 169.709 35.8066 169.502C35.7754 169.291 35.7598 169.096 35.7598 168.916ZM35.9473 166.156L35.959 166.918H34.8633C34.5547 166.918 34.2793 166.943 34.0371 166.994C33.7949 167.041 33.5918 167.113 33.4277 167.211C33.2637 167.309 33.1387 167.432 33.0527 167.58C32.9668 167.725 32.9238 167.895 32.9238 168.09C32.9238 168.289 32.9688 168.471 33.0586 168.635C33.1484 168.799 33.2832 168.93 33.4629 169.027C33.6465 169.121 33.8711 169.168 34.1367 169.168C34.4688 169.168 34.7617 169.098 35.0156 168.957C35.2695 168.816 35.4707 168.645 35.6191 168.441C35.7715 168.238 35.8535 168.041 35.8652 167.85L36.3281 168.371C36.3008 168.535 36.2266 168.717 36.1055 168.916C35.9844 169.115 35.8223 169.307 35.6191 169.49C35.4199 169.67 35.1816 169.82 34.9043 169.941C34.6309 170.059 34.3223 170.117 33.9785 170.117C33.5488 170.117 33.1719 170.033 32.8477 169.865C32.5273 169.697 32.2773 169.473 32.0977 169.191C31.9219 168.906 31.834 168.588 31.834 168.236C31.834 167.896 31.9004 167.598 32.0332 167.34C32.166 167.078 32.3574 166.861 32.6074 166.689C32.8574 166.514 33.1582 166.381 33.5098 166.291C33.8613 166.201 34.2539 166.156 34.6875 166.156H35.9473ZM39.7266 163.66V170H38.6367V163.66H39.7266ZM38.5547 161.979C38.5547 161.803 38.6074 161.654 38.7129 161.533C38.8223 161.412 38.9824 161.352 39.1934 161.352C39.4004 161.352 39.5586 161.412 39.668 161.533C39.7812 161.654 39.8379 161.803 39.8379 161.979C39.8379 162.146 39.7812 162.291 39.668 162.412C39.5586 162.529 39.4004 162.588 39.1934 162.588C38.9824 162.588 38.8223 162.529 38.7129 162.412C38.6074 162.291 38.5547 162.146 38.5547 161.979ZM42.5508 165.014V170H41.4668V163.66H42.4922L42.5508 165.014ZM42.293 166.59L41.8418 166.572C41.8457 166.139 41.9102 165.738 42.0352 165.371C42.1602 165 42.3359 164.678 42.5625 164.404C42.7891 164.131 43.0586 163.92 43.3711 163.771C43.6875 163.619 44.0371 163.543 44.4199 163.543C44.7324 163.543 45.0137 163.586 45.2637 163.672C45.5137 163.754 45.7266 163.887 45.9023 164.07C46.082 164.254 46.2188 164.492 46.3125 164.785C46.4062 165.074 46.4531 165.428 46.4531 165.846V170H45.3633V165.834C45.3633 165.502 45.3145 165.236 45.2168 165.037C45.1191 164.834 44.9766 164.688 44.7891 164.598C44.6016 164.504 44.3711 164.457 44.0977 164.457C43.8281 164.457 43.582 164.514 43.3594 164.627C43.1406 164.74 42.9512 164.896 42.791 165.096C42.6348 165.295 42.5117 165.523 42.4219 165.781C42.3359 166.035 42.293 166.305 42.293 166.59ZM50.7305 170.117C50.2891 170.117 49.8887 170.043 49.5293 169.895C49.1738 169.742 48.8672 169.529 48.6094 169.256C48.3555 168.982 48.1602 168.658 48.0234 168.283C47.8867 167.908 47.8184 167.498 47.8184 167.053V166.807C47.8184 166.291 47.8945 165.832 48.0469 165.43C48.1992 165.023 48.4062 164.68 48.668 164.398C48.9297 164.117 49.2266 163.904 49.5586 163.76C49.8906 163.615 50.2344 163.543 50.5898 163.543C51.043 163.543 51.4336 163.621 51.7617 163.777C52.0938 163.934 52.3652 164.152 52.5762 164.434C52.7871 164.711 52.9434 165.039 53.0449 165.418C53.1465 165.793 53.1973 166.203 53.1973 166.648V167.135H48.4629V166.25H52.1133V166.168C52.0977 165.887 52.0391 165.613 51.9375 165.348C51.8398 165.082 51.6836 164.863 51.4688 164.691C51.2539 164.52 50.9609 164.434 50.5898 164.434C50.3438 164.434 50.1172 164.486 49.9102 164.592C49.7031 164.693 49.5254 164.846 49.377 165.049C49.2285 165.252 49.1133 165.5 49.0312 165.793C48.9492 166.086 48.9082 166.424 48.9082 166.807V167.053C48.9082 167.354 48.9492 167.637 49.0312 167.902C49.1172 168.164 49.2402 168.395 49.4004 168.594C49.5645 168.793 49.7617 168.949 49.9922 169.062C50.2266 169.176 50.4922 169.232 50.7891 169.232C51.1719 169.232 51.4961 169.154 51.7617 168.998C52.0273 168.842 52.2598 168.633 52.459 168.371L53.1152 168.893C52.9785 169.1 52.8047 169.297 52.5938 169.484C52.3828 169.672 52.123 169.824 51.8145 169.941C51.5098 170.059 51.1484 170.117 50.7305 170.117ZM57.0938 170.117C56.6523 170.117 56.252 170.043 55.8926 169.895C55.5371 169.742 55.2305 169.529 54.9727 169.256C54.7188 168.982 54.5234 168.658 54.3867 168.283C54.25 167.908 54.1816 167.498 54.1816 167.053V166.807C54.1816 166.291 54.2578 165.832 54.4102 165.43C54.5625 165.023 54.7695 164.68 55.0312 164.398C55.293 164.117 55.5898 163.904 55.9219 163.76C56.2539 163.615 56.5977 163.543 56.9531 163.543C57.4062 163.543 57.7969 163.621 58.125 163.777C58.457 163.934 58.7285 164.152 58.9395 164.434C59.1504 164.711 59.3066 165.039 59.4082 165.418C59.5098 165.793 59.5605 166.203 59.5605 166.648V167.135H54.8262V166.25H58.4766V166.168C58.4609 165.887 58.4023 165.613 58.3008 165.348C58.2031 165.082 58.0469 164.863 57.832 164.691C57.6172 164.52 57.3242 164.434 56.9531 164.434C56.707 164.434 56.4805 164.486 56.2734 164.592C56.0664 164.693 55.8887 164.846 55.7402 165.049C55.5918 165.252 55.4766 165.5 55.3945 165.793C55.3125 166.086 55.2715 166.424 55.2715 166.807V167.053C55.2715 167.354 55.3125 167.637 55.3945 167.902C55.4805 168.164 55.6035 168.395 55.7637 168.594C55.9277 168.793 56.125 168.949 56.3555 169.062C56.5898 169.176 56.8555 169.232 57.1523 169.232C57.5352 169.232 57.8594 169.154 58.125 168.998C58.3906 168.842 58.623 168.633 58.8223 168.371L59.4785 168.893C59.3418 169.1 59.168 169.297 58.957 169.484C58.7461 169.672 58.4863 169.824 58.1777 169.941C57.873 170.059 57.5117 170.117 57.0938 170.117Z" fill="#414141"/>
<path d="M19.7754 202.055V203.355C19.7754 204.055 19.7129 204.645 19.5879 205.125C19.4629 205.605 19.2832 205.992 19.0488 206.285C18.8145 206.578 18.5312 206.791 18.1992 206.924C17.8711 207.053 17.5 207.117 17.0859 207.117C16.7578 207.117 16.4551 207.076 16.1777 206.994C15.9004 206.912 15.6504 206.781 15.4277 206.602C15.209 206.418 15.0215 206.18 14.8652 205.887C14.709 205.594 14.5898 205.238 14.5078 204.82C14.4258 204.402 14.3848 203.914 14.3848 203.355V202.055C14.3848 201.355 14.4473 200.77 14.5723 200.297C14.7012 199.824 14.8828 199.445 15.1172 199.16C15.3516 198.871 15.6328 198.664 15.9609 198.539C16.293 198.414 16.6641 198.352 17.0742 198.352C17.4062 198.352 17.7109 198.393 17.9883 198.475C18.2695 198.553 18.5195 198.68 18.7383 198.855C18.957 199.027 19.1426 199.258 19.2949 199.547C19.4512 199.832 19.5703 200.182 19.6523 200.596C19.7344 201.01 19.7754 201.496 19.7754 202.055ZM18.6855 203.531V201.873C18.6855 201.49 18.6621 201.154 18.6152 200.865C18.5723 200.572 18.5078 200.322 18.4219 200.115C18.3359 199.908 18.2266 199.74 18.0938 199.611C17.9648 199.482 17.8145 199.389 17.6426 199.33C17.4746 199.268 17.2852 199.236 17.0742 199.236C16.8164 199.236 16.5879 199.285 16.3887 199.383C16.1895 199.477 16.0215 199.627 15.8848 199.834C15.752 200.041 15.6504 200.312 15.5801 200.648C15.5098 200.984 15.4746 201.393 15.4746 201.873V203.531C15.4746 203.914 15.4961 204.252 15.5391 204.545C15.5859 204.838 15.6543 205.092 15.7441 205.307C15.834 205.518 15.9434 205.691 16.0723 205.828C16.2012 205.965 16.3496 206.066 16.5176 206.133C16.6895 206.195 16.8789 206.227 17.0859 206.227C17.3516 206.227 17.584 206.176 17.7832 206.074C17.9824 205.973 18.1484 205.814 18.2812 205.6C18.418 205.381 18.5195 205.102 18.5859 204.762C18.6523 204.418 18.6855 204.008 18.6855 203.531ZM26.918 200.66V201.492H23.4902V200.66H26.918ZM24.6504 199.119H25.7344V205.43C25.7344 205.645 25.7676 205.807 25.834 205.916C25.9004 206.025 25.9863 206.098 26.0918 206.133C26.1973 206.168 26.3105 206.186 26.4316 206.186C26.5215 206.186 26.6152 206.178 26.7129 206.162C26.8145 206.143 26.8906 206.127 26.9414 206.115L26.9473 207C26.8613 207.027 26.748 207.053 26.6074 207.076C26.4707 207.104 26.3047 207.117 26.1094 207.117C25.8438 207.117 25.5996 207.064 25.377 206.959C25.1543 206.854 24.9766 206.678 24.8438 206.432C24.7148 206.182 24.6504 205.846 24.6504 205.424V199.119ZM29.2734 201.656V207H28.1895V200.66H29.2441L29.2734 201.656ZM31.2539 200.625L31.248 201.633C31.1582 201.613 31.0723 201.602 30.9902 201.598C30.9121 201.59 30.8223 201.586 30.7207 201.586C30.4707 201.586 30.25 201.625 30.0586 201.703C29.8672 201.781 29.7051 201.891 29.5723 202.031C29.4395 202.172 29.334 202.34 29.2559 202.535C29.1816 202.727 29.1328 202.938 29.1094 203.168L28.8047 203.344C28.8047 202.961 28.8418 202.602 28.916 202.266C28.9941 201.93 29.1133 201.633 29.2734 201.375C29.4336 201.113 29.6367 200.91 29.8828 200.766C30.1328 200.617 30.4297 200.543 30.7734 200.543C30.8516 200.543 30.9414 200.553 31.043 200.572C31.1445 200.588 31.2148 200.605 31.2539 200.625ZM35.7598 205.916V202.652C35.7598 202.402 35.709 202.186 35.6074 202.002C35.5098 201.814 35.3613 201.67 35.1621 201.568C34.9629 201.467 34.7168 201.416 34.4238 201.416C34.1504 201.416 33.9102 201.463 33.7031 201.557C33.5 201.65 33.3398 201.773 33.2227 201.926C33.1094 202.078 33.0527 202.242 33.0527 202.418H31.9688C31.9688 202.191 32.0273 201.967 32.1445 201.744C32.2617 201.521 32.4297 201.32 32.6484 201.141C32.8711 200.957 33.1367 200.812 33.4453 200.707C33.7578 200.598 34.1055 200.543 34.4883 200.543C34.9492 200.543 35.3555 200.621 35.707 200.777C36.0625 200.934 36.3398 201.17 36.5391 201.486C36.7422 201.799 36.8438 202.191 36.8438 202.664V205.617C36.8438 205.828 36.8613 206.053 36.8965 206.291C36.9355 206.529 36.9922 206.734 37.0664 206.906V207H35.9355C35.8809 206.875 35.8379 206.709 35.8066 206.502C35.7754 206.291 35.7598 206.096 35.7598 205.916ZM35.9473 203.156L35.959 203.918H34.8633C34.5547 203.918 34.2793 203.943 34.0371 203.994C33.7949 204.041 33.5918 204.113 33.4277 204.211C33.2637 204.309 33.1387 204.432 33.0527 204.58C32.9668 204.725 32.9238 204.895 32.9238 205.09C32.9238 205.289 32.9688 205.471 33.0586 205.635C33.1484 205.799 33.2832 205.93 33.4629 206.027C33.6465 206.121 33.8711 206.168 34.1367 206.168C34.4688 206.168 34.7617 206.098 35.0156 205.957C35.2695 205.816 35.4707 205.645 35.6191 205.441C35.7715 205.238 35.8535 205.041 35.8652 204.85L36.3281 205.371C36.3008 205.535 36.2266 205.717 36.1055 205.916C35.9844 206.115 35.8223 206.307 35.6191 206.49C35.4199 206.67 35.1816 206.82 34.9043 206.941C34.6309 207.059 34.3223 207.117 33.9785 207.117C33.5488 207.117 33.1719 207.033 32.8477 206.865C32.5273 206.697 32.2773 206.473 32.0977 206.191C31.9219 205.906 31.834 205.588 31.834 205.236C31.834 204.896 31.9004 204.598 32.0332 204.34C32.166 204.078 32.3574 203.861 32.6074 203.689C32.8574 203.514 33.1582 203.381 33.5098 203.291C33.8613 203.201 34.2539 203.156 34.6875 203.156H35.9473ZM39.7266 200.66V207H38.6367V200.66H39.7266ZM38.5547 198.979C38.5547 198.803 38.6074 198.654 38.7129 198.533C38.8223 198.412 38.9824 198.352 39.1934 198.352C39.4004 198.352 39.5586 198.412 39.668 198.533C39.7812 198.654 39.8379 198.803 39.8379 198.979C39.8379 199.146 39.7812 199.291 39.668 199.412C39.5586 199.529 39.4004 199.588 39.1934 199.588C38.9824 199.588 38.8223 199.529 38.7129 199.412C38.6074 199.291 38.5547 199.146 38.5547 198.979ZM42.5508 202.014V207H41.4668V200.66H42.4922L42.5508 202.014ZM42.293 203.59L41.8418 203.572C41.8457 203.139 41.9102 202.738 42.0352 202.371C42.1602 202 42.3359 201.678 42.5625 201.404C42.7891 201.131 43.0586 200.92 43.3711 200.771C43.6875 200.619 44.0371 200.543 44.4199 200.543C44.7324 200.543 45.0137 200.586 45.2637 200.672C45.5137 200.754 45.7266 200.887 45.9023 201.07C46.082 201.254 46.2188 201.492 46.3125 201.785C46.4062 202.074 46.4531 202.428 46.4531 202.846V207H45.3633V202.834C45.3633 202.502 45.3145 202.236 45.2168 202.037C45.1191 201.834 44.9766 201.688 44.7891 201.598C44.6016 201.504 44.3711 201.457 44.0977 201.457C43.8281 201.457 43.582 201.514 43.3594 201.627C43.1406 201.74 42.9512 201.896 42.791 202.096C42.6348 202.295 42.5117 202.523 42.4219 202.781C42.3359 203.035 42.293 203.305 42.293 203.59ZM50.7305 207.117C50.2891 207.117 49.8887 207.043 49.5293 206.895C49.1738 206.742 48.8672 206.529 48.6094 206.256C48.3555 205.982 48.1602 205.658 48.0234 205.283C47.8867 204.908 47.8184 204.498 47.8184 204.053V203.807C47.8184 203.291 47.8945 202.832 48.0469 202.43C48.1992 202.023 48.4062 201.68 48.668 201.398C48.9297 201.117 49.2266 200.904 49.5586 200.76C49.8906 200.615 50.2344 200.543 50.5898 200.543C51.043 200.543 51.4336 200.621 51.7617 200.777C52.0938 200.934 52.3652 201.152 52.5762 201.434C52.7871 201.711 52.9434 202.039 53.0449 202.418C53.1465 202.793 53.1973 203.203 53.1973 203.648V204.135H48.4629V203.25H52.1133V203.168C52.0977 202.887 52.0391 202.613 51.9375 202.348C51.8398 202.082 51.6836 201.863 51.4688 201.691C51.2539 201.52 50.9609 201.434 50.5898 201.434C50.3438 201.434 50.1172 201.486 49.9102 201.592C49.7031 201.693 49.5254 201.846 49.377 202.049C49.2285 202.252 49.1133 202.5 49.0312 202.793C48.9492 203.086 48.9082 203.424 48.9082 203.807V204.053C48.9082 204.354 48.9492 204.637 49.0312 204.902C49.1172 205.164 49.2402 205.395 49.4004 205.594C49.5645 205.793 49.7617 205.949 49.9922 206.062C50.2266 206.176 50.4922 206.232 50.7891 206.232C51.1719 206.232 51.4961 206.154 51.7617 205.998C52.0273 205.842 52.2598 205.633 52.459 205.371L53.1152 205.893C52.9785 206.1 52.8047 206.297 52.5938 206.484C52.3828 206.672 52.123 206.824 51.8145 206.941C51.5098 207.059 51.1484 207.117 50.7305 207.117ZM57.0938 207.117C56.6523 207.117 56.252 207.043 55.8926 206.895C55.5371 206.742 55.2305 206.529 54.9727 206.256C54.7188 205.982 54.5234 205.658 54.3867 205.283C54.25 204.908 54.1816 204.498 54.1816 204.053V203.807C54.1816 203.291 54.2578 202.832 54.4102 202.43C54.5625 202.023 54.7695 201.68 55.0312 201.398C55.293 201.117 55.5898 200.904 55.9219 200.76C56.2539 200.615 56.5977 200.543 56.9531 200.543C57.4062 200.543 57.7969 200.621 58.125 200.777C58.457 200.934 58.7285 201.152 58.9395 201.434C59.1504 201.711 59.3066 202.039 59.4082 202.418C59.5098 202.793 59.5605 203.203 59.5605 203.648V204.135H54.8262V203.25H58.4766V203.168C58.4609 202.887 58.4023 202.613 58.3008 202.348C58.2031 202.082 58.0469 201.863 57.832 201.691C57.6172 201.52 57.3242 201.434 56.9531 201.434C56.707 201.434 56.4805 201.486 56.2734 201.592C56.0664 201.693 55.8887 201.846 55.7402 202.049C55.5918 202.252 55.4766 202.5 55.3945 202.793C55.3125 203.086 55.2715 203.424 55.2715 203.807V204.053C55.2715 204.354 55.3125 204.637 55.3945 204.902C55.4805 205.164 55.6035 205.395 55.7637 205.594C55.9277 205.793 56.125 205.949 56.3555 206.062C56.5898 206.176 56.8555 206.232 57.1523 206.232C57.5352 206.232 57.8594 206.154 58.125 205.998C58.3906 205.842 58.623 205.633 58.8223 205.371L59.4785 205.893C59.3418 206.1 59.168 206.297 58.957 206.484C58.7461 206.672 58.4863 206.824 58.1777 206.941C57.873 207.059 57.5117 207.117 57.0938 207.117Z" fill="#414141"/>
<defs>
<linearGradient id="paint0_linear_697_15976" x1="70.1658" y1="23" x2="70.1658" y2="174" gradientUnits="userSpaceOnUse">
<stop stop-color="#9864A1"/>
<stop offset="1" stop-color="#DADEFF" stop-opacity="0.01"/>
</linearGradient>
</defs>
</svg>
