<svg width="733" height="269" viewBox="0 0 733 269" fill="none" xmlns="http://www.w3.org/2000/svg">
<circle cx="297" cy="27" r="6.5" fill="white" stroke="#717FFE" stroke-width="3"/>
<circle cx="546" cy="24" r="6.5" fill="white" stroke="#717FFE" stroke-width="3"/>
<path d="M66 54.5H732" stroke="#CECECE"/>
<path d="M66 91.5H732" stroke="#CECECE"/>
<path d="M66 128.5H732" stroke="#CECECE"/>
<path d="M66 165.5H732" stroke="#CECECE"/>
<path d="M66 202.5H732" stroke="#CECECE"/>
<path fill-rule="evenodd" clip-rule="evenodd" d="M66.1658 174C66.1658 174 65.5594 62.94 66.6658 62C74.9069 54.998 86.5082 47.6295 94.7235 47.1462C108.701 46.3238 116.669 57.4867 132.73 57.4867C148.791 57.4867 165.233 47.9097 185.738 47.1462C206.244 46.3826 218.982 53.6029 237.036 53.6029C255.089 53.6029 275.78 26.4165 295.963 26.4165C316.146 26.4165 335.489 69.138 362.447 69.138C389.404 69.138 394.874 32.937 411.826 32.937C428.778 32.937 440.069 45.7383 456.353 46.3694C472.636 47.0005 472.636 57.4867 486.357 57.4867C500.078 57.4867 519.722 23 541.343 23C562.964 23 587.937 47.4951 603.392 47.4951C618.848 47.4951 610.375 30.3003 628.67 30.3003C646.965 30.3003 636.699 46.7183 655 47.4951C673.301 48.2719 685.022 53.6029 702.822 53.6029C707.958 53.6029 715.004 52.2065 720.141 48.2719C725.279 44.3373 729.911 38.0145 729.911 38.0145H732.166C732.166 38.0145 732.166 40.8689 732.166 41.6937C732.166 50.7083 732.166 174 732.166 174H66.1658Z" fill="url(#paint0_linear_181_29729)"/>
<path d="M67 61.2557C67 61.2557 81.1095 47.8938 95.1692 47.0739C109.229 46.254 117.243 57.3835 133.399 57.3835C149.554 57.3835 166.093 47.8352 186.719 47.0739C207.345 46.3127 220.158 53.5114 238.318 53.5114C256.478 53.5114 277.29 26.4063 297.592 26.4063C317.894 26.4063 337.35 69 364.466 69C391.582 69 397.084 32.9073 414.136 32.9073C431.187 32.9073 442.545 46.4447 458.924 47.0739C475.304 47.7031 474.215 57.3835 489.106 57.3835C503.996 57.3835 520.643 23 542.39 23C564.138 23 586.668 47.0739 602.215 47.0739C617.761 47.0739 611.769 30.2784 630.172 30.2784C648.574 30.2784 637.52 47.0739 655.535 47.0739C673.549 47.0739 686.926 53.5114 704.831 53.5114C722.735 53.5114 731 37.5 731 37.5" stroke="#717FFE" stroke-width="2"/>
<line x1="733" y1="202.5" x2="65.9997" y2="202.5" stroke="#343A40" stroke-dasharray="2 2"/>
<line x1="141.5" y1="203" x2="125.5" y2="220" stroke="#1D1D1F"/>
<path d="M134.347 227.536V228.388H133.087V235H132.163V230.764L132.439 231.52C132.191 231.192 131.975 230.94 131.791 230.764C131.615 230.588 131.443 230.5 131.275 230.5C131.163 230.5 131.059 230.532 130.963 230.596C130.867 230.66 130.759 230.784 130.639 230.968C130.519 231.144 130.359 231.416 130.159 231.784C129.943 232.176 129.747 232.5 129.571 232.756C129.395 233.004 129.207 233.188 129.007 233.308C128.815 233.42 128.579 233.476 128.299 233.476C128.083 233.476 127.875 233.432 127.675 233.344C127.483 233.256 127.287 233.112 127.087 232.912C126.895 232.704 126.687 232.424 126.463 232.072L127.195 231.628C127.411 232.012 127.591 232.264 127.735 232.384C127.879 232.504 128.035 232.564 128.203 232.564C128.339 232.564 128.467 232.524 128.587 232.444C128.715 232.356 128.851 232.208 128.995 232C129.147 231.792 129.319 231.508 129.511 231.148L129.787 230.752C129.995 230.32 130.195 230.024 130.387 229.864C130.579 229.696 130.791 229.612 131.023 229.612C131.287 229.612 131.523 229.688 131.731 229.84C131.947 229.984 132.195 230.208 132.475 230.512L132.235 230.524C132.203 230.34 132.183 230.168 132.175 230.008C132.167 229.84 132.163 229.672 132.163 229.504V228.388H125.923V227.536H134.347ZM129.295 231.748C129.215 231.204 129.131 230.772 129.043 230.452C128.963 230.132 128.819 229.884 128.611 229.708C128.411 229.524 128.139 229.388 127.795 229.3C127.451 229.204 127.019 229.124 126.499 229.06L126.679 228.148L127.327 228.388C127.783 228.46 128.163 228.552 128.467 228.664C128.771 228.776 129.015 228.924 129.199 229.108C129.391 229.284 129.535 229.504 129.631 229.768C129.727 230.032 129.791 230.352 129.823 230.728L129.295 231.748ZM137.703 227.452C138.207 227.452 138.647 227.552 139.023 227.752C139.399 227.944 139.771 228.24 140.139 228.64C140.515 229.04 140.943 229.556 141.423 230.188L140.763 230.656C140.467 230.24 140.195 229.888 139.947 229.6C139.707 229.304 139.471 229.064 139.239 228.88C139.015 228.688 138.783 228.548 138.543 228.46C138.303 228.372 138.043 228.328 137.763 228.328C137.459 228.328 137.175 228.372 136.911 228.46C136.655 228.548 136.415 228.664 136.191 228.808C135.975 228.952 135.775 229.104 135.591 229.264L135.495 229.276C135.623 229.204 135.759 229.148 135.903 229.108C136.055 229.06 136.223 229.036 136.407 229.036C136.831 229.036 137.135 229.16 137.319 229.408C137.503 229.648 137.595 229.928 137.595 230.248C137.595 230.312 137.591 230.38 137.583 230.452C137.583 230.516 137.575 230.58 137.559 230.644L136.251 231.412C136.419 231.268 136.555 231.124 136.659 230.98C136.763 230.836 136.815 230.644 136.815 230.404C136.815 230.26 136.763 230.124 136.659 229.996C136.555 229.86 136.383 229.792 136.143 229.792C136.015 229.792 135.883 229.816 135.747 229.864C135.619 229.904 135.491 229.964 135.363 230.044L134.487 229.18C134.807 228.836 135.135 228.536 135.471 228.28C135.807 228.024 136.159 227.824 136.527 227.68C136.895 227.528 137.287 227.452 137.703 227.452ZM140.199 229.312L136.815 232.144L136.167 231.436L137.271 230.584L137.415 230.56C137.503 230.472 137.587 230.392 137.667 230.32C137.755 230.248 137.843 230.176 137.931 230.104C138.019 230.024 138.115 229.944 138.219 229.864L139.635 228.688L140.199 229.312ZM143.055 227.536V228.388H141.675V232.504L140.751 231.964V230.248L140.811 229.648C140.787 229.456 140.771 229.248 140.763 229.024C140.755 228.8 140.751 228.56 140.751 228.304V226.744H141.387L141.663 227.536H143.055ZM139.563 235.732C139.051 235.732 138.563 235.664 138.099 235.528C137.643 235.392 137.219 235.18 136.827 234.892C136.435 234.604 136.075 234.232 135.747 233.776C135.419 233.312 135.127 232.756 134.871 232.108L135.759 231.796C136.023 232.436 136.323 232.984 136.659 233.44C136.995 233.896 137.395 234.244 137.859 234.484C138.331 234.716 138.895 234.832 139.551 234.832C140.055 234.832 140.447 234.776 140.727 234.664C141.007 234.544 141.203 234.392 141.315 234.208C141.435 234.016 141.495 233.808 141.495 233.584C141.495 233.256 141.383 232.98 141.159 232.756C140.943 232.532 140.651 232.42 140.283 232.42C140.099 232.42 139.947 232.452 139.827 232.516C139.707 232.572 139.619 232.648 139.563 232.744C139.507 232.84 139.479 232.952 139.479 233.08C139.479 233.136 139.483 233.208 139.491 233.296C139.507 233.384 139.527 233.46 139.551 233.524L138.675 233.692C138.627 233.556 138.591 233.42 138.567 233.284C138.551 233.14 138.543 233.028 138.543 232.948C138.543 232.652 138.619 232.404 138.771 232.204C138.931 232.004 139.139 231.856 139.395 231.76C139.651 231.656 139.927 231.604 140.223 231.604C140.679 231.604 141.067 231.7 141.387 231.892C141.715 232.084 141.963 232.332 142.131 232.636C142.307 232.94 142.395 233.268 142.395 233.62C142.395 234.02 142.295 234.38 142.095 234.7C141.895 235.02 141.587 235.272 141.171 235.456C140.755 235.64 140.219 235.732 139.563 235.732ZM146.242 227.536V228.388H144.982V235H144.058V229.372C143.962 229.1 143.818 228.868 143.626 228.676C143.442 228.484 143.202 228.388 142.906 228.388H142.81V227.536H142.99C143.182 227.536 143.382 227.6 143.59 227.728C143.798 227.848 143.966 228.036 144.094 228.292C144.086 228.252 144.078 228.16 144.07 228.016C144.062 227.872 144.058 227.748 144.058 227.644V226.744H144.706L144.97 227.536H146.242ZM149.021 229C149.653 229 150.161 229.108 150.545 229.324C150.937 229.532 151.225 229.8 151.409 230.128C151.593 230.448 151.685 230.772 151.685 231.1C151.685 231.756 151.453 232.276 150.989 232.66C150.533 233.044 149.853 233.26 148.949 233.308L149.069 233.176C149.429 233.28 149.809 233.428 150.209 233.62C150.609 233.812 151.013 234.036 151.421 234.292C151.829 234.54 152.221 234.816 152.597 235.12L152.045 235.756C151.549 235.388 151.093 235.072 150.677 234.808C150.269 234.536 149.865 234.3 149.465 234.1C149.065 233.9 148.641 233.724 148.193 233.572C147.745 233.42 147.237 233.28 146.669 233.152L146.849 232.324C147.129 232.404 147.397 232.464 147.653 232.504C147.917 232.536 148.233 232.552 148.601 232.552C149.169 232.552 149.605 232.484 149.909 232.348C150.221 232.212 150.437 232.036 150.557 231.82C150.677 231.604 150.737 231.384 150.737 231.16C150.737 230.736 150.581 230.412 150.269 230.188C149.957 229.956 149.561 229.84 149.081 229.84C148.793 229.84 148.561 229.868 148.385 229.924C148.209 229.98 148.081 230.064 148.001 230.176C147.929 230.28 147.893 230.408 147.893 230.56C147.893 230.624 147.901 230.692 147.917 230.764C147.933 230.828 147.949 230.888 147.965 230.944L147.089 231.124C147.049 231.004 147.017 230.88 146.993 230.752C146.969 230.616 146.957 230.496 146.957 230.392C146.957 230.096 147.045 229.844 147.221 229.636C147.397 229.428 147.637 229.272 147.941 229.168C148.253 229.056 148.613 229 149.021 229ZM148.217 229.42C148.177 229.164 148.057 228.94 147.857 228.748C147.657 228.548 147.369 228.408 146.993 228.328L147.281 227.788L147.833 227.932C148.281 228.108 148.605 228.308 148.805 228.532C149.013 228.756 149.133 229.04 149.165 229.384L148.217 229.42ZM152.597 227.536V228.388H145.997V227.536H152.597ZM159.299 235C158.619 235 158.119 234.856 157.799 234.568C157.487 234.272 157.331 233.928 157.331 233.536C157.331 233.224 157.431 232.936 157.631 232.672C157.831 232.408 158.175 232.208 158.663 232.072L159.011 232.996C158.763 233.052 158.583 233.124 158.471 233.212C158.367 233.3 158.315 233.416 158.315 233.56C158.315 233.72 158.395 233.852 158.555 233.956C158.723 234.052 158.967 234.1 159.287 234.1C159.783 234.1 160.167 233.98 160.439 233.74C160.711 233.5 160.847 233.196 160.847 232.828C160.847 232.588 160.799 232.376 160.703 232.192C160.607 232 160.447 231.8 160.223 231.592C159.999 231.384 159.691 231.144 159.299 230.872C158.803 230.52 158.411 230.224 158.123 229.984C157.843 229.744 157.643 229.524 157.523 229.324C157.411 229.116 157.355 228.892 157.355 228.652C157.355 228.468 157.407 228.268 157.511 228.052C157.623 227.828 157.779 227.62 157.979 227.428L158.771 227.848C158.659 227.968 158.567 228.088 158.495 228.208C158.423 228.328 158.387 228.448 158.387 228.568C158.387 228.672 158.403 228.772 158.435 228.868C158.467 228.964 158.535 229.068 158.639 229.18C158.743 229.292 158.895 229.428 159.095 229.588C159.303 229.74 159.575 229.932 159.911 230.164C160.375 230.476 160.743 230.764 161.015 231.028C161.287 231.292 161.479 231.564 161.591 231.844C161.711 232.116 161.771 232.44 161.771 232.816C161.771 233.264 161.663 233.652 161.447 233.98C161.239 234.308 160.947 234.56 160.571 234.736C160.203 234.912 159.779 235 159.299 235Z" fill="#414141"/>
<line x1="270.5" y1="203" x2="254.5" y2="220" stroke="#1D1D1F"/>
<path d="M263.347 227.536V228.388H262.087V235H261.163V230.764L261.439 231.52C261.191 231.192 260.975 230.94 260.791 230.764C260.615 230.588 260.443 230.5 260.275 230.5C260.163 230.5 260.059 230.532 259.963 230.596C259.867 230.66 259.759 230.784 259.639 230.968C259.519 231.144 259.359 231.416 259.159 231.784C258.943 232.176 258.747 232.5 258.571 232.756C258.395 233.004 258.207 233.188 258.007 233.308C257.815 233.42 257.579 233.476 257.299 233.476C257.083 233.476 256.875 233.432 256.675 233.344C256.483 233.256 256.287 233.112 256.087 232.912C255.895 232.704 255.687 232.424 255.463 232.072L256.195 231.628C256.411 232.012 256.591 232.264 256.735 232.384C256.879 232.504 257.035 232.564 257.203 232.564C257.339 232.564 257.467 232.524 257.587 232.444C257.715 232.356 257.851 232.208 257.995 232C258.147 231.792 258.319 231.508 258.511 231.148L258.787 230.752C258.995 230.32 259.195 230.024 259.387 229.864C259.579 229.696 259.791 229.612 260.023 229.612C260.287 229.612 260.523 229.688 260.731 229.84C260.947 229.984 261.195 230.208 261.475 230.512L261.235 230.524C261.203 230.34 261.183 230.168 261.175 230.008C261.167 229.84 261.163 229.672 261.163 229.504V228.388H254.923V227.536H263.347ZM258.295 231.748C258.215 231.204 258.131 230.772 258.043 230.452C257.963 230.132 257.819 229.884 257.611 229.708C257.411 229.524 257.139 229.388 256.795 229.3C256.451 229.204 256.019 229.124 255.499 229.06L255.679 228.148L256.327 228.388C256.783 228.46 257.163 228.552 257.467 228.664C257.771 228.776 258.015 228.924 258.199 229.108C258.391 229.284 258.535 229.504 258.631 229.768C258.727 230.032 258.791 230.352 258.823 230.728L258.295 231.748ZM266.703 227.452C267.207 227.452 267.647 227.552 268.023 227.752C268.399 227.944 268.771 228.24 269.139 228.64C269.515 229.04 269.943 229.556 270.423 230.188L269.763 230.656C269.467 230.24 269.195 229.888 268.947 229.6C268.707 229.304 268.471 229.064 268.239 228.88C268.015 228.688 267.783 228.548 267.543 228.46C267.303 228.372 267.043 228.328 266.763 228.328C266.459 228.328 266.175 228.372 265.911 228.46C265.655 228.548 265.415 228.664 265.191 228.808C264.975 228.952 264.775 229.104 264.591 229.264L264.495 229.276C264.623 229.204 264.759 229.148 264.903 229.108C265.055 229.06 265.223 229.036 265.407 229.036C265.831 229.036 266.135 229.16 266.319 229.408C266.503 229.648 266.595 229.928 266.595 230.248C266.595 230.312 266.591 230.38 266.583 230.452C266.583 230.516 266.575 230.58 266.559 230.644L265.251 231.412C265.419 231.268 265.555 231.124 265.659 230.98C265.763 230.836 265.815 230.644 265.815 230.404C265.815 230.26 265.763 230.124 265.659 229.996C265.555 229.86 265.383 229.792 265.143 229.792C265.015 229.792 264.883 229.816 264.747 229.864C264.619 229.904 264.491 229.964 264.363 230.044L263.487 229.18C263.807 228.836 264.135 228.536 264.471 228.28C264.807 228.024 265.159 227.824 265.527 227.68C265.895 227.528 266.287 227.452 266.703 227.452ZM269.199 229.312L265.815 232.144L265.167 231.436L266.271 230.584L266.415 230.56C266.503 230.472 266.587 230.392 266.667 230.32C266.755 230.248 266.843 230.176 266.931 230.104C267.019 230.024 267.115 229.944 267.219 229.864L268.635 228.688L269.199 229.312ZM272.055 227.536V228.388H270.675V232.504L269.751 231.964V230.248L269.811 229.648C269.787 229.456 269.771 229.248 269.763 229.024C269.755 228.8 269.751 228.56 269.751 228.304V226.744H270.387L270.663 227.536H272.055ZM268.563 235.732C268.051 235.732 267.563 235.664 267.099 235.528C266.643 235.392 266.219 235.18 265.827 234.892C265.435 234.604 265.075 234.232 264.747 233.776C264.419 233.312 264.127 232.756 263.871 232.108L264.759 231.796C265.023 232.436 265.323 232.984 265.659 233.44C265.995 233.896 266.395 234.244 266.859 234.484C267.331 234.716 267.895 234.832 268.551 234.832C269.055 234.832 269.447 234.776 269.727 234.664C270.007 234.544 270.203 234.392 270.315 234.208C270.435 234.016 270.495 233.808 270.495 233.584C270.495 233.256 270.383 232.98 270.159 232.756C269.943 232.532 269.651 232.42 269.283 232.42C269.099 232.42 268.947 232.452 268.827 232.516C268.707 232.572 268.619 232.648 268.563 232.744C268.507 232.84 268.479 232.952 268.479 233.08C268.479 233.136 268.483 233.208 268.491 233.296C268.507 233.384 268.527 233.46 268.551 233.524L267.675 233.692C267.627 233.556 267.591 233.42 267.567 233.284C267.551 233.14 267.543 233.028 267.543 232.948C267.543 232.652 267.619 232.404 267.771 232.204C267.931 232.004 268.139 231.856 268.395 231.76C268.651 231.656 268.927 231.604 269.223 231.604C269.679 231.604 270.067 231.7 270.387 231.892C270.715 232.084 270.963 232.332 271.131 232.636C271.307 232.94 271.395 233.268 271.395 233.62C271.395 234.02 271.295 234.38 271.095 234.7C270.895 235.02 270.587 235.272 270.171 235.456C269.755 235.64 269.219 235.732 268.563 235.732ZM275.242 227.536V228.388H273.982V235H273.058V229.372C272.962 229.1 272.818 228.868 272.626 228.676C272.442 228.484 272.202 228.388 271.906 228.388H271.81V227.536H271.99C272.182 227.536 272.382 227.6 272.59 227.728C272.798 227.848 272.966 228.036 273.094 228.292C273.086 228.252 273.078 228.16 273.07 228.016C273.062 227.872 273.058 227.748 273.058 227.644V226.744H273.706L273.97 227.536H275.242ZM278.021 229C278.653 229 279.161 229.108 279.545 229.324C279.937 229.532 280.225 229.8 280.409 230.128C280.593 230.448 280.685 230.772 280.685 231.1C280.685 231.756 280.453 232.276 279.989 232.66C279.533 233.044 278.853 233.26 277.949 233.308L278.069 233.176C278.429 233.28 278.809 233.428 279.209 233.62C279.609 233.812 280.013 234.036 280.421 234.292C280.829 234.54 281.221 234.816 281.597 235.12L281.045 235.756C280.549 235.388 280.093 235.072 279.677 234.808C279.269 234.536 278.865 234.3 278.465 234.1C278.065 233.9 277.641 233.724 277.193 233.572C276.745 233.42 276.237 233.28 275.669 233.152L275.849 232.324C276.129 232.404 276.397 232.464 276.653 232.504C276.917 232.536 277.233 232.552 277.601 232.552C278.169 232.552 278.605 232.484 278.909 232.348C279.221 232.212 279.437 232.036 279.557 231.82C279.677 231.604 279.737 231.384 279.737 231.16C279.737 230.736 279.581 230.412 279.269 230.188C278.957 229.956 278.561 229.84 278.081 229.84C277.793 229.84 277.561 229.868 277.385 229.924C277.209 229.98 277.081 230.064 277.001 230.176C276.929 230.28 276.893 230.408 276.893 230.56C276.893 230.624 276.901 230.692 276.917 230.764C276.933 230.828 276.949 230.888 276.965 230.944L276.089 231.124C276.049 231.004 276.017 230.88 275.993 230.752C275.969 230.616 275.957 230.496 275.957 230.392C275.957 230.096 276.045 229.844 276.221 229.636C276.397 229.428 276.637 229.272 276.941 229.168C277.253 229.056 277.613 229 278.021 229ZM277.217 229.42C277.177 229.164 277.057 228.94 276.857 228.748C276.657 228.548 276.369 228.408 275.993 228.328L276.281 227.788L276.833 227.932C277.281 228.108 277.605 228.308 277.805 228.532C278.013 228.756 278.133 229.04 278.165 229.384L277.217 229.42ZM281.597 227.536V228.388H274.997V227.536H281.597ZM286.379 228.532C286.379 228.356 286.419 228.18 286.499 228.004C286.587 227.828 286.719 227.636 286.895 227.428L287.651 227.848C287.555 227.952 287.487 228.052 287.447 228.148C287.407 228.236 287.387 228.324 287.387 228.412C287.387 228.524 287.419 228.616 287.483 228.688C287.547 228.76 287.667 228.824 287.843 228.88C288.027 228.928 288.295 228.988 288.647 229.06C289.479 229.212 290.055 229.448 290.375 229.768C290.695 230.08 290.855 230.484 290.855 230.98C290.855 231.508 290.631 231.96 290.183 232.336C289.743 232.712 289.123 232.928 288.323 232.984C288.243 232.984 288.163 232.976 288.083 232.96C288.003 232.944 287.923 232.924 287.843 232.9L288.323 232.792C288.675 232.912 289.031 233.068 289.391 233.26C289.751 233.444 290.107 233.656 290.459 233.896C290.811 234.128 291.155 234.384 291.491 234.664L290.939 235.312C290.467 234.92 290.027 234.592 289.619 234.328C289.219 234.056 288.819 233.832 288.419 233.656C288.027 233.472 287.607 233.312 287.159 233.176C286.711 233.04 286.203 232.908 285.635 232.78L285.815 231.928C286.095 232.008 286.379 232.076 286.667 232.132C286.955 232.18 287.315 232.204 287.747 232.204C288.555 232.204 289.115 232.096 289.427 231.88C289.747 231.664 289.907 231.376 289.907 231.016C289.907 230.816 289.859 230.648 289.763 230.512C289.675 230.368 289.519 230.248 289.295 230.152C289.071 230.048 288.751 229.956 288.335 229.876C287.871 229.78 287.495 229.672 287.207 229.552C286.919 229.432 286.707 229.288 286.571 229.12C286.443 228.952 286.379 228.756 286.379 228.532Z" fill="#414141"/>
<line x1="417.5" y1="203" x2="401.5" y2="220" stroke="#1D1D1F"/>
<path d="M408.347 230.536V231.388H407.087V238H406.163V233.764L406.439 234.52C406.191 234.192 405.975 233.94 405.791 233.764C405.615 233.588 405.443 233.5 405.275 233.5C405.163 233.5 405.059 233.532 404.963 233.596C404.867 233.66 404.759 233.784 404.639 233.968C404.519 234.144 404.359 234.416 404.159 234.784C403.943 235.176 403.747 235.5 403.571 235.756C403.395 236.004 403.207 236.188 403.007 236.308C402.815 236.42 402.579 236.476 402.299 236.476C402.083 236.476 401.875 236.432 401.675 236.344C401.483 236.256 401.287 236.112 401.087 235.912C400.895 235.704 400.687 235.424 400.463 235.072L401.195 234.628C401.411 235.012 401.591 235.264 401.735 235.384C401.879 235.504 402.035 235.564 402.203 235.564C402.339 235.564 402.467 235.524 402.587 235.444C402.715 235.356 402.851 235.208 402.995 235C403.147 234.792 403.319 234.508 403.511 234.148L403.787 233.752C403.995 233.32 404.195 233.024 404.387 232.864C404.579 232.696 404.791 232.612 405.023 232.612C405.287 232.612 405.523 232.688 405.731 232.84C405.947 232.984 406.195 233.208 406.475 233.512L406.235 233.524C406.203 233.34 406.183 233.168 406.175 233.008C406.167 232.84 406.163 232.672 406.163 232.504V231.388H399.923V230.536H408.347ZM403.295 234.748C403.215 234.204 403.131 233.772 403.043 233.452C402.963 233.132 402.819 232.884 402.611 232.708C402.411 232.524 402.139 232.388 401.795 232.3C401.451 232.204 401.019 232.124 400.499 232.06L400.679 231.148L401.327 231.388C401.783 231.46 402.163 231.552 402.467 231.664C402.771 231.776 403.015 231.924 403.199 232.108C403.391 232.284 403.535 232.504 403.631 232.768C403.727 233.032 403.791 233.352 403.823 233.728L403.295 234.748ZM411.703 230.452C412.207 230.452 412.647 230.552 413.023 230.752C413.399 230.944 413.771 231.24 414.139 231.64C414.515 232.04 414.943 232.556 415.423 233.188L414.763 233.656C414.467 233.24 414.195 232.888 413.947 232.6C413.707 232.304 413.471 232.064 413.239 231.88C413.015 231.688 412.783 231.548 412.543 231.46C412.303 231.372 412.043 231.328 411.763 231.328C411.459 231.328 411.175 231.372 410.911 231.46C410.655 231.548 410.415 231.664 410.191 231.808C409.975 231.952 409.775 232.104 409.591 232.264L409.495 232.276C409.623 232.204 409.759 232.148 409.903 232.108C410.055 232.06 410.223 232.036 410.407 232.036C410.831 232.036 411.135 232.16 411.319 232.408C411.503 232.648 411.595 232.928 411.595 233.248C411.595 233.312 411.591 233.38 411.583 233.452C411.583 233.516 411.575 233.58 411.559 233.644L410.251 234.412C410.419 234.268 410.555 234.124 410.659 233.98C410.763 233.836 410.815 233.644 410.815 233.404C410.815 233.26 410.763 233.124 410.659 232.996C410.555 232.86 410.383 232.792 410.143 232.792C410.015 232.792 409.883 232.816 409.747 232.864C409.619 232.904 409.491 232.964 409.363 233.044L408.487 232.18C408.807 231.836 409.135 231.536 409.471 231.28C409.807 231.024 410.159 230.824 410.527 230.68C410.895 230.528 411.287 230.452 411.703 230.452ZM414.199 232.312L410.815 235.144L410.167 234.436L411.271 233.584L411.415 233.56C411.503 233.472 411.587 233.392 411.667 233.32C411.755 233.248 411.843 233.176 411.931 233.104C412.019 233.024 412.115 232.944 412.219 232.864L413.635 231.688L414.199 232.312ZM417.055 230.536V231.388H415.675V235.504L414.751 234.964V233.248L414.811 232.648C414.787 232.456 414.771 232.248 414.763 232.024C414.755 231.8 414.751 231.56 414.751 231.304V229.744H415.387L415.663 230.536H417.055ZM413.563 238.732C413.051 238.732 412.563 238.664 412.099 238.528C411.643 238.392 411.219 238.18 410.827 237.892C410.435 237.604 410.075 237.232 409.747 236.776C409.419 236.312 409.127 235.756 408.871 235.108L409.759 234.796C410.023 235.436 410.323 235.984 410.659 236.44C410.995 236.896 411.395 237.244 411.859 237.484C412.331 237.716 412.895 237.832 413.551 237.832C414.055 237.832 414.447 237.776 414.727 237.664C415.007 237.544 415.203 237.392 415.315 237.208C415.435 237.016 415.495 236.808 415.495 236.584C415.495 236.256 415.383 235.98 415.159 235.756C414.943 235.532 414.651 235.42 414.283 235.42C414.099 235.42 413.947 235.452 413.827 235.516C413.707 235.572 413.619 235.648 413.563 235.744C413.507 235.84 413.479 235.952 413.479 236.08C413.479 236.136 413.483 236.208 413.491 236.296C413.507 236.384 413.527 236.46 413.551 236.524L412.675 236.692C412.627 236.556 412.591 236.42 412.567 236.284C412.551 236.14 412.543 236.028 412.543 235.948C412.543 235.652 412.619 235.404 412.771 235.204C412.931 235.004 413.139 234.856 413.395 234.76C413.651 234.656 413.927 234.604 414.223 234.604C414.679 234.604 415.067 234.7 415.387 234.892C415.715 235.084 415.963 235.332 416.131 235.636C416.307 235.94 416.395 236.268 416.395 236.62C416.395 237.02 416.295 237.38 416.095 237.7C415.895 238.02 415.587 238.272 415.171 238.456C414.755 238.64 414.219 238.732 413.563 238.732ZM420.242 230.536V231.388H418.982V238H418.058V232.372C417.962 232.1 417.818 231.868 417.626 231.676C417.442 231.484 417.202 231.388 416.906 231.388H416.81V230.536H416.99C417.182 230.536 417.382 230.6 417.59 230.728C417.798 230.848 417.966 231.036 418.094 231.292C418.086 231.252 418.078 231.16 418.07 231.016C418.062 230.872 418.058 230.748 418.058 230.644V229.744H418.706L418.97 230.536H420.242ZM423.021 232C423.653 232 424.161 232.108 424.545 232.324C424.937 232.532 425.225 232.8 425.409 233.128C425.593 233.448 425.685 233.772 425.685 234.1C425.685 234.756 425.453 235.276 424.989 235.66C424.533 236.044 423.853 236.26 422.949 236.308L423.069 236.176C423.429 236.28 423.809 236.428 424.209 236.62C424.609 236.812 425.013 237.036 425.421 237.292C425.829 237.54 426.221 237.816 426.597 238.12L426.045 238.756C425.549 238.388 425.093 238.072 424.677 237.808C424.269 237.536 423.865 237.3 423.465 237.1C423.065 236.9 422.641 236.724 422.193 236.572C421.745 236.42 421.237 236.28 420.669 236.152L420.849 235.324C421.129 235.404 421.397 235.464 421.653 235.504C421.917 235.536 422.233 235.552 422.601 235.552C423.169 235.552 423.605 235.484 423.909 235.348C424.221 235.212 424.437 235.036 424.557 234.82C424.677 234.604 424.737 234.384 424.737 234.16C424.737 233.736 424.581 233.412 424.269 233.188C423.957 232.956 423.561 232.84 423.081 232.84C422.793 232.84 422.561 232.868 422.385 232.924C422.209 232.98 422.081 233.064 422.001 233.176C421.929 233.28 421.893 233.408 421.893 233.56C421.893 233.624 421.901 233.692 421.917 233.764C421.933 233.828 421.949 233.888 421.965 233.944L421.089 234.124C421.049 234.004 421.017 233.88 420.993 233.752C420.969 233.616 420.957 233.496 420.957 233.392C420.957 233.096 421.045 232.844 421.221 232.636C421.397 232.428 421.637 232.272 421.941 232.168C422.253 232.056 422.613 232 423.021 232ZM422.217 232.42C422.177 232.164 422.057 231.94 421.857 231.748C421.657 231.548 421.369 231.408 420.993 231.328L421.281 230.788L421.833 230.932C422.281 231.108 422.605 231.308 422.805 231.532C423.013 231.756 423.133 232.04 423.165 232.384L422.217 232.42ZM426.597 230.536V231.388H419.997V230.536H426.597ZM436.491 234.46C436.491 235.036 436.407 235.556 436.239 236.02C436.079 236.484 435.815 236.852 435.447 237.124C435.087 237.396 434.611 237.532 434.019 237.532C433.587 237.532 433.183 237.46 432.807 237.316C432.431 237.164 432.083 236.896 431.763 236.512C431.451 236.12 431.163 235.572 430.899 234.868C430.635 234.156 430.403 233.24 430.203 232.12L431.115 231.88C431.355 233.08 431.607 234.024 431.871 234.712C432.135 235.4 432.435 235.892 432.771 236.188C433.115 236.476 433.511 236.62 433.959 236.62C434.367 236.62 434.687 236.524 434.919 236.332C435.151 236.14 435.315 235.884 435.411 235.564C435.507 235.236 435.555 234.868 435.555 234.46C435.555 233.972 435.487 233.536 435.351 233.152C435.215 232.768 435.031 232.464 434.799 232.24C434.567 232.016 434.307 231.904 434.019 231.904C433.811 231.904 433.647 231.956 433.527 232.06C433.415 232.164 433.359 232.312 433.359 232.504C433.359 232.632 433.375 232.76 433.407 232.888C433.447 233.016 433.507 233.16 433.587 233.32L432.627 233.572C432.531 233.372 432.459 233.172 432.411 232.972C432.363 232.764 432.339 232.572 432.339 232.396C432.339 232.06 432.419 231.796 432.579 231.604C432.747 231.404 432.951 231.264 433.191 231.184C433.439 231.096 433.675 231.052 433.899 231.052C434.459 231.052 434.931 231.208 435.315 231.52C435.699 231.824 435.991 232.236 436.191 232.756C436.391 233.268 436.491 233.836 436.491 234.46Z" fill="#414141"/>
<line x1="562.5" y1="203" x2="546.5" y2="220" stroke="#1D1D1F"/>
<path d="M552.347 227.536V228.388H551.087V235H550.163V230.764L550.439 231.52C550.191 231.192 549.975 230.94 549.791 230.764C549.615 230.588 549.443 230.5 549.275 230.5C549.163 230.5 549.059 230.532 548.963 230.596C548.867 230.66 548.759 230.784 548.639 230.968C548.519 231.144 548.359 231.416 548.159 231.784C547.943 232.176 547.747 232.5 547.571 232.756C547.395 233.004 547.207 233.188 547.007 233.308C546.815 233.42 546.579 233.476 546.299 233.476C546.083 233.476 545.875 233.432 545.675 233.344C545.483 233.256 545.287 233.112 545.087 232.912C544.895 232.704 544.687 232.424 544.463 232.072L545.195 231.628C545.411 232.012 545.591 232.264 545.735 232.384C545.879 232.504 546.035 232.564 546.203 232.564C546.339 232.564 546.467 232.524 546.587 232.444C546.715 232.356 546.851 232.208 546.995 232C547.147 231.792 547.319 231.508 547.511 231.148L547.787 230.752C547.995 230.32 548.195 230.024 548.387 229.864C548.579 229.696 548.791 229.612 549.023 229.612C549.287 229.612 549.523 229.688 549.731 229.84C549.947 229.984 550.195 230.208 550.475 230.512L550.235 230.524C550.203 230.34 550.183 230.168 550.175 230.008C550.167 229.84 550.163 229.672 550.163 229.504V228.388H543.923V227.536H552.347ZM547.295 231.748C547.215 231.204 547.131 230.772 547.043 230.452C546.963 230.132 546.819 229.884 546.611 229.708C546.411 229.524 546.139 229.388 545.795 229.3C545.451 229.204 545.019 229.124 544.499 229.06L544.679 228.148L545.327 228.388C545.783 228.46 546.163 228.552 546.467 228.664C546.771 228.776 547.015 228.924 547.199 229.108C547.391 229.284 547.535 229.504 547.631 229.768C547.727 230.032 547.791 230.352 547.823 230.728L547.295 231.748ZM555.703 227.452C556.207 227.452 556.647 227.552 557.023 227.752C557.399 227.944 557.771 228.24 558.139 228.64C558.515 229.04 558.943 229.556 559.423 230.188L558.763 230.656C558.467 230.24 558.195 229.888 557.947 229.6C557.707 229.304 557.471 229.064 557.239 228.88C557.015 228.688 556.783 228.548 556.543 228.46C556.303 228.372 556.043 228.328 555.763 228.328C555.459 228.328 555.175 228.372 554.911 228.46C554.655 228.548 554.415 228.664 554.191 228.808C553.975 228.952 553.775 229.104 553.591 229.264L553.495 229.276C553.623 229.204 553.759 229.148 553.903 229.108C554.055 229.06 554.223 229.036 554.407 229.036C554.831 229.036 555.135 229.16 555.319 229.408C555.503 229.648 555.595 229.928 555.595 230.248C555.595 230.312 555.591 230.38 555.583 230.452C555.583 230.516 555.575 230.58 555.559 230.644L554.251 231.412C554.419 231.268 554.555 231.124 554.659 230.98C554.763 230.836 554.815 230.644 554.815 230.404C554.815 230.26 554.763 230.124 554.659 229.996C554.555 229.86 554.383 229.792 554.143 229.792C554.015 229.792 553.883 229.816 553.747 229.864C553.619 229.904 553.491 229.964 553.363 230.044L552.487 229.18C552.807 228.836 553.135 228.536 553.471 228.28C553.807 228.024 554.159 227.824 554.527 227.68C554.895 227.528 555.287 227.452 555.703 227.452ZM558.199 229.312L554.815 232.144L554.167 231.436L555.271 230.584L555.415 230.56C555.503 230.472 555.587 230.392 555.667 230.32C555.755 230.248 555.843 230.176 555.931 230.104C556.019 230.024 556.115 229.944 556.219 229.864L557.635 228.688L558.199 229.312ZM561.055 227.536V228.388H559.675V232.504L558.751 231.964V230.248L558.811 229.648C558.787 229.456 558.771 229.248 558.763 229.024C558.755 228.8 558.751 228.56 558.751 228.304V226.744H559.387L559.663 227.536H561.055ZM557.563 235.732C557.051 235.732 556.563 235.664 556.099 235.528C555.643 235.392 555.219 235.18 554.827 234.892C554.435 234.604 554.075 234.232 553.747 233.776C553.419 233.312 553.127 232.756 552.871 232.108L553.759 231.796C554.023 232.436 554.323 232.984 554.659 233.44C554.995 233.896 555.395 234.244 555.859 234.484C556.331 234.716 556.895 234.832 557.551 234.832C558.055 234.832 558.447 234.776 558.727 234.664C559.007 234.544 559.203 234.392 559.315 234.208C559.435 234.016 559.495 233.808 559.495 233.584C559.495 233.256 559.383 232.98 559.159 232.756C558.943 232.532 558.651 232.42 558.283 232.42C558.099 232.42 557.947 232.452 557.827 232.516C557.707 232.572 557.619 232.648 557.563 232.744C557.507 232.84 557.479 232.952 557.479 233.08C557.479 233.136 557.483 233.208 557.491 233.296C557.507 233.384 557.527 233.46 557.551 233.524L556.675 233.692C556.627 233.556 556.591 233.42 556.567 233.284C556.551 233.14 556.543 233.028 556.543 232.948C556.543 232.652 556.619 232.404 556.771 232.204C556.931 232.004 557.139 231.856 557.395 231.76C557.651 231.656 557.927 231.604 558.223 231.604C558.679 231.604 559.067 231.7 559.387 231.892C559.715 232.084 559.963 232.332 560.131 232.636C560.307 232.94 560.395 233.268 560.395 233.62C560.395 234.02 560.295 234.38 560.095 234.7C559.895 235.02 559.587 235.272 559.171 235.456C558.755 235.64 558.219 235.732 557.563 235.732ZM564.242 227.536V228.388H562.982V235H562.058V229.372C561.962 229.1 561.818 228.868 561.626 228.676C561.442 228.484 561.202 228.388 560.906 228.388H560.81V227.536H560.99C561.182 227.536 561.382 227.6 561.59 227.728C561.798 227.848 561.966 228.036 562.094 228.292C562.086 228.252 562.078 228.16 562.07 228.016C562.062 227.872 562.058 227.748 562.058 227.644V226.744H562.706L562.97 227.536H564.242ZM567.021 229C567.653 229 568.161 229.108 568.545 229.324C568.937 229.532 569.225 229.8 569.409 230.128C569.593 230.448 569.685 230.772 569.685 231.1C569.685 231.756 569.453 232.276 568.989 232.66C568.533 233.044 567.853 233.26 566.949 233.308L567.069 233.176C567.429 233.28 567.809 233.428 568.209 233.62C568.609 233.812 569.013 234.036 569.421 234.292C569.829 234.54 570.221 234.816 570.597 235.12L570.045 235.756C569.549 235.388 569.093 235.072 568.677 234.808C568.269 234.536 567.865 234.3 567.465 234.1C567.065 233.9 566.641 233.724 566.193 233.572C565.745 233.42 565.237 233.28 564.669 233.152L564.849 232.324C565.129 232.404 565.397 232.464 565.653 232.504C565.917 232.536 566.233 232.552 566.601 232.552C567.169 232.552 567.605 232.484 567.909 232.348C568.221 232.212 568.437 232.036 568.557 231.82C568.677 231.604 568.737 231.384 568.737 231.16C568.737 230.736 568.581 230.412 568.269 230.188C567.957 229.956 567.561 229.84 567.081 229.84C566.793 229.84 566.561 229.868 566.385 229.924C566.209 229.98 566.081 230.064 566.001 230.176C565.929 230.28 565.893 230.408 565.893 230.56C565.893 230.624 565.901 230.692 565.917 230.764C565.933 230.828 565.949 230.888 565.965 230.944L565.089 231.124C565.049 231.004 565.017 230.88 564.993 230.752C564.969 230.616 564.957 230.496 564.957 230.392C564.957 230.096 565.045 229.844 565.221 229.636C565.397 229.428 565.637 229.272 565.941 229.168C566.253 229.056 566.613 229 567.021 229ZM566.217 229.42C566.177 229.164 566.057 228.94 565.857 228.748C565.657 228.548 565.369 228.408 564.993 228.328L565.281 227.788L565.833 227.932C566.281 228.108 566.605 228.308 566.805 228.532C567.013 228.756 567.133 229.04 567.165 229.384L566.217 229.42ZM570.597 227.536V228.388H563.997V227.536H570.597ZM577.407 235C576.487 235 575.787 234.812 575.307 234.436C574.835 234.06 574.599 233.568 574.599 232.96C574.599 232.512 574.759 232.128 575.079 231.808C575.399 231.48 575.907 231.196 576.603 230.956V231.256C576.179 231.064 575.827 230.884 575.547 230.716C575.275 230.54 575.071 230.344 574.935 230.128C574.807 229.912 574.743 229.652 574.743 229.348C574.743 229.028 574.843 228.732 575.043 228.46C575.251 228.18 575.547 227.956 575.931 227.788C576.315 227.62 576.783 227.536 577.335 227.536C578.015 227.536 578.555 227.624 578.955 227.8C579.355 227.968 579.643 228.188 579.819 228.46C579.995 228.724 580.083 229 580.083 229.288C580.083 229.624 580.003 229.908 579.843 230.14C579.683 230.364 579.467 230.556 579.195 230.716C578.923 230.876 578.615 231.02 578.271 231.148L578.235 230.908C578.859 231.124 579.343 231.384 579.687 231.688C580.039 231.984 580.215 232.404 580.215 232.948C580.215 233.628 579.971 234.14 579.483 234.484C579.003 234.828 578.311 235 577.407 235ZM577.407 234.148C578.047 234.148 578.515 234.036 578.811 233.812C579.107 233.588 579.255 233.292 579.255 232.924C579.255 232.668 579.163 232.448 578.979 232.264C578.803 232.072 578.571 231.912 578.283 231.784C578.003 231.656 577.711 231.56 577.407 231.496C576.799 231.648 576.339 231.844 576.027 232.084C575.723 232.324 575.571 232.62 575.571 232.972C575.571 233.3 575.723 233.58 576.027 233.812C576.339 234.036 576.799 234.148 577.407 234.148ZM577.419 230.644C577.699 230.572 577.967 230.476 578.223 230.356C578.479 230.236 578.691 230.092 578.859 229.924C579.027 229.748 579.111 229.556 579.111 229.348C579.111 229.06 578.963 228.828 578.667 228.652C578.371 228.476 577.931 228.388 577.347 228.388C577.067 228.388 576.799 228.424 576.543 228.496C576.295 228.568 576.091 228.676 575.931 228.82C575.779 228.956 575.703 229.132 575.703 229.348C575.703 229.644 575.835 229.896 576.099 230.104C576.371 230.304 576.811 230.484 577.419 230.644Z" fill="#414141"/>
<line x1="683.5" y1="203" x2="667.5" y2="220" stroke="#1D1D1F"/>
<path d="M673.247 227.536V228.388H671.987V235H671.063V230.764L671.339 231.52C671.091 231.192 670.875 230.94 670.691 230.764C670.515 230.588 670.343 230.5 670.175 230.5C670.063 230.5 669.959 230.532 669.863 230.596C669.767 230.66 669.659 230.784 669.539 230.968C669.419 231.144 669.259 231.416 669.059 231.784C668.843 232.176 668.647 232.5 668.471 232.756C668.295 233.004 668.107 233.188 667.907 233.308C667.715 233.42 667.479 233.476 667.199 233.476C666.983 233.476 666.775 233.432 666.575 233.344C666.383 233.256 666.187 233.112 665.987 232.912C665.795 232.704 665.587 232.424 665.363 232.072L666.095 231.628C666.311 232.012 666.491 232.264 666.635 232.384C666.779 232.504 666.935 232.564 667.103 232.564C667.239 232.564 667.367 232.524 667.487 232.444C667.615 232.356 667.751 232.208 667.895 232C668.047 231.792 668.219 231.508 668.411 231.148L668.687 230.752C668.895 230.32 669.095 230.024 669.287 229.864C669.479 229.696 669.691 229.612 669.923 229.612C670.187 229.612 670.423 229.688 670.631 229.84C670.847 229.984 671.095 230.208 671.375 230.512L671.135 230.524C671.103 230.34 671.083 230.168 671.075 230.008C671.067 229.84 671.063 229.672 671.063 229.504V228.388H664.823V227.536H673.247ZM668.195 231.748C668.115 231.204 668.031 230.772 667.943 230.452C667.863 230.132 667.719 229.884 667.511 229.708C667.311 229.524 667.039 229.388 666.695 229.3C666.351 229.204 665.919 229.124 665.399 229.06L665.579 228.148L666.227 228.388C666.683 228.46 667.063 228.552 667.367 228.664C667.671 228.776 667.915 228.924 668.099 229.108C668.291 229.284 668.435 229.504 668.531 229.768C668.627 230.032 668.691 230.352 668.723 230.728L668.195 231.748ZM676.603 227.452C677.107 227.452 677.547 227.552 677.923 227.752C678.299 227.944 678.671 228.24 679.039 228.64C679.415 229.04 679.843 229.556 680.323 230.188L679.663 230.656C679.367 230.24 679.095 229.888 678.847 229.6C678.607 229.304 678.371 229.064 678.139 228.88C677.915 228.688 677.683 228.548 677.443 228.46C677.203 228.372 676.943 228.328 676.663 228.328C676.359 228.328 676.075 228.372 675.811 228.46C675.555 228.548 675.315 228.664 675.091 228.808C674.875 228.952 674.675 229.104 674.491 229.264L674.395 229.276C674.523 229.204 674.659 229.148 674.803 229.108C674.955 229.06 675.123 229.036 675.307 229.036C675.731 229.036 676.035 229.16 676.219 229.408C676.403 229.648 676.495 229.928 676.495 230.248C676.495 230.312 676.491 230.38 676.483 230.452C676.483 230.516 676.475 230.58 676.459 230.644L675.151 231.412C675.319 231.268 675.455 231.124 675.559 230.98C675.663 230.836 675.715 230.644 675.715 230.404C675.715 230.26 675.663 230.124 675.559 229.996C675.455 229.86 675.283 229.792 675.043 229.792C674.915 229.792 674.783 229.816 674.647 229.864C674.519 229.904 674.391 229.964 674.263 230.044L673.387 229.18C673.707 228.836 674.035 228.536 674.371 228.28C674.707 228.024 675.059 227.824 675.427 227.68C675.795 227.528 676.187 227.452 676.603 227.452ZM679.099 229.312L675.715 232.144L675.067 231.436L676.171 230.584L676.315 230.56C676.403 230.472 676.487 230.392 676.567 230.32C676.655 230.248 676.743 230.176 676.831 230.104C676.919 230.024 677.015 229.944 677.119 229.864L678.535 228.688L679.099 229.312ZM681.955 227.536V228.388H680.575V232.504L679.651 231.964V230.248L679.711 229.648C679.687 229.456 679.671 229.248 679.663 229.024C679.655 228.8 679.651 228.56 679.651 228.304V226.744H680.287L680.563 227.536H681.955ZM678.463 235.732C677.951 235.732 677.463 235.664 676.999 235.528C676.543 235.392 676.119 235.18 675.727 234.892C675.335 234.604 674.975 234.232 674.647 233.776C674.319 233.312 674.027 232.756 673.771 232.108L674.659 231.796C674.923 232.436 675.223 232.984 675.559 233.44C675.895 233.896 676.295 234.244 676.759 234.484C677.231 234.716 677.795 234.832 678.451 234.832C678.955 234.832 679.347 234.776 679.627 234.664C679.907 234.544 680.103 234.392 680.215 234.208C680.335 234.016 680.395 233.808 680.395 233.584C680.395 233.256 680.283 232.98 680.059 232.756C679.843 232.532 679.551 232.42 679.183 232.42C678.999 232.42 678.847 232.452 678.727 232.516C678.607 232.572 678.519 232.648 678.463 232.744C678.407 232.84 678.379 232.952 678.379 233.08C678.379 233.136 678.383 233.208 678.391 233.296C678.407 233.384 678.427 233.46 678.451 233.524L677.575 233.692C677.527 233.556 677.491 233.42 677.467 233.284C677.451 233.14 677.443 233.028 677.443 232.948C677.443 232.652 677.519 232.404 677.671 232.204C677.831 232.004 678.039 231.856 678.295 231.76C678.551 231.656 678.827 231.604 679.123 231.604C679.579 231.604 679.967 231.7 680.287 231.892C680.615 232.084 680.863 232.332 681.031 232.636C681.207 232.94 681.295 233.268 681.295 233.62C681.295 234.02 681.195 234.38 680.995 234.7C680.795 235.02 680.487 235.272 680.071 235.456C679.655 235.64 679.119 235.732 678.463 235.732ZM685.142 227.536V228.388H683.882V235H682.958V229.372C682.862 229.1 682.718 228.868 682.526 228.676C682.342 228.484 682.102 228.388 681.806 228.388H681.71V227.536H681.89C682.082 227.536 682.282 227.6 682.49 227.728C682.698 227.848 682.866 228.036 682.994 228.292C682.986 228.252 682.978 228.16 682.97 228.016C682.962 227.872 682.958 227.748 682.958 227.644V226.744H683.606L683.87 227.536H685.142ZM687.922 229C688.554 229 689.062 229.108 689.446 229.324C689.838 229.532 690.126 229.8 690.31 230.128C690.494 230.448 690.586 230.772 690.586 231.1C690.586 231.756 690.354 232.276 689.89 232.66C689.434 233.044 688.754 233.26 687.85 233.308L687.97 233.176C688.33 233.28 688.71 233.428 689.11 233.62C689.51 233.812 689.914 234.036 690.322 234.292C690.73 234.54 691.122 234.816 691.498 235.12L690.946 235.756C690.45 235.388 689.994 235.072 689.578 234.808C689.17 234.536 688.766 234.3 688.366 234.1C687.966 233.9 687.542 233.724 687.094 233.572C686.646 233.42 686.138 233.28 685.57 233.152L685.75 232.324C686.03 232.404 686.298 232.464 686.554 232.504C686.818 232.536 687.134 232.552 687.502 232.552C688.07 232.552 688.506 232.484 688.81 232.348C689.122 232.212 689.338 232.036 689.458 231.82C689.578 231.604 689.638 231.384 689.638 231.16C689.638 230.736 689.482 230.412 689.17 230.188C688.858 229.956 688.462 229.84 687.982 229.84C687.694 229.84 687.462 229.868 687.286 229.924C687.11 229.98 686.982 230.064 686.902 230.176C686.83 230.28 686.794 230.408 686.794 230.56C686.794 230.624 686.802 230.692 686.818 230.764C686.834 230.828 686.85 230.888 686.866 230.944L685.99 231.124C685.95 231.004 685.918 230.88 685.894 230.752C685.87 230.616 685.858 230.496 685.858 230.392C685.858 230.096 685.946 229.844 686.122 229.636C686.298 229.428 686.538 229.272 686.842 229.168C687.154 229.056 687.514 229 687.922 229ZM687.118 229.42C687.078 229.164 686.958 228.94 686.758 228.748C686.558 228.548 686.27 228.408 685.894 228.328L686.182 227.788L686.734 227.932C687.182 228.108 687.506 228.308 687.706 228.532C687.914 228.756 688.034 229.04 688.066 229.384L687.118 229.42ZM691.498 227.536V228.388H684.898V227.536H691.498ZM698.387 235.119C697.887 235.119 697.436 235.02 697.036 234.821C696.635 234.622 696.314 234.349 696.073 234.003C695.831 233.656 695.699 233.261 695.676 232.818H696.699C696.739 233.213 696.918 233.54 697.236 233.798C697.557 234.054 697.941 234.182 698.387 234.182C698.744 234.182 699.063 234.098 699.341 233.93C699.622 233.763 699.843 233.533 700.002 233.24C700.164 232.945 700.244 232.611 700.244 232.239C700.244 231.858 700.161 231.518 699.993 231.22C699.828 230.919 699.601 230.682 699.311 230.509C699.021 230.335 698.691 230.247 698.318 230.244C698.051 230.241 697.777 230.283 697.496 230.368C697.215 230.45 696.983 230.557 696.801 230.688L695.813 230.568L696.341 226.273H700.875V227.21H697.227L696.921 229.784H696.972C697.151 229.642 697.375 229.524 697.645 229.43C697.915 229.337 698.196 229.29 698.489 229.29C699.023 229.29 699.499 229.418 699.916 229.673C700.337 229.926 700.666 230.273 700.905 230.713C701.146 231.153 701.267 231.656 701.267 232.222C701.267 232.778 701.142 233.276 700.892 233.713C700.645 234.148 700.304 234.491 699.869 234.744C699.435 234.994 698.941 235.119 698.387 235.119Z" fill="#414141"/>
<path d="M67 220V203" stroke="#1D1D1F"/>
<path d="M11.5182 59C10.8382 59 10.3382 58.856 10.0182 58.568C9.70622 58.272 9.55022 57.928 9.55022 57.536C9.55022 57.224 9.65022 56.936 9.85022 56.672C10.0502 56.408 10.3942 56.208 10.8822 56.072L11.2302 56.996C10.9822 57.052 10.8022 57.124 10.6902 57.212C10.5862 57.3 10.5342 57.416 10.5342 57.56C10.5342 57.72 10.6142 57.852 10.7742 57.956C10.9422 58.052 11.1862 58.1 11.5062 58.1C12.0022 58.1 12.3862 57.98 12.6582 57.74C12.9302 57.5 13.0662 57.196 13.0662 56.828C13.0662 56.588 13.0182 56.376 12.9222 56.192C12.8262 56 12.6662 55.8 12.4422 55.592C12.2182 55.384 11.9102 55.144 11.5182 54.872C11.0222 54.52 10.6302 54.224 10.3422 53.984C10.0622 53.744 9.86222 53.524 9.74222 53.324C9.63022 53.116 9.57422 52.892 9.57422 52.652C9.57422 52.468 9.62622 52.268 9.73022 52.052C9.84222 51.828 9.99822 51.62 10.1982 51.428L10.9902 51.848C10.8782 51.968 10.7862 52.088 10.7142 52.208C10.6422 52.328 10.6062 52.448 10.6062 52.568C10.6062 52.672 10.6222 52.772 10.6542 52.868C10.6862 52.964 10.7542 53.068 10.8582 53.18C10.9622 53.292 11.1142 53.428 11.3142 53.588C11.5222 53.74 11.7942 53.932 12.1302 54.164C12.5942 54.476 12.9622 54.764 13.2342 55.028C13.5062 55.292 13.6982 55.564 13.8102 55.844C13.9302 56.116 13.9902 56.44 13.9902 56.816C13.9902 57.264 13.8822 57.652 13.6662 57.98C13.4582 58.308 13.1662 58.56 12.7902 58.736C12.4222 58.912 11.9982 59 11.5182 59ZM18.6558 57.908C18.1518 57.908 17.6998 57.812 17.2998 57.62C16.9078 57.428 16.5998 57.136 16.3758 56.744C16.1518 56.344 16.0398 55.844 16.0398 55.244C16.0398 54.772 16.1358 54.328 16.3278 53.912C16.5198 53.488 16.8158 53.144 17.2158 52.88C17.6238 52.608 18.1438 52.472 18.7758 52.472C19.4238 52.472 19.9398 52.596 20.3238 52.844C20.7078 53.092 20.9838 53.42 21.1518 53.828C21.3278 54.228 21.4158 54.672 21.4158 55.16C21.4158 55.632 21.3158 56.08 21.1158 56.504C20.9238 56.92 20.6238 57.26 20.2158 57.524C19.8158 57.78 19.2958 57.908 18.6558 57.908ZM18.7878 53.324C18.4518 53.324 18.1478 53.4 17.8758 53.552C17.6118 53.704 17.3998 53.928 17.2398 54.224C17.0878 54.512 17.0118 54.86 17.0118 55.268C17.0118 55.596 17.0638 55.896 17.1678 56.168C17.2798 56.44 17.4558 56.656 17.6958 56.816C17.9438 56.976 18.2678 57.056 18.6678 57.056C19.0278 57.056 19.3398 56.976 19.6038 56.816C19.8758 56.648 20.0838 56.42 20.2278 56.132C20.3718 55.836 20.4438 55.496 20.4438 55.112C20.4438 54.744 20.3798 54.428 20.2518 54.164C20.1318 53.892 19.9478 53.684 19.6998 53.54C19.4598 53.396 19.1558 53.324 18.7878 53.324ZM25.7573 57.908C25.2533 57.908 24.8013 57.812 24.4013 57.62C24.0093 57.428 23.7013 57.136 23.4773 56.744C23.2533 56.344 23.1413 55.844 23.1413 55.244C23.1413 54.772 23.2373 54.328 23.4293 53.912C23.6213 53.488 23.9173 53.144 24.3173 52.88C24.7253 52.608 25.2453 52.472 25.8773 52.472C26.5253 52.472 27.0413 52.596 27.4253 52.844C27.8093 53.092 28.0853 53.42 28.2533 53.828C28.4293 54.228 28.5173 54.672 28.5173 55.16C28.5173 55.632 28.4173 56.08 28.2173 56.504C28.0253 56.92 27.7253 57.26 27.3173 57.524C26.9173 57.78 26.3973 57.908 25.7573 57.908ZM25.8893 53.324C25.5533 53.324 25.2493 53.4 24.9773 53.552C24.7133 53.704 24.5013 53.928 24.3413 54.224C24.1893 54.512 24.1133 54.86 24.1133 55.268C24.1133 55.596 24.1653 55.896 24.2693 56.168C24.3813 56.44 24.5573 56.656 24.7973 56.816C25.0453 56.976 25.3693 57.056 25.7693 57.056C26.1293 57.056 26.4413 56.976 26.7053 56.816C26.9773 56.648 27.1853 56.42 27.3293 56.132C27.4733 55.836 27.5453 55.496 27.5453 55.112C27.5453 54.744 27.4813 54.428 27.3533 54.164C27.2333 53.892 27.0493 53.684 26.8013 53.54C26.5613 53.396 26.2573 53.324 25.8893 53.324ZM37.5659 58.244C37.0939 58.244 36.6419 58.16 36.2099 57.992C35.7779 57.824 35.3699 57.556 34.9859 57.188C34.6099 56.812 34.2619 56.316 33.9419 55.7C33.6299 55.076 33.3499 54.316 33.1019 53.42L34.0139 53.18C34.2859 54.164 34.5899 54.964 34.9259 55.58C35.2619 56.188 35.6499 56.632 36.0899 56.912C36.5299 57.192 37.0339 57.332 37.6019 57.332C38.1939 57.332 38.6419 57.204 38.9459 56.948C39.2499 56.692 39.4019 56.304 39.4019 55.784C39.4019 55.536 39.3699 55.324 39.3059 55.148C39.2419 54.972 39.1779 54.824 39.1139 54.704H39.8339C39.6099 54.936 39.3739 55.144 39.1259 55.328C38.8859 55.512 38.6259 55.656 38.3459 55.76C38.0739 55.864 37.7739 55.916 37.4459 55.916C37.1339 55.916 36.8579 55.856 36.6179 55.736C36.3779 55.616 36.1899 55.444 36.0539 55.22C35.9179 54.988 35.8499 54.712 35.8499 54.392C35.8499 54.04 35.9739 53.684 36.2219 53.324C36.4699 52.956 36.8899 52.636 37.4819 52.364C37.3219 52.372 37.1379 52.38 36.9299 52.388C36.7299 52.388 36.5299 52.388 36.3299 52.388H32.6339V51.536H43.8779V52.388H40.1219C39.9299 52.388 39.7579 52.384 39.6059 52.376C39.4539 52.368 39.3099 52.36 39.1739 52.352C38.5019 52.656 37.9939 52.932 37.6499 53.18C37.3059 53.428 37.0739 53.656 36.9539 53.864C36.8339 54.064 36.7739 54.256 36.7739 54.44C36.7739 54.664 36.8379 54.824 36.9659 54.92C37.0939 55.016 37.2379 55.064 37.3979 55.064C37.7019 55.064 37.9739 54.996 38.2139 54.86C38.4539 54.716 38.7259 54.512 39.0299 54.248L40.0619 54.62C40.1339 54.78 40.1939 54.98 40.2419 55.22C40.2899 55.452 40.3139 55.696 40.3139 55.952C40.3139 56.352 40.2219 56.728 40.0379 57.08C39.8619 57.424 39.5699 57.704 39.1619 57.92C38.7619 58.136 38.2299 58.244 37.5659 58.244ZM42.3659 56.54C42.3659 56.932 42.3979 57.308 42.4619 57.668C42.5259 58.028 42.6339 58.432 42.7859 58.88L41.8859 59.084C41.7419 58.62 41.6299 58.168 41.5499 57.728C41.4699 57.28 41.4299 56.816 41.4299 56.336C41.4299 55.912 41.4659 55.532 41.5379 55.196C41.6179 54.86 41.7099 54.576 41.8139 54.344C41.2059 54.336 40.6859 54.26 40.2539 54.116C39.8299 53.964 39.4739 53.752 39.1859 53.48C38.8979 53.2 38.6539 52.868 38.4539 52.484L39.3659 52.292C39.4939 52.524 39.6539 52.732 39.8459 52.916C40.0459 53.092 40.3019 53.232 40.6139 53.336C40.9259 53.44 41.3099 53.492 41.7659 53.492C41.8779 53.492 41.9859 53.488 42.0899 53.48C42.1939 53.472 42.3059 53.464 42.4259 53.456L42.8939 54.296C42.7019 54.656 42.5659 55.008 42.4859 55.352C42.4059 55.696 42.3659 56.092 42.3659 56.54ZM51.1258 51.536V52.388H49.8658V59H48.9418V56.084L49.1338 56.756C48.8698 56.388 48.5818 56.056 48.2698 55.76C47.9578 55.464 47.6378 55.228 47.3098 55.052C46.9818 54.876 46.6618 54.788 46.3498 54.788C46.0538 54.788 45.8018 54.868 45.5938 55.028C45.3938 55.18 45.2938 55.408 45.2938 55.712C45.2938 55.952 45.3778 56.16 45.5458 56.336C45.7138 56.504 45.9738 56.656 46.3258 56.792L45.8698 57.644C45.3818 57.444 44.9978 57.176 44.7178 56.84C44.4458 56.496 44.3098 56.108 44.3098 55.676C44.3098 55.284 44.4018 54.96 44.5858 54.704C44.7778 54.44 45.0178 54.244 45.3058 54.116C45.6018 53.988 45.9018 53.924 46.2058 53.924C46.6218 53.924 47.0018 53.996 47.3458 54.14C47.6898 54.284 48.0098 54.48 48.3058 54.728C48.6098 54.976 48.8978 55.264 49.1698 55.592L49.0018 55.64C48.9778 55.456 48.9618 55.276 48.9538 55.1C48.9458 54.916 48.9418 54.732 48.9418 54.548V52.388H43.6378V51.536H51.1258Z" fill="#414141"/>
<path d="M19.7598 92.388L20.3598 92.568C20.0398 92.72 19.7078 92.836 19.3638 92.916C19.0278 92.988 18.7038 93.024 18.3918 93.024C17.6078 93.024 17.0158 92.852 16.6158 92.508C16.2158 92.156 16.0158 91.676 16.0158 91.068C16.0158 90.708 16.0918 90.376 16.2438 90.072C16.3958 89.768 16.5998 89.5 16.8558 89.268C17.1198 89.036 17.4118 88.856 17.7318 88.728C18.0598 88.6 18.3958 88.536 18.7398 88.536C19.0278 88.536 19.2918 88.572 19.5318 88.644C19.7718 88.716 19.9798 88.832 20.1558 88.992C20.3158 89.144 20.4438 89.328 20.5398 89.544C20.6358 89.76 20.6838 90.092 20.6838 90.54V94.284C20.6838 94.484 20.7038 94.64 20.7438 94.752C20.7838 94.864 20.8638 94.944 20.9838 94.992C21.1038 95.04 21.2798 95.068 21.5118 95.076L21.4158 96C20.9918 95.984 20.6558 95.924 20.4078 95.82C20.1678 95.716 19.9998 95.56 19.9038 95.352C19.8078 95.136 19.7598 94.864 19.7598 94.536V92.388ZM18.3678 92.136C18.7038 92.136 18.9958 92.104 19.2438 92.04C19.4918 91.968 19.7518 91.86 20.0238 91.716L19.7598 91.944V90.732C19.7598 90.436 19.7438 90.208 19.7118 90.048C19.6878 89.88 19.6198 89.744 19.5078 89.64C19.4278 89.552 19.3238 89.488 19.1958 89.448C19.0758 89.408 18.9238 89.388 18.7398 89.388C18.5318 89.388 18.3238 89.432 18.1158 89.52C17.9078 89.608 17.7198 89.732 17.5518 89.892C17.3838 90.044 17.2478 90.228 17.1438 90.444C17.0398 90.652 16.9878 90.88 16.9878 91.128C16.9878 91.512 17.1118 91.776 17.3598 91.92C17.6158 92.064 17.9518 92.136 18.3678 92.136ZM26.0333 96C25.4253 96 24.8813 95.884 24.4013 95.652C23.9213 95.42 23.5453 95.084 23.2733 94.644C23.0013 94.196 22.8653 93.656 22.8653 93.024C22.8653 92.384 23.0413 91.8 23.3933 91.272C23.7533 90.736 24.2613 90.24 24.9173 89.784C25.5733 89.32 26.3493 88.876 27.2453 88.452L27.7133 89.1C27.6333 89.204 27.5733 89.312 27.5333 89.424C27.5013 89.536 27.4853 89.652 27.4853 89.772C27.4853 90.004 27.5773 90.192 27.7613 90.336C27.9533 90.472 28.1973 90.54 28.4933 90.54C28.5173 90.54 28.5453 90.54 28.5773 90.54C28.6093 90.54 28.6413 90.536 28.6733 90.528L29.0693 91.2C28.6213 91.448 28.2413 91.684 27.9293 91.908C27.6173 92.132 27.3813 92.36 27.2213 92.592C27.0613 92.824 26.9813 93.076 26.9813 93.348C26.9813 93.572 27.0653 93.784 27.2333 93.984C27.4013 94.176 27.7173 94.272 28.1813 94.272C28.2613 94.272 28.3373 94.272 28.4093 94.272C28.4893 94.264 28.5573 94.256 28.6133 94.248L29.0093 95.268C28.6093 95.5 28.1533 95.68 27.6413 95.808C27.1373 95.936 26.6013 96 26.0333 96ZM26.1173 95.148C26.3733 95.148 26.5893 95.14 26.7653 95.124C26.9413 95.1 27.1093 95.072 27.2693 95.04C27.4293 95 27.6053 94.956 27.7973 94.908L27.7733 94.932C27.1893 94.86 26.7573 94.68 26.4773 94.392C26.2053 94.104 26.0693 93.752 26.0693 93.336C26.0693 93.024 26.1373 92.736 26.2733 92.472C26.4173 92.2 26.6293 91.936 26.9093 91.68C27.1973 91.424 27.5533 91.16 27.9773 90.888L27.9533 91.188C27.6733 91.156 27.4373 91.08 27.2453 90.96C27.0613 90.832 26.9213 90.676 26.8253 90.492C26.7293 90.308 26.6813 90.116 26.6813 89.916C26.6813 89.828 26.6893 89.744 26.7053 89.664C26.7213 89.584 26.7453 89.508 26.7773 89.436L26.8853 89.604C26.2853 89.9 25.7573 90.232 25.3013 90.6C24.8453 90.96 24.4853 91.352 24.2213 91.776C23.9653 92.2 23.8373 92.656 23.8373 93.144C23.8373 93.64 23.9493 94.036 24.1733 94.332C24.3973 94.628 24.6813 94.84 25.0253 94.968C25.3773 95.088 25.7413 95.148 26.1173 95.148ZM37.5659 95.244C37.0939 95.244 36.6419 95.16 36.2099 94.992C35.7779 94.824 35.3699 94.556 34.9859 94.188C34.6099 93.812 34.2619 93.316 33.9419 92.7C33.6299 92.076 33.3499 91.316 33.1019 90.42L34.0139 90.18C34.2859 91.164 34.5899 91.964 34.9259 92.58C35.2619 93.188 35.6499 93.632 36.0899 93.912C36.5299 94.192 37.0339 94.332 37.6019 94.332C38.1939 94.332 38.6419 94.204 38.9459 93.948C39.2499 93.692 39.4019 93.304 39.4019 92.784C39.4019 92.536 39.3699 92.324 39.3059 92.148C39.2419 91.972 39.1779 91.824 39.1139 91.704H39.8339C39.6099 91.936 39.3739 92.144 39.1259 92.328C38.8859 92.512 38.6259 92.656 38.3459 92.76C38.0739 92.864 37.7739 92.916 37.4459 92.916C37.1339 92.916 36.8579 92.856 36.6179 92.736C36.3779 92.616 36.1899 92.444 36.0539 92.22C35.9179 91.988 35.8499 91.712 35.8499 91.392C35.8499 91.04 35.9739 90.684 36.2219 90.324C36.4699 89.956 36.8899 89.636 37.4819 89.364C37.3219 89.372 37.1379 89.38 36.9299 89.388C36.7299 89.388 36.5299 89.388 36.3299 89.388H32.6339V88.536H43.8779V89.388H40.1219C39.9299 89.388 39.7579 89.384 39.6059 89.376C39.4539 89.368 39.3099 89.36 39.1739 89.352C38.5019 89.656 37.9939 89.932 37.6499 90.18C37.3059 90.428 37.0739 90.656 36.9539 90.864C36.8339 91.064 36.7739 91.256 36.7739 91.44C36.7739 91.664 36.8379 91.824 36.9659 91.92C37.0939 92.016 37.2379 92.064 37.3979 92.064C37.7019 92.064 37.9739 91.996 38.2139 91.86C38.4539 91.716 38.7259 91.512 39.0299 91.248L40.0619 91.62C40.1339 91.78 40.1939 91.98 40.2419 92.22C40.2899 92.452 40.3139 92.696 40.3139 92.952C40.3139 93.352 40.2219 93.728 40.0379 94.08C39.8619 94.424 39.5699 94.704 39.1619 94.92C38.7619 95.136 38.2299 95.244 37.5659 95.244ZM42.3659 93.54C42.3659 93.932 42.3979 94.308 42.4619 94.668C42.5259 95.028 42.6339 95.432 42.7859 95.88L41.8859 96.084C41.7419 95.62 41.6299 95.168 41.5499 94.728C41.4699 94.28 41.4299 93.816 41.4299 93.336C41.4299 92.912 41.4659 92.532 41.5379 92.196C41.6179 91.86 41.7099 91.576 41.8139 91.344C41.2059 91.336 40.6859 91.26 40.2539 91.116C39.8299 90.964 39.4739 90.752 39.1859 90.48C38.8979 90.2 38.6539 89.868 38.4539 89.484L39.3659 89.292C39.4939 89.524 39.6539 89.732 39.8459 89.916C40.0459 90.092 40.3019 90.232 40.6139 90.336C40.9259 90.44 41.3099 90.492 41.7659 90.492C41.8779 90.492 41.9859 90.488 42.0899 90.48C42.1939 90.472 42.3059 90.464 42.4259 90.456L42.8939 91.296C42.7019 91.656 42.5659 92.008 42.4859 92.352C42.4059 92.696 42.3659 93.092 42.3659 93.54ZM51.1258 88.536V89.388H49.8658V96H48.9418V93.084L49.1338 93.756C48.8698 93.388 48.5818 93.056 48.2698 92.76C47.9578 92.464 47.6378 92.228 47.3098 92.052C46.9818 91.876 46.6618 91.788 46.3498 91.788C46.0538 91.788 45.8018 91.868 45.5938 92.028C45.3938 92.18 45.2938 92.408 45.2938 92.712C45.2938 92.952 45.3778 93.16 45.5458 93.336C45.7138 93.504 45.9738 93.656 46.3258 93.792L45.8698 94.644C45.3818 94.444 44.9978 94.176 44.7178 93.84C44.4458 93.496 44.3098 93.108 44.3098 92.676C44.3098 92.284 44.4018 91.96 44.5858 91.704C44.7778 91.44 45.0178 91.244 45.3058 91.116C45.6018 90.988 45.9018 90.924 46.2058 90.924C46.6218 90.924 47.0018 90.996 47.3458 91.14C47.6898 91.284 48.0098 91.48 48.3058 91.728C48.6098 91.976 48.8978 92.264 49.1698 92.592L49.0018 92.64C48.9778 92.456 48.9618 92.276 48.9538 92.1C48.9458 91.916 48.9418 91.732 48.9418 91.548V89.388H43.6378V88.536H51.1258Z" fill="#414141"/>
<path d="M18.9318 133C18.3238 133 17.7798 132.884 17.2998 132.652C16.8198 132.42 16.4438 132.084 16.1718 131.644C15.8998 131.196 15.7638 130.656 15.7638 130.024C15.7638 129.384 15.9398 128.8 16.2918 128.272C16.6518 127.736 17.1598 127.24 17.8158 126.784C18.4718 126.32 19.2478 125.876 20.1438 125.452L20.6118 126.1C20.5318 126.204 20.4718 126.312 20.4318 126.424C20.3998 126.536 20.3838 126.652 20.3838 126.772C20.3838 127.004 20.4758 127.192 20.6598 127.336C20.8518 127.472 21.0958 127.54 21.3918 127.54C21.4158 127.54 21.4438 127.54 21.4758 127.54C21.5078 127.54 21.5398 127.536 21.5718 127.528L21.9678 128.2C21.5198 128.448 21.1398 128.684 20.8278 128.908C20.5158 129.132 20.2798 129.36 20.1198 129.592C19.9598 129.824 19.8798 130.076 19.8798 130.348C19.8798 130.572 19.9638 130.784 20.1318 130.984C20.2998 131.176 20.6158 131.272 21.0798 131.272C21.1598 131.272 21.2358 131.272 21.3078 131.272C21.3878 131.264 21.4558 131.256 21.5118 131.248L21.9078 132.268C21.5078 132.5 21.0518 132.68 20.5398 132.808C20.0358 132.936 19.4998 133 18.9318 133ZM19.0158 132.148C19.2718 132.148 19.4878 132.14 19.6638 132.124C19.8398 132.1 20.0078 132.072 20.1678 132.04C20.3278 132 20.5038 131.956 20.6958 131.908L20.6718 131.932C20.0878 131.86 19.6558 131.68 19.3758 131.392C19.1038 131.104 18.9678 130.752 18.9678 130.336C18.9678 130.024 19.0358 129.736 19.1718 129.472C19.3158 129.2 19.5278 128.936 19.8078 128.68C20.0958 128.424 20.4518 128.16 20.8758 127.888L20.8518 128.188C20.5718 128.156 20.3358 128.08 20.1438 127.96C19.9598 127.832 19.8198 127.676 19.7238 127.492C19.6278 127.308 19.5798 127.116 19.5798 126.916C19.5798 126.828 19.5878 126.744 19.6038 126.664C19.6198 126.584 19.6438 126.508 19.6758 126.436L19.7838 126.604C19.1838 126.9 18.6558 127.232 18.1998 127.6C17.7438 127.96 17.3838 128.352 17.1198 128.776C16.8638 129.2 16.7358 129.656 16.7358 130.144C16.7358 130.64 16.8478 131.036 17.0718 131.332C17.2958 131.628 17.5798 131.84 17.9238 131.968C18.2758 132.088 18.6398 132.148 19.0158 132.148ZM25.7573 131.908C25.2533 131.908 24.8013 131.812 24.4013 131.62C24.0093 131.428 23.7013 131.136 23.4773 130.744C23.2533 130.344 23.1413 129.844 23.1413 129.244C23.1413 128.772 23.2373 128.328 23.4293 127.912C23.6213 127.488 23.9173 127.144 24.3173 126.88C24.7253 126.608 25.2453 126.472 25.8773 126.472C26.5253 126.472 27.0413 126.596 27.4253 126.844C27.8093 127.092 28.0853 127.42 28.2533 127.828C28.4293 128.228 28.5173 128.672 28.5173 129.16C28.5173 129.632 28.4173 130.08 28.2173 130.504C28.0253 130.92 27.7253 131.26 27.3173 131.524C26.9173 131.78 26.3973 131.908 25.7573 131.908ZM25.8893 127.324C25.5533 127.324 25.2493 127.4 24.9773 127.552C24.7133 127.704 24.5013 127.928 24.3413 128.224C24.1893 128.512 24.1133 128.86 24.1133 129.268C24.1133 129.596 24.1653 129.896 24.2693 130.168C24.3813 130.44 24.5573 130.656 24.7973 130.816C25.0453 130.976 25.3693 131.056 25.7693 131.056C26.1293 131.056 26.4413 130.976 26.7053 130.816C26.9773 130.648 27.1853 130.42 27.3293 130.132C27.4733 129.836 27.5453 129.496 27.5453 129.112C27.5453 128.744 27.4813 128.428 27.3533 128.164C27.2333 127.892 27.0493 127.684 26.8013 127.54C26.5613 127.396 26.2573 127.324 25.8893 127.324ZM37.5659 132.244C37.0939 132.244 36.6419 132.16 36.2099 131.992C35.7779 131.824 35.3699 131.556 34.9859 131.188C34.6099 130.812 34.2619 130.316 33.9419 129.7C33.6299 129.076 33.3499 128.316 33.1019 127.42L34.0139 127.18C34.2859 128.164 34.5899 128.964 34.9259 129.58C35.2619 130.188 35.6499 130.632 36.0899 130.912C36.5299 131.192 37.0339 131.332 37.6019 131.332C38.1939 131.332 38.6419 131.204 38.9459 130.948C39.2499 130.692 39.4019 130.304 39.4019 129.784C39.4019 129.536 39.3699 129.324 39.3059 129.148C39.2419 128.972 39.1779 128.824 39.1139 128.704H39.8339C39.6099 128.936 39.3739 129.144 39.1259 129.328C38.8859 129.512 38.6259 129.656 38.3459 129.76C38.0739 129.864 37.7739 129.916 37.4459 129.916C37.1339 129.916 36.8579 129.856 36.6179 129.736C36.3779 129.616 36.1899 129.444 36.0539 129.22C35.9179 128.988 35.8499 128.712 35.8499 128.392C35.8499 128.04 35.9739 127.684 36.2219 127.324C36.4699 126.956 36.8899 126.636 37.4819 126.364C37.3219 126.372 37.1379 126.38 36.9299 126.388C36.7299 126.388 36.5299 126.388 36.3299 126.388H32.6339V125.536H43.8779V126.388H40.1219C39.9299 126.388 39.7579 126.384 39.6059 126.376C39.4539 126.368 39.3099 126.36 39.1739 126.352C38.5019 126.656 37.9939 126.932 37.6499 127.18C37.3059 127.428 37.0739 127.656 36.9539 127.864C36.8339 128.064 36.7739 128.256 36.7739 128.44C36.7739 128.664 36.8379 128.824 36.9659 128.92C37.0939 129.016 37.2379 129.064 37.3979 129.064C37.7019 129.064 37.9739 128.996 38.2139 128.86C38.4539 128.716 38.7259 128.512 39.0299 128.248L40.0619 128.62C40.1339 128.78 40.1939 128.98 40.2419 129.22C40.2899 129.452 40.3139 129.696 40.3139 129.952C40.3139 130.352 40.2219 130.728 40.0379 131.08C39.8619 131.424 39.5699 131.704 39.1619 131.92C38.7619 132.136 38.2299 132.244 37.5659 132.244ZM42.3659 130.54C42.3659 130.932 42.3979 131.308 42.4619 131.668C42.5259 132.028 42.6339 132.432 42.7859 132.88L41.8859 133.084C41.7419 132.62 41.6299 132.168 41.5499 131.728C41.4699 131.28 41.4299 130.816 41.4299 130.336C41.4299 129.912 41.4659 129.532 41.5379 129.196C41.6179 128.86 41.7099 128.576 41.8139 128.344C41.2059 128.336 40.6859 128.26 40.2539 128.116C39.8299 127.964 39.4739 127.752 39.1859 127.48C38.8979 127.2 38.6539 126.868 38.4539 126.484L39.3659 126.292C39.4939 126.524 39.6539 126.732 39.8459 126.916C40.0459 127.092 40.3019 127.232 40.6139 127.336C40.9259 127.44 41.3099 127.492 41.7659 127.492C41.8779 127.492 41.9859 127.488 42.0899 127.48C42.1939 127.472 42.3059 127.464 42.4259 127.456L42.8939 128.296C42.7019 128.656 42.5659 129.008 42.4859 129.352C42.4059 129.696 42.3659 130.092 42.3659 130.54ZM51.1258 125.536V126.388H49.8658V133H48.9418V130.084L49.1338 130.756C48.8698 130.388 48.5818 130.056 48.2698 129.76C47.9578 129.464 47.6378 129.228 47.3098 129.052C46.9818 128.876 46.6618 128.788 46.3498 128.788C46.0538 128.788 45.8018 128.868 45.5938 129.028C45.3938 129.18 45.2938 129.408 45.2938 129.712C45.2938 129.952 45.3778 130.16 45.5458 130.336C45.7138 130.504 45.9738 130.656 46.3258 130.792L45.8698 131.644C45.3818 131.444 44.9978 131.176 44.7178 130.84C44.4458 130.496 44.3098 130.108 44.3098 129.676C44.3098 129.284 44.4018 128.96 44.5858 128.704C44.7778 128.44 45.0178 128.244 45.3058 128.116C45.6018 127.988 45.9018 127.924 46.2058 127.924C46.6218 127.924 47.0018 127.996 47.3458 128.14C47.6898 128.284 48.0098 128.48 48.3058 128.728C48.6098 128.976 48.8978 129.264 49.1698 129.592L49.0018 129.64C48.9778 129.456 48.9618 129.276 48.9538 129.1C48.9458 128.916 48.9418 128.732 48.9418 128.548V126.388H43.6378V125.536H51.1258Z" fill="#414141"/>
<path d="M16.6998 163.532C16.6998 163.356 16.7398 163.18 16.8198 163.004C16.9078 162.828 17.0398 162.636 17.2158 162.428L17.9718 162.848C17.8758 162.952 17.8078 163.052 17.7678 163.148C17.7278 163.236 17.7078 163.324 17.7078 163.412C17.7078 163.524 17.7398 163.616 17.8038 163.688C17.8678 163.76 17.9878 163.824 18.1638 163.88C18.3478 163.928 18.6158 163.988 18.9678 164.06C19.7998 164.212 20.3758 164.448 20.6958 164.768C21.0158 165.08 21.1758 165.484 21.1758 165.98C21.1758 166.508 20.9518 166.96 20.5038 167.336C20.0638 167.712 19.4438 167.928 18.6438 167.984C18.5638 167.984 18.4838 167.976 18.4038 167.96C18.3238 167.944 18.2438 167.924 18.1638 167.9L18.6438 167.792C18.9958 167.912 19.3518 168.068 19.7118 168.26C20.0718 168.444 20.4278 168.656 20.7798 168.896C21.1318 169.128 21.4758 169.384 21.8118 169.664L21.2598 170.312C20.7878 169.92 20.3478 169.592 19.9398 169.328C19.5398 169.056 19.1398 168.832 18.7398 168.656C18.3478 168.472 17.9278 168.312 17.4798 168.176C17.0318 168.04 16.5238 167.908 15.9558 167.78L16.1358 166.928C16.4158 167.008 16.6998 167.076 16.9878 167.132C17.2758 167.18 17.6358 167.204 18.0678 167.204C18.8758 167.204 19.4358 167.096 19.7478 166.88C20.0678 166.664 20.2278 166.376 20.2278 166.016C20.2278 165.816 20.1798 165.648 20.0838 165.512C19.9958 165.368 19.8398 165.248 19.6158 165.152C19.3918 165.048 19.0718 164.956 18.6558 164.876C18.1918 164.78 17.8158 164.672 17.5278 164.552C17.2398 164.432 17.0278 164.288 16.8918 164.12C16.7638 163.952 16.6998 163.756 16.6998 163.532ZM26.0333 170C25.4253 170 24.8813 169.884 24.4013 169.652C23.9213 169.42 23.5453 169.084 23.2733 168.644C23.0013 168.196 22.8653 167.656 22.8653 167.024C22.8653 166.384 23.0413 165.8 23.3933 165.272C23.7533 164.736 24.2613 164.24 24.9173 163.784C25.5733 163.32 26.3493 162.876 27.2453 162.452L27.7133 163.1C27.6333 163.204 27.5733 163.312 27.5333 163.424C27.5013 163.536 27.4853 163.652 27.4853 163.772C27.4853 164.004 27.5773 164.192 27.7613 164.336C27.9533 164.472 28.1973 164.54 28.4933 164.54C28.5173 164.54 28.5453 164.54 28.5773 164.54C28.6093 164.54 28.6413 164.536 28.6733 164.528L29.0693 165.2C28.6213 165.448 28.2413 165.684 27.9293 165.908C27.6173 166.132 27.3813 166.36 27.2213 166.592C27.0613 166.824 26.9813 167.076 26.9813 167.348C26.9813 167.572 27.0653 167.784 27.2333 167.984C27.4013 168.176 27.7173 168.272 28.1813 168.272C28.2613 168.272 28.3373 168.272 28.4093 168.272C28.4893 168.264 28.5573 168.256 28.6133 168.248L29.0093 169.268C28.6093 169.5 28.1533 169.68 27.6413 169.808C27.1373 169.936 26.6013 170 26.0333 170ZM26.1173 169.148C26.3733 169.148 26.5893 169.14 26.7653 169.124C26.9413 169.1 27.1093 169.072 27.2693 169.04C27.4293 169 27.6053 168.956 27.7973 168.908L27.7733 168.932C27.1893 168.86 26.7573 168.68 26.4773 168.392C26.2053 168.104 26.0693 167.752 26.0693 167.336C26.0693 167.024 26.1373 166.736 26.2733 166.472C26.4173 166.2 26.6293 165.936 26.9093 165.68C27.1973 165.424 27.5533 165.16 27.9773 164.888L27.9533 165.188C27.6733 165.156 27.4373 165.08 27.2453 164.96C27.0613 164.832 26.9213 164.676 26.8253 164.492C26.7293 164.308 26.6813 164.116 26.6813 163.916C26.6813 163.828 26.6893 163.744 26.7053 163.664C26.7213 163.584 26.7453 163.508 26.7773 163.436L26.8853 163.604C26.2853 163.9 25.7573 164.232 25.3013 164.6C24.8453 164.96 24.4853 165.352 24.2213 165.776C23.9653 166.2 23.8373 166.656 23.8373 167.144C23.8373 167.64 23.9493 168.036 24.1733 168.332C24.3973 168.628 24.6813 168.84 25.0253 168.968C25.3773 169.088 25.7413 169.148 26.1173 169.148ZM37.5659 169.244C37.0939 169.244 36.6419 169.16 36.2099 168.992C35.7779 168.824 35.3699 168.556 34.9859 168.188C34.6099 167.812 34.2619 167.316 33.9419 166.7C33.6299 166.076 33.3499 165.316 33.1019 164.42L34.0139 164.18C34.2859 165.164 34.5899 165.964 34.9259 166.58C35.2619 167.188 35.6499 167.632 36.0899 167.912C36.5299 168.192 37.0339 168.332 37.6019 168.332C38.1939 168.332 38.6419 168.204 38.9459 167.948C39.2499 167.692 39.4019 167.304 39.4019 166.784C39.4019 166.536 39.3699 166.324 39.3059 166.148C39.2419 165.972 39.1779 165.824 39.1139 165.704H39.8339C39.6099 165.936 39.3739 166.144 39.1259 166.328C38.8859 166.512 38.6259 166.656 38.3459 166.76C38.0739 166.864 37.7739 166.916 37.4459 166.916C37.1339 166.916 36.8579 166.856 36.6179 166.736C36.3779 166.616 36.1899 166.444 36.0539 166.22C35.9179 165.988 35.8499 165.712 35.8499 165.392C35.8499 165.04 35.9739 164.684 36.2219 164.324C36.4699 163.956 36.8899 163.636 37.4819 163.364C37.3219 163.372 37.1379 163.38 36.9299 163.388C36.7299 163.388 36.5299 163.388 36.3299 163.388H32.6339V162.536H43.8779V163.388H40.1219C39.9299 163.388 39.7579 163.384 39.6059 163.376C39.4539 163.368 39.3099 163.36 39.1739 163.352C38.5019 163.656 37.9939 163.932 37.6499 164.18C37.3059 164.428 37.0739 164.656 36.9539 164.864C36.8339 165.064 36.7739 165.256 36.7739 165.44C36.7739 165.664 36.8379 165.824 36.9659 165.92C37.0939 166.016 37.2379 166.064 37.3979 166.064C37.7019 166.064 37.9739 165.996 38.2139 165.86C38.4539 165.716 38.7259 165.512 39.0299 165.248L40.0619 165.62C40.1339 165.78 40.1939 165.98 40.2419 166.22C40.2899 166.452 40.3139 166.696 40.3139 166.952C40.3139 167.352 40.2219 167.728 40.0379 168.08C39.8619 168.424 39.5699 168.704 39.1619 168.92C38.7619 169.136 38.2299 169.244 37.5659 169.244ZM42.3659 167.54C42.3659 167.932 42.3979 168.308 42.4619 168.668C42.5259 169.028 42.6339 169.432 42.7859 169.88L41.8859 170.084C41.7419 169.62 41.6299 169.168 41.5499 168.728C41.4699 168.28 41.4299 167.816 41.4299 167.336C41.4299 166.912 41.4659 166.532 41.5379 166.196C41.6179 165.86 41.7099 165.576 41.8139 165.344C41.2059 165.336 40.6859 165.26 40.2539 165.116C39.8299 164.964 39.4739 164.752 39.1859 164.48C38.8979 164.2 38.6539 163.868 38.4539 163.484L39.3659 163.292C39.4939 163.524 39.6539 163.732 39.8459 163.916C40.0459 164.092 40.3019 164.232 40.6139 164.336C40.9259 164.44 41.3099 164.492 41.7659 164.492C41.8779 164.492 41.9859 164.488 42.0899 164.48C42.1939 164.472 42.3059 164.464 42.4259 164.456L42.8939 165.296C42.7019 165.656 42.5659 166.008 42.4859 166.352C42.4059 166.696 42.3659 167.092 42.3659 167.54ZM51.1258 162.536V163.388H49.8658V170H48.9418V167.084L49.1338 167.756C48.8698 167.388 48.5818 167.056 48.2698 166.76C47.9578 166.464 47.6378 166.228 47.3098 166.052C46.9818 165.876 46.6618 165.788 46.3498 165.788C46.0538 165.788 45.8018 165.868 45.5938 166.028C45.3938 166.18 45.2938 166.408 45.2938 166.712C45.2938 166.952 45.3778 167.16 45.5458 167.336C45.7138 167.504 45.9738 167.656 46.3258 167.792L45.8698 168.644C45.3818 168.444 44.9978 168.176 44.7178 167.84C44.4458 167.496 44.3098 167.108 44.3098 166.676C44.3098 166.284 44.4018 165.96 44.5858 165.704C44.7778 165.44 45.0178 165.244 45.3058 165.116C45.6018 164.988 45.9018 164.924 46.2058 164.924C46.6218 164.924 47.0018 164.996 47.3458 165.14C47.6898 165.284 48.0098 165.48 48.3058 165.728C48.6098 165.976 48.8978 166.264 49.1698 166.592L49.0018 166.64C48.9778 166.456 48.9618 166.276 48.9538 166.1C48.9458 165.916 48.9418 165.732 48.9418 165.548V163.388H43.6378V162.536H51.1258Z" fill="#414141"/>
<path d="M25.7573 205.908C25.2533 205.908 24.8013 205.812 24.4013 205.62C24.0093 205.428 23.7013 205.136 23.4773 204.744C23.2533 204.344 23.1413 203.844 23.1413 203.244C23.1413 202.772 23.2373 202.328 23.4293 201.912C23.6213 201.488 23.9173 201.144 24.3173 200.88C24.7253 200.608 25.2453 200.472 25.8773 200.472C26.5253 200.472 27.0413 200.596 27.4253 200.844C27.8093 201.092 28.0853 201.42 28.2533 201.828C28.4293 202.228 28.5173 202.672 28.5173 203.16C28.5173 203.632 28.4173 204.08 28.2173 204.504C28.0253 204.92 27.7253 205.26 27.3173 205.524C26.9173 205.78 26.3973 205.908 25.7573 205.908ZM25.8893 201.324C25.5533 201.324 25.2493 201.4 24.9773 201.552C24.7133 201.704 24.5013 201.928 24.3413 202.224C24.1893 202.512 24.1133 202.86 24.1133 203.268C24.1133 203.596 24.1653 203.896 24.2693 204.168C24.3813 204.44 24.5573 204.656 24.7973 204.816C25.0453 204.976 25.3693 205.056 25.7693 205.056C26.1293 205.056 26.4413 204.976 26.7053 204.816C26.9773 204.648 27.1853 204.42 27.3293 204.132C27.4733 203.836 27.5453 203.496 27.5453 203.112C27.5453 202.744 27.4813 202.428 27.3533 202.164C27.2333 201.892 27.0493 201.684 26.8013 201.54C26.5613 201.396 26.2573 201.324 25.8893 201.324ZM37.5659 206.244C37.0939 206.244 36.6419 206.16 36.2099 205.992C35.7779 205.824 35.3699 205.556 34.9859 205.188C34.6099 204.812 34.2619 204.316 33.9419 203.7C33.6299 203.076 33.3499 202.316 33.1019 201.42L34.0139 201.18C34.2859 202.164 34.5899 202.964 34.9259 203.58C35.2619 204.188 35.6499 204.632 36.0899 204.912C36.5299 205.192 37.0339 205.332 37.6019 205.332C38.1939 205.332 38.6419 205.204 38.9459 204.948C39.2499 204.692 39.4019 204.304 39.4019 203.784C39.4019 203.536 39.3699 203.324 39.3059 203.148C39.2419 202.972 39.1779 202.824 39.1139 202.704H39.8339C39.6099 202.936 39.3739 203.144 39.1259 203.328C38.8859 203.512 38.6259 203.656 38.3459 203.76C38.0739 203.864 37.7739 203.916 37.4459 203.916C37.1339 203.916 36.8579 203.856 36.6179 203.736C36.3779 203.616 36.1899 203.444 36.0539 203.22C35.9179 202.988 35.8499 202.712 35.8499 202.392C35.8499 202.04 35.9739 201.684 36.2219 201.324C36.4699 200.956 36.8899 200.636 37.4819 200.364C37.3219 200.372 37.1379 200.38 36.9299 200.388C36.7299 200.388 36.5299 200.388 36.3299 200.388H32.6339V199.536H43.8779V200.388H40.1219C39.9299 200.388 39.7579 200.384 39.6059 200.376C39.4539 200.368 39.3099 200.36 39.1739 200.352C38.5019 200.656 37.9939 200.932 37.6499 201.18C37.3059 201.428 37.0739 201.656 36.9539 201.864C36.8339 202.064 36.7739 202.256 36.7739 202.44C36.7739 202.664 36.8379 202.824 36.9659 202.92C37.0939 203.016 37.2379 203.064 37.3979 203.064C37.7019 203.064 37.9739 202.996 38.2139 202.86C38.4539 202.716 38.7259 202.512 39.0299 202.248L40.0619 202.62C40.1339 202.78 40.1939 202.98 40.2419 203.22C40.2899 203.452 40.3139 203.696 40.3139 203.952C40.3139 204.352 40.2219 204.728 40.0379 205.08C39.8619 205.424 39.5699 205.704 39.1619 205.92C38.7619 206.136 38.2299 206.244 37.5659 206.244ZM42.3659 204.54C42.3659 204.932 42.3979 205.308 42.4619 205.668C42.5259 206.028 42.6339 206.432 42.7859 206.88L41.8859 207.084C41.7419 206.62 41.6299 206.168 41.5499 205.728C41.4699 205.28 41.4299 204.816 41.4299 204.336C41.4299 203.912 41.4659 203.532 41.5379 203.196C41.6179 202.86 41.7099 202.576 41.8139 202.344C41.2059 202.336 40.6859 202.26 40.2539 202.116C39.8299 201.964 39.4739 201.752 39.1859 201.48C38.8979 201.2 38.6539 200.868 38.4539 200.484L39.3659 200.292C39.4939 200.524 39.6539 200.732 39.8459 200.916C40.0459 201.092 40.3019 201.232 40.6139 201.336C40.9259 201.44 41.3099 201.492 41.7659 201.492C41.8779 201.492 41.9859 201.488 42.0899 201.48C42.1939 201.472 42.3059 201.464 42.4259 201.456L42.8939 202.296C42.7019 202.656 42.5659 203.008 42.4859 203.352C42.4059 203.696 42.3659 204.092 42.3659 204.54ZM51.1258 199.536V200.388H49.8658V207H48.9418V204.084L49.1338 204.756C48.8698 204.388 48.5818 204.056 48.2698 203.76C47.9578 203.464 47.6378 203.228 47.3098 203.052C46.9818 202.876 46.6618 202.788 46.3498 202.788C46.0538 202.788 45.8018 202.868 45.5938 203.028C45.3938 203.18 45.2938 203.408 45.2938 203.712C45.2938 203.952 45.3778 204.16 45.5458 204.336C45.7138 204.504 45.9738 204.656 46.3258 204.792L45.8698 205.644C45.3818 205.444 44.9978 205.176 44.7178 204.84C44.4458 204.496 44.3098 204.108 44.3098 203.676C44.3098 203.284 44.4018 202.96 44.5858 202.704C44.7778 202.44 45.0178 202.244 45.3058 202.116C45.6018 201.988 45.9018 201.924 46.2058 201.924C46.6218 201.924 47.0018 201.996 47.3458 202.14C47.6898 202.284 48.0098 202.48 48.3058 202.728C48.6098 202.976 48.8978 203.264 49.1698 203.592L49.0018 203.64C48.9778 203.456 48.9618 203.276 48.9538 203.1C48.9458 202.916 48.9418 202.732 48.9418 202.548V200.388H43.6378V199.536H51.1258Z" fill="#414141"/>
<defs>
<linearGradient id="paint0_linear_181_29729" x1="66.1658" y1="23" x2="66.1658" y2="174" gradientUnits="userSpaceOnUse">
<stop stop-color="#9864A1"/>
<stop offset="1" stop-color="#DADEFF" stop-opacity="0.01"/>
</linearGradient>
</defs>
</svg>
