<svg width="120" height="32" viewBox="0 0 120 32" fill="none" xmlns="http://www.w3.org/2000/svg">
<path d="M0 16C0 7.16344 7.16344 0 16 0H60V32H16C7.16344 32 0 24.8366 0 16Z" fill="#5F206A"/>
<path d="M23.4785 19.9268V21H18.208V19.9268H23.4785ZM18.4746 11.0469V21H17.1553V11.0469H18.4746ZM22.7812 15.3262V16.3994H18.208V15.3262H22.7812ZM23.4102 11.0469V12.127H18.208V11.0469H23.4102ZM32.7686 11.0469V21H31.4424L26.4316 13.3232V21H25.1123V11.0469H26.4316L31.4629 18.7441V11.0469H32.7686ZM42.4619 16.0439V19.6875C42.3389 19.8698 42.1429 20.0749 41.874 20.3027C41.6051 20.526 41.2337 20.722 40.7598 20.8906C40.2904 21.0547 39.6842 21.1367 38.9414 21.1367C38.3353 21.1367 37.777 21.0319 37.2666 20.8223C36.7607 20.6081 36.321 20.2982 35.9473 19.8926C35.5781 19.4824 35.291 18.9857 35.0859 18.4023C34.8854 17.8145 34.7852 17.1491 34.7852 16.4062V15.6338C34.7852 14.891 34.8717 14.2279 35.0449 13.6445C35.2227 13.0612 35.4824 12.5667 35.8242 12.1611C36.166 11.751 36.5853 11.4411 37.082 11.2314C37.5788 11.0173 38.1484 10.9102 38.791 10.9102C39.5521 10.9102 40.1878 11.0423 40.6982 11.3066C41.2132 11.5664 41.6143 11.9264 41.9014 12.3867C42.193 12.847 42.3799 13.3711 42.4619 13.959H41.1426C41.0833 13.599 40.9648 13.2708 40.7871 12.9746C40.6139 12.6784 40.3656 12.4414 40.042 12.2637C39.7184 12.0814 39.3014 11.9902 38.791 11.9902C38.3307 11.9902 37.932 12.0745 37.5947 12.2432C37.2575 12.4118 36.9795 12.6533 36.7607 12.9678C36.542 13.2822 36.3779 13.6628 36.2686 14.1094C36.1637 14.556 36.1113 15.0596 36.1113 15.6201V16.4062C36.1113 16.9805 36.1774 17.4932 36.3096 17.9443C36.4463 18.3955 36.64 18.7806 36.8906 19.0996C37.1413 19.4141 37.4398 19.6533 37.7861 19.8174C38.137 19.9814 38.5244 20.0635 38.9482 20.0635C39.4176 20.0635 39.7982 20.0247 40.0898 19.9473C40.3815 19.8652 40.6094 19.7695 40.7734 19.6602C40.9375 19.5462 41.0628 19.4391 41.1494 19.3389V17.1104H38.8457V16.0439H42.4619Z" fill="#FAFAFA"/>
<path d="M60.5 0.5H104C112.56 0.5 119.5 7.43959 119.5 16C119.5 24.5604 112.56 31.5 104 31.5H60.5V0.5Z" fill="#FAFAFA"/>
<path d="M60.5 0.5H104C112.56 0.5 119.5 7.43959 119.5 16C119.5 24.5604 112.56 31.5 104 31.5H60.5V0.5Z" stroke="#5F206A"/>
<path d="M82.484 12.292V13.286H81.014V21H79.936C79.656 20.44 79.2687 19.9267 78.774 19.46C78.2887 18.984 77.7287 18.5827 77.094 18.256C76.4593 17.9293 75.7827 17.71 75.064 17.598L74.518 16.254C75.414 15.7127 76.338 15.2227 77.29 14.784C78.2513 14.3453 79.2407 13.972 80.258 13.664L79.936 14.252V13.286H73.86V12.292H82.484ZM79.936 14.364L80.23 14.756C79.5207 14.9893 78.774 15.2787 77.99 15.624C77.206 15.96 76.4827 16.3333 75.82 16.744C76.324 16.856 76.8607 17.0473 77.43 17.318C77.9993 17.5887 78.5267 17.9293 79.012 18.34C79.4973 18.7507 79.8707 19.2267 80.132 19.768H80.006C79.9873 19.5533 79.9687 19.3387 79.95 19.124C79.9407 18.9093 79.936 18.6527 79.936 18.354V14.364ZM86.2038 12.292V13.286H84.7338V21H83.6558V14.434C83.5438 14.1167 83.3758 13.846 83.1518 13.622C82.9372 13.398 82.6572 13.286 82.3118 13.286H82.1998V12.292H82.4098C82.6338 12.292 82.8672 12.3667 83.1098 12.516C83.3525 12.656 83.5485 12.8753 83.6978 13.174C83.6885 13.1273 83.6792 13.02 83.6698 12.852C83.6605 12.684 83.6558 12.5393 83.6558 12.418V11.368H84.4118L84.7198 12.292H86.2038ZM87.7806 16.604C88.3686 16.9587 88.9239 17.3833 89.4466 17.878C89.9786 18.3633 90.4593 18.886 90.8886 19.446C91.3273 20.006 91.6959 20.5613 91.9946 21.112L91.0846 21.574C90.7019 20.986 90.3193 20.4587 89.9366 19.992C89.5633 19.516 89.1479 19.0773 88.6906 18.676C88.2426 18.2747 87.7059 17.8827 87.0806 17.5L87.7806 16.604ZM87.1506 14.196C87.1506 13.8133 87.2346 13.482 87.4026 13.202C87.5799 12.9127 87.8179 12.6887 88.1166 12.53C88.4153 12.3713 88.7513 12.292 89.1246 12.292C89.4979 12.292 89.8339 12.3713 90.1326 12.53C90.4313 12.6887 90.6646 12.9127 90.8326 13.202C91.0099 13.482 91.0986 13.8133 91.0986 14.196C91.0986 14.5787 91.0099 14.9147 90.8326 15.204C90.6646 15.4933 90.4313 15.7173 90.1326 15.876C89.8339 16.0347 89.4979 16.114 89.1246 16.114C88.7513 16.114 88.4153 16.0347 88.1166 15.876C87.8179 15.7173 87.5799 15.498 87.4026 15.218C87.2346 14.9287 87.1506 14.588 87.1506 14.196ZM88.1166 14.196C88.1166 14.5133 88.2099 14.7607 88.3966 14.938C88.5926 15.1153 88.8353 15.204 89.1246 15.204C89.4233 15.204 89.6659 15.1153 89.8526 14.938C90.0393 14.7513 90.1326 14.504 90.1326 14.196C90.1326 13.8787 90.0393 13.636 89.8526 13.468C89.6659 13.2907 89.4233 13.202 89.1246 13.202C88.8353 13.202 88.5926 13.2953 88.3966 13.482C88.2099 13.6593 88.1166 13.8973 88.1166 14.196ZM102.571 12.292V13.286H101.101V21H100.023V16.31L100.107 16.674C99.9019 16.3753 99.6826 16.1373 99.4493 15.96C99.2253 15.7827 98.9779 15.694 98.7073 15.694C98.5673 15.694 98.4226 15.722 98.2733 15.778C98.1333 15.8247 98.0119 15.918 97.9093 16.058C97.8159 16.198 97.7693 16.4127 97.7693 16.702C97.7693 16.8047 97.7693 16.898 97.7693 16.982C97.7786 17.0567 97.7879 17.1313 97.7973 17.206L96.8873 17.276C96.8499 16.8933 96.7473 16.5713 96.5793 16.31C96.4113 16.0393 96.2059 15.834 95.9633 15.694C95.7206 15.554 95.4593 15.484 95.1793 15.484C94.9273 15.484 94.7126 15.5353 94.5353 15.638C94.3579 15.7313 94.2226 15.862 94.1293 16.03C94.0359 16.1887 93.9893 16.3707 93.9893 16.576C93.9893 16.9493 94.1246 17.2667 94.3953 17.528C94.6753 17.7893 95.0673 18.0087 95.5713 18.186L95.1933 19.222C94.7453 19.082 94.3439 18.8907 93.9893 18.648C93.6346 18.4053 93.3546 18.1067 93.1493 17.752C92.9439 17.3973 92.8413 16.9867 92.8413 16.52C92.8413 16.1 92.9439 15.7407 93.1493 15.442C93.3546 15.134 93.6299 14.896 93.9753 14.728C94.3206 14.56 94.6986 14.476 95.1093 14.476C95.6039 14.476 96.0286 14.5693 96.3833 14.756C96.7379 14.9333 97.0646 15.2227 97.3633 15.624L97.1533 15.638C97.2466 15.33 97.4239 15.0967 97.6853 14.938C97.9559 14.77 98.2359 14.686 98.5253 14.686C98.8613 14.686 99.1506 14.7513 99.3933 14.882C99.6359 15.0127 99.9019 15.1993 100.191 15.442L100.065 15.652C100.056 15.456 100.047 15.26 100.037 15.064C100.028 14.868 100.023 14.6673 100.023 14.462V13.286H92.0573V12.292H102.571ZM106.302 12.292V13.286H104.832V21H103.754V14.434C103.642 14.1167 103.474 13.846 103.25 13.622C103.035 13.398 102.755 13.286 102.409 13.286H102.297V12.292H102.508C102.732 12.292 102.965 12.3667 103.208 12.516C103.45 12.656 103.646 12.8753 103.796 13.174C103.786 13.1273 103.777 13.02 103.768 12.852C103.758 12.684 103.754 12.5393 103.754 12.418V11.368H104.51L104.818 12.292H106.302Z" fill="#5F206A"/>
</svg>
