<svg width="40" height="40" viewBox="0 0 40 40" fill="none" xmlns="http://www.w3.org/2000/svg">
<g clip-path="url(#clip0_1421_2335)">
<path opacity="0.2" d="M18.1166 39.9975C25.4782 39.9975 31.4461 39.5451 31.4461 38.9871C31.4461 38.429 25.4782 37.9766 18.1166 37.9766C10.7549 37.9766 4.78711 38.429 4.78711 38.9871C4.78711 39.5451 10.7549 39.9975 18.1166 39.9975Z" fill="#FFF4F5"/>
<path d="M0.257812 23.6603L11.6596 11.8984L18.6229 19.8766C18.6229 19.8766 35.0045 16.3192 39.7433 17.9363L30.7805 31.9834L11.6596 31.6803L0.257812 23.6603Z" fill="#F1C5F9"/>
<g opacity="0.3">
<path d="M0.257812 23.6603L11.6596 11.8984L18.6229 19.8766C18.6229 19.8766 35.0045 16.3192 39.7433 17.9363L30.7805 31.9834L11.6596 31.6803L0.257812 23.6603Z" fill="#FDFDFD"/>
</g>
<path d="M30.78 32.2429H30.7759L11.655 31.9398C11.6036 31.9389 11.5537 31.9226 11.5116 31.8931L0.109768 23.873C0.0478914 23.8296 0.0081943 23.7608 0.00113075 23.6854C-0.00593279 23.6098 0.0203436 23.5348 0.0730376 23.4806L11.4747 11.7187C11.5247 11.6671 11.5944 11.6389 11.6657 11.6407C11.7375 11.6426 11.8052 11.6745 11.8523 11.7288L18.716 19.5928C20.469 19.2184 35.2606 16.1345 39.8252 17.6923C39.9003 17.7179 39.9593 17.7767 39.9854 17.8518C40.0116 17.927 40.0018 18.0099 39.9592 18.077L30.9964 32.1242C30.9491 32.1983 30.8674 32.2432 30.7798 32.2432L30.78 32.2429ZM11.742 31.4236L30.6408 31.7233L39.342 18.0862C34.3437 16.7567 18.8364 20.0955 18.6767 20.1303C18.5852 20.1502 18.4905 20.1187 18.4291 20.0481L11.6493 12.28L0.652955 23.6236L11.742 31.4236Z" fill="#FDFDFD"/>
<path d="M0.257812 23.6641V25.9924L11.6596 33.0099V30.7705L0.257812 23.6641Z" fill="#39A1FF"/>
<g opacity="0.3">
<path d="M10.759 30.213C10.759 30.75 10.1739 31.0797 9.7183 30.7993L0.257812 24.9766V25.9961L11.6596 33.0136V30.7742L10.759 30.2128V30.213Z" fill="#FDFDFD"/>
</g>
<path d="M11.6591 33.2696C11.6125 33.2696 11.566 33.257 11.5247 33.2315L0.122906 26.2139C0.0466194 26.1669 0 26.0834 0 25.9933V23.6649C0 23.5711 0.050575 23.4846 0.132088 23.439C0.213743 23.3932 0.31348 23.3956 0.392874 23.4451L11.7946 30.5515C11.8703 30.5986 11.9163 30.6817 11.9163 30.7714V33.0108C11.9163 33.1044 11.866 33.1908 11.7848 33.2365C11.7457 33.2585 11.7023 33.2695 11.6591 33.2695V33.2696ZM0.51465 25.8484L11.4018 32.5492V30.9154L0.51465 24.1297V25.8484Z" fill="#FDFDFD"/>
<path d="M11.6582 30.7734V33.0129L30.7791 33.2069V30.7734H11.6582Z" fill="#39A1FF"/>
<g opacity="0.3">
<path d="M14.4415 32.0853C13.572 32.0765 12.8308 31.5362 12.5209 30.7734H11.6582V33.0129L30.7791 33.2069V32.2511L14.4417 32.0853H14.4415Z" fill="#FDFDFD"/>
</g>
<path d="M30.7805 33.4586H30.7779L11.6571 33.2646C11.5159 33.2632 11.4023 33.1477 11.4023 33.0059V30.7665C11.4023 30.6236 11.5175 30.5078 11.6596 30.5078H30.7805C30.9226 30.5078 31.0377 30.6236 31.0377 30.7665V33.2C31.0377 33.269 31.0103 33.3352 30.9614 33.3838C30.9133 33.4318 30.8481 33.4586 30.7805 33.4586ZM11.9169 32.7498L30.5232 32.9386V31.0251H11.9169V32.7498Z" fill="#FDFDFD"/>
<path d="M39.7421 17.9375L30.7793 30.7678V33.2013L39.7421 20.8994V17.9375Z" fill="#FF926B"/>
<path d="M39.7421 17.9375L30.7793 30.7678V33.2013L39.7421 20.8994V17.9375Z" fill="#39A1FF"/>
<g opacity="0.3">
<path d="M30.7793 33.2062L39.7421 20.9042V19.8047L30.7793 32.1066V33.2062Z" fill="#FDFDFD"/>
</g>
<path d="M30.7807 33.4611C30.754 33.4611 30.727 33.457 30.7007 33.4483C30.5949 33.4135 30.5234 33.3144 30.5234 33.2024V30.7689C30.5234 30.7157 30.5397 30.6638 30.5702 30.6202L39.533 17.7898C39.5974 17.6974 39.714 17.6577 39.8212 17.6918C39.9281 17.7259 40.0009 17.8256 40.0009 17.9385V20.9004C40.0009 20.9553 39.9835 21.0089 39.9511 21.0532L30.9884 33.3551C30.9389 33.423 30.8612 33.4609 30.7808 33.4609L30.7807 33.4611ZM31.0381 30.8508V32.4115L39.4862 20.8159V18.7571L31.0381 30.8508Z" fill="#FDFDFD"/>
<path d="M11.6596 30.7761L18.8149 19.5283C18.8149 19.5283 19.2162 12.9284 10.9091 11.0391L0.761719 23.6158C0.761719 23.6158 7.06565 24.1547 11.6596 30.7762V30.7761Z" fill="#F1C5F9"/>
<g opacity="0.3">
<path d="M11.6596 30.7761L18.8149 19.5283C18.8149 19.5283 19.2162 12.9284 10.9091 11.0391L0.761719 23.6158C0.761719 23.6158 7.06565 24.1547 11.6596 30.7762V30.7761Z" fill="#FDFDFD"/>
</g>
<path d="M11.6591 31.0356C11.575 31.0356 11.4962 30.9943 11.448 30.925C9.11505 27.5624 6.32975 25.8249 4.40381 24.9596C2.31356 24.0204 0.754637 23.8758 0.739097 23.8744C0.644163 23.8662 0.56152 23.8059 0.524365 23.7177C0.487211 23.6295 0.501338 23.528 0.561237 23.4537L10.7086 10.877C10.7703 10.8006 10.8695 10.7658 10.9651 10.7877C15.3546 11.786 17.3259 14.1064 18.2065 15.8774C19.1645 17.8036 19.0752 19.4748 19.071 19.5451C19.0683 19.589 19.0546 19.6316 19.031 19.6686L11.8758 30.9166C11.8294 30.9893 11.75 31.0341 11.6641 31.0358C11.6624 31.0358 11.6607 31.0358 11.6591 31.0358V31.0356ZM1.24824 23.4236C1.87802 23.5315 3.09465 23.8071 4.59198 24.4772C6.52259 25.3414 9.28754 27.0508 11.6476 30.3146L18.5593 19.4495C18.5642 19.1339 18.5384 17.6877 17.7348 16.0853C16.5412 13.7053 14.2782 12.1051 11.0071 11.3282L1.24824 23.4236Z" fill="#FDFDFD"/>
<path d="M11.6591 30.7761L18.8143 19.5283C18.8143 19.5283 19.2156 12.9284 10.9085 11.0391L0.482422 22.3869C0.482422 22.3869 8.82334 22.6025 11.6591 30.7761Z" fill="#F1C5F9"/>
<g opacity="0.3">
<path d="M11.8532 30.7761L18.8139 19.5283C18.8139 19.5283 19.2043 12.9284 11.1232 11.0391L0.980469 22.3869C0.980469 22.3869 9.09464 22.6025 11.8532 30.7761Z" fill="#FDFDFD"/>
</g>
<path d="M11.6586 31.0357C11.6485 31.0357 11.6386 31.0351 11.6285 31.034C11.5307 31.0223 11.4479 30.9557 11.4154 30.8622C10.2662 27.5497 8.0813 25.1609 4.92136 23.7621C2.55366 22.7139 0.495623 22.6469 0.475139 22.6463C0.374272 22.6435 0.284141 22.5817 0.244867 22.4882C0.205594 22.3948 0.224383 22.2868 0.2929 22.2122L10.719 10.8644C10.7814 10.7965 10.8751 10.7673 10.9648 10.7876C15.3542 11.7859 17.3255 14.1063 18.2062 15.8773C19.1641 17.8035 19.0749 19.4747 19.0706 19.545C19.0679 19.5889 19.0542 19.6315 19.0306 19.6685L11.8754 30.9165C11.8278 30.9914 11.7457 31.0358 11.6587 31.0358L11.6586 31.0357ZM1.0316 22.1706C1.8182 22.2557 3.36851 22.5122 5.11024 23.2801C7.29485 24.2433 10.1725 26.2198 11.7206 30.1993L18.5589 19.4495C18.5639 19.1339 18.538 17.6878 17.7345 16.0854C16.5396 13.7026 14.2729 12.1018 10.9957 11.3256L1.0316 22.1706Z" fill="#FDFDFD"/>
<path d="M11.6605 30.7761L18.8158 19.5283C18.8158 19.5283 19.2171 12.9284 10.91 11.0391L0.982422 21.3251C0.982422 21.3251 10.1756 21.0502 11.6605 30.7761Z" fill="#F1C5F9"/>
<g opacity="0.3">
<path d="M12.0047 30.7761L18.8146 19.5283C18.8146 19.5283 19.1965 12.9284 11.2903 11.0391L1.8418 21.3251C1.8418 21.3251 10.5916 21.0502 12.0047 30.7761Z" fill="#FDFDFD"/>
</g>
<path d="M11.6601 31.0356C11.6424 31.0356 11.6246 31.0337 11.6068 31.0299C11.502 31.0076 11.4219 30.9225 11.4056 30.8161C10.805 26.8818 8.87689 24.1334 5.67471 22.6476C3.27254 21.5329 1.01164 21.5836 0.989317 21.5846C0.88294 21.5872 0.788571 21.5264 0.746472 21.4302C0.704232 21.3339 0.724293 21.2214 0.797189 21.1458L10.7247 10.8598C10.7872 10.795 10.8787 10.7677 10.9661 10.7876C15.3556 11.7859 17.3269 14.1063 18.2076 15.8773C19.1655 17.8036 19.0762 19.4747 19.072 19.545C19.0693 19.5889 19.0556 19.6315 19.032 19.6686L11.8768 30.9165C11.8289 30.9918 11.7465 31.0359 11.6601 31.0359V31.0356ZM1.5746 21.0833C2.43212 21.1367 4.09713 21.3497 5.87164 22.1691C7.35046 22.852 8.5935 23.8162 9.56601 25.0352C10.6592 26.4053 11.4089 28.0994 11.7994 30.0781L18.5604 19.4497C18.5654 19.1341 18.5395 17.6879 17.736 16.0855C16.5406 13.7018 14.2726 12.1005 10.9931 11.3248L1.5746 21.0833Z" fill="#FDFDFD"/>
<path d="M19.505 18.8304L11.6582 30.7735C15.0407 28.8089 20.6047 27.3044 29.8785 29.5851L38.7191 17.9417C38.7191 17.9417 28.4935 12.2149 19.505 18.8303V18.8304Z" fill="#F1C5F9"/>
<g opacity="0.3">
<path d="M19.505 18.8303L11.6582 30.7734C14.9702 28.8497 20.1695 26.8602 29.0909 28.9193C29.4455 29.0011 29.8155 28.872 30.046 28.589L38.7191 17.9417C38.7191 17.9417 28.4935 12.2149 19.505 18.8303Z" fill="#FDFDFD"/>
</g>
<path d="M11.6598 31.033C11.5905 31.033 11.5223 31.005 11.4723 30.9516C11.3905 30.8642 11.3792 30.7319 11.4449 30.6317L19.2916 18.6885C19.3085 18.6629 19.3298 18.6404 19.3544 18.6223C21.4367 17.0898 23.7588 16.0885 26.256 15.6466C28.251 15.2935 30.3605 15.2949 32.5256 15.6507C36.2077 16.2558 38.7397 17.6571 38.8457 17.7165C38.9109 17.753 38.9571 17.8163 38.9724 17.8898C38.9876 17.9633 38.9703 18.0397 38.9251 18.0995L30.0845 29.7428C30.0224 29.8246 29.918 29.8616 29.8189 29.8371C22.3455 27.9994 16.2792 28.3898 11.7883 30.9983C11.7481 31.0218 11.7037 31.033 11.6598 31.033ZM19.6955 19.0126L12.4342 30.0647C16.9036 27.847 22.7307 27.5876 29.7773 29.2947L38.3299 18.0307C37.5879 17.6599 35.3549 16.6374 32.4253 16.1585C29.1298 15.6199 24.2505 15.6791 19.6955 19.0126Z" fill="#FDFDFD"/>
<path d="M19.5064 18.8261L12.0566 30.1651C13.7772 27.9117 20.113 25.9634 29.3868 28.2441L37.9636 16.9039C37.9636 16.9039 28.4949 12.2107 19.5064 18.8261Z" fill="#F1C5F9"/>
<g opacity="0.3">
<path d="M19.2247 18.3628L13.8338 26.568C13.4291 27.1841 14.0475 27.9561 14.7341 27.6943C17.709 26.5597 22.5372 26.1141 28.7079 27.5517C28.997 27.619 29.2987 27.5095 29.4784 27.272L37.1664 17.1071C37.15 16.6201 37.0237 16.2392 36.831 15.9375C34.5512 12.3697 21.3535 17.3583 19.5366 18.0575C19.4327 18.1592 19.3288 18.2609 19.2248 18.3626L19.2247 18.3628Z" fill="#FDFDFD"/>
</g>
<path d="M12.056 30.4245C12.0043 30.4245 11.952 30.4089 11.9068 30.3765C11.794 30.2957 11.7651 30.1396 11.8414 30.0232L19.2912 18.6842C19.308 18.6587 19.3293 18.6362 19.3539 18.618C21.4327 17.0881 23.7109 16.0334 26.125 15.4833C28.0556 15.0434 30.0762 14.9239 32.1305 15.1276C35.6275 15.4746 37.9785 16.6241 38.0768 16.6728C38.1458 16.707 38.1959 16.7704 38.2136 16.8455C38.2312 16.9206 38.2144 16.9999 38.168 17.0614L29.5911 28.4014C29.5292 28.4834 29.4247 28.5206 29.3252 28.4961C19.7142 26.1327 13.7573 28.3626 12.2603 30.3232C12.2097 30.3894 12.1334 30.4244 12.056 30.4244V30.4245ZM19.6951 19.0082L13.2684 28.79C14.4133 28.0908 15.9925 27.553 17.8474 27.2496C20.173 26.8695 24.0369 26.6867 29.2833 27.9535L37.5622 17.0074C36.8346 16.6954 34.783 15.9079 32.0601 15.6404C28.9336 15.3333 24.254 15.6695 19.695 19.0081L19.6951 19.0082Z" fill="#FDFDFD"/>
<path d="M19.5062 18.8274L12.1836 29.9113C13.9041 27.6579 19.8019 24.5849 29.0758 26.8657L37.4274 15.849C37.4274 15.849 28.4949 12.2122 19.5062 18.8275V18.8274Z" fill="#F1C5F9"/>
<path d="M12.183 30.1706C12.1311 30.1706 12.0788 30.155 12.0335 30.1225C11.9206 30.0414 11.8921 29.885 11.9688 29.7688L19.2914 18.6849C19.3082 18.6595 19.3293 18.6373 19.3537 18.6193C24.0554 15.159 28.7409 14.524 31.8432 14.5995C35.2081 14.682 37.4305 15.572 37.5234 15.6098C37.5977 15.6401 37.6538 15.7034 37.675 15.7813C37.6962 15.8591 37.6801 15.9423 37.6315 16.0064L29.2798 27.0231C29.2178 27.1049 29.1134 27.1421 29.0141 27.1176C24.9793 26.1254 21.1233 26.0635 17.863 26.9387C14.2618 27.9056 12.7613 29.5795 12.3872 30.0694C12.3367 30.1356 12.2604 30.1705 12.183 30.1705V30.1706ZM19.6946 19.0098L13.5585 28.2977C16.3579 26.3487 21.7097 24.8313 28.9724 26.5753L37.0089 15.9742C36.2801 15.7294 34.3653 15.176 31.8089 15.1162C28.7994 15.0442 24.2589 15.6651 19.6946 19.0098Z" fill="#FDFDFD"/>
<path d="M19.5062 18.8274L12.1836 29.9113C13.9041 27.6579 19.8019 24.5849 29.0758 26.8657L37.4274 15.849C37.4274 15.849 28.4949 12.2122 19.5062 18.8275V18.8274Z" fill="#F1C5F9"/>
<path d="M12.183 30.1706C12.1311 30.1706 12.0788 30.155 12.0335 30.1225C11.9206 30.0414 11.8921 29.885 11.9688 29.7688L19.2914 18.6849C19.3082 18.6595 19.3293 18.6373 19.3537 18.6193C24.0554 15.159 28.7409 14.524 31.8432 14.5995C35.2081 14.682 37.4305 15.572 37.5234 15.6098C37.5977 15.6401 37.6538 15.7034 37.675 15.7813C37.6962 15.8591 37.6801 15.9423 37.6315 16.0064L29.2798 27.0231C29.2178 27.1049 29.1134 27.1421 29.0141 27.1176C24.9793 26.1254 21.1233 26.0635 17.863 26.9387C14.2618 27.9056 12.7613 29.5795 12.3872 30.0694C12.3367 30.1356 12.2604 30.1705 12.183 30.1705V30.1706ZM19.6946 19.0098L13.5585 28.2977C16.3579 26.3487 21.7097 24.8313 28.9724 26.5753L37.0089 15.9742C36.2801 15.7294 34.3653 15.176 31.8089 15.1162C28.7994 15.0442 24.2589 15.6651 19.6946 19.0098Z" fill="#FDFDFD"/>
<g opacity="0.3">
<path d="M19.0169 18.5196L11.7969 28.7448C12.9703 28.2745 14.1438 27.8044 15.3172 27.3341C16.516 26.7162 18.032 26.1146 19.8338 25.7696C22.3149 25.2945 24.4016 25.4849 25.1406 25.608C26.3759 25.8135 27.2715 25.9625 27.6925 26.0746C27.711 26.0795 27.7625 26.0933 27.8344 26.102C28.2432 26.1508 28.607 25.9459 28.8723 25.7362L36.6871 15.7718C36.6871 15.7718 27.8796 12.4166 19.0169 18.5196Z" fill="#FDFDFD"/>
</g>
<path d="M19.5062 18.8287L12.1836 29.9126C13.9041 27.6592 18.6717 23.0986 27.9455 25.3794L36.2266 14.5732C36.2266 14.5732 28.4947 12.2133 19.5062 18.8287Z" fill="#F1C5F9"/>
<path d="M12.183 30.1727C12.1311 30.1727 12.0788 30.157 12.0335 30.1245C11.9206 30.0434 11.8921 29.887 11.9688 29.7708L19.2914 18.6869C19.3082 18.6615 19.3293 18.6393 19.3537 18.6213C24.0458 15.1681 28.3948 14.1825 31.2168 13.9636C34.2865 13.7259 36.2201 14.3024 36.3009 14.3271C36.3818 14.3518 36.4454 14.4148 36.4712 14.4958C36.4969 14.5768 36.4815 14.6653 36.43 14.7326L28.1488 25.5388C28.0867 25.6199 27.9825 25.6564 27.8839 25.6321C18.684 23.3697 13.9819 27.9831 12.3872 30.0715C12.3367 30.1377 12.2604 30.1727 12.183 30.1727ZM19.6946 19.0118L13.97 27.6767C14.8138 26.9692 15.8581 26.2727 17.1279 25.7104C20.2224 24.3397 23.8268 24.131 27.8431 25.0899L35.7817 14.7308C35.0865 14.5785 33.4527 14.3062 31.2299 14.4816C28.4882 14.6981 24.2642 15.6603 19.6947 19.0118H19.6946Z" fill="#FDFDFD"/>
<path d="M12.1824 29.9139L19.5051 18.83C19.5051 18.83 19.4683 10.4354 11.2965 10.0156L1.81641 19.867C1.81641 19.867 10.7607 18.9244 12.1824 29.914V29.9139Z" fill="#F1C5F9"/>
<path d="M12.184 30.1736C12.1647 30.1736 12.1452 30.1714 12.1257 30.1669C12.0211 30.1424 11.9427 30.0552 11.9287 29.9483C11.3525 25.4945 9.48546 22.4887 6.37919 21.0145C4.05613 19.9118 1.86629 20.123 1.8444 20.1253C1.73675 20.1357 1.63376 20.0787 1.58644 19.981C1.53925 19.8833 1.55762 19.7662 1.63292 19.6881L11.1129 9.83684C11.1645 9.78315 11.2362 9.75304 11.311 9.75843C15.6583 9.98172 17.7278 12.4433 18.6983 14.4691C19.7421 16.6478 19.7633 18.7419 19.7636 18.83C19.7639 18.8813 19.7489 18.9316 19.7207 18.9743L12.398 30.0582C12.3497 30.1315 12.2686 30.1737 12.1837 30.1737L12.184 30.1736ZM2.44536 19.5881C3.30161 19.597 4.88963 19.7404 6.57711 20.5361C8.01892 21.2159 9.22891 22.2326 10.1736 23.558C11.2424 25.0577 11.9701 26.9567 12.3407 29.2101L19.2473 18.756C19.2327 18.3645 19.1179 16.5271 18.2273 14.6777C16.9176 11.9575 14.6214 10.4789 11.4011 10.2817L2.44536 19.5881Z" fill="#FDFDFD"/>
<g opacity="0.3">
<path d="M20.7637 24.0516C19.5935 24.2618 18.6484 23.3979 18.5354 22.3762C18.8945 22.2603 19.2707 22.1621 19.6379 22.1057C20.0805 22.0377 20.4784 21.779 20.686 21.3802C20.7745 21.21 20.821 21.0306 20.7658 20.8712C20.6619 20.5712 19.8599 20.5793 19.0478 20.8089L20.9932 17.8045C20.5017 18.1192 20.0055 18.4581 19.5051 18.8264C19.5051 18.8264 19.5015 18.1281 19.3015 17.125L16.9354 20.7681C16.6182 20.493 16.2307 20.2433 15.8556 20.2244C15.6412 20.2136 15.4482 20.273 15.285 20.3752C14.7037 20.7401 14.7204 21.5951 15.289 21.98C15.4344 22.0785 15.6047 22.21 15.7824 22.3809C14.243 23.9242 11.6782 23.9574 10.0798 22.3177C7.96649 20.1499 4.87167 19.2748 2.72252 18.9216L1.81641 19.8632C1.81641 19.8632 10.7607 18.9206 12.1824 29.9101C13.903 27.6568 18.6706 23.0962 27.9443 25.377L28.4899 24.6651C25.8248 23.5749 23.0333 23.6435 20.7637 24.0514V24.0516Z" fill="#FDFDFD"/>
</g>
<g opacity="0.55">
<mask id="mask0_1421_2335" style="mask-type:luminance" maskUnits="userSpaceOnUse" x="17" y="5" width="10" height="11">
<path d="M26.4054 10.0974C26.4054 11.5177 25.7738 12.7893 24.7787 13.6449C24.2172 14.1275 23.7161 14.6726 23.2908 15.2762L23.2728 15.2632C23.0662 15.5342 21.8164 15.5013 20.3595 15.1733C18.8955 14.8441 17.7465 14.3357 17.6841 14.002C17.6841 13.9884 17.6834 13.9749 17.6821 13.962V13.9594C17.6383 13.0624 17.5078 12.1718 17.2775 11.3025C17.1687 10.8937 17.1141 10.463 17.1218 10.0173C17.1636 7.47615 19.2568 5.41809 21.7842 5.42974C24.3385 5.44138 26.4053 7.52657 26.4053 10.0976L26.4054 10.0974Z" fill="white"/>
</mask>
<g mask="url(#mask0_1421_2335)">
<path d="M26.4045 5.42188H17.1133V15.538H26.4045V5.42188Z" fill="#FFE610"/>
<path d="M19.8244 15.6098H18.3963V15.9735C17.9308 15.8463 17.4761 15.6966 17.0332 15.5258H17.0425V5.35156H26.475V15.6098H19.8244Z" fill="#FFE610"/>
<path d="M19.8592 16.0819C18.901 15.9223 17.9815 15.6687 17.1084 15.3322C16.9993 15.2902 16.8909 15.2468 16.7832 15.2021H17.0436V5.35156H26.4761V15.5001H26.7534C26.3246 15.6494 25.8874 15.7782 25.4431 15.8856V15.6099H19.8591V16.0821L19.8592 16.0819Z" fill="#FFE611"/>
<path d="M19.8922 15.8771C18.9479 15.7197 18.0419 15.4698 17.1817 15.1383C17.0742 15.0968 16.9674 15.0541 16.8613 15.0102H17.0427V5.35156H26.4752V15.3038H26.6852C26.2626 15.451 25.8319 15.5778 25.3941 15.6836V15.6098H19.892V15.8771H19.8922Z" fill="#FFE512"/>
<path d="M19.9259 15.6723C18.9958 15.5173 18.1032 15.2711 17.2559 14.9444C17.044 14.8628 16.835 14.7761 16.6289 14.6845H17.0427V5.35156H26.4752V15.1075H26.6177C26.2016 15.2524 25.7772 15.3775 25.3459 15.4816C23.621 15.8985 21.7861 15.9822 19.9257 15.6723H19.9259Z" fill="#FFE513"/>
<path d="M19.9601 15.4674C19.044 15.3147 18.165 15.0724 17.3304 14.7507C17.1217 14.6703 16.9159 14.5849 16.7129 14.4947H17.0432V5.35156H26.4757V14.9112H26.5509C26.1409 15.0539 25.723 15.1771 25.2982 15.2798C23.5993 15.6904 21.7923 15.7728 19.9601 15.4676V15.4674Z" fill="#FEE414"/>
<path d="M19.9943 15.2626C19.0922 15.1123 18.2267 14.8736 17.4049 14.5568C17.1995 14.4775 16.9968 14.3936 16.7969 14.3048H17.0435V5.35156H26.4761V14.7149H26.4838C26.0802 14.8554 25.6687 14.9767 25.2504 15.0778C23.5776 15.4821 21.7983 15.5633 19.9943 15.2626Z" fill="#FEE415"/>
<path d="M20.0284 15.0578C19.1403 14.9098 18.2883 14.6748 17.4794 14.363C17.2771 14.2851 17.0776 14.2024 16.8809 14.1149H17.0439V5.35156H26.4764V14.4113H26.7132C26.6148 14.4483 26.516 14.4841 26.4166 14.5186C26.0192 14.6569 25.6142 14.7763 25.2026 14.8758C23.5558 15.2738 21.8043 15.3538 20.0284 15.0578Z" fill="#FEE416"/>
<path d="M20.0604 14.853C19.1865 14.7074 18.3479 14.4761 17.5518 14.1692C17.3528 14.0925 17.1564 14.0109 16.9629 13.925H17.0423V5.35156H26.4748V14.1041H26.9283C26.7367 14.1814 26.5432 14.2541 26.3477 14.3223C25.9566 14.4585 25.558 14.576 25.1528 14.6738C23.5321 15.0656 21.8083 15.1441 20.0605 14.853H20.0604Z" fill="#FEE317"/>
<path d="M20.095 14.6481C19.2351 14.5048 18.41 14.2773 17.6268 13.9754C17.431 13.9 17.2378 13.8197 17.0473 13.7352C16.9521 13.6929 16.8575 13.6494 16.7637 13.605H17.0431V5.35156H26.4756V13.9114H26.8524C26.6639 13.9873 26.4735 14.0589 26.2811 14.126C25.8964 14.2599 25.5041 14.3756 25.1054 14.4719C23.5109 14.8572 21.8148 14.9346 20.0951 14.648L20.095 14.6481Z" fill="#FEE318"/>
<path d="M20.1281 14.4433C19.2824 14.3024 18.4708 14.0785 17.7003 13.7815C17.315 13.6331 16.9401 13.4662 16.5762 13.2822H17.0424V5.35156H26.4749V13.7186H26.7749C26.5896 13.7935 26.4023 13.8638 26.213 13.9297C25.8345 14.0615 25.4487 14.1751 25.0565 14.2699C23.488 14.649 21.8197 14.7251 20.1281 14.4432V14.4433Z" fill="#FEE319"/>
<path d="M20.1628 14.2385C19.3312 14.0998 18.533 13.8798 17.7754 13.5878C17.3965 13.4418 17.0278 13.2777 16.6699 13.0969H17.0433V5.35156H26.4758V13.5258H26.699C26.5168 13.5994 26.3326 13.6686 26.1464 13.7335C25.7743 13.8631 25.3948 13.9748 25.0091 14.0682C23.4667 14.4409 21.8262 14.5157 20.1627 14.2386L20.1628 14.2385Z" fill="#FEE21A"/>
<path d="M20.1954 14.0337C19.3778 13.8974 18.5932 13.6811 17.8484 13.3939C17.476 13.2503 17.1135 13.0891 16.7617 12.9112H17.0423V5.35156H26.4748V13.3331H26.6213C26.4422 13.4054 26.2609 13.4734 26.078 13.5372C25.7121 13.6646 25.339 13.7746 24.9599 13.8662C23.4435 14.2327 21.8308 14.3062 20.1954 14.0338V14.0337Z" fill="#FEE21B"/>
<path d="M20.2301 13.8288C19.4266 13.6949 18.6555 13.4822 17.9235 13.2001C17.5574 13.0591 17.2012 12.9006 16.8555 12.7259H17.0432V5.35156H26.4757V13.1403H26.5455C26.3694 13.2114 26.1914 13.2783 26.0117 13.3409C25.6521 13.466 25.2854 13.5741 24.9129 13.6642C23.4226 14.0244 21.8375 14.0967 20.2303 13.8288H20.2301Z" fill="#FDE11C"/>
<path d="M20.263 13.624C19.4735 13.4925 18.716 13.2835 17.9966 13.0063C17.637 12.8676 17.287 12.7119 16.9473 12.5402H17.0422V5.35156H26.4747V12.8396H26.7259C26.6403 12.8766 26.5543 12.9125 26.4678 12.9474C26.2947 13.0173 26.1198 13.083 25.9433 13.1445C25.5899 13.2675 25.2297 13.3736 24.8637 13.4621C23.3995 13.8159 21.8422 13.8871 20.263 13.6239V13.624Z" fill="#FDE11D"/>
<path d="M20.2976 13.419C19.5222 13.2898 18.7781 13.0847 18.0716 12.8124C17.7184 12.6761 17.3746 12.5233 17.041 12.3547H17.043V5.35156H26.4755V12.5369H26.8959C26.2314 12.8433 25.5352 13.0865 24.8161 13.2602C23.378 13.6078 21.8485 13.6776 20.2975 13.4192L20.2976 13.419Z" fill="#FDE11E"/>
<path d="M20.3316 13.2143C19.5702 13.0875 18.8397 12.8859 18.146 12.6186C17.7992 12.485 17.4617 12.3348 17.1341 12.1692C16.9704 12.0864 16.809 11.9997 16.6504 11.9094H17.0433V5.35156H26.4758V12.348H26.8103C26.1579 12.6489 25.4743 12.8877 24.7682 13.0582C23.3562 13.3994 21.8544 13.468 20.3315 13.2142L20.3316 13.2143Z" fill="#FDE01F"/>
<path d="M20.3652 13.0095C19.6179 12.885 18.9008 12.6872 18.22 12.4247C17.8796 12.2935 17.5483 12.1462 17.2268 11.9837C17.066 11.9024 16.9078 11.8174 16.752 11.7287H17.0431V5.35156H26.4756V12.1593H26.7243C26.0839 12.4544 25.413 12.6889 24.7199 12.8564C23.334 13.1913 21.8599 13.2587 20.3651 13.0095H20.3652Z" fill="#FDE020"/>
<path d="M20.3988 12.8047C19.6655 12.6825 18.962 12.4885 18.2939 12.231C17.9599 12.1023 17.6349 11.9576 17.3194 11.7982C17.1618 11.7185 17.0064 11.635 16.8535 11.548H17.043V5.35156H26.4755V11.9705H26.6382C26.0098 12.2601 25.3515 12.4901 24.6716 12.6544C23.3117 12.9831 21.8654 13.049 20.3988 12.8047Z" fill="#FDDF21"/>
<path d="M20.4323 12.5999C19.7131 12.48 19.023 12.2896 18.3678 12.0371C18.0402 11.9108 17.7213 11.7689 17.4119 11.6125C17.2573 11.5344 17.105 11.4524 16.9551 11.3672H17.0427V5.35156H26.4752V11.7816H26.552C25.9357 12.0656 25.2901 12.2912 24.6231 12.4524C23.2894 12.7747 21.8707 12.8395 20.4323 12.5999Z" fill="#FDDF22"/>
<path d="M20.4659 12.395C19.0556 12.16 17.7594 11.6488 16.623 10.9253H17.0425V5.35156H26.475V11.3732H26.9136C26.7663 11.4499 26.617 11.5232 26.466 11.5928C25.8617 11.8713 25.2287 12.0925 24.5748 12.2506C23.267 12.5666 21.8762 12.6301 20.4659 12.395Z" fill="#FCDF23"/>
<path d="M20.5005 12.1901C19.1183 11.9597 17.848 11.4587 16.7344 10.7498H17.0433V5.35156H26.4759V11.1887H26.8196C26.6752 11.2638 26.5288 11.3357 26.3808 11.4039C25.7886 11.6769 25.1681 11.8936 24.5273 12.0485C23.2457 12.3583 21.8826 12.4205 20.5004 12.1901H20.5005Z" fill="#FCDE24"/>
<path d="M20.5333 11.9854C19.1792 11.7597 17.9348 11.2688 16.8438 10.5743H17.0424V5.35156H26.4749V11.0043H26.7238C26.5824 11.078 26.439 11.1483 26.2941 11.2151C25.7139 11.4826 25.1061 11.6949 24.4783 11.8466C23.2228 12.15 21.8874 12.211 20.5333 11.9854Z" fill="#FCDE25"/>
<path d="M20.5679 11.7806C19.242 11.5595 18.0234 11.0789 16.9551 10.3988H17.0432V5.35156H26.4757V10.8198H26.6299C26.4913 10.8919 26.351 10.9608 26.209 11.0262C25.641 11.2881 25.0458 11.4961 24.431 11.6446C23.2015 11.9418 21.8939 12.0014 20.5679 11.7804V11.7806Z" fill="#FCDE27"/>
<path d="M20.6011 11.5756C19.3032 11.3593 18.1105 10.8888 17.0648 10.2232C16.9341 10.14 16.8057 10.0538 16.6797 9.96455H17.0426V5.35156H26.4751V10.414H26.9357C26.6718 10.5679 26.4004 10.7093 26.1224 10.8374C25.5663 11.0938 24.9837 11.2972 24.3821 11.4426C23.1787 11.7334 21.8988 11.7919 20.6009 11.5756H20.6011Z" fill="#FCDD28"/>
<path d="M20.6352 11.3708C19.3656 11.1591 18.1985 10.6989 17.1756 10.0476C17.0477 9.96625 16.9222 9.88188 16.7988 9.79466H17.0431V5.35156H26.4756V10.2343H26.8327C26.5746 10.3849 26.309 10.5232 26.0371 10.6486C25.4931 10.8995 24.9232 11.0985 24.3345 11.2408C23.1571 11.5253 21.9051 11.5824 20.6353 11.3709L20.6352 11.3708Z" fill="#FCDD29"/>
<path d="M20.6688 11.1661C19.4273 10.9591 18.2863 10.5091 17.2858 9.87236C17.0358 9.71313 16.7945 9.54225 16.5625 9.36058H17.0428V5.35156H26.4753V10.0546H26.7289C26.4765 10.2019 26.2168 10.3371 25.9509 10.4597C25.4191 10.7049 24.8617 10.8996 24.2861 11.0388C23.1348 11.3171 21.9105 11.3729 20.6688 11.1661Z" fill="#FCDC2A"/>
<path d="M20.7027 10.9611C19.4893 10.7589 18.3741 10.3189 17.3964 9.69666C17.152 9.54112 16.9161 9.37408 16.6895 9.19652H17.0429V5.35156H26.4754V9.87506H26.6255C26.3788 10.019 26.1249 10.1512 25.865 10.2709C25.3451 10.5106 24.8004 10.7009 24.2378 10.8368C23.1128 11.1087 21.9161 11.1634 20.7025 10.9611H20.7027Z" fill="#FBDC2B"/>
<path d="M20.7367 10.7563C19.5514 10.5587 18.4621 10.129 17.5069 9.52109C17.2682 9.3691 17.0378 9.20604 16.8164 9.0326H17.0431V5.35156H26.4757V9.69538H26.5221C26.2811 9.836 26.0333 9.96512 25.7793 10.0822C25.2715 10.3162 24.7394 10.5022 24.1899 10.635C23.0908 10.9006 21.9219 10.954 20.7365 10.7564L20.7367 10.7563Z" fill="#FBDC2C"/>
<path d="M20.7705 10.5515C19.6134 10.3586 18.5499 9.93912 17.6175 9.34567C17.3844 9.19723 17.1595 9.038 16.9434 8.86869H17.0432V5.35156H26.4758V9.30149H26.7665C26.6523 9.37564 26.5364 9.44709 26.4187 9.51569C26.1835 9.65291 25.9415 9.77904 25.6935 9.89324C25.1978 10.1218 24.6784 10.3033 24.1418 10.4329C23.0689 10.6922 21.9275 10.7442 20.7704 10.5515H20.7705Z" fill="#FBDB2D"/>
<path d="M20.8038 10.3466C19.6747 10.1584 18.6371 9.74921 17.7273 9.1701C17.4999 9.02536 17.2805 8.86997 17.0696 8.70477C16.9642 8.62224 16.8609 8.53716 16.7598 8.4498H17.0426V5.35156H26.4751V9.12706H26.6538C26.5424 9.19936 26.4293 9.26911 26.3145 9.33601C26.0849 9.46996 25.8489 9.59296 25.607 9.70447C25.1233 9.92748 24.6164 10.1045 24.093 10.231C23.0462 10.484 21.9325 10.5349 20.8036 10.3466H20.8038Z" fill="#FBDB2E"/>
<path d="M20.8378 10.142C19.7369 9.95844 18.7251 9.55944 17.8381 8.99468C17.3945 8.7123 16.9822 8.38858 16.6055 8.02978H17.043V5.35156H26.4755V8.73332H26.8629C25.1808 9.94367 23.0395 10.5087 20.8378 10.1418V10.142Z" fill="#FBDA2F"/>
<path d="M20.8723 9.93699C19.7995 9.75816 18.8136 9.36925 17.9491 8.81911C17.517 8.54398 17.1151 8.2285 16.748 7.87893H17.0436V5.35156H26.4761V8.56457H26.7434C25.1044 9.74396 23.0178 10.2947 20.8722 9.93713L20.8723 9.93699Z" fill="#FBDA30"/>
<path d="M20.9047 9.73231C19.86 9.55816 18.8999 9.17948 18.0583 8.64369C17.6374 8.3758 17.2461 8.06856 16.8887 7.72808H17.0424V5.35156H26.4749V8.39568H26.622C25.0259 9.5441 22.994 10.0805 20.9047 9.73231Z" fill="#FBDA31"/>
<path d="M20.9392 9.52748C19.9226 9.35802 18.9884 8.98957 18.1693 8.46813C17.7598 8.20748 17.3791 7.90848 17.0312 7.57723H17.0431V5.35156H26.4756V8.2268H26.5025C24.9493 9.34439 22.9723 9.86611 20.9392 9.52734V9.52748Z" fill="#FBD932"/>
<path d="M20.9719 9.32266C19.9836 9.15789 19.0751 8.79965 18.2788 8.2927C17.8805 8.0393 17.5104 7.74854 17.1722 7.42638C17.0031 7.26531 16.842 7.09628 16.6895 6.92014H17.0422V5.35156H26.4747V7.62382H26.9278C26.7526 7.77723 26.5702 7.92211 26.3815 8.05791C24.8713 9.14453 22.9489 9.65191 20.9721 9.32251L20.9719 9.32266Z" fill="#FAD933"/>
<path d="M21.0063 9.11769C20.0461 8.95761 19.1634 8.6096 18.3898 8.117C18.003 7.87069 17.6433 7.58831 17.3147 7.27539C17.1504 7.11886 16.9939 6.9548 16.8457 6.78364H17.0428V5.35156H26.4753V7.46729H26.7926C26.6224 7.6163 26.4452 7.75706 26.2618 7.88902C24.7946 8.94468 22.9268 9.43771 21.0064 9.11755L21.0063 9.11769Z" fill="#FAD834"/>
<path d="M21.0398 8.913C19.1756 8.60236 17.613 7.56132 16.5938 6.12925H17.0424V5.35156H26.4749V7.3109H26.6565C26.4913 7.45564 26.3193 7.59229 26.1413 7.72027C24.7171 8.74511 22.904 9.22351 21.0398 8.91286V8.913Z" fill="#FAD835"/>
<path d="M21.0736 8.70804C19.2656 8.40676 17.7502 7.39712 16.7617 6.00837H17.0424V5.35156H26.4749V7.15437H26.5209C26.3607 7.29471 26.1938 7.42724 26.0212 7.55138C24.64 8.54526 22.8816 9.00931 21.0736 8.70804Z" fill="#FAD836"/>
<path d="M21.1073 8.50321C19.3556 8.21131 17.8874 7.23306 16.9297 5.88749H17.0424V5.35156H26.4749V6.56773H26.8312C26.5473 6.86901 26.2356 7.14187 25.901 7.38263C24.5627 8.34554 22.8591 8.79525 21.1073 8.50321Z" fill="#FAD737"/>
<path d="M21.1411 8.30179C19.4456 8.01927 18.0245 7.07241 17.0975 5.77002C16.9817 5.60724 16.8735 5.43892 16.7734 5.26562L17.0423 5.35497H26.4748V6.42839H26.681C26.4063 6.72 26.1045 6.98406 25.7807 7.21715C24.4854 8.14924 22.8365 8.58432 21.1411 8.30179Z" fill="#FAD738"/>
<path d="M21.1757 8.09171C19.5364 7.81856 18.1625 6.90309 17.2663 5.64403C17.1543 5.48664 17.0498 5.32386 16.9531 5.15625L17.0433 5.34971H26.4758V6.28052H26.532C26.2663 6.56247 25.9745 6.81773 25.6615 7.04301C24.4091 7.94413 22.815 8.36486 21.1757 8.09171Z" fill="#FAD739"/>
<path d="M21.2085 7.88944C19.6256 7.62566 18.2987 6.74159 17.4333 5.5257C17.3251 5.37372 17.2242 5.21647 17.1309 5.05469V5.35213H26.4749V5.71291H26.7466C26.6315 5.86149 26.5094 6.0041 26.3811 6.14032C26.1246 6.41262 25.8429 6.6592 25.5406 6.87667C24.3313 7.74683 22.7917 8.15321 21.2088 7.8893L21.2085 7.88944Z" fill="#F9D63A"/>
<path d="M21.2434 7.68717C19.7167 7.43277 18.437 6.58023 17.6023 5.40738C17.4979 5.26079 17.4005 5.10923 17.3105 4.95312V5.35468H26.4759L26.8975 5.14076C26.5081 5.75922 26.0045 6.29074 25.4213 6.71034C24.255 7.54953 22.7702 7.94142 21.2435 7.68703L21.2434 7.68717Z" fill="#F9D63B"/>
<path d="M21.2764 7.47581C19.806 7.23078 18.5735 6.40963 17.7695 5.28011V5.34829H26.4752L26.7221 5.02344C26.3471 5.61917 25.8621 6.13095 25.3004 6.5352C24.177 7.34357 22.7469 7.72097 21.2764 7.47595V7.47581Z" fill="#F9D53C"/>
<path d="M21.3102 7.27269C19.8959 7.03704 18.7107 6.24728 17.9375 5.16093V5.34999H26.4752L26.5475 4.91406C26.1869 5.48692 25.7204 5.97924 25.1802 6.36787C24.0997 7.14527 22.7245 7.50833 21.3102 7.27254V7.27269Z" fill="#F9D53D"/>
</g>
</g>
<path d="M26.454 10.0974C26.454 11.5177 25.8224 12.7893 24.8272 13.6449C24.2657 14.1275 23.7646 14.6726 23.3394 15.2762L23.3214 15.2632C23.1149 15.5342 21.8651 15.5013 20.4082 15.1733C18.9442 14.8441 17.7952 14.3357 17.7329 14.002C17.7329 13.9884 17.7322 13.9749 17.7309 13.962V13.9594C17.6871 13.0624 17.5566 12.1718 17.3263 11.3025C17.2176 10.8937 17.1629 10.463 17.1706 10.0173C17.2125 7.47615 19.3057 5.41809 21.833 5.42974C24.3873 5.44138 26.4541 7.52657 26.4541 10.0976L26.454 10.0974Z" fill="#FEDA24"/>
<path d="M17.8398 17.9376L17.8901 18.5558C17.9476 19.2626 18.4685 19.8503 19.1637 19.9694C19.1753 19.9714 19.187 19.9734 19.1989 19.9752C19.8466 20.0788 20.4881 19.752 20.8005 19.172L21.0997 18.6166L17.84 17.9375L17.8398 17.9376Z" fill="#5E4C80"/>
<path d="M19.4367 20.1948C19.3476 20.1948 19.2578 20.1878 19.168 20.1735C19.1552 20.1715 19.1423 20.1694 19.1295 20.1671C18.3521 20.0339 17.7625 19.3805 17.6974 18.5782L17.6471 17.9599C17.6422 17.899 17.6661 17.8392 17.7117 17.7987C17.7573 17.7582 17.8191 17.7416 17.8787 17.7541L21.1384 18.4332C21.1981 18.4455 21.2485 18.4857 21.2743 18.5414C21.3 18.5971 21.298 18.6617 21.2689 18.7157L20.9697 19.2711C20.6603 19.8452 20.0664 20.1948 19.4369 20.1948H19.4367ZM18.0527 18.1867L18.082 18.5465C18.1328 19.172 18.5907 19.681 19.1956 19.7846L19.2285 19.7901C19.7913 19.8798 20.355 19.5972 20.6303 19.0862L20.8059 18.7603L18.0529 18.1867H18.0527Z" fill="#FDFDFD"/>
<path d="M21.7997 18.173L17.6298 17.1719C17.6298 17.1719 17.3498 17.5683 17.4725 17.9304C17.5621 18.1942 18.4109 18.5653 19.5047 18.828C20.6562 19.1044 21.402 19.1189 21.6809 18.8263C21.8656 18.5116 21.7995 18.173 21.7995 18.173H21.7997Z" fill="#9DA9B9"/>
<g opacity="0.3">
<path d="M21.7997 18.173L17.6298 17.1719C17.6298 17.1719 17.3498 17.5683 17.4725 17.9304C17.5621 18.1942 18.4109 18.5653 19.5047 18.828C20.6562 19.1044 21.402 19.1189 21.6809 18.8263C21.8656 18.5116 21.7995 18.173 21.7995 18.173H21.7997Z" fill="#FDFDFD"/>
</g>
<path d="M20.9309 19.233C20.5513 19.233 20.0654 19.1604 19.4612 19.0154C18.9957 18.9036 17.4635 18.4996 17.2912 17.9917C17.1382 17.541 17.4598 17.0778 17.4736 17.0583C17.5192 16.9938 17.599 16.9634 17.6757 16.9819L21.8456 17.9829C21.9192 18.0005 21.9756 18.0597 21.9901 18.1342C21.9934 18.1509 22.0678 18.5496 21.8483 18.9235C21.8408 18.9364 21.8318 18.9483 21.8214 18.9591C21.6474 19.1418 21.3558 19.2329 20.9309 19.2329V19.233ZM17.7256 17.3928C17.6644 17.5187 17.603 17.7086 17.6565 17.8664C17.7086 17.9888 18.3184 18.342 19.5508 18.6378C20.9433 18.9722 21.3869 18.8314 21.5279 18.7052C21.6019 18.5681 21.6184 18.4249 21.6191 18.3275L17.7256 17.3928Z" fill="#FDFDFD"/>
<path d="M22.569 17.2383L17.2106 15.9688C17.2106 15.9688 16.8425 16.4885 16.9899 16.9048C17.0975 17.2082 18.132 17.7272 19.5378 18.0602C21.0174 18.4108 21.9808 18.4504 22.3503 18.1255C22.5988 17.7727 22.569 17.2382 22.569 17.2382V17.2383Z" fill="#9DA9B9"/>
<path d="M21.4629 18.5408C20.9678 18.5408 20.3172 18.4432 19.4925 18.2477C18.2817 17.9608 16.9705 17.4293 16.8072 16.9686C16.6279 16.4628 17.0351 15.8795 17.0525 15.8549C17.098 15.7907 17.1775 15.7606 17.2539 15.7786L22.6123 17.0482C22.6955 17.0679 22.756 17.1404 22.7608 17.2262C22.7622 17.2507 22.7912 17.833 22.5069 18.2365C22.4982 18.249 22.4879 18.2604 22.4764 18.2705C22.2713 18.4507 21.9389 18.5409 21.4629 18.5409V18.5408ZM17.3004 16.1883C17.2083 16.356 17.0978 16.6326 17.1707 16.8384C17.2334 17.014 18.1165 17.523 19.5809 17.87C21.3347 18.2857 21.9777 18.1705 22.2052 17.9923C22.3292 17.8024 22.364 17.5472 22.373 17.3901L17.3004 16.1883Z" fill="#FDFDFD"/>
<path d="M22.5689 17.2346C22.4758 17.6316 21.2009 17.6694 19.7211 17.3187C18.2415 16.9681 17.1174 16.362 17.2105 15.965C17.3036 15.5678 18.5785 15.5302 20.0582 15.8808C21.5379 16.2313 22.662 16.8374 22.5689 17.2346Z" fill="#9DA9B9"/>
<g opacity="0.3">
<path d="M22.5689 17.2346C22.4758 17.6316 21.2009 17.6694 19.7211 17.3187C18.2415 16.9681 17.1174 16.362 17.2105 15.965C17.3036 15.5678 18.5785 15.5302 20.0582 15.8808C21.5379 16.2313 22.662 16.8374 22.5689 17.2346Z" fill="#FDFDFD"/>
</g>
<path d="M21.5265 17.7507C20.9743 17.7507 20.3075 17.6553 19.6764 17.5058C18.2957 17.1786 16.876 16.5424 17.0221 15.9187C17.1683 15.295 18.7212 15.3631 20.102 15.6902C20.8335 15.8635 21.5055 16.1041 21.994 16.3674C22.5687 16.6774 22.8251 16.9833 22.7562 17.2774C22.6768 17.616 22.1826 17.7508 21.5265 17.7508V17.7507ZM18.2475 15.8344C17.7155 15.8344 17.4175 15.9233 17.3977 16.0078C17.3617 16.1616 18.1466 16.7447 19.7649 17.1281C21.3833 17.5116 22.3445 17.3421 22.3805 17.1883C22.3876 17.158 22.3087 16.9775 21.8116 16.7095C21.3518 16.4616 20.7132 16.2338 20.0134 16.0679C19.2826 15.8947 18.6856 15.8344 18.2475 15.8344Z" fill="#FDFDFD"/>
<path d="M22.3993 16.0275L18.03 15.0312C18.03 15.0312 17.7421 15.4489 17.8748 15.8257C17.9714 16.1003 18.8628 16.478 20.009 16.7393C21.2156 17.0145 21.9949 17.0207 22.283 16.7116C22.4723 16.3807 22.3993 16.0275 22.3993 16.0275Z" fill="#9DA9B9"/>
<g opacity="0.3">
<path d="M22.3993 16.0275L18.03 15.0312C18.03 15.0312 17.7421 15.4489 17.8748 15.8257C17.9714 16.1003 18.8628 16.478 20.009 16.7393C21.2156 17.0145 21.9949 17.0207 22.283 16.7116C22.4723 16.3807 22.3993 16.0275 22.3993 16.0275Z" fill="#FDFDFD"/>
</g>
<path d="M21.4658 17.1375C21.0755 17.1375 20.5791 17.0674 19.9656 16.9275C19.4789 16.8165 17.8767 16.4135 17.6921 15.8894C17.5285 15.4242 17.8567 14.94 17.8706 14.9195C17.9154 14.8545 17.995 14.8231 18.072 14.8408L22.4412 15.8371C22.5149 15.8539 22.5721 15.9124 22.5874 15.9868C22.5909 16.0043 22.6729 16.4167 22.4495 16.8071C22.4422 16.8201 22.4333 16.8321 22.4231 16.8431C22.24 17.0395 21.927 17.1374 21.4658 17.1374V17.1375ZM18.1259 15.2511C18.0618 15.3849 17.9962 15.5904 18.0558 15.7599C18.1088 15.8881 18.7485 16.2519 20.0509 16.5491C21.5166 16.8833 21.9802 16.7279 22.1266 16.5925C22.2054 16.4432 22.2202 16.2877 22.2191 16.1844L18.1259 15.2511Z" fill="#FDFDFD"/>
<path d="M23.3003 15.2081L17.686 13.9453C17.686 13.9453 17.3527 14.3392 17.5118 14.7724C17.6276 15.0882 18.715 15.6182 20.1879 15.9494C21.7382 16.2981 22.7454 16.3279 23.1277 15.9841C23.3833 15.6125 23.3003 15.2079 23.3003 15.2079V15.2081Z" fill="#9DA9B9"/>
<path d="M22.1603 16.4206C21.6496 16.4206 20.984 16.3263 20.1455 16.1377C18.879 15.8529 17.5055 15.3151 17.3306 14.8385C17.1346 14.3049 17.5223 13.838 17.5388 13.8184C17.5851 13.7636 17.658 13.7388 17.7278 13.7548L23.3422 15.0175C23.4162 15.0341 23.4737 15.0929 23.4891 15.1678C23.4932 15.1877 23.5852 15.6586 23.2861 16.0934C23.2775 16.1058 23.2673 16.1174 23.256 16.1276C23.0389 16.3229 22.6796 16.4206 22.1602 16.4206H22.1603ZM17.7709 14.1621C17.7032 14.2788 17.614 14.4903 17.6925 14.7042C17.7602 14.8883 18.691 15.413 20.2296 15.759C22.0729 16.1735 22.7456 16.0434 22.982 15.8527C23.0977 15.6732 23.1197 15.4838 23.1196 15.3651L17.7708 14.1621H17.7709Z" fill="#FDFDFD"/>
<path d="M22.4341 15.7021C21.6122 15.7021 20.5908 15.4862 20.3042 15.4217C19.8484 15.3192 17.5678 14.7712 17.4321 14.0458C17.4292 14.03 17.4278 14.0139 17.4278 13.998C17.4278 13.9931 17.4276 13.9882 17.4271 13.9835C17.4262 13.975 17.4258 13.9665 17.4258 13.958C17.4258 13.9462 17.4266 13.9316 17.4282 13.9198C17.4292 13.9132 17.4303 13.9066 17.4316 13.8997C17.4324 13.8946 17.4334 13.8895 17.4345 13.8845C17.5248 13.4799 18.1457 13.4402 18.6047 13.4458C19.1774 13.4526 19.9151 13.5513 20.6821 13.7237C21.4488 13.896 22.1578 14.1227 22.6787 14.3619C23.0964 14.5537 23.6411 14.8555 23.551 15.2604C23.551 15.2604 23.551 15.2604 23.551 15.2606C23.5383 15.3175 23.5136 15.3703 23.4774 15.4175C23.3148 15.631 22.9075 15.7025 22.4341 15.7025V15.7021ZM18.0008 14.0119C18.2364 14.2139 19.0447 14.6082 20.4166 14.9168C21.7881 15.2254 22.6866 15.2146 22.9852 15.1328C22.7497 14.9311 21.9414 14.5368 20.5699 14.2284C19.1983 13.9202 18.2997 13.9303 18.0008 14.0119ZM17.4303 13.9098C17.4303 13.9098 17.4303 13.91 17.4303 13.9101C17.4303 13.9101 17.4303 13.91 17.4303 13.9098Z" fill="#FDFDFD"/>
<path d="M23.2998 15.2053C23.3731 14.8758 22.1757 14.326 20.6254 13.9773C19.075 13.6285 17.7588 13.613 17.6855 13.9425C17.6122 14.272 18.8095 14.8218 20.3599 15.1705C21.9103 15.5192 23.2265 15.5348 23.2998 15.2053Z" fill="#F1C5F9"/>
<g opacity="0.3">
<path d="M23.2921 15.2447C23.3471 14.9973 22.135 14.5141 20.5846 14.1654C19.0342 13.8166 17.7328 13.7345 17.6778 13.9818C17.6227 14.2292 18.8349 14.7124 20.3853 15.0611C21.9357 15.4098 23.2371 15.492 23.2921 15.2447Z" fill="#FDFDFD"/>
</g>
<path d="M21.475 14.8363C21.4717 14.8363 21.4685 14.8363 21.4652 14.8361C21.3589 14.8309 21.2768 14.7398 21.282 14.6329C21.2851 14.5687 21.3664 13.0401 22.0447 11.2426C22.0608 11.1998 22.0772 11.1586 22.0939 11.1187L20.8911 10.7684C20.8348 11.6126 20.5587 12.7761 19.9412 14.3056C19.9011 14.4049 19.7885 14.4528 19.6899 14.4124C19.5911 14.3721 19.5435 14.259 19.5837 14.1597C20.2414 12.5303 20.4783 11.4066 20.5145 10.6588L20.381 10.6199C20.2972 10.594 19.583 10.3614 19.4377 9.88125C19.3931 9.73395 19.3849 9.5027 19.5988 9.23793C19.8183 8.96606 20.1325 8.89291 20.3991 9.05157C20.6816 9.21947 20.8874 9.64347 20.9014 10.3676L22.2679 10.7656C22.6021 10.1919 22.9835 10.0584 23.2061 10.0347C23.5117 10.0025 23.8109 10.1382 23.9681 10.3821C24.0843 10.5621 24.0961 10.7687 24.0002 10.9348C23.7213 11.4172 22.8517 11.2986 22.4711 11.2197C22.4485 11.2711 22.4266 11.3247 22.4057 11.3804C21.75 13.1176 21.6683 14.6368 21.6675 14.652C21.6625 14.7557 21.5771 14.8364 21.475 14.8364V14.8363ZM22.6645 10.8608C23.0666 10.927 23.5569 10.9292 23.6665 10.7396C23.6973 10.6863 23.6613 10.6193 23.6444 10.593C23.5798 10.4929 23.432 10.4011 23.2471 10.4204C23.0413 10.4425 22.8398 10.5974 22.6645 10.8608ZM20.1082 9.35824C20.0119 9.35824 19.9332 9.43963 19.8984 9.48267C19.769 9.64261 19.7975 9.73707 19.8069 9.76804C19.8716 9.98266 20.2612 10.1764 20.4916 10.248L20.5141 10.2545C20.4827 9.71903 20.3276 9.45966 20.2027 9.38552C20.1701 9.36606 20.1381 9.35824 20.1082 9.35824Z" fill="#FDFDFD"/>
<path d="M12.9924 4.5552C13.7782 4.59213 14.5526 5.05519 15.1029 5.59765C15.3454 5.83685 15.7017 6.1948 15.7091 6.55758C15.7175 6.97177 15.3547 7.15828 14.9915 7.11723C14.2439 7.03285 13.4867 6.58187 12.9639 6.05247C12.7364 5.82208 12.4262 5.48842 12.4071 5.14794C12.3886 4.81982 12.6661 4.54114 12.9924 4.5552Z" fill="#FEDA24"/>
<path d="M15.0895 7.35661C15.0484 7.35661 15.0069 7.35433 14.9649 7.34965C14.2278 7.26641 13.4194 6.84383 12.8026 6.21941C12.4927 5.90564 12.2029 5.56118 12.1809 5.16815C12.1686 4.94926 12.251 4.7325 12.4071 4.57356C12.5642 4.41333 12.7809 4.32726 13.0007 4.33663C13.001 4.33663 13.0013 4.33663 13.0015 4.33663C13.7587 4.37214 14.5815 4.77554 15.259 5.44343C15.5075 5.68831 15.9233 6.09825 15.9328 6.56031C15.9376 6.79184 15.8562 6.99141 15.6974 7.13715C15.5424 7.27933 15.3257 7.35661 15.0897 7.35661H15.0895ZM12.9675 4.78847C12.8789 4.78847 12.7922 4.82554 12.7275 4.89145C12.6606 4.95949 12.6252 5.05111 12.6304 5.14258C12.646 5.41815 12.9676 5.74385 13.1222 5.90038C13.6608 6.44583 14.3863 6.82877 15.0152 6.8998C15.1675 6.9167 15.3089 6.88076 15.3938 6.80278C15.4557 6.7461 15.4847 6.66983 15.4827 6.56969C15.4769 6.29228 15.1302 5.95052 14.9439 5.76686C14.3532 5.18463 13.6195 4.81901 12.981 4.7889C12.9767 4.78875 12.9721 4.78861 12.9676 4.78861L12.9675 4.78847Z" fill="#FDFDFD"/>
<path d="M18.4899 0.313583C19.1517 0.740848 19.5918 1.53146 19.7983 2.27804C19.8893 2.60715 20.0196 3.09635 19.8455 3.4141C19.6467 3.77702 19.2399 3.75585 18.9458 3.53753C18.3406 3.08839 17.9094 2.31681 17.7201 1.59552C17.6377 1.28161 17.5353 0.836727 17.6882 0.532187C17.8355 0.238869 18.2144 0.137024 18.4899 0.313441V0.313583Z" fill="#FEDA24"/>
<path d="M19.3854 3.92159C19.1913 3.92159 18.989 3.85142 18.811 3.71932C18.2143 3.27643 17.7247 2.50386 17.5015 1.65288C17.3893 1.22533 17.3097 0.781307 17.4863 0.429893C17.5847 0.234157 17.7639 0.0878533 17.9781 0.0287634C18.1938 -0.0308946 18.4241 0.00319567 18.61 0.122228C18.6103 0.122228 18.6104 0.122512 18.6107 0.122654C19.2485 0.534436 19.7602 1.29778 20.0144 2.21693C20.1076 2.554 20.2636 3.11806 20.0419 3.52288C19.9307 3.72571 19.7611 3.85753 19.551 3.90384C19.497 3.91577 19.4417 3.92159 19.3856 3.92159H19.3854ZM18.1899 0.452762C18.1589 0.452762 18.1278 0.456881 18.0972 0.465261C18.0055 0.490687 17.9292 0.55205 17.8881 0.633866C17.7644 0.880311 17.8808 1.32405 17.9367 1.53726C18.1317 2.28057 18.5692 2.97701 19.0783 3.35498C19.2015 3.44646 19.3421 3.48637 19.4542 3.46152C19.536 3.44348 19.599 3.39206 19.6471 3.30442C19.7802 3.06138 19.65 2.59093 19.5803 2.3381C19.3586 1.53698 18.9054 0.851334 18.3676 0.503897C18.3146 0.470091 18.2529 0.45262 18.1896 0.45262L18.1899 0.452762Z" fill="#FDFDFD"/>
<path d="M27.5004 2.15166C27.3331 2.92437 26.7498 3.61498 26.1261 4.07009C25.851 4.27066 25.4406 4.56412 25.0836 4.51099C24.6761 4.45034 24.5537 4.05958 24.6546 3.70632C24.862 2.9792 25.4306 2.30379 26.0369 1.87368C26.3007 1.68661 26.6797 1.43477 27.0168 1.47255C27.3416 1.50906 27.5686 1.8305 27.5004 2.15166Z" fill="#FEDA24"/>
<path d="M25.1688 4.74356C25.129 4.74356 25.0893 4.74072 25.0496 4.73489C24.8216 4.70094 24.6396 4.58688 24.5232 4.40521C24.3899 4.19698 24.3584 3.91942 24.4371 3.64386C24.6416 2.92683 25.1907 2.19602 25.906 1.68878C26.2654 1.43381 26.652 1.2037 27.0405 1.2476C27.2574 1.27189 27.4562 1.38978 27.586 1.57103C27.7168 1.75355 27.7654 1.98238 27.7194 2.199C27.7194 2.19928 27.7194 2.19957 27.7192 2.19985C27.558 2.94473 27.025 3.69315 26.2572 4.25337C26.0002 4.44086 25.5852 4.7437 25.1688 4.7437V4.74356ZM26.9456 1.69503C26.678 1.69503 26.335 1.93835 26.1655 2.05866C25.5408 2.50169 25.0444 3.15694 24.8698 3.76872C24.8275 3.91672 24.8394 4.06303 24.9017 4.16019C24.947 4.23092 25.017 4.27254 25.1154 4.28717C25.3882 4.32723 25.7815 4.04101 25.9926 3.8869C26.6619 3.39855 27.1428 2.73223 27.279 2.10426C27.2984 2.0125 27.2772 1.91477 27.2207 1.8358C27.165 1.75824 27.0812 1.70782 26.9905 1.69773C26.9758 1.69603 26.9609 1.69517 26.9456 1.69517V1.69503Z" fill="#FDFDFD"/>
<path d="M31.4139 7.66022C30.8915 8.25155 30.0466 8.56617 29.2811 8.65566C28.9436 8.69515 28.4428 8.7487 28.1576 8.52654C27.8318 8.27285 27.9156 7.87201 28.1756 7.61363C28.7107 7.08197 29.5354 6.77316 30.2736 6.69689C30.5947 6.66365 31.0477 6.63084 31.3232 6.82984C31.5887 7.0216 31.6299 7.41364 31.4139 7.66008V7.66022Z" fill="#FEDA24"/>
<path d="M28.8004 8.91745C28.527 8.91745 28.2359 8.87299 28.0203 8.7051C27.8382 8.56319 27.7349 8.37414 27.7221 8.15837C27.7072 7.91108 27.815 7.65369 28.0179 7.45199C28.5455 6.92785 29.3804 6.56124 30.2511 6.47119C30.6885 6.42616 31.137 6.41579 31.4551 6.64547C31.6323 6.77345 31.7481 6.97416 31.773 7.19603C31.7981 7.41961 31.7289 7.64304 31.5833 7.80923C31.5831 7.80937 31.583 7.80966 31.5827 7.8098C31.0794 8.37953 30.2501 8.76958 29.3077 8.87967C29.1671 8.89614 28.9878 8.91702 28.8004 8.91702V8.91745ZM30.676 6.8976C30.5308 6.8976 30.3918 6.91209 30.2971 6.92175C29.5367 7.0003 28.7846 7.32699 28.3343 7.77415C28.2254 7.88238 28.1645 8.01576 28.1714 8.1311C28.1765 8.21505 28.2172 8.28578 28.2959 8.34701C28.5142 8.51703 28.9966 8.4605 29.2557 8.43024C30.0773 8.33422 30.8214 7.99005 31.2459 7.50966C31.3075 7.43921 31.3365 7.34361 31.3256 7.24702C31.315 7.152 31.2664 7.06677 31.1924 7.01322C31.0661 6.92203 30.8658 6.89746 30.676 6.89746V6.8976Z" fill="#FDFDFD"/>
<path d="M22.4412 15.6637C21.5802 15.6637 20.49 15.4267 20.311 15.3863C20.0338 15.324 17.5983 14.7564 17.4636 14.0359C17.461 14.0221 17.4596 14.0081 17.4596 13.9942C17.4596 13.9882 17.4593 13.9822 17.4588 13.9764C17.4582 13.9702 17.4578 13.9638 17.4576 13.9575C17.4134 13.0567 17.2798 12.1803 17.0605 11.3527C16.9443 10.9157 16.8894 10.4623 16.8972 10.0055C16.9409 7.34868 19.1218 5.19531 21.7633 5.19531C21.7709 5.19531 21.7781 5.19531 21.7857 5.19531C24.4575 5.20753 26.6311 7.40294 26.6311 10.0895C26.6311 11.5213 26.0093 12.8771 24.9255 13.8091C24.3703 14.2861 23.8822 14.8211 23.4751 15.3991C23.4448 15.442 23.4009 15.4728 23.3509 15.4866C23.1585 15.6171 22.8221 15.6636 22.4411 15.6637H22.4412ZM17.909 13.9586C17.9918 14.12 18.8175 14.5866 20.4093 14.9446C22.0215 15.3073 22.97 15.2322 23.0982 15.1137C23.1176 15.0882 23.1412 15.0681 23.1674 15.0539C23.5838 14.4774 24.0765 13.9433 24.6331 13.4651C25.6167 12.6192 26.181 11.3888 26.181 10.0895C26.181 7.65152 24.2084 5.65922 21.7839 5.64815C21.7771 5.64815 21.7703 5.64815 21.7636 5.64815C19.3663 5.64815 17.3874 7.60195 17.3477 10.0131C17.3405 10.428 17.3904 10.8395 17.4958 11.236C17.7236 12.096 17.8622 13.0058 17.9077 13.9403C17.9077 13.9406 17.9077 13.941 17.9077 13.9415C17.9081 13.9471 17.9086 13.9528 17.9088 13.9586H17.909Z" fill="#FDFDFD"/>
<g opacity="0.3">
<path d="M25.7198 11.5164C25.57 11.9417 25.3997 12.4251 24.964 12.8638C24.6463 13.1839 24.42 13.2459 23.9972 13.7388C23.8664 13.8914 23.8233 13.9608 23.4845 14.3837C23.2699 14.6516 23.0908 14.8691 22.9699 15.0144C21.928 15.0537 21.0816 14.9476 20.488 14.8365C19.5017 14.6519 18.9976 14.4131 18.7083 14.2544C18.4332 14.1034 18.2184 13.9515 18.0703 13.8377C18.8292 13.8821 19.4469 13.827 19.8661 13.7694C20.5026 13.6819 22.9054 13.3197 24.5459 11.538C24.9725 11.0747 25.1675 10.7109 25.2535 10.5355C25.6912 9.64302 25.6818 8.78593 25.6395 8.32031C25.7861 8.72613 26.2242 10.0852 25.7198 11.5164Z" fill="#FDFDFD"/>
</g>
<g opacity="0.7">
<path d="M18.1227 8.80557C18.0351 8.04138 18.7422 7.3671 18.9655 7.15403C19.1995 6.93088 19.4507 6.78842 19.953 6.50334C20.2445 6.338 20.4065 6.28686 20.6112 6.28913C20.8446 6.29155 21.0905 6.42422 21.1595 6.64836C21.2363 6.89793 21.0724 7.16597 20.8593 7.31554C20.6461 7.46497 20.3884 7.53315 20.154 7.64607C19.8026 7.81539 19.5021 8.0901 19.3009 8.42589C19.1322 8.70756 19.1524 8.82773 18.948 9.01977C18.9044 9.06082 18.5752 9.36323 18.3417 9.2557C18.1648 9.17417 18.1333 8.8996 18.1226 8.80585L18.1227 8.80557Z" fill="#F1C5F9"/>
</g>
<g opacity="0.7">
<path d="M21.6988 6.10797C21.5632 6.19788 21.4552 6.37388 21.4945 6.56663C21.5353 6.7662 21.7137 6.89702 21.8814 6.90952C22.0666 6.9233 22.25 6.81847 22.353 6.66322C22.376 6.62856 22.4027 6.58893 22.4145 6.5297C22.4467 6.36805 22.3438 6.19263 22.2059 6.10385C22.057 6.00783 21.8545 6.00485 21.6988 6.10811V6.10797Z" fill="#F1C5F9"/>
</g>
</g>
<defs>
<clipPath id="clip0_1421_2335">
<rect width="40" height="40" fill="white"/>
</clipPath>
</defs>
</svg>
