<svg width="208" height="149" viewBox="0 0 208 149" fill="none" xmlns="http://www.w3.org/2000/svg">
<path d="M1.33789 105.31L60.6274 52.9692L96.8363 88.4719C96.8363 88.4719 182.021 72.6418 206.662 79.8375L160.056 142.348L60.6274 140.999L1.33789 105.31Z" fill="#F1C5F9"/>
<g opacity="0.3">
<path d="M1.33789 105.31L60.6274 52.9692L96.8363 88.4719C96.8363 88.4719 182.021 72.6418 206.662 79.8375L160.056 142.348L60.6274 140.999L1.33789 105.31Z" fill="#FDFDFD"/>
</g>
<path d="M160.056 143.499H160.034L60.6059 142.15C60.3385 142.146 60.0792 142.073 59.8603 141.942L0.570794 106.253C0.249035 106.059 0.0426103 105.753 0.00587991 105.418C-0.0308505 105.081 0.105787 104.748 0.379796 104.506L59.6686 52.1659C59.9286 51.9364 60.2908 51.8106 60.6618 51.8189C61.035 51.8271 61.3868 51.9693 61.6322 52.2108L97.3231 87.2058C106.439 85.5397 183.355 71.8163 207.091 78.7485C207.481 78.8622 207.788 79.1239 207.924 79.4583C208.06 79.7927 208.01 80.1618 207.788 80.4602L161.181 142.97C160.935 143.3 160.51 143.5 160.055 143.5L160.056 143.499ZM61.0585 139.853L159.332 141.186L204.578 80.5013C178.587 74.5849 97.949 89.4428 97.1189 89.5977C96.6429 89.6862 96.1507 89.5458 95.8312 89.2317L60.5766 54.6639L3.39536 105.143L61.0585 139.853Z" fill="#FDFDFD"/>
<path d="M1.33789 105.31V115.671L60.6274 146.899V136.933L1.33789 105.31Z" fill="#39A1FF"/>
<g opacity="0.3">
<path d="M55.9443 134.436C55.9443 136.826 52.9015 138.293 50.5324 137.045L1.33789 111.134V115.671L60.6274 146.899V136.933L55.9443 134.435V134.436Z" fill="#FDFDFD"/>
</g>
<path d="M60.6272 148.05C60.3848 148.05 60.1431 147.994 59.9286 147.881L0.639109 116.652C0.242421 116.443 0 116.072 0 115.671V105.31C0 104.892 0.26299 104.507 0.686859 104.304C1.11146 104.1 1.6301 104.111 2.04295 104.331L61.3317 135.955C61.7255 136.164 61.965 136.534 61.965 136.933V146.899C61.965 147.315 61.7034 147.699 61.281 147.903C61.0776 148.001 60.852 148.05 60.6272 148.05V148.05ZM2.67618 115.026L59.2895 144.844V137.574L2.67618 107.378V115.026Z" fill="#FDFDFD"/>
<path d="M60.6274 136.933V146.899L160.056 147.762V136.933H60.6274Z" fill="#39A1FF"/>
<g opacity="0.3">
<path d="M75.1012 142.771C70.5797 142.732 66.7252 140.327 65.1142 136.933H60.6279V146.899L160.056 147.762V143.509L75.1019 142.771H75.1012Z" fill="#FDFDFD"/>
</g>
<path d="M160.056 148.913H160.043L60.614 148.05C59.8802 148.043 59.2896 147.529 59.2896 146.899V136.933C59.2896 136.297 59.8883 135.782 60.6273 135.782H160.056C160.795 135.782 161.394 136.297 161.394 136.933V147.762C161.394 148.069 161.251 148.364 160.997 148.58C160.746 148.794 160.408 148.913 160.056 148.913ZM61.965 145.759L158.718 146.599V138.084H61.965V145.759Z" fill="#FDFDFD"/>
<path d="M206.662 79.8381L160.056 136.933V147.762L206.662 93.0185V79.8381Z" fill="#FF926B"/>
<path d="M206.662 79.8381L160.056 136.933V147.762L206.662 93.0185V79.8381Z" fill="#39A1FF"/>
<g opacity="0.3">
<path d="M160.056 147.762L206.662 93.0185V88.1255L160.056 142.869V147.762Z" fill="#FDFDFD"/>
</g>
<path d="M160.056 148.913C159.917 148.913 159.777 148.895 159.64 148.856C159.09 148.701 158.718 148.26 158.718 147.762V136.933C158.718 136.696 158.803 136.465 158.961 136.271L205.568 79.1757C205.903 78.7648 206.509 78.5878 207.067 78.7395C207.623 78.8912 208.001 79.335 208.001 79.8375V93.0178C208.001 93.2625 207.911 93.5008 207.742 93.698L161.136 148.441C160.879 148.744 160.475 148.912 160.057 148.912L160.056 148.913ZM161.394 137.297V144.242L205.325 92.6417V83.4802L161.394 137.297Z" fill="#FDFDFD"/>
<path d="M60.6272 136.933L97.8344 86.8803C97.8344 86.8803 99.9214 57.5108 56.7242 49.1034L3.95801 105.07C3.95801 105.07 36.7384 107.468 60.6272 136.934V136.933Z" fill="#F1C5F9"/>
<g opacity="0.3">
<path d="M60.6272 136.933L97.8344 86.8803C97.8344 86.8803 99.9214 57.5108 56.7242 49.1034L3.95801 105.07C3.95801 105.07 36.7384 107.468 60.6272 136.934V136.933Z" fill="#FDFDFD"/>
</g>
<path d="M60.6274 138.085C60.1903 138.085 59.7804 137.901 59.5299 137.592C47.3985 122.629 32.915 114.897 22.9001 111.046C12.0308 106.867 3.9244 106.224 3.8436 106.217C3.34994 106.181 2.92019 105.913 2.72699 105.52C2.53379 105.128 2.60725 104.676 2.91873 104.345L55.6849 48.379C56.006 48.039 56.5216 47.8841 57.019 47.9814C79.844 52.4238 90.0947 62.7496 94.6743 70.6305C99.6557 79.2023 99.1914 86.6389 99.1693 86.9517C99.1554 87.1471 99.0841 87.3367 98.9615 87.5017L61.7543 137.555C61.5133 137.879 61.1005 138.078 60.6538 138.085C60.645 138.085 60.6362 138.085 60.6274 138.085V138.085ZM6.49113 104.211C9.76601 104.691 16.0925 105.918 23.8786 108.9C33.9177 112.745 48.2955 120.352 60.5679 134.876L96.5086 86.5264C96.5343 85.1218 96.3999 78.6865 92.2214 71.5559C86.0147 60.9646 74.247 53.8441 57.2372 50.3865L6.49113 104.211Z" fill="#FDFDFD"/>
<path d="M60.6273 136.933L97.8345 86.8802C97.8345 86.8802 99.9216 57.5107 56.7244 49.1033L2.50879 99.601C2.50879 99.601 45.8815 100.561 60.6273 136.933Z" fill="#F1C5F9"/>
<g opacity="0.3">
<path d="M61.64 136.933L97.8356 86.8802C97.8356 86.8802 99.8653 57.5107 57.8435 49.1033L5.10156 99.601C5.10156 99.601 47.2953 100.561 61.64 136.933Z" fill="#FDFDFD"/>
</g>
<path d="M60.6275 138.085C60.5753 138.085 60.5239 138.082 60.471 138.077C59.9626 138.025 59.5322 137.729 59.3632 137.313C53.3872 122.572 42.0257 111.942 25.594 105.717C13.2819 101.053 2.58017 100.755 2.47365 100.752C1.94914 100.739 1.48046 100.465 1.27624 100.049C1.07202 99.6327 1.16972 99.1523 1.52601 98.8204L55.7416 48.3227C56.0663 48.0205 56.5533 47.8903 57.0198 47.9807C79.8448 52.4231 90.0956 62.7489 94.6751 70.6298C99.6565 79.2016 99.1922 86.6381 99.1702 86.951C99.1562 87.1464 99.085 87.336 98.9623 87.501L61.7551 137.554C61.5075 137.887 61.0807 138.085 60.6282 138.085L60.6275 138.085ZM5.36728 98.6352C9.45758 99.0139 17.5192 100.155 26.5762 103.572C37.9361 107.859 52.9001 116.654 60.95 134.363L96.5094 86.5263C96.5351 85.1218 96.4007 78.6864 92.2222 71.5558C86.0089 60.9525 74.2221 53.8288 57.1807 50.3751L5.36728 98.6352Z" fill="#FDFDFD"/>
<path d="M60.6272 136.933L97.8344 86.8803C97.8344 86.8803 99.9214 57.5108 56.7242 49.1034L5.10107 94.8763C5.10107 94.8763 52.9057 93.6532 60.6272 136.933Z" fill="#F1C5F9"/>
<g opacity="0.3">
<path d="M62.4232 136.933L97.835 86.8803C97.835 86.8803 99.8206 57.5108 58.7083 49.1034L9.57617 94.8763C9.57617 94.8763 55.0749 93.6532 62.4232 136.933Z" fill="#FDFDFD"/>
</g>
<path d="M60.6271 138.085C60.5353 138.085 60.4427 138.076 60.3502 138.059C59.8051 137.96 59.3885 137.582 59.3041 137.108C56.1805 119.6 46.1546 107.37 29.5032 100.758C17.0119 95.7978 5.25524 96.0235 5.13917 96.0279C4.58601 96.0393 4.0953 95.7687 3.87638 95.3408C3.65673 94.9123 3.76105 94.4116 4.14011 94.0754L55.7633 48.3025C56.088 48.0143 56.564 47.8929 57.0187 47.9814C79.8437 52.4237 90.0945 62.7496 94.674 70.6305C99.6554 79.2023 99.1911 86.6388 99.1691 86.9517C99.1551 87.147 99.0839 87.3367 98.9612 87.5016L61.754 137.555C61.505 137.89 61.0767 138.086 60.6271 138.086V138.085ZM8.18266 93.7973C12.6417 94.0349 21.2998 94.9824 30.5272 98.629C38.2171 101.668 44.681 105.959 49.738 111.383C55.4224 117.48 59.321 125.019 61.3514 133.824L96.509 86.5276C96.5348 85.1231 96.4003 78.6878 92.2219 71.5571C86.0056 60.9494 74.2122 53.8238 57.159 50.372L8.18266 93.7973Z" fill="#FDFDFD"/>
<path d="M101.431 83.7861L60.6274 136.933C78.2162 128.191 107.149 121.495 155.373 131.644L201.344 79.8311C201.344 79.8311 148.171 54.3471 101.431 83.7855V83.7861Z" fill="#F1C5F9"/>
<g opacity="0.3">
<path d="M101.431 83.7862L60.6274 136.933C77.8496 128.373 104.886 119.52 151.277 128.682C153.121 129.046 155.045 128.472 156.244 127.213L201.344 79.8319C201.344 79.8319 148.171 54.3479 101.431 83.7862Z" fill="#FDFDFD"/>
</g>
<path d="M60.6282 138.085C60.2682 138.085 59.9134 137.96 59.6534 137.722C59.228 137.334 59.1692 136.745 59.5108 136.299L100.314 83.1515C100.401 83.0377 100.512 82.9379 100.64 82.857C111.468 76.0373 123.543 71.5817 136.529 69.6153C146.903 68.0439 157.872 68.0502 169.131 69.6336C188.277 72.3263 201.444 78.5619 201.995 78.8261C202.334 78.9886 202.574 79.2705 202.654 79.5973C202.733 79.9247 202.643 80.2648 202.408 80.5309L156.437 132.343C156.114 132.707 155.571 132.872 155.055 132.763C116.194 124.585 84.6491 126.323 61.2967 137.93C61.0873 138.035 60.8566 138.085 60.6282 138.085ZM102.414 84.594L64.6553 133.776C87.8961 123.907 118.197 122.753 154.84 130.349L199.313 80.2243C195.455 78.5746 183.843 74.0241 168.609 71.8934C151.472 69.4965 126.1 69.76 102.414 84.594Z" fill="#FDFDFD"/>
<path d="M101.43 83.7861L62.6914 134.245C71.6382 124.217 104.585 115.547 152.808 125.696L197.408 75.2327C197.408 75.2327 148.17 54.3478 101.43 83.7861Z" fill="#F1C5F9"/>
<g opacity="0.3">
<path d="M99.9716 81.711L71.9389 118.224C69.8343 120.966 73.0504 124.401 76.6206 123.236C92.09 118.187 117.197 116.204 149.284 122.602C150.787 122.901 152.357 122.414 153.291 121.357L193.268 76.1233C193.183 73.9559 192.526 72.2612 191.524 70.9187C179.669 55.0418 111.041 77.2409 101.594 80.3526C101.053 80.8052 100.513 81.2578 99.9723 81.7104L99.9716 81.711Z" fill="#FDFDFD"/>
</g>
<path d="M62.6909 135.396C62.422 135.396 62.1502 135.326 61.9151 135.182C61.3282 134.822 61.1783 134.128 61.575 133.61L100.314 83.1516C100.401 83.0378 100.512 82.9379 100.64 82.857C111.45 76.0488 123.296 71.3555 135.85 68.9074C145.889 66.9498 156.396 66.4182 167.078 67.3246C185.262 68.8688 197.488 73.9837 197.999 74.2005C198.358 74.3529 198.618 74.6348 198.71 74.9691C198.802 75.3035 198.715 75.6562 198.473 75.9299L153.873 126.393C153.552 126.758 153.008 126.923 152.491 126.815C102.513 116.297 71.5378 126.22 63.7531 134.945C63.4901 135.24 63.0934 135.395 62.6909 135.395V135.396ZM102.414 84.5934L68.9953 128.122C74.9485 125.011 83.1607 122.617 92.8061 121.267C104.899 119.576 124.992 118.762 152.273 124.4L195.323 75.6897C191.54 74.301 180.871 70.7967 166.712 69.6065C150.455 68.2399 126.121 69.7361 102.413 84.5927L102.414 84.5934Z" fill="#FDFDFD"/>
<path d="M101.43 83.7862L63.3525 133.11C72.2993 123.082 102.968 109.407 151.192 119.557L194.62 70.5326C194.62 70.5326 148.171 54.3485 101.43 83.7869V83.7862Z" fill="#F1C5F9"/>
<path d="M63.3519 134.261C63.0823 134.261 62.8105 134.191 62.5747 134.046C61.9878 133.685 61.8394 132.989 62.2383 132.472L100.316 83.149C100.403 83.0359 100.513 82.9373 100.64 82.857C125.088 67.4586 149.453 64.6332 165.585 64.9688C183.083 65.3361 194.639 69.2968 195.122 69.4649C195.509 69.5995 195.8 69.8814 195.911 70.2278C196.021 70.5742 195.937 70.9446 195.684 71.2297L152.256 120.254C151.933 120.618 151.39 120.784 150.874 120.674C129.893 116.259 109.842 115.984 92.8883 119.879C74.1617 124.181 66.3594 131.63 64.4142 133.81C64.1512 134.104 63.7545 134.26 63.3519 134.26V134.261ZM102.413 84.5946L70.5048 125.926C85.0618 117.253 112.891 110.5 150.657 118.261L192.447 71.0862C188.657 69.9971 178.7 67.5345 165.407 67.2684C149.757 66.9479 126.147 69.7108 102.413 84.5946Z" fill="#FDFDFD"/>
<path d="M101.43 83.7862L63.3525 133.11C72.2993 123.082 102.968 109.407 151.192 119.557L194.62 70.5326C194.62 70.5326 148.171 54.3485 101.43 83.7869V83.7862Z" fill="#F1C5F9"/>
<path d="M63.3519 134.261C63.0823 134.261 62.8105 134.191 62.5747 134.046C61.9878 133.685 61.8394 132.989 62.2383 132.472L100.316 83.149C100.403 83.0359 100.513 82.9373 100.64 82.857C125.088 67.4586 149.453 64.6332 165.585 64.9688C183.083 65.3361 194.639 69.2968 195.122 69.4649C195.509 69.5995 195.8 69.8814 195.911 70.2278C196.021 70.5742 195.937 70.9446 195.684 71.2297L152.256 120.254C151.933 120.618 151.39 120.784 150.874 120.674C129.893 116.259 109.842 115.984 92.8883 119.879C74.1617 124.181 66.3594 131.63 64.4142 133.81C64.1512 134.104 63.7545 134.26 63.3519 134.26V134.261ZM102.413 84.5946L70.5048 125.926C85.0618 117.253 112.891 110.5 150.657 118.261L192.447 71.0862C188.657 69.9971 178.7 67.5345 165.407 67.2684C149.757 66.9479 126.147 69.7108 102.413 84.5946Z" fill="#FDFDFD"/>
<g opacity="0.3">
<path d="M98.8901 82.4158L61.3457 127.918C67.4474 125.825 73.5498 123.733 79.6514 121.64C85.8853 118.891 93.7684 116.214 103.138 114.678C116.04 112.564 126.89 113.412 130.733 113.959C137.157 114.874 141.814 115.537 144.003 116.036C144.099 116.058 144.367 116.119 144.741 116.158C146.867 116.375 148.758 115.463 150.138 114.53L190.775 70.1881C190.775 70.1881 144.976 55.2574 98.8901 82.4158Z" fill="#FDFDFD"/>
</g>
<path d="M101.43 83.7862L63.3525 133.11C72.2993 123.082 97.0909 102.788 145.314 112.937L188.376 64.8494C188.376 64.8494 148.17 54.3479 101.43 83.7862Z" fill="#F1C5F9"/>
<path d="M63.3519 134.261C63.0823 134.261 62.8105 134.191 62.5747 134.046C61.9878 133.685 61.8394 132.989 62.2383 132.472L100.316 83.149C100.403 83.0359 100.513 82.9373 100.64 82.857C125.038 67.4902 147.653 63.1042 162.328 62.1301C178.29 61.0726 188.345 63.6376 188.765 63.7476C189.186 63.8576 189.517 64.1383 189.651 64.4986C189.785 64.8588 189.705 65.2526 189.436 65.5522L146.374 113.64C146.051 114.001 145.51 114.163 144.997 114.055C97.1572 103.987 72.7064 124.517 64.4142 133.81C64.1512 134.105 63.7545 134.261 63.3519 134.261ZM102.413 84.5946L72.6447 123.153C77.0326 120.005 82.4628 116.906 89.0654 114.403C105.157 108.304 123.9 107.375 144.785 111.642L186.065 65.544C182.45 64.8664 173.955 63.6547 162.396 64.4353C148.139 65.3987 126.174 69.6804 102.413 84.5946H102.413Z" fill="#FDFDFD"/>
<path d="M63.3526 133.109L101.43 83.7855C101.43 83.7855 101.239 46.4296 58.7459 44.5618L9.44922 88.4004C9.44922 88.4004 55.9595 84.2059 63.3526 133.11V133.109Z" fill="#F1C5F9"/>
<path d="M63.3529 134.261C63.2522 134.261 63.1508 134.251 63.0495 134.231C62.5059 134.122 62.0981 133.734 62.0254 133.258C59.029 113.439 49.3204 100.063 33.1678 93.5027C21.0879 88.5958 9.70073 89.5357 9.58686 89.5458C9.02709 89.592 8.49156 89.3385 8.24547 88.9036C8.00011 88.4687 8.09561 87.9479 8.48716 87.6002L57.7831 43.7622C58.0512 43.5233 58.4244 43.3893 58.813 43.4133C81.4191 44.4069 92.1804 55.3611 97.2271 64.376C102.655 74.071 102.765 83.3899 102.767 83.7818C102.768 84.01 102.69 84.2337 102.543 84.424L64.4658 133.747C64.2146 134.073 63.7929 134.261 63.3514 134.261L63.3529 134.261ZM12.7119 87.1553C17.1644 87.1951 25.4221 87.8329 34.197 91.3738C41.6944 94.399 47.9863 98.9235 52.8986 104.822C58.4567 111.495 62.2407 119.946 64.1675 129.973L100.082 83.4525C100.006 81.7104 99.4089 73.5337 94.7779 65.3039C87.9674 53.1993 76.0271 46.6192 59.2817 45.7419L12.7119 87.1553Z" fill="#FDFDFD"/>
<g opacity="0.3">
<path d="M107.975 107.038C101.89 107.973 96.9756 104.129 96.3879 99.5821C98.2553 99.0663 100.212 98.6296 102.121 98.3786C104.422 98.0759 106.492 96.9248 107.571 95.1499C108.031 94.3927 108.273 93.5943 107.986 92.8851C107.446 91.5501 103.276 91.5862 99.0524 92.6076L109.169 79.2383C106.613 80.6384 104.032 82.1465 101.43 83.7855C101.43 83.7855 101.412 80.6782 100.372 76.2144L88.0677 92.4262C86.4186 91.2019 84.4035 90.0906 82.4531 90.0066C81.338 89.9585 80.3345 90.2228 79.4861 90.6779C76.4631 92.3017 76.5498 96.1063 79.5066 97.8192C80.2625 98.2573 81.1485 98.8426 82.0726 99.603C74.0676 106.471 60.7308 106.619 52.4187 99.3217C41.4297 89.6754 25.3366 85.7811 14.161 84.209L9.44922 88.3992C9.44922 88.3992 55.9595 84.2046 63.3526 133.108C72.2994 123.081 97.091 102.786 145.314 112.936L148.151 109.768C134.293 104.916 119.777 105.222 107.975 107.037V107.038Z" fill="#FDFDFD"/>
</g>
<g opacity="0.55">
<mask id="mask0_972_5166" style="mask-type:luminance" maskUnits="userSpaceOnUse" x="89" y="24" width="49" height="45">
<path d="M137.31 44.917C137.31 51.2373 134.025 56.8958 128.851 60.7035C125.931 62.8507 123.325 65.2766 121.114 67.9624L121.02 67.9049C119.946 69.1109 113.447 68.9643 105.871 67.5048C98.258 66.0396 92.2835 63.7773 91.9588 62.2925C91.9588 62.2319 91.9551 62.1718 91.9485 62.1143V62.1029C91.7208 58.1113 91.042 54.1481 89.8446 50.2797C89.2789 48.4605 88.9946 46.544 89.035 44.5605C89.2525 33.2524 100.137 24.094 113.279 24.1458C126.562 24.1977 137.309 33.4768 137.309 44.9176L137.31 44.917Z" fill="white"/>
</mask>
<g mask="url(#mask0_972_5166)">
<path d="M137.31 24.0941H88.9951V69.111H137.31V24.0941Z" fill="#FFE610"/>
<path d="M103.094 69.4271H95.6678V71.0458C93.2473 70.4795 90.8826 69.8133 88.5796 69.0535H88.6281V23.7781H137.677V69.4271H103.094Z" fill="#FFE610"/>
<path d="M103.269 71.5281C98.2864 70.8177 93.5049 69.6894 88.965 68.1919C88.3979 68.0048 87.8337 67.8121 87.2739 67.613H88.6278V23.7781H137.677V68.9391H139.119C136.889 69.6034 134.616 70.1767 132.305 70.6546V69.4277H103.269V71.5288L103.269 71.5281Z" fill="#FFE611"/>
<path d="M103.445 70.6166C98.5347 69.9163 93.8237 68.8045 89.3507 67.3292C88.7916 67.1446 88.2363 66.9543 87.6846 66.759H88.6278V23.7781H137.677V68.0655H138.769C136.571 68.7204 134.331 69.2848 132.055 69.7557V69.4271H103.444V70.6166H103.445Z" fill="#FFE512"/>
<path d="M103.621 69.7052C98.7842 69.0156 94.1429 67.9202 89.7368 66.4663C88.6348 66.1029 87.5484 65.7173 86.4766 65.3096H88.6282V23.7781H137.677V67.192H138.419C136.254 67.8367 134.048 68.3936 131.805 68.8569C122.835 70.7121 113.294 71.0844 103.62 69.7052H103.621Z" fill="#FFE513"/>
<path d="M103.796 68.7937C99.0324 68.1142 94.4617 67.0359 90.1216 65.6042C89.0366 65.2464 87.9663 64.8665 86.9106 64.4651H88.6282V23.7781H137.677V66.3184H138.068C135.936 66.9537 133.763 67.5017 131.554 67.9587C122.72 69.7861 113.323 70.1527 103.796 68.7943V68.7937Z" fill="#FEE414"/>
<path d="M103.972 67.8822C99.2811 67.2135 94.7802 66.1509 90.507 64.7414C89.4389 64.3887 88.3847 64.0151 87.3452 63.62H88.6278V23.7781H137.677V65.4449H137.717C135.619 66.07 133.479 66.6098 131.303 67.0599C122.605 68.8588 113.353 69.2204 103.972 67.8822Z" fill="#FEE415"/>
<path d="M104.147 66.9708C99.5296 66.3121 95.0992 65.2666 90.8928 63.8792C89.8409 63.5322 88.8036 63.1643 87.7803 62.7749H88.628V23.7781H137.677V64.0941H138.908C138.397 64.2584 137.883 64.4177 137.366 64.5713C135.3 65.187 133.194 65.7179 131.053 66.161C122.49 67.9322 113.382 68.288 104.147 66.9708Z" fill="#FEE416"/>
<path d="M104.323 66.0593C99.7786 65.4114 95.4179 64.3823 91.2784 63.0164C90.2433 62.6751 89.2222 62.3122 88.2158 61.9298H88.6287V23.7781H137.678V62.7269H140.036C139.04 63.0708 138.033 63.3944 137.017 63.6978C134.983 64.304 132.91 64.8267 130.803 65.2622C122.376 67.0055 113.412 67.3551 104.324 66.0593H104.323Z" fill="#FEE317"/>
<path d="M104.499 65.1478C100.027 64.51 95.7369 63.4974 91.6642 62.1542C90.6461 61.8186 89.6411 61.4615 88.6509 61.0854C88.1558 60.897 87.6636 60.7036 87.1758 60.5057H88.6288V23.7781H137.678V61.8691H139.637C138.657 62.2073 137.667 62.5259 136.666 62.8242C134.666 63.4203 132.626 63.9348 130.553 64.3634C122.261 66.0782 113.442 66.4227 104.499 65.1472L104.499 65.1478Z" fill="#FEE318"/>
<path d="M104.674 64.2363C100.276 63.6093 96.0555 62.6131 92.0489 61.2914C90.0456 60.6309 88.096 59.8882 86.2036 59.0696H88.6278V23.7781H137.677V61.0114H139.237C138.273 61.3445 137.299 61.6574 136.315 61.9507C134.347 62.5373 132.341 63.0429 130.301 63.4645C122.145 65.1516 113.47 65.4904 104.674 64.2357V64.2363Z" fill="#FEE319"/>
<path d="M104.85 63.3249C100.525 62.7079 96.3745 61.7288 92.4348 60.4292C90.4646 59.7795 88.5473 59.0494 86.6865 58.2447H88.6281V23.7781H137.677V60.1536H138.838C137.89 60.4811 136.932 60.7889 135.964 61.0778C134.029 61.6542 132.056 62.1517 130.05 62.567C122.03 64.2256 113.499 64.5587 104.849 63.3255L104.85 63.3249Z" fill="#FEE21A"/>
<path d="M105.025 62.4134C100.773 61.8072 96.6934 60.8445 92.8205 59.5664C90.8841 58.9274 88.9991 58.21 87.1699 57.4186H88.6289V23.7781H137.678V59.2959H138.44C137.508 59.6176 136.566 59.9204 135.614 60.2042C133.712 60.7712 131.772 61.2604 129.801 61.6681C121.915 63.2989 113.529 63.6264 105.025 62.414V62.4134Z" fill="#FEE21B"/>
<path d="M105.201 61.5019C101.022 60.9058 97.0127 59.9596 93.206 58.7043C91.3026 58.0766 89.4499 57.3712 87.6523 56.5937H88.6286V23.7781H137.678V58.4382H138.041C137.125 58.7542 136.199 59.0519 135.265 59.3307C133.395 59.8875 131.488 60.3686 129.551 60.7693C121.801 62.3723 113.559 62.694 105.201 61.5019H105.201Z" fill="#FDE11C"/>
<path d="M105.376 60.5904C101.271 60.0051 97.3316 59.0753 93.591 57.8415C91.7206 57.2245 89.901 56.5318 88.1343 55.7676H88.6279V23.7781H137.677V57.1H138.983C138.538 57.2644 138.091 57.4243 137.641 57.5798C136.741 57.8908 135.832 58.1828 134.913 58.4565C133.076 59.0039 131.203 59.476 129.3 59.8698C121.686 61.4444 113.588 61.7611 105.376 60.5898V60.5904Z" fill="#FDE11D"/>
<path d="M105.552 59.6789C101.52 59.1037 97.6504 58.191 93.9767 56.9793C92.1401 56.3731 90.3521 55.693 88.6177 54.9427H88.628V23.7787H137.677V55.7536H139.863C136.408 57.1171 132.787 58.1992 129.048 58.9723C121.57 60.519 113.616 60.8293 105.551 59.6796L105.552 59.6789Z" fill="#FDE11E"/>
<path d="M105.727 58.7675C101.768 58.203 97.9692 57.3061 94.3623 56.1165C92.5588 55.5217 90.8038 54.8536 89.1003 54.1166C88.2488 53.748 87.4099 53.3625 86.585 52.9605H88.6279V23.7781H137.677V54.9124H139.417C136.024 56.2511 132.469 57.3137 128.798 58.0728C121.455 59.5911 113.646 59.8964 105.727 58.7668L105.727 58.7675Z" fill="#FDE01F"/>
<path d="M105.903 57.856C102.017 57.3017 98.2879 56.4218 94.7478 55.2537C92.9774 54.6696 91.2548 54.0142 89.5828 53.291C88.7468 52.9295 87.924 52.5509 87.1138 52.1564H88.6278V23.7781H137.677V54.0723H138.97C135.64 55.3858 132.151 56.4294 128.547 57.1746C121.341 58.6651 113.675 58.9647 105.902 57.856H105.903Z" fill="#FDE020"/>
<path d="M106.079 56.9445C102.265 56.4009 98.6071 55.5375 95.1331 54.3915C93.3965 53.8188 91.7062 53.1747 90.0658 52.4655C89.246 52.1109 88.4379 51.7393 87.6431 51.3524H88.6282V23.7781H137.677V53.2322H138.524C135.256 54.5211 131.833 55.5444 128.297 56.2758C121.226 57.7384 113.705 58.0317 106.079 56.9445Z" fill="#FDDF21"/>
<path d="M106.254 56.0323C102.514 55.4988 98.9256 54.6518 95.5184 53.528C93.8149 52.966 92.1569 52.3346 90.5481 51.6386C89.7437 51.291 88.9518 50.9263 88.1724 50.547H88.6278V23.7773H137.677V52.3908H138.077C134.871 53.655 131.514 54.6588 128.046 55.3762C121.111 56.8104 113.734 57.0987 106.254 56.0323Z" fill="#FDDF22"/>
<path d="M106.43 55.1208C99.096 54.0747 92.356 51.7998 86.4468 48.5806H88.6278V23.7773H137.677V50.5736H139.958C139.192 50.9149 138.415 51.2411 137.63 51.5508C134.488 52.7903 131.196 53.7745 127.796 54.478C120.995 55.8844 113.763 56.167 106.43 55.1208Z" fill="#FCDF23"/>
<path d="M106.605 54.2095C99.418 53.1842 92.8124 50.9548 87.0215 47.8001H88.6281V23.7781H137.677V49.7532H139.464C138.714 50.0876 137.953 50.4074 137.183 50.7108C134.103 51.9257 130.877 52.8903 127.545 53.5793C120.88 54.9579 113.792 55.2347 106.605 54.2095H106.605Z" fill="#FCDE24"/>
<path d="M106.781 53.2979C99.7398 52.2935 93.2686 50.109 87.5952 47.0187H88.6281V23.7773H137.677V48.932H138.972C138.236 49.2601 137.491 49.573 136.737 49.8701C133.72 51.0603 130.56 52.0053 127.295 52.6803C120.766 54.0305 113.822 54.3017 106.781 53.2979Z" fill="#FCDE25"/>
<path d="M106.956 52.3864C100.061 51.4029 93.7245 49.2639 88.1694 46.2374H88.6278V23.7773H137.677V48.111H138.478C137.758 48.4321 137.028 48.7386 136.29 49.0294C133.336 50.195 130.241 51.1203 127.044 51.7815C120.651 53.1038 113.851 53.3693 106.956 52.3858V52.3864Z" fill="#FCDE27"/>
<path d="M107.132 51.475C100.383 50.5124 94.1808 48.4189 88.7433 45.4569C88.0638 45.0865 87.396 44.7028 86.7407 44.3059H88.6279V23.7781H137.677V46.3058H140.072C138.7 46.991 137.288 47.6199 135.843 48.1901C132.951 49.331 129.922 50.2361 126.793 50.8834C120.536 52.1773 113.88 52.4377 107.131 51.475H107.132Z" fill="#FCDD28"/>
<path d="M107.307 50.5636C100.706 49.6217 94.6369 47.5738 89.3176 44.6756C88.6528 44.3134 87.9997 43.938 87.3584 43.5499H88.6285V23.7781H137.678V45.5062H139.535C138.193 46.1762 136.812 46.7919 135.397 47.35C132.568 48.4663 129.605 49.3518 126.544 49.9852C120.422 51.2513 113.911 51.5054 107.308 50.5642L107.307 50.5636Z" fill="#FCDD29"/>
<path d="M107.483 49.652C101.028 48.731 95.0941 46.7286 89.8916 43.8949C88.5913 43.1863 87.3366 42.4259 86.1304 41.6175H88.628V23.7773H137.677V44.7059H138.996C137.683 45.3614 136.333 45.9631 134.95 46.5086C132.184 47.5996 129.286 48.4662 126.293 49.0856C120.307 50.3239 113.94 50.5723 107.483 49.652Z" fill="#FCDC2A"/>
<path d="M107.659 48.7406C101.349 47.8405 95.5502 45.8829 90.466 43.1137C89.1952 42.4216 87.9684 41.6783 86.79 40.8881H88.628V23.7781H137.677V43.9076H138.457C137.175 44.548 135.855 45.1364 134.503 45.6693C131.8 46.7356 128.967 47.5826 126.042 48.1875C120.191 49.3974 113.968 49.6407 107.658 48.7406H107.659Z" fill="#FBDC2B"/>
<path d="M107.835 47.8291C101.671 46.9499 96.0067 45.0378 91.04 42.3325C89.7985 41.6561 88.6004 40.9305 87.4492 40.1587H88.6283V23.7781H137.677V43.1081H137.919C136.666 43.7338 135.377 44.3084 134.056 44.8292C131.416 45.8709 128.649 46.6983 125.791 47.2893C120.076 48.4713 113.998 48.709 107.834 47.8298L107.835 47.8291Z" fill="#FBDC2C"/>
<path d="M108.01 46.9177C101.993 46.0593 96.4629 44.1927 91.6144 41.5518C90.4023 40.8913 89.2328 40.1827 88.1089 39.4293H88.6283V23.7781H137.677V41.3553H139.189C138.596 41.6852 137.992 42.0032 137.381 42.3085C136.157 42.9191 134.899 43.4804 133.61 43.9886C131.032 45.0056 128.331 45.8134 125.541 46.3899C119.962 47.5441 114.027 47.7754 108.009 46.9177H108.01Z" fill="#FBDB2D"/>
<path d="M108.186 46.0062C102.315 45.1687 96.919 43.3476 92.1881 40.7706C91.0054 40.1265 89.8645 39.435 88.7677 38.6998C88.2197 38.3326 87.6827 37.954 87.1567 37.5652H88.6274V23.7781H137.677V40.5791H138.606C138.026 40.9008 137.438 41.2111 136.841 41.5089C135.648 42.1049 134.42 42.6523 133.162 43.1485C130.647 44.1409 128.011 44.9285 125.29 45.4917C119.846 46.6174 114.055 46.8437 108.185 46.0062H108.186Z" fill="#FBDB2E"/>
<path d="M108.361 45.0946C102.636 44.278 97.3751 42.5024 92.7625 39.9892C90.4558 38.7326 88.3122 37.2921 86.353 35.6954H88.6281V23.7773H137.677V38.8262H139.691C130.945 44.2122 119.81 46.7267 108.361 45.094V45.0946Z" fill="#FBDA2F"/>
<path d="M108.536 44.1832C102.958 43.3874 97.831 41.6568 93.336 39.2087C91.0888 37.9843 88.9988 36.5804 87.0903 35.0249H88.6271V23.7781H137.676V38.076H139.066C130.543 43.3242 119.693 45.7748 108.536 44.1839L108.536 44.1832Z" fill="#FBDA30"/>
<path d="M108.712 43.2717C103.28 42.4967 98.2872 40.8116 93.9104 38.4273C91.722 37.2352 89.6872 35.868 87.8286 34.3529H88.6279V23.7773H137.677V37.3237H138.442C130.142 42.4341 119.576 44.8209 108.712 43.2717Z" fill="#FBDA31"/>
<path d="M108.888 42.3602C103.602 41.6061 98.7437 39.9665 94.4844 37.6461C92.3548 36.4862 90.375 35.1556 88.5664 33.6816H88.6281V23.7773H137.677V36.5721H137.817C129.74 41.5454 119.46 43.8671 108.888 42.3596V42.3602Z" fill="#FBD932"/>
<path d="M109.063 41.4487C103.924 40.7155 99.1998 39.1214 95.0588 36.8654C92.9879 35.7378 91.0632 34.4439 89.3046 33.0103C88.4253 32.2935 87.5878 31.5413 86.7944 30.7575H88.6287V23.7773H137.678V33.8889H140.034C139.123 34.5716 138.174 35.2163 137.193 35.8206C129.34 40.6561 119.343 42.9139 109.064 41.4481L109.063 41.4487Z" fill="#FAD933"/>
<path d="M109.239 40.5373C104.246 39.825 99.656 38.2763 95.6333 36.0843C93.6219 34.9882 91.7516 33.7316 90.0429 32.3391C89.1886 31.6426 88.3746 30.9125 87.604 30.1508H88.6288V23.7781H137.678V33.1931H139.328C138.443 33.8561 137.521 34.4825 136.568 35.0698C128.938 39.7675 119.226 41.9614 109.24 40.5367L109.239 40.5373Z" fill="#FAD834"/>
<path d="M109.415 39.6258C99.7206 38.2434 91.5951 33.6108 86.2949 27.238H88.628V23.7773H137.677V32.4964H138.621C137.762 33.1405 136.868 33.7486 135.942 34.3181C128.536 38.8786 119.108 41.0075 109.415 39.6251V39.6258Z" fill="#FAD835"/>
<path d="M109.59 38.7144C100.189 37.3737 92.3085 32.8808 87.1685 26.7009H88.6281V23.7781H137.677V31.8006H137.916C137.083 32.4251 136.215 33.0148 135.318 33.5673C128.135 37.99 118.992 40.0551 109.59 38.7144Z" fill="#FAD836"/>
<path d="M109.766 37.8029C100.657 36.504 93.0219 32.1508 88.042 26.163H88.6282V23.7781H137.677V29.19H139.53C138.053 30.5307 136.433 31.745 134.693 32.8163C127.734 37.1013 118.875 39.1025 109.766 37.8029Z" fill="#FAD737"/>
<path d="M109.941 36.8914C101.125 35.6342 93.7352 31.4207 88.9147 25.625C88.3123 24.9007 87.7496 24.1516 87.2295 23.3805L88.6274 23.7781H137.677V28.5548H138.749C137.32 29.8525 135.751 31.0275 134.067 32.0648C127.332 36.2126 118.757 38.1487 109.941 36.8914Z" fill="#FAD738"/>
<path d="M110.117 35.9799C101.592 34.7644 94.4482 30.6906 89.7878 25.0877C89.2053 24.3874 88.6617 23.663 88.1592 22.9171L88.6279 23.778H137.677V27.9201H137.969C136.588 29.1748 135.071 30.3107 133.443 31.3132C126.93 35.3232 118.641 37.1954 110.117 35.9799Z" fill="#FAD739"/>
<path d="M110.293 35.0684C102.061 33.8946 95.1619 29.9604 90.6617 24.5497C90.099 23.8734 89.5744 23.1737 89.0889 22.4537V23.7773H137.678V25.3828H139.091C138.492 26.044 137.857 26.6786 137.19 27.2848C135.856 28.4965 134.391 29.5938 132.819 30.5616C126.531 34.4338 118.525 36.2422 110.294 35.0677L110.293 35.0684Z" fill="#F9D63A"/>
<path d="M110.468 34.157C102.529 33.0249 95.8749 29.2311 91.5341 24.0119C90.9912 23.3596 90.485 22.6851 90.0171 21.9905V23.7774H137.677L139.869 22.8255C137.845 25.5776 135.226 27.9429 132.193 29.8101C126.128 33.5445 118.408 35.2884 110.469 34.1563L110.468 34.157Z" fill="#F9D63B"/>
<path d="M110.644 33.2454C102.997 32.1551 96.5884 28.501 92.4077 23.4746V23.778H137.677L138.961 22.3324C137.011 24.9834 134.489 27.2608 131.568 29.0597C125.727 32.657 118.29 34.3364 110.644 33.2461V33.2454Z" fill="#F9D53C"/>
<path d="M110.819 32.334C103.465 31.2854 97.3018 27.7709 93.2812 22.9367V23.778H137.677L138.053 21.8381C136.178 24.3874 133.752 26.5782 130.943 28.3076C125.325 31.767 118.173 33.3826 110.819 32.3334V32.334Z" fill="#F9D53D"/>
</g>
</g>
<path d="M137.562 44.917C137.562 51.2373 134.278 56.8958 129.103 60.7035C126.183 62.8507 123.578 65.2766 121.366 67.9624L121.273 67.9049C120.199 69.1109 113.7 68.9643 106.124 67.5048C98.5112 66.0396 92.5366 63.7773 92.2127 62.2925C92.2127 62.2319 92.209 62.1718 92.2024 62.1143V62.1029C91.9747 58.1113 91.2959 54.1481 90.0985 50.2797C89.5328 48.4605 89.2485 46.544 89.2889 44.5605C89.5064 33.2524 100.391 24.094 113.533 24.1458C126.816 24.1977 137.563 33.4768 137.563 44.9176L137.562 44.917Z" fill="#FEDA24"/>
<path d="M92.7637 79.8382L93.0252 82.589C93.3242 85.7343 96.0327 88.3493 99.6477 88.8796C99.7079 88.8884 99.7689 88.8973 99.8306 88.9055C103.199 89.3663 106.535 87.9119 108.159 85.331L109.715 82.8596L92.7644 79.8375L92.7637 79.8382Z" fill="#5E4C80"/>
<path d="M101.071 89.8536C100.607 89.8536 100.14 89.8226 99.6734 89.7588C99.6065 89.75 99.5397 89.7405 99.4728 89.7304C95.4303 89.1375 92.3647 86.2298 92.0261 82.6598L91.7646 79.9083C91.7389 79.6371 91.863 79.371 92.1003 79.1909C92.3376 79.0107 92.6586 78.9368 92.9686 78.9924L109.919 82.0144C110.23 82.0694 110.492 82.2483 110.626 82.4961C110.759 82.7439 110.749 83.0315 110.598 83.2717L109.042 85.7431C107.433 88.298 104.345 89.8536 101.071 89.8536H101.071ZM93.8736 80.9177L94.0257 82.5188C94.2901 85.3019 96.671 87.5673 99.8166 88.0281L99.9878 88.0528C102.914 88.4516 105.846 87.1944 107.277 84.9201L108.19 83.4701L93.8744 80.9177H93.8736Z" fill="#FDFDFD"/>
<path d="M113.363 80.8716L91.6797 76.4166C91.6797 76.4166 90.2237 78.1808 90.8621 79.792C91.3278 80.9658 95.7413 82.6174 101.429 83.7862C107.417 85.0162 111.295 85.0807 112.745 83.7786C113.706 82.3785 113.362 80.8716 113.362 80.8716H113.363Z" fill="#9DA9B9"/>
<g opacity="0.3">
<path d="M113.363 80.8716L91.6797 76.4166C91.6797 76.4166 90.2237 78.1808 90.8621 79.792C91.3278 80.9658 95.7413 82.6174 101.429 83.7862C107.417 85.0162 111.295 85.0807 112.745 83.7786C113.706 82.3785 113.362 80.8716 113.362 80.8716H113.363Z" fill="#FDFDFD"/>
</g>
<path d="M108.84 85.5946C106.866 85.5946 104.34 85.2716 101.198 84.6262C98.7771 84.1288 90.8095 82.3311 89.9133 80.0708C89.1177 78.0651 90.7904 76.0039 90.8617 75.9173C91.099 75.6303 91.514 75.495 91.9129 75.5772L113.596 80.0316C113.979 80.1099 114.272 80.3735 114.348 80.7047C114.365 80.7793 114.752 82.5536 113.61 84.2173C113.571 84.2748 113.524 84.3279 113.471 84.3759C112.566 85.1888 111.049 85.594 108.84 85.594V85.5946ZM92.1722 77.4059C91.8541 77.9659 91.5346 78.811 91.813 79.5132C92.0841 80.0581 95.2547 81.6295 101.663 82.9461C108.904 84.4341 111.211 83.8077 111.944 83.2457C112.329 82.6358 112.415 81.9986 112.419 81.565L92.1722 77.4059Z" fill="#FDFDFD"/>
<path d="M117.355 76.6948L89.4914 71.0452C89.4914 71.0452 87.577 73.358 88.3439 75.2106C88.9029 76.5608 94.2825 78.8705 101.593 80.3521C109.287 81.9121 114.296 82.0884 116.218 80.6428C117.51 79.0727 117.355 76.6942 117.355 76.6942V76.6948Z" fill="#9DA9B9"/>
<path d="M111.609 82.4974C109.034 82.4974 105.651 82.0631 101.363 81.1934C95.0663 79.9165 88.2484 77.5513 87.3992 75.5014C86.467 73.2505 88.5841 70.6545 88.6745 70.5452C88.911 70.2595 89.3246 70.1254 89.722 70.2057L117.586 75.8554C118.018 75.9432 118.333 76.2656 118.358 76.6474C118.365 76.7567 118.516 79.3477 117.038 81.1434C116.992 81.1991 116.939 81.2496 116.879 81.2945C115.812 82.0966 114.084 82.498 111.609 82.498V82.4974ZM89.9637 72.0287C89.4848 72.7752 88.9103 74.0059 89.2893 74.9218C89.6155 75.703 94.2076 77.9684 101.823 79.5126C110.942 81.3621 114.286 80.8495 115.469 80.0569C116.114 79.2118 116.294 78.0759 116.341 77.3768L89.9637 72.0287Z" fill="#FDFDFD"/>
<path d="M117.355 76.6948C116.871 78.4614 110.242 78.6296 102.547 77.069C94.8526 75.509 89.0073 72.8118 89.4914 71.0451C89.9755 69.2778 96.6054 69.1103 104.3 70.6703C111.994 72.2303 117.839 74.9274 117.355 76.6948Z" fill="#9DA9B9"/>
<g opacity="0.3">
<path d="M117.355 76.6948C116.871 78.4614 110.242 78.6296 102.547 77.069C94.8526 75.509 89.0073 72.8118 89.4914 71.0451C89.9755 69.2778 96.6054 69.1103 104.3 70.6703C111.994 72.2303 117.839 74.9274 117.355 76.6948Z" fill="#FDFDFD"/>
</g>
<path d="M111.937 78.9994C109.066 78.9994 105.599 78.5752 102.317 77.9096C95.137 76.4539 87.7549 73.6228 88.5145 70.8473C89.2748 68.0718 97.3496 68.3745 104.53 69.8302C108.333 70.6014 111.828 71.6722 114.368 72.8441C117.357 74.2233 118.69 75.5848 118.332 76.8932C117.919 78.4001 115.349 79 111.937 79V78.9994ZM94.8865 70.4718C92.1199 70.4718 90.5706 70.8675 90.4678 71.2436C90.2805 71.9282 94.362 74.5229 102.777 76.2289C111.193 77.9355 116.191 77.1815 116.378 76.4969C116.415 76.3623 116.005 75.5589 113.42 74.3661C111.029 73.2631 107.708 72.2493 104.069 71.511C100.269 70.7405 97.1645 70.4718 94.8865 70.4718Z" fill="#FDFDFD"/>
<path d="M116.473 71.3226L93.7531 66.8892C93.7531 66.8892 92.256 68.7475 92.9458 70.4244C93.4483 71.6463 98.0837 73.327 104.044 74.4901C110.318 75.7144 114.371 75.7422 115.869 74.3668C116.853 72.894 116.473 71.3226 116.473 71.3226Z" fill="#9DA9B9"/>
<g opacity="0.3">
<path d="M116.473 71.3226L93.7531 66.8892C93.7531 66.8892 92.256 68.7475 92.9458 70.4244C93.4483 71.6463 98.0837 73.327 104.044 74.4901C110.318 75.7144 114.371 75.7422 115.869 74.3668C116.853 72.894 116.473 71.3226 116.473 71.3226Z" fill="#FDFDFD"/>
</g>
<path d="M111.623 76.2669C109.593 76.2669 107.012 75.9546 103.821 75.332C101.291 74.8384 92.9594 73.0451 91.9993 70.7127C91.1486 68.6426 92.8551 66.4878 92.9278 66.3968C93.1607 66.1073 93.5743 65.9676 93.9747 66.0466L116.695 70.4801C117.078 70.5547 117.376 70.8151 117.455 71.1463C117.473 71.2241 117.899 73.059 116.738 74.7966C116.7 74.8542 116.653 74.9079 116.601 74.9566C115.649 75.8307 114.021 76.2663 111.623 76.2663V76.2669ZM94.2553 67.8721C93.9218 68.4675 93.5809 69.3822 93.8909 70.1362C94.1664 70.707 97.4927 72.3258 104.265 73.6481C111.887 75.1355 114.298 74.4439 115.059 73.8416C115.469 73.1772 115.546 72.4851 115.54 72.0256L94.2553 67.8721Z" fill="#FDFDFD"/>
<path d="M121.158 67.6584L91.9635 62.0391C91.9635 62.0391 90.2305 63.7918 91.0577 65.7197C91.6601 67.1249 97.3144 69.4832 104.973 70.9572C113.035 72.509 118.273 72.6418 120.261 71.1115C121.589 69.4579 121.158 67.6577 121.158 67.6577V67.6584Z" fill="#9DA9B9"/>
<path d="M115.231 73.0597C112.575 73.0597 109.114 72.64 104.754 71.8005C98.168 70.5332 91.0254 68.1401 90.116 66.0194C89.0971 63.6447 91.1129 61.567 91.1988 61.4798C91.4398 61.2358 91.8188 61.1258 92.1817 61.1966L121.377 66.8159C121.761 66.8898 122.06 67.1515 122.141 67.4846C122.162 67.5731 122.64 69.6685 121.085 71.6033C121.04 71.6589 120.987 71.7101 120.928 71.7557C119.799 72.6248 117.931 73.0597 115.23 73.0597H115.231ZM92.4058 63.0094C92.0539 63.5284 91.5896 64.4695 91.9981 65.4215C92.3499 66.2407 97.1903 68.5756 105.191 70.1154C114.776 71.9598 118.274 71.3808 119.503 70.5326C120.105 69.7336 120.22 68.891 120.219 68.3626L92.405 63.0094H92.4058Z" fill="#FDFDFD"/>
<path d="M116.654 69.8764C112.38 69.8764 107.069 68.9156 105.578 68.6286C103.209 68.1723 91.3491 65.7337 90.6439 62.5056C90.6285 62.4354 90.6211 62.364 90.6211 62.2932C90.6211 62.2711 90.6204 62.2496 90.6175 62.2287C90.6131 62.1908 90.6108 62.1529 90.6108 62.115C90.6108 62.0625 90.6153 61.9974 90.6233 61.9449C90.6285 61.9158 90.6343 61.8861 90.641 61.8558C90.6454 61.833 90.6505 61.8103 90.6564 61.7882C91.1258 59.9873 94.3544 59.811 96.7412 59.8356C99.7193 59.866 103.555 60.3053 107.544 61.0726C111.53 61.8394 115.217 62.8482 117.926 63.9126C120.098 64.7659 122.931 66.1091 122.462 67.9106C122.462 67.9106 122.462 67.9106 122.462 67.9119C122.396 68.1647 122.267 68.3998 122.079 68.6097C121.234 69.5597 119.116 69.8783 116.654 69.8783V69.8764ZM93.6007 62.3551C94.826 63.254 99.0295 65.0087 106.163 66.3816C113.295 67.7551 117.967 67.7071 119.52 67.343C118.295 66.4454 114.092 64.6907 106.96 63.3185C99.828 61.9468 95.1551 61.9917 93.6007 62.3551ZM90.6344 61.9007C90.6344 61.9007 90.6344 61.9013 90.6344 61.9019C90.6344 61.9019 90.6344 61.9013 90.6344 61.9007Z" fill="#FDFDFD"/>
<path d="M121.16 67.6605C121.541 66.1942 115.315 63.7475 107.253 62.1957C99.1908 60.6439 92.3464 60.5745 91.9652 62.0408C91.5839 63.507 97.8103 65.9537 105.872 67.5055C113.934 69.0573 120.779 69.1267 121.16 67.6605Z" fill="#F1C5F9"/>
<g opacity="0.3">
<path d="M121.117 67.8267C121.403 66.726 115.1 64.5757 107.038 63.0239C98.9761 61.472 92.2086 61.1063 91.9225 62.2071C91.6363 63.3078 97.9397 65.4581 106.002 67.0099C114.063 68.5617 120.831 68.9274 121.117 67.8267Z" fill="#FDFDFD"/>
</g>
<path d="M111.666 66.0226C111.65 66.0226 111.633 66.0226 111.616 66.0219C111.063 65.9986 110.636 65.5934 110.663 65.1174C110.679 64.8317 111.102 58.0298 114.629 50.0307C114.713 49.8404 114.798 49.6571 114.885 49.4795L108.63 47.9208C108.337 51.6773 106.902 56.8547 103.691 63.6611C103.482 64.1029 102.897 64.3159 102.384 64.1364C101.87 63.9569 101.623 63.4538 101.832 63.0119C105.252 55.7612 106.484 50.7607 106.672 47.4328L105.978 47.2596C105.542 47.1445 101.828 46.1092 101.073 43.9727C100.841 43.3172 100.798 42.2882 101.91 41.11C103.052 39.9002 104.685 39.5746 106.072 40.2807C107.541 41.0278 108.611 42.9146 108.684 46.137L115.79 47.9081C117.527 45.3551 119.511 44.7609 120.668 44.6554C122.257 44.5125 123.813 45.1162 124.631 46.2015C125.235 47.0023 125.296 47.922 124.798 48.6609C123.347 50.8075 118.825 50.2797 116.846 49.9289C116.729 50.1577 116.615 50.396 116.506 50.6438C113.097 58.3743 112.671 65.1351 112.668 65.2028C112.641 65.6642 112.198 66.0232 111.666 66.0232V66.0226ZM117.852 48.3316C119.943 48.6262 122.492 48.6363 123.062 47.7924C123.223 47.5554 123.035 47.2571 122.947 47.1401C122.611 46.6945 121.843 46.2862 120.881 46.3721C119.811 46.4701 118.764 47.1597 117.852 48.3316ZM104.559 41.6454C104.058 41.6454 103.649 42.0075 103.468 42.1991C102.795 42.9108 102.944 43.3311 102.992 43.4689C103.329 44.424 105.355 45.2862 106.553 45.6048L106.67 45.6339C106.507 43.2509 105.7 42.0967 105.051 41.7667C104.881 41.6801 104.715 41.6454 104.559 41.6454Z" fill="#FDFDFD"/>
<path d="M67.5558 20.2813C71.6417 20.4457 75.6689 22.5063 78.5302 24.9202C79.7915 25.9847 81.6442 27.5775 81.6824 29.1919C81.7264 31.0351 79.84 31.865 77.9513 31.6823C74.0637 31.3069 70.1262 29.3 67.4075 26.9442C66.2247 25.9189 64.6115 24.4342 64.5124 22.919C64.4161 21.4589 65.8589 20.2187 67.5558 20.2813Z" fill="#FEDA24"/>
<path d="M78.4695 32.7146C78.2557 32.7146 78.0397 32.7044 77.8216 32.6836C73.9884 32.3132 69.7849 30.4327 66.5776 27.654C64.9659 26.2577 63.4592 24.7249 63.3446 22.9759C63.2807 22.0019 63.709 21.0373 64.5207 20.33C65.3376 19.617 66.4645 19.2339 67.6076 19.2757C67.609 19.2757 67.6105 19.2757 67.612 19.2757C71.5495 19.4337 75.8278 21.2288 79.351 24.2009C80.6432 25.2906 82.8051 27.1149 82.8544 29.1711C82.8793 30.2014 82.4562 31.0894 81.6305 31.738C80.8246 32.3707 79.6978 32.7146 78.4702 32.7146H78.4695ZM67.4349 21.2863C66.9743 21.2863 66.5233 21.4513 66.1868 21.7446C65.8394 22.0474 65.655 22.4551 65.6822 22.8622C65.763 24.0884 67.4357 25.5378 68.2393 26.2344C71.0404 28.6616 74.8126 30.3657 78.0831 30.6818C78.875 30.757 79.6103 30.5971 80.0518 30.25C80.3736 29.9978 80.5242 29.6584 80.5139 29.2128C80.4838 27.9783 78.6811 26.4575 77.7121 25.6402C74.6407 23.0493 70.8252 21.4222 67.5055 21.2882C67.4827 21.2876 67.4592 21.287 67.4357 21.287L67.4349 21.2863Z" fill="#FDFDFD"/>
<path d="M96.145 1.39371C99.5866 3.29504 101.875 6.81326 102.949 10.1355C103.422 11.6001 104.099 13.777 103.194 15.191C102.161 16.806 100.045 16.7118 98.5156 15.7403C95.3685 13.7416 93.1265 10.3081 92.1421 7.09833C91.7138 5.70141 91.1813 3.7217 91.9761 2.3665C92.7423 1.06123 94.7125 0.608022 96.145 1.39308V1.39371Z" fill="#FEDA24"/>
<path d="M100.807 17.4507C99.7979 17.4507 98.7459 17.1385 97.8203 16.5506C94.7173 14.5798 92.1712 11.1418 91.0105 7.35496C90.4272 5.45237 90.0136 3.47645 90.9319 1.91266C91.4432 1.04163 92.3754 0.390581 93.489 0.127631C94.6108 -0.137847 95.8082 0.0138545 96.7749 0.543547C96.7764 0.543547 96.7772 0.544811 96.7786 0.545443C100.095 2.37788 102.756 5.77473 104.078 9.86499C104.563 11.3649 105.374 13.875 104.221 15.6764C103.643 16.5791 102.761 17.1656 101.668 17.3717C101.388 17.4248 101.1 17.4507 100.808 17.4507H100.807ZM94.5902 2.01442C94.4293 2.01442 94.2677 2.03275 94.1083 2.07005C93.6316 2.18319 93.2349 2.45625 93.0211 2.82034C92.3776 3.91702 92.9829 5.89167 93.2738 6.84044C94.2876 10.1482 96.5626 13.2473 99.2102 14.9293C99.8508 15.3364 100.582 15.514 101.165 15.4034C101.59 15.3231 101.918 15.0943 102.168 14.7043C102.86 13.6228 102.183 11.5293 101.82 10.4042C100.668 6.83917 98.311 3.78807 95.5144 2.24198C95.2389 2.09154 94.9179 2.01379 94.5888 2.01379L94.5902 2.01442Z" fill="#FDFDFD"/>
<path d="M142.998 9.58191C142.128 13.0205 139.095 16.0937 135.852 18.1189C134.421 19.0114 132.287 20.3173 130.431 20.0809C128.312 19.811 127.676 18.0722 128.2 16.5002C129.278 13.2645 132.235 10.2589 135.388 8.34491C136.76 7.51245 138.731 6.39175 140.483 6.55989C142.172 6.72233 143.353 8.15276 142.998 9.58191Z" fill="#FEDA24"/>
<path d="M130.88 21.1162C130.673 21.1162 130.466 21.1036 130.26 21.0777C129.074 20.9266 128.128 20.4191 127.523 19.6106C126.829 18.684 126.665 17.4489 127.075 16.2226C128.138 13.0318 130.994 9.7797 134.713 7.5225C136.582 6.3879 138.593 5.36391 140.613 5.55922C141.74 5.66731 142.774 6.19195 143.449 6.9985C144.129 7.81073 144.382 8.82903 144.143 9.79297C144.143 9.79423 144.143 9.7955 144.142 9.79676C143.304 13.1114 140.532 16.4419 136.539 18.9349C135.203 19.7693 133.045 21.1169 130.88 21.1169V21.1162ZM140.119 7.55031C138.728 7.55031 136.944 8.63308 136.063 9.16846C132.814 11.14 130.233 14.0558 129.325 16.7782C129.105 17.4368 129.167 18.0879 129.491 18.5203C129.727 18.835 130.09 19.0202 130.602 19.0853C132.021 19.2636 134.066 17.9899 135.163 17.3041C138.644 15.131 141.145 12.1658 141.853 9.37137C141.953 8.96303 141.843 8.52816 141.549 8.17671C141.26 7.83159 140.824 7.6072 140.353 7.56232C140.276 7.55474 140.198 7.55094 140.119 7.55094V7.55031Z" fill="#FDFDFD"/>
<path d="M163.352 34.0861C160.636 36.7175 156.242 38.1176 152.262 38.5158C150.507 38.6916 147.903 38.9298 146.419 37.9413C144.725 36.8123 145.161 35.0286 146.513 33.8788C149.295 31.5129 153.584 30.1387 157.422 29.7993C159.092 29.6514 161.448 29.5054 162.881 30.3909C164.261 31.2443 164.475 32.9888 163.352 34.0855V34.0861Z" fill="#FEDA24"/>
<path d="M149.758 39.6826C148.336 39.6826 146.822 39.4848 145.701 38.7377C144.754 38.1062 144.217 37.2649 144.151 36.3048C144.073 35.2043 144.634 34.0589 145.689 33.1614C148.433 30.829 152.774 29.1975 157.302 28.7968C159.576 28.5964 161.908 28.5503 163.563 29.5724C164.484 30.1419 165.086 31.035 165.215 32.0223C165.346 33.0172 164.986 34.0115 164.229 34.7511C164.228 34.7517 164.227 34.753 164.226 34.7536C161.609 37.2889 157.296 39.0246 152.396 39.5145C151.665 39.5878 150.733 39.6808 149.758 39.6808V39.6826ZM159.511 30.6943C158.756 30.6943 158.033 30.7588 157.541 30.8018C153.587 31.1513 149.676 32.6051 147.334 34.5949C146.768 35.0766 146.451 35.6701 146.487 36.1834C146.514 36.557 146.725 36.8717 147.135 37.1442C148.27 37.9008 150.778 37.6492 152.126 37.5146C156.398 37.0873 160.267 35.5557 162.475 33.418C162.795 33.1045 162.946 32.6791 162.889 32.2493C162.834 31.8264 162.581 31.4471 162.196 31.2088C161.539 30.803 160.498 30.6937 159.511 30.6937V30.6943Z" fill="#FDFDFD"/>
<path d="M116.693 69.7222C112.215 69.7222 106.546 68.6672 105.615 68.4877C104.174 68.2102 91.5095 65.6844 90.8087 62.4784C90.7954 62.4171 90.7881 62.3545 90.7881 62.2926C90.7881 62.266 90.7866 62.2395 90.7837 62.2136C90.7808 62.1857 90.7785 62.1573 90.7778 62.1295C90.5479 58.1208 89.8529 54.2208 88.7128 50.5382C88.1082 48.5933 87.8232 46.5756 87.8636 44.5428C88.0906 32.7202 99.4315 23.1377 113.167 23.1377C113.207 23.1377 113.244 23.1377 113.284 23.1377C127.177 23.1921 138.48 32.9617 138.48 44.917C138.48 51.2885 135.247 57.3218 129.611 61.469C126.724 63.5915 124.186 65.9726 122.068 68.5446C121.911 68.7355 121.683 68.8726 121.423 68.934C120.422 69.5148 118.673 69.7215 116.692 69.7222H116.693ZM93.1249 62.1346C93.5554 62.8526 97.8492 64.929 106.127 66.5219C114.51 68.1363 119.442 67.8019 120.109 67.2747C120.21 67.1609 120.333 67.0718 120.468 67.0086C122.634 64.4429 125.196 62.0663 128.09 59.938C133.205 56.1739 136.139 50.6988 136.139 44.917C136.139 34.0678 125.882 25.2021 113.274 25.1528C113.239 25.1528 113.204 25.1528 113.169 25.1528C100.703 25.1528 90.4127 33.8472 90.2063 44.577C90.1688 46.4233 90.4281 48.2545 90.9762 50.0186C92.1611 53.8459 92.8817 57.8945 93.1183 62.053C93.1183 62.0543 93.1183 62.0562 93.1183 62.0581C93.1205 62.0834 93.1227 62.1086 93.1242 62.1346H93.1249Z" fill="#FDFDFD"/>
<g opacity="0.3">
<path d="M133.743 51.2632C132.964 53.1557 132.079 55.3067 129.813 57.2592C128.161 58.6833 126.984 58.9595 124.786 61.1529C124.105 61.8318 123.881 62.1409 122.12 64.0226C121.004 65.2147 120.072 66.1825 119.444 66.8291C114.026 67.0042 109.625 66.532 106.538 66.0377C101.409 65.216 98.7878 64.1534 97.2833 63.4474C95.853 62.7755 94.7357 62.0991 93.9658 61.5928C97.9121 61.7907 101.124 61.5454 103.304 61.2888C106.614 60.8994 119.109 59.2876 127.639 51.3593C129.857 49.2974 130.871 47.6786 131.318 46.898C133.594 42.9266 133.546 39.1125 133.325 37.0405C134.088 38.8464 136.366 44.8943 133.743 51.2632Z" fill="#FDFDFD"/>
</g>
<g opacity="0.7">
<path d="M94.239 39.1853C93.7836 35.7846 97.4603 32.7841 98.6217 31.8359C99.8382 30.8429 101.144 30.2089 103.757 28.9403C105.272 28.2046 106.115 27.977 107.179 27.9871C108.393 27.9979 109.672 28.5883 110.03 29.5857C110.43 30.6963 109.578 31.889 108.469 32.5546C107.361 33.2196 106.021 33.523 104.802 34.0255C102.974 34.779 101.412 36.0014 100.366 37.4957C99.4886 38.7491 99.5936 39.2839 98.5306 40.1385C98.3036 40.3211 96.592 41.6669 95.3777 41.1884C94.458 40.8255 94.2941 39.6037 94.2383 39.1865L94.239 39.1853Z" fill="#F1C5F9"/>
</g>
<g opacity="0.7">
<path d="M112.837 27.1831C112.132 27.5832 111.571 28.3664 111.775 29.2241C111.987 30.1122 112.915 30.6944 113.787 30.75C114.75 30.8113 115.704 30.3448 116.239 29.6539C116.359 29.4997 116.498 29.3233 116.559 29.0598C116.726 28.3404 116.191 27.5598 115.474 27.1648C114.7 26.7375 113.647 26.7242 112.837 27.1837V27.1831Z" fill="#F1C5F9"/>
</g>
</svg>
