<svg width="67" height="50" viewBox="0 0 67 50" fill="none" xmlns="http://www.w3.org/2000/svg">
<g filter="url(#filter0_dd_1151_21968)">
<path d="M5.5 2H41.5C52.5457 2 61.5 10.9543 61.5 22C61.5 33.0457 52.5457 42 41.5 42H5.5V2Z" fill="url(#paint0_linear_1151_21968)" shape-rendering="crispEdges"/>
<mask id="mask0_1151_21968" style="mask-type:alpha" maskUnits="userSpaceOnUse" x="23" y="11" width="21" height="21">
<rect x="23.4492" y="11.6406" width="20" height="20" fill="#D9D9D9"/>
</mask>
<g mask="url(#mask0_1151_21968)">
<path d="M29.6979 29.9714C28.8924 29.9714 28.2049 29.6866 27.6354 29.1172C27.066 28.5477 26.7812 27.8602 26.7812 27.0547V16.2214C26.7812 15.4158 27.066 14.7283 27.6354 14.1589C28.2049 13.5894 28.8924 13.3047 29.6979 13.3047H40.1146V25.8047C39.7674 25.8047 39.4722 25.9262 39.2292 26.1693C38.9861 26.4123 38.8646 26.7075 38.8646 27.0547C38.8646 27.4019 38.9861 27.697 39.2292 27.9401C39.4722 28.1832 39.7674 28.3047 40.1146 28.3047V29.9714H29.6979ZM30.1146 24.138H31.7812V14.9714H30.1146V24.138ZM29.6979 28.3047H37.4688C37.3854 28.1102 37.3194 27.9123 37.2708 27.7109C37.2222 27.5095 37.1979 27.2908 37.1979 27.0547C37.1979 26.8325 37.2188 26.6172 37.2604 26.4089C37.3021 26.2005 37.3715 25.9991 37.4688 25.8047H29.6979C29.3368 25.8047 29.0382 25.9262 28.8021 26.1693C28.566 26.4123 28.4479 26.7075 28.4479 27.0547C28.4479 27.4158 28.566 27.7144 28.8021 27.9505C29.0382 28.1866 29.3368 28.3047 29.6979 28.3047Z" fill="#FFFCFF"/>
</g>
</g>
<defs>
<filter id="filter0_dd_1151_21968" x="0.5" y="0" width="66" height="50" filterUnits="userSpaceOnUse" color-interpolation-filters="sRGB">
<feFlood flood-opacity="0" result="BackgroundImageFix"/>
<feColorMatrix in="SourceAlpha" type="matrix" values="0 0 0 0 0 0 0 0 0 0 0 0 0 0 0 0 0 0 127 0" result="hardAlpha"/>
<feMorphology radius="1" operator="dilate" in="SourceAlpha" result="effect1_dropShadow_1151_21968"/>
<feOffset dy="3"/>
<feGaussianBlur stdDeviation="2"/>
<feComposite in2="hardAlpha" operator="out"/>
<feColorMatrix type="matrix" values="0 0 0 0 0 0 0 0 0 0 0 0 0 0 0 0 0 0 0.1 0"/>
<feBlend mode="normal" in2="BackgroundImageFix" result="effect1_dropShadow_1151_21968"/>
<feColorMatrix in="SourceAlpha" type="matrix" values="0 0 0 0 0 0 0 0 0 0 0 0 0 0 0 0 0 0 127 0" result="hardAlpha"/>
<feOffset dx="1" dy="2"/>
<feGaussianBlur stdDeviation="2"/>
<feComposite in2="hardAlpha" operator="out"/>
<feColorMatrix type="matrix" values="0 0 0 0 0 0 0 0 0 0 0 0 0 0 0 0 0 0 0.08 0"/>
<feBlend mode="normal" in2="effect1_dropShadow_1151_21968" result="effect2_dropShadow_1151_21968"/>
<feBlend mode="normal" in="SourceGraphic" in2="effect2_dropShadow_1151_21968" result="shape"/>
</filter>
<linearGradient id="paint0_linear_1151_21968" x1="33.5" y1="2" x2="33.5" y2="42" gradientUnits="userSpaceOnUse">
<stop stop-color="#7C4386"/>
<stop offset="1" stop-color="#985AA1"/>
</linearGradient>
</defs>
</svg>
