<svg width="372" height="16" viewBox="0 0 372 16" fill="none" xmlns="http://www.w3.org/2000/svg">
<rect x="0.5" y="4" width="337" height="10" rx="5" fill="#E7E7E9"/>
<path d="M0.5 9C0.5 6.23858 2.73858 4 5.5 4H245.5V14H5.5C2.73857 14 0.5 11.7614 0.5 9Z" fill="#541D5E"/>
<path d="M347.879 13C347.515 13 347.211 12.9487 346.969 12.846C346.735 12.7433 346.549 12.6173 346.409 12.468C346.241 12.3 346.101 12.09 345.989 11.838C345.886 11.586 345.835 11.208 345.835 10.704V6.266C345.835 6.03267 345.811 5.85067 345.765 5.72C345.718 5.58933 345.625 5.496 345.485 5.44C345.354 5.384 345.149 5.35133 344.869 5.342L344.995 4.264C345.349 4.27333 345.643 4.31067 345.877 4.376C346.119 4.44133 346.315 4.53933 346.465 4.67C346.623 4.81 346.735 4.992 346.801 5.216C346.866 5.43067 346.899 5.68733 346.899 5.986V8.03C347.188 7.92733 347.459 7.85733 347.711 7.82C347.972 7.77333 348.177 7.75 348.327 7.75C348.429 7.75 348.546 7.75933 348.677 7.778C348.807 7.78733 348.919 7.80133 349.013 7.82C349.283 7.88533 349.507 7.92733 349.685 7.946C349.871 7.95533 350.067 7.96 350.273 7.96C350.627 7.96 350.917 7.90867 351.141 7.806C351.374 7.70333 351.579 7.484 351.757 7.148L352.765 7.638C352.643 7.946 352.48 8.19333 352.275 8.38C352.069 8.56667 351.836 8.702 351.575 8.786C351.313 8.87 351.038 8.912 350.749 8.912C350.665 8.912 350.567 8.90733 350.455 8.898C350.352 8.88867 350.245 8.87 350.133 8.842L350.413 8.632C350.553 8.81867 350.655 9.03333 350.721 9.276C350.795 9.50933 350.833 9.75667 350.833 10.018C350.833 10.634 350.697 11.166 350.427 11.614C350.165 12.062 349.811 12.4073 349.363 12.65C348.924 12.8833 348.429 13 347.879 13ZM347.893 12.006C348.201 12.006 348.467 11.95 348.691 11.838C348.924 11.7167 349.115 11.5627 349.265 11.376C349.423 11.18 349.54 10.9653 349.615 10.732C349.689 10.4987 349.727 10.2653 349.727 10.032C349.727 9.68667 349.657 9.42067 349.517 9.234C349.386 9.04733 349.218 8.92133 349.013 8.856C348.817 8.78133 348.611 8.744 348.397 8.744C348.089 8.744 347.813 8.772 347.571 8.828C347.337 8.884 347.113 8.96333 346.899 9.066V10.648C346.899 10.956 346.922 11.194 346.969 11.362C347.015 11.5207 347.071 11.6373 347.137 11.712C347.211 11.7867 347.3 11.8567 347.403 11.922C347.515 11.978 347.678 12.006 347.893 12.006ZM356.906 11.726C356.318 11.726 355.79 11.614 355.324 11.39C354.866 11.166 354.507 10.8253 354.246 10.368C353.984 9.90133 353.854 9.318 353.854 8.618C353.854 8.06733 353.966 7.54933 354.19 7.064C354.414 6.56933 354.759 6.168 355.226 5.86C355.702 5.54267 356.308 5.384 357.046 5.384C357.802 5.384 358.404 5.52867 358.852 5.818C359.3 6.10733 359.622 6.49 359.818 6.966C360.023 7.43267 360.126 7.95067 360.126 8.52C360.126 9.07067 360.009 9.59333 359.776 10.088C359.552 10.5733 359.202 10.97 358.726 11.278C358.259 11.5767 357.652 11.726 356.906 11.726ZM357.06 6.378C356.668 6.378 356.313 6.46667 355.996 6.644C355.688 6.82133 355.44 7.08267 355.254 7.428C355.076 7.764 354.988 8.17 354.988 8.646C354.988 9.02867 355.048 9.37867 355.17 9.696C355.3 10.0133 355.506 10.2653 355.786 10.452C356.075 10.6387 356.453 10.732 356.92 10.732C357.34 10.732 357.704 10.6387 358.012 10.452C358.329 10.256 358.572 9.99 358.74 9.654C358.908 9.30867 358.992 8.912 358.992 8.464C358.992 8.03467 358.917 7.666 358.768 7.358C358.628 7.04067 358.413 6.798 358.124 6.63C357.844 6.462 357.489 6.378 357.06 6.378ZM361.814 5.4873V4.96094C361.814 4.58268 361.896 4.23861 362.061 3.92871C362.225 3.61882 362.464 3.37044 362.778 3.18359C363.093 2.99674 363.471 2.90332 363.913 2.90332C364.369 2.90332 364.752 2.99674 365.062 3.18359C365.376 3.37044 365.615 3.61882 365.779 3.92871C365.943 4.23861 366.025 4.58268 366.025 4.96094V5.4873C366.025 5.85645 365.943 6.19596 365.779 6.50586C365.62 6.81576 365.383 7.06413 365.068 7.25098C364.758 7.43783 364.378 7.53125 363.927 7.53125C363.48 7.53125 363.097 7.43783 362.778 7.25098C362.464 7.06413 362.225 6.81576 362.061 6.50586C361.896 6.19596 361.814 5.85645 361.814 5.4873ZM362.956 4.96094V5.4873C362.956 5.6696 362.99 5.84277 363.059 6.00684C363.132 6.1709 363.241 6.30306 363.387 6.40332C363.533 6.50358 363.713 6.55371 363.927 6.55371C364.146 6.55371 364.323 6.50358 364.46 6.40332C364.601 6.30306 364.706 6.1709 364.774 6.00684C364.843 5.84277 364.877 5.6696 364.877 5.4873V4.96094C364.877 4.77409 364.84 4.59863 364.768 4.43457C364.699 4.26595 364.594 4.13151 364.453 4.03125C364.312 3.93099 364.132 3.88086 363.913 3.88086C363.703 3.88086 363.526 3.93099 363.38 4.03125C363.239 4.13151 363.132 4.26595 363.059 4.43457C362.99 4.59863 362.956 4.77409 362.956 4.96094ZM366.613 11.0928V10.5596C366.613 10.1859 366.695 9.84408 366.859 9.53418C367.028 9.22428 367.27 8.97591 367.584 8.78906C367.898 8.60221 368.277 8.50879 368.719 8.50879C369.174 8.50879 369.557 8.60221 369.867 8.78906C370.182 8.97591 370.419 9.22428 370.578 9.53418C370.742 9.84408 370.824 10.1859 370.824 10.5596V11.0928C370.824 11.4665 370.742 11.8083 370.578 12.1182C370.419 12.4281 370.184 12.6764 369.874 12.8633C369.564 13.0501 369.186 13.1436 368.739 13.1436C368.288 13.1436 367.903 13.0501 367.584 12.8633C367.27 12.6764 367.028 12.4281 366.859 12.1182C366.695 11.8083 366.613 11.4665 366.613 11.0928ZM367.762 10.5596V11.0928C367.762 11.2751 367.798 11.4482 367.871 11.6123C367.949 11.7764 368.06 11.9108 368.206 12.0156C368.352 12.1159 368.527 12.166 368.732 12.166C368.965 12.166 369.152 12.1159 369.293 12.0156C369.434 11.9108 369.535 11.7786 369.594 11.6191C369.658 11.4551 369.689 11.2796 369.689 11.0928V10.5596C369.689 10.3727 369.653 10.1973 369.58 10.0332C369.512 9.86914 369.405 9.73698 369.259 9.63672C369.118 9.53646 368.938 9.48633 368.719 9.48633C368.505 9.48633 368.327 9.53646 368.186 9.63672C368.044 9.73698 367.937 9.86914 367.864 10.0332C367.796 10.1973 367.762 10.3727 367.762 10.5596ZM369.129 4.46875L364.269 12.248L363.428 11.7627L368.288 3.9834L369.129 4.46875Z" fill="#222222"/>
</svg>
