<svg width="67" height="50" viewBox="0 0 67 50" fill="none" xmlns="http://www.w3.org/2000/svg">
<g filter="url(#filter0_dd_1151_21960)">
<path d="M5.5 2H41.5C52.5457 2 61.5 10.9543 61.5 22C61.5 33.0457 52.5457 42 41.5 42H5.5V2Z" fill="url(#paint0_linear_1151_21960)" shape-rendering="crispEdges"/>
<path d="M25.5 16C25.5 15.7348 25.6054 15.4804 25.7929 15.2929C25.9804 15.1054 26.2348 15 26.5 15H28.5C28.7652 15 29.0196 15.1054 29.2071 15.2929C29.3946 15.4804 29.5 15.7348 29.5 16V28C29.5 28.2652 29.3946 28.5196 29.2071 28.7071C29.0196 28.8946 28.7652 29 28.5 29H26.5C26.2348 29 25.9804 28.8946 25.7929 28.7071C25.6054 28.5196 25.5 28.2652 25.5 28V16ZM31.5 16C31.5 15.7348 31.6054 15.4804 31.7929 15.2929C31.9804 15.1054 32.2348 15 32.5 15H34.5C34.7652 15 35.0196 15.1054 35.2071 15.2929C35.3946 15.4804 35.5 15.7348 35.5 16V28C35.5 28.2652 35.3946 28.5196 35.2071 28.7071C35.0196 28.8946 34.7652 29 34.5 29H32.5C32.2348 29 31.9804 28.8946 31.7929 28.7071C31.6054 28.5196 31.5 28.2652 31.5 28V16ZM38.5 15C38.2348 15 37.9804 15.1054 37.7929 15.2929C37.6054 15.4804 37.5 15.7348 37.5 16V28C37.5 28.2652 37.6054 28.5196 37.7929 28.7071C37.9804 28.8946 38.2348 29 38.5 29H40.5C40.7652 29 41.0196 28.8946 41.2071 28.7071C41.3946 28.5196 41.5 28.2652 41.5 28V16C41.5 15.7348 41.3946 15.4804 41.2071 15.2929C41.0196 15.1054 40.7652 15 40.5 15H38.5Z" fill="#FFFCFF"/>
</g>
<defs>
<filter id="filter0_dd_1151_21960" x="0.5" y="0" width="66" height="50" filterUnits="userSpaceOnUse" color-interpolation-filters="sRGB">
<feFlood flood-opacity="0" result="BackgroundImageFix"/>
<feColorMatrix in="SourceAlpha" type="matrix" values="0 0 0 0 0 0 0 0 0 0 0 0 0 0 0 0 0 0 127 0" result="hardAlpha"/>
<feMorphology radius="1" operator="dilate" in="SourceAlpha" result="effect1_dropShadow_1151_21960"/>
<feOffset dy="3"/>
<feGaussianBlur stdDeviation="2"/>
<feComposite in2="hardAlpha" operator="out"/>
<feColorMatrix type="matrix" values="0 0 0 0 0 0 0 0 0 0 0 0 0 0 0 0 0 0 0.1 0"/>
<feBlend mode="normal" in2="BackgroundImageFix" result="effect1_dropShadow_1151_21960"/>
<feColorMatrix in="SourceAlpha" type="matrix" values="0 0 0 0 0 0 0 0 0 0 0 0 0 0 0 0 0 0 127 0" result="hardAlpha"/>
<feOffset dx="1" dy="2"/>
<feGaussianBlur stdDeviation="2"/>
<feComposite in2="hardAlpha" operator="out"/>
<feColorMatrix type="matrix" values="0 0 0 0 0 0 0 0 0 0 0 0 0 0 0 0 0 0 0.08 0"/>
<feBlend mode="normal" in2="effect1_dropShadow_1151_21960" result="effect2_dropShadow_1151_21960"/>
<feBlend mode="normal" in="SourceGraphic" in2="effect2_dropShadow_1151_21960" result="shape"/>
</filter>
<linearGradient id="paint0_linear_1151_21960" x1="33.5" y1="2" x2="33.5" y2="42" gradientUnits="userSpaceOnUse">
<stop stop-color="#7C4386"/>
<stop offset="1" stop-color="#985AA1"/>
</linearGradient>
</defs>
</svg>
