<svg width="62" height="50" viewBox="0 0 62 50" fill="none" xmlns="http://www.w3.org/2000/svg">
<g filter="url(#filter0_dd_1151_21948)">
<path d="M0.5 2H36.5C47.5457 2 56.5 10.9543 56.5 22C56.5 33.0457 47.5457 42 36.5 42H0.5V2Z" fill="url(#paint0_linear_1151_21948)" shape-rendering="crispEdges"/>
<path fill-rule="evenodd" clip-rule="evenodd" d="M26 30C28.1217 30 30.1566 29.1571 31.6569 27.6569C33.1571 26.1566 34 24.1217 34 22C34 19.8783 33.1571 17.8434 31.6569 16.3431C30.1566 14.8429 28.1217 14 26 14C23.8783 14 21.8434 14.8429 20.3431 16.3431C18.8429 17.8434 18 19.8783 18 22C18 24.1217 18.8429 26.1566 20.3431 27.6569C21.8434 29.1571 23.8783 30 26 30ZM25.555 19.168C25.4044 19.0675 25.2293 19.0098 25.0485 19.001C24.8677 18.9922 24.6879 19.0327 24.5282 19.1181C24.3686 19.2035 24.2352 19.3307 24.1421 19.486C24.0491 19.6413 24 19.819 24 20V24C24 24.181 24.0491 24.3587 24.1421 24.514C24.2352 24.6693 24.3686 24.7965 24.5282 24.8819C24.6879 24.9673 24.8677 25.0078 25.0485 24.999C25.2293 24.9902 25.4044 24.9325 25.555 24.832L28.555 22.832C28.692 22.7407 28.8043 22.617 28.8819 22.4718C28.9596 22.3267 29.0002 22.1646 29.0002 22C29.0002 21.8354 28.9596 21.6733 28.8819 21.5282C28.8043 21.383 28.692 21.2593 28.555 21.168L25.555 19.168Z" fill="#FFFCFF"/>
</g>
<defs>
<filter id="filter0_dd_1151_21948" x="-4.5" y="0" width="66" height="50" filterUnits="userSpaceOnUse" color-interpolation-filters="sRGB">
<feFlood flood-opacity="0" result="BackgroundImageFix"/>
<feColorMatrix in="SourceAlpha" type="matrix" values="0 0 0 0 0 0 0 0 0 0 0 0 0 0 0 0 0 0 127 0" result="hardAlpha"/>
<feMorphology radius="1" operator="dilate" in="SourceAlpha" result="effect1_dropShadow_1151_21948"/>
<feOffset dy="3"/>
<feGaussianBlur stdDeviation="2"/>
<feComposite in2="hardAlpha" operator="out"/>
<feColorMatrix type="matrix" values="0 0 0 0 0 0 0 0 0 0 0 0 0 0 0 0 0 0 0.1 0"/>
<feBlend mode="normal" in2="BackgroundImageFix" result="effect1_dropShadow_1151_21948"/>
<feColorMatrix in="SourceAlpha" type="matrix" values="0 0 0 0 0 0 0 0 0 0 0 0 0 0 0 0 0 0 127 0" result="hardAlpha"/>
<feOffset dx="1" dy="2"/>
<feGaussianBlur stdDeviation="2"/>
<feComposite in2="hardAlpha" operator="out"/>
<feColorMatrix type="matrix" values="0 0 0 0 0 0 0 0 0 0 0 0 0 0 0 0 0 0 0.08 0"/>
<feBlend mode="normal" in2="effect1_dropShadow_1151_21948" result="effect2_dropShadow_1151_21948"/>
<feBlend mode="normal" in="SourceGraphic" in2="effect2_dropShadow_1151_21948" result="shape"/>
</filter>
<linearGradient id="paint0_linear_1151_21948" x1="28.5" y1="2" x2="28.5" y2="42" gradientUnits="userSpaceOnUse">
<stop stop-color="#7C4386"/>
<stop offset="1" stop-color="#985AA1"/>
</linearGradient>
</defs>
</svg>
