<svg width="81" height="78" viewBox="0 0 81 78" fill="none" xmlns="http://www.w3.org/2000/svg">
<g clip-path="url(#clip0_996_16383)">
<path d="M7.28184 63.6275C7.12403 63.1567 6.9679 62.6691 6.8175 62.178L7.18776 62.0708C7.33681 62.5588 7.49226 63.0434 7.64907 63.5108L7.28184 63.6275ZM73.4915 63.0198L73.1085 62.9738C73.1722 62.4726 73.2326 61.968 73.2882 61.4739L73.6719 61.5149C73.6163 62.0106 73.5556 62.5172 73.4919 63.0198H73.4915ZM6.39126 60.7178C6.25604 60.2325 6.1252 59.7377 6.00178 59.248L6.37676 59.1588C6.49951 59.6454 6.62967 60.1371 6.76388 60.6197L6.39126 60.7181V60.7178ZM73.8298 60.0073L73.4453 59.9717C73.4942 59.4685 73.5394 58.9626 73.5799 58.4679L73.9646 58.4976C73.9242 58.9944 73.8787 59.5024 73.8298 60.0073ZM5.64906 57.7699C5.53744 57.2754 5.43156 56.7753 5.33376 56.2836L5.71279 56.2122C5.80991 56.7009 5.91546 57.198 6.02606 57.6894L5.64906 57.7699ZM74.0756 56.9856L73.6902 56.9619C73.7229 56.4591 73.7515 55.9521 73.7755 55.4547L74.1612 55.4723C74.1373 55.9718 74.1086 56.4807 74.0756 56.9856ZM5.05691 54.7895C4.97092 54.289 4.89168 53.7841 4.82053 53.289L5.20293 53.2372C5.2734 53.729 5.35231 54.2305 5.43762 54.7276L5.05691 54.7895ZM74.2203 53.9572L73.8341 53.9464C73.8493 53.4415 73.8594 52.9339 73.8652 52.4375L74.2513 52.4415C74.2459 52.94 74.2354 53.45 74.2203 53.9572ZM4.62697 51.7831C4.5693 51.2775 4.51939 50.7689 4.47792 50.2714L4.86268 50.2413C4.90348 50.7351 4.95339 51.2396 5.01038 51.7418L4.62663 51.7831H4.62697ZM73.8665 50.9292C73.8621 50.4239 73.852 49.9163 73.8372 49.4209L74.2233 49.4101C74.2381 49.9082 74.2482 50.4182 74.2526 50.9261L73.8665 50.9295V50.9292ZM4.37675 48.756C4.35113 48.2474 4.33426 47.7368 4.32617 47.2383L4.71228 47.2325C4.72004 47.727 4.7369 48.2332 4.76219 48.7378L4.37642 48.756H4.37675ZM73.7751 47.914C73.7485 47.4094 73.7161 46.9028 73.6784 46.4091L74.0635 46.3813C74.1016 46.8781 74.1343 47.3874 74.1609 47.895L73.7751 47.9143V47.914ZM4.71599 45.7266L4.32988 45.7188C4.34067 45.2089 4.36124 44.6982 4.39159 44.2008L4.77703 44.2227C4.74701 44.7155 4.72644 45.2214 4.71599 45.7266ZM73.5445 44.9069C73.4929 44.4023 73.4345 43.8984 73.3708 43.4091L73.7539 43.3621C73.818 43.8548 73.8766 44.3621 73.9286 44.87L73.5445 44.9072V44.9069ZM4.89943 42.7229L4.51535 42.6854C4.56795 42.1774 4.63169 41.6695 4.70554 41.1761L5.0876 41.2302C5.01476 41.7182 4.95136 42.2204 4.89977 42.7229H4.89943ZM73.1547 41.9167C73.0744 41.4152 72.9861 40.9157 72.8926 40.4321L73.272 40.3624C73.3664 40.8501 73.4551 41.3533 73.5364 41.8585L73.155 41.9164L73.1547 41.9167ZM27.4893 41.8636C26.9528 41.7814 26.5647 41.5437 26.0272 41.1331L26.2713 40.842C26.7424 41.2004 27.0823 41.4155 27.5305 41.4899L27.4893 41.8636ZM28.8291 40.9698L28.4851 40.799C28.6618 40.4622 28.8179 39.9948 28.9494 39.4101L29.3268 39.4903C29.1865 40.1152 29.0236 40.5995 28.8291 40.9701V40.9698ZM24.8941 40.0557C24.5866 39.7222 24.2578 39.3388 23.8892 38.8829L24.1927 38.6506C24.5562 39.1 24.8796 39.4774 25.1814 39.8044L24.8941 40.0554V40.0557ZM5.34557 39.7476L4.96654 39.6759C5.06669 39.1744 5.17966 38.6746 5.30308 38.1896L5.67806 38.2799C5.55632 38.7584 5.44471 39.2522 5.3459 39.7476H5.34557ZM72.5807 38.9573C72.4664 38.4612 72.343 37.9691 72.2142 37.495L72.5875 37.399C72.7176 37.8775 72.8421 38.3743 72.9574 38.8751L72.5807 38.9573ZM29.5868 37.9779L29.2037 37.9299C29.2631 37.4815 29.316 36.9904 29.3662 36.4287L29.751 36.4612C29.7004 37.0283 29.6468 37.5244 29.5868 37.9779ZM22.9437 37.6725C22.6297 37.26 22.3043 36.8241 22.0238 36.448L22.3364 36.2275C22.6163 36.6029 22.9413 37.0381 23.2539 37.449L22.9437 37.6725ZM51.2122 37.6418C50.9114 37.6418 50.6164 37.5545 50.3355 37.382L50.5415 37.0642C50.9637 37.3235 51.3795 37.3242 51.828 37.1173L51.9942 37.4564C51.7288 37.5795 51.4662 37.6418 51.2126 37.6418H51.2122ZM6.08845 36.8322L5.7192 36.7223C5.87263 36.2343 6.0409 35.7486 6.21962 35.2792L6.58179 35.4098C6.40576 35.8724 6.23985 36.3509 6.08878 36.8322H6.08845ZM53.2564 36.474L52.9728 36.219C53.2655 35.9106 53.5795 35.5298 53.9322 35.0557L54.2451 35.2759C53.8833 35.7625 53.5599 36.1545 53.2564 36.474ZM49.2375 36.2157C48.9876 35.8406 48.7401 35.399 48.4805 34.8653L48.8295 34.7047C49.0817 35.2231 49.3211 35.6506 49.5616 36.0114L49.2375 36.2157ZM71.7876 36.0493C71.6321 35.5626 71.4662 35.0834 71.2943 34.6249L71.6571 34.496C71.8311 34.96 71.999 35.445 72.1565 35.9377L71.7879 36.0493H71.7876ZM21.1089 35.2231C20.7555 34.7534 20.4611 34.3675 20.1823 34.0094L20.4901 33.7825C20.7703 34.1423 21.0658 34.5295 21.4205 35.0013L21.1089 35.2231ZM29.8673 34.9438L29.4819 34.9194C29.5112 34.4791 29.5409 33.9844 29.573 33.4071L29.9584 33.4274C29.9263 34.0063 29.8963 34.5025 29.867 34.9438H29.8673ZM7.16044 34.0189L6.80705 33.867C7.01915 33.4 7.24475 32.9411 7.48484 32.4927L7.82711 32.6665C7.59107 33.1078 7.36884 33.5593 7.16011 34.0189H7.16044ZM55.1296 34.0189L54.8069 33.8126C55.0814 33.4068 55.3647 32.9766 55.6516 32.542L55.9764 32.7453C55.6887 33.1808 55.4051 33.6113 55.1296 34.0189ZM47.859 33.4632C47.684 33.0364 47.5032 32.5708 47.3066 32.0395L47.6698 31.912C47.8654 32.4392 48.0445 32.9012 48.2178 33.3239L47.859 33.4629V33.4632ZM70.7264 33.2289C70.5187 32.7585 70.2991 32.3012 70.0739 31.8704L70.4178 31.7C70.6471 32.1382 70.8704 32.6026 71.0811 33.0807L70.7264 33.2289ZM19.229 32.8187C18.8786 32.3956 18.5525 32.0189 18.2318 31.6672L18.5208 31.4179C18.8455 31.774 19.1753 32.1552 19.5297 32.5829L19.229 32.8187ZM30.039 31.9117L29.6532 31.8927C29.6792 31.3909 29.7051 30.8887 29.7328 30.3777L30.1182 30.3973C30.0906 30.9079 30.0649 31.4098 30.039 31.9117ZM56.8231 31.4761L56.5011 31.2688C56.8238 30.794 57.1121 30.3831 57.3832 30.0128L57.6978 30.2306C57.4294 30.5972 57.1435 31.0047 56.8234 31.4757L56.8231 31.4761ZM8.59326 31.3699L8.26785 31.1677C8.57134 30.7054 8.88428 30.2877 9.19755 29.9265L9.49261 30.169C9.19013 30.5177 8.88731 30.9215 8.59326 31.3699ZM46.791 30.6056C46.614 30.1007 46.4403 29.5955 46.2936 29.168L46.6599 29.049C46.8062 29.4761 46.9795 29.9803 47.1566 30.4842L46.791 30.6056ZM17.1706 30.5792C16.7761 30.2052 16.3879 29.8751 16.0173 29.5975L16.2527 29.2999C16.6351 29.5863 17.0347 29.9262 17.44 30.31L17.1706 30.5792ZM69.3243 30.563C69.0477 30.1237 68.7574 29.7081 68.462 29.328L68.7699 29.1014C69.073 29.4913 69.3701 29.9171 69.6534 30.3665L69.3243 30.563ZM10.5757 29.1467L10.3417 28.8481C10.8027 28.5059 11.2829 28.259 11.7681 28.1146L11.8811 28.4737C11.4397 28.6053 11.0006 28.8315 10.5761 29.1467H10.5757ZM58.6289 29.0317L58.3288 28.7953C58.6909 28.3604 59.0339 27.9864 59.3778 27.6516L59.651 27.9171C59.3168 28.2428 58.9823 28.6073 58.6289 29.0317ZM30.2049 28.8839L29.8195 28.8616C29.8528 28.3155 29.8862 27.8197 29.921 27.3456L30.3061 27.3723C30.2713 27.8447 30.2383 28.3395 30.2049 28.8839ZM14.7406 28.8051C14.2588 28.5718 13.785 28.423 13.3321 28.3625L13.3844 27.9901C13.8791 28.0561 14.393 28.2171 14.9126 28.4687L14.7406 28.8051ZM67.4686 28.1978C67.097 27.8271 66.7119 27.5001 66.3248 27.2255L66.552 26.9218C66.9567 27.2086 67.3583 27.5498 67.7451 27.9354L67.4689 28.1978H67.4686ZM45.801 27.7297C45.6088 27.1707 45.4506 26.7149 45.3029 26.2952L45.6681 26.1734C45.8162 26.5938 45.975 27.0507 46.1672 27.6104L45.801 27.7294V27.7297ZM60.8066 26.9577L60.5854 26.6499C61.0602 26.3266 61.54 26.0872 62.0111 25.9384L62.1305 26.2959C61.6958 26.4332 61.2504 26.656 60.8069 26.958L60.8066 26.9577ZM65.0197 26.4974C64.5416 26.3013 64.0573 26.1795 63.5809 26.1362L63.6166 25.7622C64.1325 25.8092 64.6549 25.9401 65.1695 26.1511L65.0194 26.4974H65.0197ZM30.4298 25.8637L30.045 25.8305C30.0933 25.3033 30.1455 24.7943 30.2005 24.3175L30.5843 24.3594C30.5296 24.8336 30.4774 25.3395 30.4295 25.8637H30.4298ZM44.7893 24.8664C44.6029 24.3598 44.4268 23.8965 44.2518 23.4504L44.6126 23.3165C44.7887 23.7649 44.9654 24.2306 45.1529 24.7399L44.7893 24.8667V24.8664ZM30.7808 22.8613L30.3988 22.8075C30.477 22.2817 30.5627 21.7758 30.6541 21.304L31.0334 21.3733C30.9434 21.8397 30.8584 22.3402 30.7808 22.861V22.8613ZM43.6779 22.0477C43.4705 21.562 43.2614 21.0974 43.0564 20.6669L43.4068 20.5089C43.6138 20.9442 43.8252 21.4132 44.0347 21.9036L43.6782 22.0477H43.6779ZM31.3612 19.9033L30.9865 19.8123C31.1211 19.2878 31.2698 18.7934 31.428 18.3436L31.7932 18.465C31.6387 18.905 31.493 19.3889 31.3612 19.9033ZM42.3708 19.3182C42.1169 18.8529 41.8576 18.4159 41.6 18.0196L41.9264 17.8187C42.1894 18.2228 42.4538 18.6682 42.7121 19.142L42.3712 19.3182H42.3708ZM32.3732 17.0883L32.0268 16.9219C32.2804 16.422 32.5617 15.98 32.8625 15.6084L33.1656 15.8407C32.8813 16.1921 32.6146 16.6118 32.3728 17.0883H32.3732ZM40.7148 16.8011C40.3776 16.3896 40.0292 16.025 39.6799 15.7176L39.9389 15.439C40.3037 15.7599 40.6662 16.1393 41.0166 16.5668L40.7148 16.8011ZM34.243 14.8671L34.0349 14.5506C34.4922 14.2658 34.9963 14.0805 35.5328 14L35.5915 14.3713C35.1086 14.4437 34.6547 14.6104 34.243 14.8671ZM38.4615 14.8671C38.0117 14.631 37.5433 14.4697 37.0689 14.3876L37.1366 14.0176C37.6512 14.1069 38.1587 14.2814 38.6446 14.536L38.4615 14.8668V14.8671Z" fill="#DCE6FF"/>
<path d="M0.546292 67.8125C0.546292 67.8125 0.0418221 70.0364 2.36353 70.6302C5.53906 71.4425 23.4933 73.6221 18.9648 75.244C16.4088 76.1594 20.9554 77.3576 33.4056 77.8155C45.8562 78.2734 67.2203 76.4797 60.036 73.8257C52.8517 71.1716 82.2047 73.3329 80.4219 67.8125H0.546292Z" fill="#C3D6F4"/>
<path d="M14.267 65.951C14.267 65.951 5.2558 38.9367 12.0123 33.1891C16.5285 29.3473 20.9376 39.0193 26.6514 34.5394C31.7379 30.5509 28.4819 21.2317 33.4341 16.7386C39.5253 11.2125 49.7001 38.6485 56.8481 34.3923C68.0922 27.6974 74.9661 38.2588 67.1582 66L14.267 65.9506V65.951Z" fill="#D4E1FC"/>
<path d="M76.1743 51.1598C72.9701 50.6979 73.2601 57.6427 68.6929 57.6427C64.5172 57.6427 62.2825 42.1261 57.7001 45.282C39.2778 57.9694 53.6114 36.3794 41.2242 35.9577C35.6231 35.7669 31.8905 41.5782 30.5143 51.8677C28.519 61.1696 23.8921 44.773 19.1307 46.2975C16.1046 47.2664 16.4509 57.6431 12.2752 57.6431C7.70796 57.6431 8.00875 51.8031 4.80456 52.265C1.35453 52.7625 0.545898 61.8172 0.545898 61.8172H80.4215C80.4215 61.8172 79.624 51.6573 76.1739 51.1598H76.1743Z" fill="#EEF7FF"/>
<path d="M73.349 61.0305C70.3807 60.7394 70.8649 63.3699 66.6337 63.3699C62.7652 63.3699 62.8715 57.4747 60.2825 56.222C55.5151 53.9149 51.5845 65.5922 49.7361 59.7314C46.2255 44.1807 35.9868 36.3817 31.2635 59.7314C29.4152 65.5922 25.0927 55.1347 20.7171 56.222C18.0239 56.8914 18.2345 63.3699 14.3659 63.3699C10.1348 63.3699 10.619 60.7394 7.65071 61.0305C4.45456 61.344 3.5 66 3.5 66H77.5C77.5 66 76.5454 61.344 73.3493 61.0305H73.349Z" fill="#D4E1FC"/>
<path d="M63.7944 34.4688H62.6067V36.2378H60.8428V37.4285H62.6067V39.1975H63.7944V37.4285H65.5584V36.2378H63.7944V34.4688Z" fill="#4867AA"/>
<path d="M49.5134 31.5234H44.7979V32.7142H49.5134V31.5234Z" fill="#4867AA"/>
<path d="M10.0066 55.4922H5.29102V56.6829H10.0066V55.4922Z" fill="#4867AA"/>
<path d="M10.0066 57.2891H5.29102V58.4798H10.0066V57.2891Z" fill="#4867AA"/>
<path d="M58.2997 60.6631C58.5745 59.9218 58.6315 59.2573 58.2521 58.774C57.8282 58.2336 57.2047 58.4994 57.2047 58.4994C57.2047 58.4994 56.913 57.7578 56.3722 57.7578C55.9867 57.7578 55.3329 58.1214 55.143 58.774C54.996 59.2803 54.2427 59.3104 54.1857 60.1166C54.1287 60.9228 54.8918 61.2492 54.5364 61.9654C54.2521 62.5387 54.6217 62.9286 55.3895 63.147C56.1574 63.3655 58.1098 63.2326 58.7542 62.4531C59.3986 61.6736 58.0066 61.4521 58.2993 60.6631H58.2997Z" fill="#8C4225"/>
<path d="M58.3511 68.6305C58.3511 68.6305 58.7588 68.9406 58.9834 68.9967C59.2849 69.0722 59.9974 69.1604 60.1434 69.179C60.542 69.2304 60.5703 69.5984 60.0601 69.6335L58.8819 69.7424C58.5228 69.7475 58.045 69.4972 58.0085 69.4874C57.384 69.2768 57.7529 68.3501 58.3508 68.6305H58.3511Z" fill="#F99370"/>
<path d="M52.543 66.9316C52.543 66.9316 55.6251 66.3929 60.4439 66.891C60.4439 66.891 57.8709 68.0608 56.4432 68.0949C55.0154 68.1291 52.5433 66.9316 52.5433 66.9316H52.543Z" fill="#7640CC"/>
<path d="M55.9277 63.301C55.9408 63.2936 55.9597 63.2821 55.9715 63.2743C55.9715 63.2743 55.9722 63.2739 55.9725 63.2736C55.4761 63.7633 55.1646 64.3933 54.8267 65.0125C54.5974 65.4143 54.186 66.1373 54.8442 66.3345C55.1969 66.3338 55.199 66.8745 54.8456 66.8762C54.7778 66.8816 54.706 66.8881 54.6382 66.884C53.3797 66.8076 53.3568 65.3639 53.7024 64.4468C54.0228 63.5983 54.3994 62.6517 55.1457 62.0727C55.9806 61.5036 56.7963 62.7819 55.928 63.301H55.9277Z" fill="#F99370"/>
<path d="M57.1631 63.301C57.15 63.2936 57.1311 63.2821 57.1193 63.2743C57.1193 63.2743 57.1186 63.2739 57.1183 63.2736C57.6147 63.7633 57.9263 64.3933 58.2641 65.0125C58.4934 65.4143 58.9048 66.1373 58.2466 66.3345C57.8939 66.3338 57.8919 66.8745 58.2453 66.8762C58.313 66.8816 58.3849 66.8881 58.4526 66.884C59.7111 66.8076 59.7341 65.3639 59.3884 64.4468C59.0681 63.5983 58.6914 62.6517 57.9451 62.0727C57.1102 61.5036 56.2945 62.7819 57.1628 63.301H57.1631Z" fill="#F99370"/>
<path d="M55.3368 61.9531L55.1854 62.8916L54.9877 64.1168L54.9604 64.2859C54.7992 64.2842 54.6438 64.2612 54.5028 64.2284C54.1346 64.1432 53.8672 63.9937 53.8672 63.9937C53.8672 63.9937 53.8945 63.9112 53.9454 63.7813C54.0543 63.502 54.2705 63.0035 54.5531 62.6315C54.9668 62.0867 55.3368 61.9531 55.3368 61.9531Z" fill="#EB5648"/>
<path d="M59.2818 64.0626C59.2818 64.0626 59.0181 64.185 58.6401 64.253C58.4408 64.2892 58.2098 64.3098 57.9687 64.2895L57.9606 64.1208L57.9559 64.022L57.8564 61.9297C57.8564 61.9297 58.7089 62.0771 59.2184 63.8286C59.2404 63.9033 59.2613 63.9814 59.2818 64.0622V64.0626Z" fill="#EB5648"/>
<path d="M53.9454 63.7812C53.9454 63.7812 54.3221 63.9662 54.9877 64.1167L54.9604 64.2858C54.7992 64.2841 54.6438 64.2611 54.5028 64.2283C54.1346 64.1431 53.8672 63.9936 53.8672 63.9936C53.8672 63.9936 53.8945 63.9111 53.9454 63.7812Z" fill="#CE3932"/>
<path d="M59.2812 64.0621C59.2812 64.0621 59.0175 64.1846 58.6394 64.2525C58.4402 64.2887 58.2092 64.3094 57.9681 64.2891L57.96 64.1203C58.4405 64.054 58.888 63.9576 59.2178 63.8281C59.2397 63.9029 59.2606 63.981 59.2812 64.0618V64.0621Z" fill="#CE3932"/>
<path d="M55.1854 62.6019V62.8948L54.9605 64.2891C54.7993 64.2874 54.6439 64.2644 54.5029 64.2316C54.5181 64.0841 54.5609 63.8332 54.684 63.6012C54.8732 63.2444 55.1854 62.6016 55.1854 62.6016V62.6019Z" fill="#CE3932"/>
<path d="M58.6393 64.2522C58.44 64.2884 58.209 64.309 57.9679 64.2887L57.9551 64.0212L58.0047 62.6016C58.0047 62.6016 58.1554 63.1142 58.3948 63.5102C58.553 63.772 58.6153 64.0764 58.6393 64.2522Z" fill="#CE3932"/>
<path d="M58.9102 66.6705C58.1946 67.0023 57.382 67.1457 56.6118 67.1457C55.8416 67.1457 54.9679 66.9843 54.252 66.6526C54.2816 65.9908 54.9938 65.516 54.6657 64.7155C54.5109 64.3374 54.6927 63.8609 54.837 63.5505C54.8697 63.4805 54.9004 63.4189 54.9247 63.3689C55.1425 62.9221 55.3368 61.9549 55.3368 61.9549L55.4598 61.9015C55.8304 61.7605 56.2149 61.75 56.2149 61.75H57.0077C57.0077 61.75 57.3685 61.747 57.7246 61.8741L57.8554 61.9272C57.8986 61.9637 58.0328 62.9029 58.2037 63.3878C58.3204 63.7199 58.6293 64.1852 58.4438 64.7534C58.1447 65.6692 58.8839 66.0949 58.9095 66.6705H58.9102Z" fill="#EB5648"/>
<path d="M57.0081 61.6542V60.8125H56.215V61.66C56.215 61.66 55.668 61.8243 55.46 61.9035C55.4674 61.917 55.9435 62.7729 56.6112 63.0279C56.6112 63.0279 57.4539 62.5578 57.7247 61.8757C57.5325 61.8071 57.0078 61.6542 57.0078 61.6542H57.0081Z" fill="#F99370"/>
<path d="M57.8941 60.024C57.8586 60.1917 57.7211 60.3046 57.5865 60.2759C57.452 60.2475 57.3714 60.0882 57.4068 59.9205C57.4422 59.7527 57.5798 59.6398 57.7143 59.6685C57.8489 59.6969 57.9295 59.8562 57.8941 60.024Z" fill="#F99370"/>
<path d="M57.7808 60.0972C57.7788 60.0972 57.7771 60.0972 57.7751 60.0962C57.7646 60.0931 57.7589 60.082 57.7623 60.0718C57.7973 59.9568 57.796 59.8774 57.7585 59.8429C57.7171 59.8043 57.6345 59.8249 57.6058 59.8361C57.5957 59.8402 57.5845 59.8351 57.5805 59.8249C57.5765 59.8148 57.5815 59.8036 57.5916 59.7996C57.5967 59.7976 57.7174 59.7512 57.7849 59.8141C57.8348 59.8605 57.8395 59.9511 57.7993 60.0833C57.7967 60.0918 57.7892 60.0972 57.7808 60.0972Z" fill="#C16256"/>
<path d="M57.5986 60.0695C57.5959 60.0695 57.5936 60.0688 57.5909 60.0678C57.5811 60.0634 57.5764 60.0523 57.5807 60.0421C57.5834 60.0353 57.6522 59.8771 57.8013 59.8673C57.8117 59.8663 57.8212 59.8747 57.8222 59.8855C57.8229 59.8964 57.8148 59.9055 57.804 59.9062C57.6792 59.9146 57.6172 60.056 57.6165 60.0573C57.6135 60.0648 57.606 60.0692 57.5986 60.0692V60.0695Z" fill="#C16256"/>
<path d="M55.3765 60.0161C55.4119 60.1839 55.5495 60.2968 55.684 60.2681C55.8186 60.2397 55.8992 60.0804 55.8638 59.9127C55.8284 59.7449 55.6908 59.632 55.5562 59.6607C55.4217 59.6891 55.3411 59.8484 55.3765 60.0161Z" fill="#F99370"/>
<path d="M55.4898 60.0971C55.4813 60.0971 55.4736 60.0917 55.4712 60.0832C55.4311 59.951 55.4358 59.8604 55.4857 59.814C55.5532 59.7511 55.6739 59.7978 55.679 59.7995C55.6891 59.8035 55.6938 59.8147 55.6901 59.8248C55.686 59.835 55.6749 59.8397 55.6648 59.836C55.6638 59.8357 55.5616 59.7964 55.512 59.8428C55.4746 59.8776 55.4736 59.9567 55.5087 60.0717C55.5117 60.0822 55.506 60.093 55.4959 60.0961C55.4938 60.0967 55.4921 60.0971 55.4901 60.0971H55.4898Z" fill="#C16256"/>
<path d="M55.6719 60.0692C55.6644 60.0692 55.657 60.0648 55.654 60.0573C55.6533 60.056 55.5916 59.9143 55.4665 59.9062C55.4557 59.9055 55.4476 59.896 55.4483 59.8855C55.449 59.8747 55.4584 59.8663 55.4689 59.8673C55.6179 59.8771 55.6867 60.0357 55.6894 60.0421C55.6934 60.0519 55.6891 60.0634 55.6789 60.0678C55.6766 60.0688 55.6739 60.0695 55.6712 60.0695L55.6719 60.0692Z" fill="#C16256"/>
<path d="M57.008 61.4451V61.0234H56.2148V61.4451C56.2148 61.4451 56.6114 61.6541 57.008 61.4451Z" fill="#E57D61"/>
<path d="M55.6417 60.4732C55.6777 61.6626 57.523 61.695 57.6201 60.5182C57.64 60.086 57.5017 59.948 57.4454 59.4096C57.3429 58.4326 55.9583 58.3805 55.8339 59.4022C55.785 59.8053 55.6383 60.1039 55.6417 60.4732Z" fill="#F99370"/>
<path d="M56.3693 59.8736C56.3825 59.8476 56.372 59.8158 56.346 59.8026C56.3201 59.7894 56.2884 59.7999 56.2752 59.8259C56.2621 59.8519 56.2725 59.8837 56.2985 59.8969C56.3244 59.9101 56.3561 59.8996 56.3693 59.8736Z" fill="#C16256"/>
<path d="M57.0011 59.8736C57.0143 59.8476 57.0038 59.8158 56.9779 59.8026C56.9519 59.7894 56.9202 59.7999 56.9071 59.8259C56.8939 59.8519 56.9044 59.8837 56.9303 59.8969C56.9563 59.9101 56.988 59.8996 57.0011 59.8736Z" fill="#C16256"/>
<path d="M56.6816 60.3277C56.661 60.3277 56.6408 60.325 56.6229 60.3193C56.6125 60.3159 56.6067 60.3048 56.6101 60.2943C56.6135 60.2838 56.6246 60.278 56.635 60.2814C56.7018 60.3031 56.7966 60.2692 56.8097 60.2388C56.8141 60.228 56.7999 60.2175 56.7871 60.2104C56.6738 60.1489 56.598 59.9341 56.5949 59.925C56.5912 59.9145 56.5966 59.903 56.6071 59.8996C56.6175 59.8959 56.629 59.9013 56.6324 59.9118C56.633 59.9138 56.7062 60.1211 56.806 60.1752C56.8603 60.2046 56.8522 60.2405 56.8465 60.2544C56.8283 60.297 56.7517 60.3277 56.6816 60.3277Z" fill="#C16256"/>
<path d="M56.6871 60.6312C56.5627 60.6312 56.4649 60.5801 56.4588 60.5771C56.449 60.572 56.4453 60.5598 56.4507 60.55C56.4558 60.5402 56.4679 60.5365 56.4777 60.5415C56.4797 60.5426 56.6881 60.6508 56.8729 60.5419C56.8824 60.5361 56.8945 60.5395 56.9002 60.549C56.906 60.5585 56.9026 60.5706 56.8931 60.5764C56.8233 60.6173 56.7519 60.6312 56.6874 60.6312H56.6871Z" fill="#C16256"/>
<path d="M57.0659 58.7747C57.0659 58.7747 56.9476 59.4869 55.7703 59.7395C55.7703 59.7395 55.7022 59.1254 55.9487 58.7747C56.1952 58.4236 56.8653 58.3935 57.0656 58.7747H57.0659Z" fill="#8C4225"/>
<path d="M57.0653 58.7734C57.0653 58.7734 57.0107 59.4511 57.4983 59.74C57.4983 59.74 57.6231 58.9723 57.0653 58.7734Z" fill="#8C4225"/>
<path d="M55.3369 61.9557C55.3369 61.9557 55.8029 62.9236 56.6119 63.1962C56.6119 63.1962 57.5109 62.8837 57.8566 61.929C57.8566 61.929 57.7385 61.8593 57.6526 61.8516C57.6526 61.8516 57.2877 62.6006 56.6123 62.9652C56.6123 62.9652 55.9884 62.6713 55.5342 61.8773C55.5342 61.8773 55.4266 61.8847 55.3372 61.9561L55.3369 61.9557Z" fill="#CE3932"/>
<path d="M54.1883 64.4531H58.8348C58.8995 64.4531 58.9518 64.5055 58.9518 64.5705V67.4321H54.0713V64.5705C54.0713 64.5055 54.1236 64.4531 54.1883 64.4531Z" fill="#163260"/>
<path d="M58.2628 69.7902C58.2523 69.7926 58.1414 69.7919 57.9562 69.7858C57.7529 69.779 57.4595 69.7659 57.1095 69.7415C57.0879 69.7402 57.066 69.7385 57.0437 69.7368C56.9581 69.7307 56.8691 69.7243 56.7777 69.7168C56.6644 69.7077 56.547 69.6975 56.4266 69.6864C54.3643 69.4936 51.3499 68.9688 51.7195 67.6106C52.2189 65.7784 57.1567 67.9194 58.3113 68.4483C58.4651 68.519 58.5518 68.5606 58.5518 68.5606C58.7834 69.2535 58.2624 69.7902 58.2624 69.7902H58.2628Z" fill="#9358E0"/>
<path d="M58.4276 69.0547L58.3264 69.4351L57.0437 69.7341C56.958 69.728 56.869 69.7216 56.7776 69.7141C56.6643 69.705 56.5469 69.6949 56.4266 69.6837L56.3291 69.3946L58.4276 69.055V69.0547Z" fill="#7640CC"/>
<path d="M58.2626 69.7872C58.2518 69.7892 58.1415 69.7889 57.9561 69.7828C57.9561 69.7828 58.5286 69.2343 58.3111 68.4453C58.4649 68.5157 58.5516 68.5576 58.5516 68.5576C58.7832 69.2505 58.2622 69.7872 58.2622 69.7872H58.2626Z" fill="#7640CC"/>
<path d="M54.716 68.8019C54.716 68.8019 54.3401 69.1496 54.1215 69.227C53.8285 69.3308 53.1278 69.4874 52.9845 69.5199C52.5926 69.6091 52.5994 69.9784 53.1106 69.9642L54.2939 69.9595C54.652 69.9301 55.1035 69.6352 55.1389 69.622C55.7405 69.3525 55.2846 68.4654 54.7164 68.8016L54.716 68.8019Z" fill="#F99370"/>
<path d="M55.22 69.9172C55.0564 69.9382 54.9593 69.9476 54.9488 69.9466C54.9488 69.9466 54.3789 69.4623 54.5435 68.7505C54.5435 68.7505 54.6275 68.6994 54.7772 68.6128C55.8849 67.9706 60.583 65.3754 61.254 67.1489C61.9146 68.8949 56.5088 69.7528 55.2203 69.9172H55.22Z" fill="#9358E0"/>
<path d="M55.22 69.9215C55.0564 69.9425 54.9593 69.952 54.9488 69.951C54.9488 69.951 54.3789 69.4667 54.5435 68.7548C54.5435 68.7548 54.6261 68.6933 54.7772 68.6172C54.7772 68.6172 54.676 69.37 55.22 69.9215Z" fill="#7640CC"/>
<path d="M54.7342 68.669C54.7288 68.6687 54.7238 68.6657 54.7211 68.6609C54.7164 68.6528 54.719 68.6427 54.7271 68.6383C54.741 68.6302 56.1185 67.8293 56.7261 67.5483C56.7346 67.5446 56.7443 67.5483 56.7481 67.5564C56.7518 67.5649 56.7481 67.5747 56.74 67.5784C56.134 67.8588 54.7575 68.6589 54.7437 68.667C54.7406 68.6687 54.7373 68.6694 54.7342 68.6694V68.669Z" fill="#7640CC"/>
<path d="M57.1222 59.692C57.1179 59.692 57.1135 59.6906 57.1101 59.6876C56.9631 59.5726 56.8252 59.6189 56.8194 59.621C56.809 59.6247 56.7975 59.6189 56.7941 59.6088C56.7904 59.5983 56.7958 59.5872 56.8063 59.5834C56.813 59.5811 56.9702 59.5273 57.1351 59.6561C57.1438 59.6629 57.1452 59.6754 57.1384 59.6842C57.1344 59.6893 57.1287 59.692 57.1226 59.692H57.1222Z" fill="#C16256"/>
<path d="M56.1986 59.6955C56.1929 59.6955 56.1875 59.6931 56.1834 59.6884C56.1763 59.6799 56.1773 59.6674 56.1858 59.6603C56.1908 59.6559 56.3126 59.5541 56.522 59.596C56.5328 59.5981 56.5399 59.6089 56.5375 59.6197C56.5355 59.6305 56.5247 59.6376 56.5139 59.6353C56.3244 59.5971 56.2128 59.6897 56.2114 59.6907C56.2077 59.6938 56.203 59.6955 56.1986 59.6955Z" fill="#C16256"/>
<path d="M7.7268 34.4836C4.84464 34.4836 2.5 32.1322 2.5 29.2418C2.5 26.3514 4.84464 24 7.7268 24C10.609 24 12.9536 26.3514 12.9536 29.2418C12.9536 32.1322 10.609 34.4836 7.7268 34.4836ZM7.7268 24.3382C5.03078 24.3382 2.83721 26.538 2.83721 29.2418C2.83721 31.9455 5.03078 34.1454 7.7268 34.1454C10.4228 34.1454 12.6164 31.9455 12.6164 29.2418C12.6164 26.538 10.4228 24.3382 7.7268 24.3382Z" fill="#3E7CC6"/>
<path d="M7.72714 34.449C7.59866 34.449 7.47187 34.4118 7.3498 34.3381L7.48907 34.1064C7.64891 34.2028 7.80874 34.2025 7.96892 34.1047L8.1092 34.3357C7.98578 34.4111 7.8573 34.4493 7.72748 34.4493L7.72714 34.449ZM6.86388 33.8109C6.75866 33.6384 6.65885 33.4311 6.56814 33.1944L6.8197 33.097C6.90468 33.3185 6.99707 33.5109 7.09385 33.6695L6.86388 33.8109ZM8.59276 33.8071L8.36245 33.6661C8.45923 33.5072 8.55129 33.3144 8.63593 33.0932L8.88783 33.1903C8.79712 33.427 8.69797 33.6343 8.59276 33.8071ZM6.36109 32.5525C6.30579 32.3476 6.25521 32.1277 6.21069 31.8991L6.47541 31.8474C6.51857 32.0696 6.56747 32.283 6.62142 32.4815L6.36109 32.5522V32.5525ZM9.0942 32.5484L8.83387 32.4778C8.88749 32.2792 8.93638 32.0659 8.97955 31.8437L9.24426 31.8954C9.20008 32.124 9.1495 32.3438 9.0942 32.5488V32.5484ZM6.10279 31.2397C6.07379 31.0249 6.04917 30.8017 6.02961 30.5765L6.29837 30.5532C6.31725 30.774 6.34153 30.9928 6.36986 31.2032L6.10245 31.2397H6.10279ZM9.35183 31.2356L9.08442 31.1994C9.11275 30.9891 9.13703 30.7703 9.15591 30.5495L9.42467 30.5728C9.40545 30.798 9.38083 31.0212 9.35183 31.236V31.2356ZM5.98746 29.9113C5.97835 29.6918 5.97363 29.468 5.97363 29.2451H6.2434C6.2434 29.4639 6.24812 29.6841 6.25723 29.8998L5.9878 29.911L5.98746 29.9113ZM9.46682 29.9069L9.19739 29.8958C9.20649 29.6803 9.21088 29.4598 9.21088 29.241V29.2326H9.48065V29.241C9.48065 29.4639 9.47592 29.6878 9.46682 29.9073V29.9069ZM6.25655 28.59L5.98712 28.5789C5.99623 28.3547 6.01039 28.1308 6.02894 27.9137L6.29769 27.9367C6.27949 28.1501 6.26566 28.3699 6.25655 28.59ZM9.19705 28.5772C9.18795 28.357 9.17378 28.1372 9.15524 27.9238L9.42399 27.9005C9.44288 28.118 9.45704 28.3418 9.46648 28.5657L9.19705 28.5772ZM6.36918 27.2864L6.10177 27.2502C6.13246 27.0236 6.16854 26.8014 6.20935 26.5904L6.47406 26.6418C6.43427 26.8478 6.39886 27.0645 6.36918 27.286V27.2864ZM9.08375 27.2739C9.05373 27.0523 9.01799 26.8356 8.97786 26.6296L9.24257 26.5779C9.28371 26.7889 9.32013 27.0108 9.35082 27.2373L9.08341 27.2739H9.08375ZM6.61973 26.0077L6.3594 25.9374C6.42179 25.7061 6.49092 25.49 6.56544 25.2955L6.81734 25.3926C6.74619 25.5786 6.67976 25.7855 6.62007 26.0081L6.61973 26.0077ZM8.83185 25.9955C8.77149 25.773 8.70472 25.5661 8.63323 25.3804L8.88479 25.283C8.95965 25.4771 9.02945 25.6932 9.09218 25.9245L8.83185 25.9955ZM7.08981 24.8187L6.85949 24.678C7.00854 24.4325 7.17074 24.2543 7.34137 24.1484L7.483 24.3787C7.34879 24.4616 7.2166 24.6097 7.08981 24.8183V24.8187ZM8.3584 24.8082C8.2306 24.6002 8.09774 24.4538 7.96251 24.3733L8.10043 24.1406C8.27342 24.2438 8.43765 24.4206 8.58838 24.6662L8.35874 24.8079L8.3584 24.8082Z" fill="#3E7CC6"/>
<path d="M7.73568 31.0014H7.72725C7.50503 31.0014 7.28146 30.9967 7.06295 30.9876L7.07407 30.7174C7.28888 30.7262 7.50874 30.7309 7.72692 30.7309H7.73535V31.0014H7.73568ZM8.39999 30.9872L8.38853 30.717C8.60805 30.7079 8.82724 30.6937 9.04002 30.6751L9.06329 30.9446C8.84646 30.9636 8.62323 30.9778 8.39999 30.9872ZM6.39965 30.9453C6.1754 30.926 5.95284 30.9013 5.73837 30.8723L5.77446 30.6041C5.98454 30.6325 6.20272 30.6568 6.42258 30.6758L6.39931 30.9453H6.39965ZM9.72457 30.8709L9.68815 30.6027C9.90936 30.5726 10.1255 30.5368 10.3305 30.4969L10.3821 30.7623C10.172 30.8036 9.95083 30.8401 9.72457 30.8709ZM5.08047 30.764C4.85252 30.7197 4.63333 30.669 4.42898 30.6135L4.49945 30.3525C4.6974 30.4062 4.91018 30.4553 5.13173 30.4986L5.08014 30.764H5.08047ZM11.0336 30.6115L10.9628 30.3504C11.1847 30.2899 11.3911 30.2229 11.5762 30.1513L11.6733 30.4035C11.4798 30.4786 11.2646 30.5486 11.0336 30.6115ZM3.78929 30.4069C3.55357 30.3159 3.34653 30.2165 3.17421 30.111L3.31483 29.88C3.47332 29.9771 3.66553 30.0694 3.88607 30.1543L3.78929 30.4069ZM12.2881 30.1063L12.1468 29.876C12.3541 29.7478 12.5002 29.6142 12.5804 29.479L12.8124 29.6173C12.7096 29.7908 12.5332 29.9551 12.2884 30.1066L12.2881 30.1063ZM2.64748 29.6257C2.57228 29.502 2.53418 29.3731 2.53418 29.2429C2.53418 29.1141 2.57127 28.9869 2.64479 28.8645L2.87578 29.0038C2.82789 29.0836 2.80361 29.1638 2.80361 29.2429C2.80361 29.3227 2.82857 29.4042 2.87746 29.485L2.64715 29.6257H2.64748ZM12.5747 28.9977C12.4921 28.8631 12.3444 28.7306 12.1363 28.6034L12.2766 28.3724C12.5214 28.5219 12.6991 28.6846 12.8047 28.8557L12.575 28.9977H12.5747ZM3.31112 28.6078L3.17016 28.3772C3.34214 28.2717 3.54885 28.1716 3.7849 28.0806L3.88202 28.3329C3.66114 28.4181 3.46927 28.5107 3.31112 28.6078ZM11.5644 28.3298C11.3789 28.2585 11.1726 28.1918 10.9507 28.132L11.0208 27.8709C11.2515 27.9335 11.4669 28.0028 11.6608 28.0775L11.5641 28.3302L11.5644 28.3298ZM4.49541 28.134L4.42493 27.8729C4.62928 27.8175 4.84847 27.7668 5.07609 27.7221L5.12768 27.9876C4.90613 28.0309 4.69335 28.0799 4.49541 28.134ZM10.3181 27.9862C10.1127 27.9463 9.89654 27.9108 9.67567 27.8811L9.71175 27.6129C9.93768 27.6437 10.1592 27.6798 10.3697 27.7208L10.3184 27.9862H10.3181ZM5.77007 27.8821L5.73365 27.6139C5.94812 27.5848 6.17034 27.5601 6.39493 27.5405L6.41819 27.81C6.19799 27.829 5.97982 27.8533 5.77007 27.8817V27.8821ZM9.02721 27.8094C8.81443 27.7911 8.59524 27.7772 8.37571 27.7681L8.38684 27.4979C8.61041 27.507 8.83365 27.5212 9.05014 27.5398L9.02721 27.8094ZM7.06969 27.7684L7.05822 27.4982C7.27674 27.4891 7.49997 27.4844 7.72253 27.4844V27.7549C7.50402 27.7549 7.28449 27.7597 7.06969 27.7688V27.7684Z" fill="#3E7CC6"/>
<path d="M7.79458 33.9634H7.62598V33.6253H7.79458V33.9634ZM7.79458 33.2871H7.62598V32.9489H7.79458V33.2871ZM7.79458 32.6107H7.62598V32.2726H7.79458V32.6107ZM7.79458 31.9344H7.62598V31.5962H7.79458V31.9344ZM7.79458 31.258H7.62598V30.9198H7.79458V31.258ZM7.79458 30.5817H7.62598V30.2435H7.79458V30.5817ZM7.79458 29.9053H7.62598V29.5671H7.79458V29.9053ZM7.79458 29.2289H7.62598V28.8908H7.79458V29.2289ZM7.79458 28.5526H7.62598V28.2144H7.79458V28.5526ZM7.79458 27.8762H7.62598V27.538H7.79458V27.8762ZM7.79458 27.1999H7.62598V26.8617H7.79458V27.1999ZM7.79458 26.5235H7.62598V26.1853H7.79458V26.5235ZM7.79458 25.8471H7.62598V25.509H7.79458V25.8471ZM7.79458 25.1708H7.62598V24.8326H7.79458V25.1708ZM7.79458 24.4944H7.62598V24.1562H7.79458V24.4944Z" fill="#3E7CC6"/>
<path d="M12.7684 29.3097H12.4312V29.1406H12.7684V29.3097ZM12.094 29.3097H11.7568V29.1406H12.094V29.3097ZM11.4196 29.3097H11.0824V29.1406H11.4196V29.3097ZM10.7451 29.3097H10.4079V29.1406H10.7451V29.3097ZM10.0707 29.3097H9.73351V29.1406H10.0707V29.3097ZM9.3963 29.3097H9.05909V29.1406H9.3963V29.3097ZM8.72187 29.3097H8.38466V29.1406H8.72187V29.3097ZM8.04745 29.3097H7.71024V29.1406H8.04745V29.3097ZM7.37302 29.3097H7.03581V29.1406H7.37302V29.3097ZM6.6986 29.3097H6.36138V29.1406H6.6986V29.3097ZM6.02417 29.3097H5.68696V29.1406H6.02417V29.3097ZM5.34975 29.3097H5.01253V29.1406H5.34975V29.3097ZM4.67532 29.3097H4.33811V29.1406H4.67532V29.3097ZM4.0009 29.3097H3.66368V29.1406H4.0009V29.3097ZM3.32647 29.3097H2.98926V29.1406H3.32647V29.3097Z" fill="#3E7CC6"/>
<path d="M57.9824 53.1814L56.5267 52.3383V53.0123H52.4858V48.9599H53.1579L52.3172 47.5L51.4766 48.9599H52.1486V53.3505H56.5267V54.0245L57.9824 53.1814Z" fill="#3E7CC6"/>
<path d="M29.5938 38.4389C29.7499 38.8768 29.4464 38.6549 30.1114 38.6965C30.2506 38.7053 30.5437 38.6955 30.3977 38.4088C30.2793 38.0794 30.3815 37.1659 30.3056 36.8251C29.962 35.3019 28.7989 36.2072 29.5938 38.4389Z" fill="#ED8569"/>
<path d="M30.4933 38.9609C30.4899 39.0603 30.4434 39.1746 30.3287 39.1746L28.2333 39.2206C28.125 39.223 28.0458 39.1161 28.0822 39.014C28.1584 38.783 28.495 38.3809 29.5683 38.3691C29.5683 38.3691 29.918 38.4658 30.3763 38.3359C30.3763 38.3359 30.5311 38.5859 30.4933 38.9612V38.9609Z" fill="#EB5648"/>
<path d="M28.7262 38.9254C28.732 38.9254 28.7374 38.924 28.7431 38.9216C28.7657 38.9118 28.7762 38.8858 28.7664 38.8631C28.6655 38.6291 28.4855 38.5605 28.4781 38.5574C28.4548 38.549 28.4295 38.5608 28.4207 38.5838C28.4123 38.6068 28.4238 38.6325 28.447 38.6409C28.4531 38.6433 28.5998 38.7011 28.6848 38.8983C28.6922 38.9156 28.709 38.9257 28.7266 38.9254H28.7262Z" fill="#E8C0A6"/>
<path d="M29.0716 38.8771C29.0759 38.8771 29.0803 38.8764 29.0847 38.8747C29.108 38.8669 29.1204 38.8416 29.113 38.8182C29.025 38.5544 28.7964 38.4391 28.7869 38.4344C28.7647 38.4232 28.7384 38.4327 28.7273 38.4547C28.7165 38.4767 28.7252 38.5034 28.7475 38.5145C28.7495 38.5156 28.9529 38.619 29.0284 38.8466C29.0348 38.8656 29.0527 38.8774 29.0716 38.8771Z" fill="#E8C0A6"/>
<path d="M29.4647 38.8201C29.4695 38.8201 29.4745 38.8191 29.4792 38.8174C29.5022 38.8089 29.514 38.7832 29.5055 38.7599C29.4064 38.4934 29.1936 38.3565 29.1845 38.3507C29.1639 38.3375 29.1363 38.3436 29.1231 38.3646C29.11 38.3855 29.1161 38.4129 29.137 38.4261C29.139 38.4275 29.3339 38.5533 29.4223 38.791C29.429 38.8093 29.4465 38.8204 29.4651 38.8201H29.4647Z" fill="#E8C0A6"/>
<path d="M28.0826 39.0137L30.4936 38.9609C30.4862 39.035 30.4677 39.107 30.4319 39.1723L28.2333 39.2203C28.1264 39.2227 28.0478 39.1189 28.0809 39.0174C28.0812 39.0161 28.0815 39.015 28.0822 39.0137H28.0826Z" fill="#CE3932"/>
<path d="M32.6851 39.7554C32.9124 40.1362 32.6221 40.2377 33.1387 40.0486C33.4772 39.8968 33.5899 39.8582 33.4627 39.5481C33.3612 39.1765 33.2466 38.4605 33.1721 38.0835C32.9809 36.933 31.4567 37.6976 32.6851 39.7554Z" fill="#F99370"/>
<path d="M33.7297 40.1095C33.751 40.2066 33.7334 40.329 33.6222 40.3571L31.6023 40.9171C31.4981 40.9462 31.3949 40.862 31.405 40.7537C31.4225 40.5113 31.5874 40.0395 32.6908 39.7615C32.6908 39.7615 33.0462 39.7808 33.4579 39.5234C33.4579 39.5234 33.6744 39.7362 33.7297 40.1095Z" fill="#EB5648"/>
<path d="M32.0082 40.5145C32.0136 40.5132 32.0187 40.5105 32.0234 40.5068C32.043 40.4919 32.0467 40.4638 32.0315 40.4442C31.8767 40.2423 31.6852 40.2196 31.6771 40.219C31.6525 40.2166 31.6309 40.2342 31.6282 40.2585C31.6255 40.2829 31.643 40.3049 31.6677 40.3076C31.6744 40.3082 31.8305 40.3282 31.961 40.4986C31.9725 40.5135 31.9914 40.5193 32.0082 40.5145Z" fill="#E8C0A6"/>
<path d="M32.3299 40.3832C32.334 40.3822 32.3384 40.3802 32.3421 40.3778C32.3626 40.3646 32.3687 40.3369 32.3556 40.3163C32.2058 40.0822 31.956 40.0268 31.9455 40.0244C31.9212 40.0193 31.898 40.0346 31.8926 40.0586C31.8875 40.0826 31.9027 40.1063 31.9266 40.1117C31.929 40.112 32.1512 40.1624 32.2804 40.3643C32.2912 40.3812 32.3114 40.3883 32.3296 40.3832H32.3299Z" fill="#E8C0A6"/>
<path d="M32.6976 40.2322C32.7023 40.2309 32.7067 40.2288 32.7111 40.2258C32.7313 40.2119 32.7364 40.1839 32.7226 40.1636C32.5614 39.9296 32.3213 39.8494 32.3112 39.846C32.2879 39.8382 32.2626 39.8511 32.2552 39.8744C32.2474 39.8978 32.2603 39.9231 32.2835 39.9306C32.2855 39.9312 32.5054 40.0056 32.6494 40.214C32.6605 40.2299 32.6801 40.2366 32.698 40.2315L32.6976 40.2322Z" fill="#E8C0A6"/>
<path d="M31.4047 40.7539L33.7294 40.1094C33.7406 40.1828 33.7399 40.2572 33.7213 40.3295L31.6019 40.9173C31.4991 40.9457 31.3973 40.8645 31.4047 40.758C31.4047 40.7567 31.4047 40.7553 31.4047 40.7543V40.7539Z" fill="#CE3932"/>
<path d="M28.8579 37.3885C28.8903 37.6526 28.9173 37.8112 28.9189 37.8271C28.9189 37.8271 29.7481 37.9982 30.8518 37.8271C30.8589 36.3733 30.8488 33.6712 31.9201 32.7757C32.1697 32.6087 32.8009 32.1633 33.2707 31.8863C34.4475 31.3131 36.194 30.8711 36.6745 29.7588C36.0402 29.4957 34.7143 28.9452 34.0739 28.6797C28.863 29.2495 28.3632 33.9516 28.8579 37.3885Z" fill="#CE4ABF"/>
<path d="M30.8898 36.1339C31.0617 33.7345 31.3116 32.9317 33.2708 31.8847L34.1911 29.7734C31.7126 30.5428 29.607 33.091 30.8898 36.1339Z" fill="#A523A2"/>
<path d="M30.9187 35.7493C31.1618 37.1457 31.5763 38.2441 31.9209 39.3486C31.9209 39.3486 33.2761 39.4341 33.956 38.7155C33.6646 37.632 33.1534 35.5251 33.7091 33.9533C33.9313 33.3767 34.5097 32.4724 36.25 31.9607C38.4183 31.3229 38.0895 29.3479 38.0895 29.3479C37.3318 27.8735 35.9334 29.1711 35.523 29.2796C32.0639 30.328 30.1074 32.5146 30.919 35.749L30.9187 35.7493Z" fill="#CE4ABF"/>
<path d="M31.79 38.9402L31.9199 39.3483C31.9199 39.3483 33.2751 39.4339 33.9549 38.7153C33.9549 38.7153 33.9114 38.5563 33.8501 38.3125C33.8501 38.3125 33.0991 39.1282 31.79 38.9402Z" fill="#A523A2"/>
<path d="M28.8584 37.3906C28.8908 37.6547 28.9177 37.8134 28.9194 37.8292C28.9194 37.8292 29.7486 38.0004 30.8523 37.8292C30.8523 37.836 30.8544 37.4346 30.8544 37.4346C30.8544 37.4346 29.7581 37.6733 28.8584 37.3906Z" fill="#A523A2"/>
<path d="M37.6597 25.0956C40.2421 23.5282 40.9371 21.1704 40.3831 18.2935C40.3001 17.8904 39.6918 17.9763 39.7211 18.3855C39.7295 20.6702 38.6727 22.4173 36.4141 23.237C36.4147 23.2367 36.4687 25.6438 37.6594 25.0956H37.6597Z" fill="#F99370"/>
<path d="M39.5737 24.3403C39.5737 24.3403 39.5737 24.3403 39.5733 24.3406C39.5467 24.3741 39.519 24.4076 39.4904 24.4404C39.1427 24.8503 38.7752 25.3569 38.3142 25.6846C38.3142 25.6846 38.314 25.6847 38.3135 25.6849C38.151 25.8006 37.9766 25.8939 37.7881 25.9531C37.4674 25.8016 36.3553 24.7005 36.3604 23.0687C37.8057 22.5824 39.3892 21.6738 39.7163 18.7188C39.7163 18.7188 40.1483 18.877 40.4642 18.7729C40.8483 20.368 40.9434 22.647 39.574 24.34L39.5737 24.3403Z" fill="#1D3F70"/>
<path d="M40.5167 19.0228C40.1542 19.1482 39.7007 18.9683 39.6865 18.9626C39.6977 18.8831 39.7074 18.8016 39.7159 18.7188C39.7159 18.7188 40.1478 18.8774 40.4638 18.7732C40.4638 18.7732 40.4861 18.8638 40.5164 19.0228H40.5167Z" fill="#103663"/>
<path d="M35.0817 25.0478C32.1361 24.387 30.7283 22.3738 30.3398 19.4699C30.2906 19.0614 30.8868 18.9525 30.9886 19.3495C31.7217 21.4952 32.9067 22.9981 35.3066 23.0509C35.3059 23.0509 35.3036 23.0502 35.3029 23.0498C36.6052 23.201 36.3847 25.1871 35.0817 25.0478Z" fill="#F99370"/>
<path d="M35.5591 23.0057L33.897 25.472C33.897 25.472 33.7766 25.4101 33.5874 25.2894C33.2846 25.096 32.8061 24.7517 32.3643 24.2708C31.0364 22.8247 30.4523 20.6888 30.3906 19.8095C30.8449 19.8501 31.0853 19.6016 31.0853 19.6016C31.1166 19.6709 31.1504 19.7412 31.1861 19.8126C32.1256 21.793 33.8103 23.0696 35.5591 23.0053V23.0057Z" fill="#1D3F70"/>
<path d="M31.1858 19.8133C30.9227 20.071 30.4206 20.0635 30.4206 20.0635C30.398 19.9029 30.3906 19.8099 30.3906 19.8099C30.8449 19.8501 31.0853 19.6016 31.0853 19.6016C31.1166 19.6709 31.1504 19.7412 31.1861 19.8129L31.1858 19.8133Z" fill="#103663"/>
<path d="M35.5599 23.009C35.5417 22.5727 35.6546 21.9518 35.7332 21.7006C35.8785 21.2017 36.6666 21.456 36.4973 21.9447C36.4727 21.9265 36.3233 22.8389 36.3621 23.0979C37.0986 23.3789 34.7806 23.9582 35.5599 23.0093V23.009Z" fill="#F99370"/>
<path d="M36.5082 21.9037C36.5068 21.9094 36.5058 21.9155 36.5041 21.9212C36.5021 21.9294 36.5001 21.9371 36.4974 21.9449C36.4795 21.931 36.3908 22.4339 36.3639 22.8019C36.0074 22.9337 35.6281 22.8367 35.5586 22.8174C35.5714 22.4275 35.6665 21.95 35.711 21.7721C35.7235 21.7305 35.7319 21.7062 35.7336 21.7011C35.7373 21.6899 35.7414 21.6788 35.7457 21.6683C35.7926 21.5557 35.886 21.4745 35.996 21.44C36.0722 21.4163 36.1558 21.415 36.2377 21.441C36.3187 21.4671 36.3854 21.5164 36.4333 21.5793C36.4353 21.5817 36.4374 21.5844 36.4394 21.5871C36.5038 21.6761 36.5315 21.7904 36.5082 21.904V21.9037Z" fill="#E57D61"/>
<path d="M35.2158 20.8679C35.2158 20.8679 35.3231 20.4472 35.5237 20.1875L35.7365 20.3634L35.2158 20.8679Z" fill="#C92828"/>
<path d="M34.9157 22.1018C35.1329 22.4617 35.5551 22.65 35.9264 22.6578C36.042 22.6619 36.156 22.6483 36.2632 22.6121C36.2997 22.6 36.3344 22.5858 36.3688 22.5689H36.3691C38.0353 21.5323 36.736 18.8753 35.4431 20.6155C35.0321 21.0944 34.4723 21.2699 34.9154 22.1018H34.9157Z" fill="#F99370"/>
<path d="M35.252 21.6907L35.7756 21.5625C35.7756 21.5625 35.7433 21.8243 35.542 21.8496C35.3497 21.874 35.252 21.6903 35.252 21.6903V21.6907Z" fill="#F9F8F3"/>
<path d="M35.7564 21.1388C35.7493 21.109 35.7675 21.0789 35.7972 21.0718C35.8269 21.0647 35.8569 21.083 35.864 21.1128C35.8711 21.1425 35.8529 21.1726 35.8232 21.1797C35.7935 21.1868 35.7635 21.1686 35.7564 21.1388Z" fill="#C16256"/>
<path d="M35.3209 20.9591C35.3138 20.9294 35.332 20.8993 35.3617 20.8922C35.3913 20.8851 35.4214 20.9033 35.4284 20.9331C35.4355 20.9628 35.4173 20.9929 35.3876 21C35.358 21.0071 35.3279 20.9889 35.3209 20.9591Z" fill="#C16256"/>
<path d="M35.2452 21.7081C35.2489 21.7094 35.2533 21.7097 35.2573 21.7087L35.781 21.5806C35.7921 21.5779 35.7992 21.5664 35.7965 21.5552C35.7938 21.544 35.7824 21.5369 35.7712 21.5396L35.2475 21.6678C35.2364 21.6705 35.2293 21.682 35.232 21.6932C35.2337 21.7003 35.2388 21.7057 35.2452 21.7081Z" fill="#C16256"/>
<path d="M35.3507 21.4605C35.3814 21.4716 35.4141 21.4777 35.4434 21.4754C35.4549 21.4743 35.4637 21.4642 35.4627 21.4527C35.4616 21.4412 35.4515 21.4324 35.4401 21.4334C35.3665 21.4392 35.2779 21.3817 35.2718 21.3475C35.2698 21.3353 35.287 21.3282 35.3018 21.3242C35.4323 21.289 35.5618 21.0881 35.5672 21.0793C35.5733 21.0695 35.5706 21.0567 35.5608 21.0503C35.5507 21.0438 35.5382 21.0469 35.5318 21.0567C35.5304 21.0587 35.4057 21.2525 35.2907 21.2836C35.228 21.3005 35.2276 21.3391 35.2303 21.3546C35.2374 21.3955 35.2903 21.4382 35.3504 21.4605H35.3507Z" fill="#C16256"/>
<path d="M35.5381 20.498C35.8672 20.4131 36.3639 20.6803 36.6249 20.7405C36.6249 20.7405 36.4637 21.1737 36.8377 21.5988C36.7784 22.0185 36.8033 22.2136 36.2638 22.614C36.3002 22.6018 36.3349 22.5876 36.3693 22.5707H36.3696C37.9711 21.5852 36.809 18.9742 35.5381 20.498Z" fill="#E57D61"/>
<path d="M35.5273 19.5513C35.7738 19.2595 36.3144 19.1979 36.6469 19.7106C36.9028 20.1052 37.2606 20.1881 37.1746 20.5188C37.7668 20.9794 37.2633 21.6338 37.2633 21.6338L36.9399 21.5151C36.633 21.1161 36.7521 20.6656 36.7521 20.6656C36.6664 20.6494 36.5781 20.6247 36.5036 20.5855C36.2736 20.4644 35.9185 20.3474 35.618 20.3836C35.3176 20.4197 35.2515 19.8773 35.527 19.5513H35.5273Z" fill="#C92828"/>
<path d="M37.2474 21.9197C37.1709 22.0823 37.0026 22.1642 36.8721 22.1023C36.7413 22.0404 36.6974 21.8585 36.774 21.6955C36.8505 21.5328 37.0188 21.451 37.1493 21.5129C37.2801 21.5747 37.324 21.7567 37.2474 21.9197Z" fill="#F99370"/>
<path d="M36.9748 21.6117C36.9805 21.611 37.1185 21.5921 37.1738 21.6749C37.1879 21.6959 37.1947 21.7216 37.1947 21.7507C37.1947 21.7534 37.195 21.7561 37.1947 21.7588C37.1926 21.8129 37.1684 21.8799 37.1222 21.9597C37.1171 21.9685 37.1063 21.9722 37.0969 21.9688C37.0959 21.9685 37.0945 21.9678 37.0935 21.9671C37.0834 21.9614 37.08 21.9482 37.0861 21.9384C37.1238 21.8738 37.1451 21.819 37.1512 21.7754C37.0284 21.7683 36.9384 21.8863 36.9374 21.8877C36.9316 21.8954 36.9219 21.8981 36.9131 21.8948C36.9114 21.8941 36.9094 21.8931 36.908 21.8917C36.8986 21.8849 36.8966 21.8718 36.9036 21.8623C36.908 21.8565 37.0072 21.724 37.1512 21.7314C37.1491 21.7186 37.1454 21.7071 37.139 21.6976C37.0986 21.6367 36.9819 21.6523 36.9809 21.6526C36.9694 21.6543 36.959 21.6462 36.9573 21.6347C36.9556 21.6232 36.9637 21.6127 36.9751 21.611L36.9748 21.6117Z" fill="#C16256"/>
<path d="M36.706 21.9087L36.9039 21.8039C36.9056 21.7954 36.9076 21.7873 36.9117 21.7792C36.9346 21.7325 36.9912 21.7133 37.0378 21.7363C37.0843 21.7593 37.1035 21.8161 37.0806 21.8627C37.0583 21.9084 37.0044 21.9273 36.9582 21.907L36.7606 22.0119C36.7454 22.02 36.7282 22.0207 36.713 22.0149C36.6999 22.0102 36.6884 22.0007 36.6817 21.9875C36.6665 21.9591 36.6773 21.9236 36.706 21.9084V21.9087Z" fill="#FDFFDE"/>
<path d="M32.9129 28.8902C32.9129 28.8902 34.7915 29.9058 38.1069 29.6278C38.1069 29.6278 38.1174 29.5412 38.1332 29.3901C38.202 28.7462 38.3767 26.9332 38.3136 25.6813C38.3136 25.6813 38.2263 24.6194 38.0388 24.1013C37.4693 22.5291 36.3612 23.0644 36.3612 23.0644C36.1025 23.5886 35.4871 24.0052 35.4871 24.0052C35.3816 23.4574 35.5512 23.032 35.5593 23.0069C34.7058 23.2031 33.9393 23.849 33.5964 25.2673C33.4355 25.9315 32.8525 27.5392 32.7894 28.382C32.7716 28.6183 32.8282 28.8121 32.9132 28.8902H32.9129Z" fill="#1D3F70"/>
<path d="M35.267 23.004C35.267 23.004 35.1004 23.7937 35.3992 24.2708C35.3992 24.2708 36.2969 23.9685 36.6277 22.9688C36.6277 22.9688 36.5042 22.9621 36.3609 23.0632C36.3609 23.0632 35.9404 23.6482 35.5267 23.9279C35.5267 23.9279 35.4289 23.583 35.5594 23.0054C35.5594 23.0054 35.4059 22.9631 35.267 23.0037V23.004Z" fill="#E8C0A6"/>
<path d="M36.0775 21.085C36.068 21.0843 36.0593 21.0785 36.0552 21.0694C35.9841 20.9091 35.8327 20.8651 35.831 20.8645C35.8168 20.8604 35.8087 20.8459 35.8124 20.832C35.8165 20.8178 35.831 20.8097 35.8448 20.8134C35.8519 20.8154 36.0215 20.8638 36.1031 21.0478C36.1092 21.0613 36.1031 21.0768 36.0896 21.0829C36.0856 21.0846 36.0812 21.0853 36.0771 21.0853L36.0775 21.085Z" fill="#C16256"/>
<path d="M35.6744 20.764C35.6697 20.7637 35.665 20.762 35.661 20.7593C35.5274 20.6643 35.4317 20.7147 35.4306 20.715C35.4178 20.7221 35.4016 20.7174 35.3949 20.7045C35.3878 20.6917 35.3925 20.6754 35.4053 20.6687C35.4104 20.666 35.5315 20.6021 35.6916 20.7164C35.7034 20.7248 35.7065 20.7414 35.6977 20.7532C35.6923 20.761 35.6832 20.7651 35.6741 20.7644L35.6744 20.764Z" fill="#C16256"/>
<path d="M39.574 24.3363C39.5473 24.3698 39.5197 24.4032 39.491 24.436C39.1433 24.8459 38.7758 25.3525 38.3148 25.6802C38.3148 25.6802 38.3146 25.6803 38.3141 25.6805L38.3135 25.6809C38.301 24.9819 38.1189 24.5838 38.1074 24.5595C38.6264 25.1496 39.5527 24.3542 39.574 24.3359V24.3363Z" fill="#103663"/>
<path d="M33.8989 24.4019C33.8989 24.4019 33.7054 24.872 33.5958 25.2687C33.5937 25.2768 33.5907 25.2846 33.5873 25.292C33.2845 25.0986 32.806 24.7543 32.3643 24.2734C32.3643 24.2734 33.2488 24.9383 33.8986 24.4019H33.8989Z" fill="#103663"/>
<path d="M24.4736 19.4203L34.4443 7L46.8288 16.9993L24.4736 19.4203ZM34.9164 11.3869L31.607 15.5096L39.0274 14.7061L34.9164 11.3872V11.3869Z" fill="#EB5648"/>
<path d="M45.1361 16.4152L45.002 16.4297L45.0838 17.1902L45.2179 17.1757L45.1361 16.4152Z" fill="#CE3932"/>
<path d="M44.4476 15.9777L44.3135 15.9922L44.4496 17.2571L44.5837 17.2426L44.4476 15.9777Z" fill="#CE3932"/>
<path d="M43.18 16.1183L43.0459 16.1328L43.182 17.3977L43.3161 17.3832L43.18 16.1183Z" fill="#CE3932"/>
<path d="M40.0667 16.962L39.9326 16.9766L40.0145 17.7371L40.1486 17.7226L40.0667 16.962Z" fill="#CE3932"/>
<path d="M39.3782 16.5324L39.2441 16.5469L39.3803 17.8118L39.5144 17.7972L39.3782 16.5324Z" fill="#CE3932"/>
<path d="M42.6009 16.6886L42.4668 16.7031L42.5486 17.4637L42.6828 17.4492L42.6009 16.6886Z" fill="#CE3932"/>
<path d="M41.9134 16.2511L41.7793 16.2656L41.9154 17.5305L42.0495 17.516L41.9134 16.2511Z" fill="#CE3932"/>
<path d="M37.5316 17.2355L37.3975 17.25L37.4793 18.0105L37.6134 17.996L37.5316 17.2355Z" fill="#CE3932"/>
<path d="M36.8441 16.8058L36.71 16.8203L36.8461 18.0852L36.9802 18.0707L36.8441 16.8058Z" fill="#CE3932"/>
<path d="M33.7298 17.6495L33.5957 17.6641L33.6776 18.4246L33.8117 18.4101L33.7298 17.6495Z" fill="#CE3932"/>
<path d="M33.0423 17.212L32.9082 17.2266L33.0443 18.4914L33.1784 18.4769L33.0423 17.212Z" fill="#CE3932"/>
<path d="M29.9281 18.0636L29.7939 18.0781L29.8758 18.8387L30.0099 18.8242L29.9281 18.0636Z" fill="#CE3932"/>
<path d="M29.2406 17.6261L29.1064 17.6406L29.2426 18.9055L29.3767 18.891L29.2406 17.6261Z" fill="#CE3932"/>
<path d="M34.9974 17.5167L34.8633 17.5312L34.9451 18.2918L35.0792 18.2773L34.9974 17.5167Z" fill="#CE3932"/>
<path d="M34.3089 17.0792L34.1748 17.0938L34.3109 18.3586L34.445 18.3441L34.3089 17.0792Z" fill="#CE3932"/>
<path d="M31.1947 17.923L31.0605 17.9375L31.1424 18.698L31.2765 18.6835L31.1947 17.923Z" fill="#CE3932"/>
<path d="M30.5072 17.4855L30.373 17.5L30.5092 18.7649L30.6433 18.7504L30.5072 17.4855Z" fill="#CE3932"/>
<path d="M27.3929 18.337L27.2588 18.3516L27.3406 19.1121L27.4747 19.0976L27.3929 18.337Z" fill="#CE3932"/>
<path d="M26.7054 17.8995L26.5713 17.9141L26.7074 19.1789L26.8415 19.1644L26.7054 17.8995Z" fill="#CE3932"/>
<path d="M28.6605 18.1964L28.5264 18.2109L28.6082 18.9715L28.7423 18.957L28.6605 18.1964Z" fill="#CE3932"/>
<path d="M27.973 17.7667L27.8389 17.7812L27.975 19.0461L28.1091 19.0316L27.973 17.7667Z" fill="#CE3932"/>
<path d="M43.8685 16.5558L43.7344 16.5703L43.8162 17.3309L43.9503 17.3163L43.8685 16.5558Z" fill="#CE3932"/>
<path d="M41.3333 16.8292L41.1992 16.8438L41.2811 17.6043L41.4152 17.5898L41.3333 16.8292Z" fill="#CE3932"/>
<path d="M40.6458 16.3917L40.5117 16.4062L40.6478 17.6711L40.782 17.6566L40.6458 16.3917Z" fill="#CE3932"/>
<path d="M38.7991 17.1027L38.665 17.1172L38.7469 17.8777L38.881 17.8632L38.7991 17.1027Z" fill="#CE3932"/>
<path d="M38.1116 16.6652L37.9775 16.6797L38.1137 17.9446L38.2478 17.9301L38.1116 16.6652Z" fill="#CE3932"/>
<path d="M36.265 17.3761L36.1309 17.3906L36.2127 18.1512L36.3468 18.1367L36.265 17.3761Z" fill="#CE3932"/>
<path d="M35.5765 16.9386L35.4424 16.9531L35.5785 18.218L35.7126 18.2035L35.5765 16.9386Z" fill="#CE3932"/>
<path d="M32.4622 17.7902L32.3281 17.8047L32.41 18.5652L32.5441 18.5507L32.4622 17.7902Z" fill="#CE3932"/>
<path d="M31.7747 17.3527L31.6406 17.3672L31.7768 18.6321L31.9109 18.6176L31.7747 17.3527Z" fill="#CE3932"/>
<path d="M26.1263 18.4699L25.9922 18.4844L26.074 19.2449L26.2081 19.2304L26.1263 18.4699Z" fill="#CE3932"/>
<path d="M39.7386 17.3125C39.8586 17.3118 39.8276 17.6632 39.8903 17.7535L40.7775 17.6574C40.7361 17.8874 40.5638 18.2432 40.4066 18.4214C40.3139 18.5266 39.7716 18.5174 39.7217 18.3893C39.6253 18.1421 39.6341 17.881 39.6486 17.8188C39.6819 17.6754 39.6091 17.3768 39.7386 17.3128V17.3125Z" fill="#F99370"/>
<path d="M30.6461 18.3157C30.5096 18.3563 30.6896 18.7482 30.6896 18.7482L29.8115 18.8432C30.0024 19.155 30.1191 19.3573 30.4418 19.5531C30.5615 19.6258 31.0184 19.5967 31.0262 19.4591C31.038 19.2457 30.9553 18.8321 30.9358 18.7715C30.9166 18.6474 30.7847 18.2744 30.6465 18.3157H30.6461Z" fill="#F99370"/>
<path d="M20.5093 19.6374H18.7467V10.1184C18.7467 10.0531 18.6938 10 18.6287 10H16.19C16.1508 10 16.1144 10.0193 16.0925 10.0517L9.52057 19.6993C9.50708 19.7189 9.5 19.7423 9.5 19.7659V22.3151C9.5 22.3804 9.55294 22.4335 9.61802 22.4335H15.7V25.3723C15.7 25.4375 15.7529 25.4906 15.818 25.4906H18.6287C18.6938 25.4906 18.7467 25.4375 18.7467 25.3723V22.4335H20.5093C20.5744 22.4335 20.6273 22.3804 20.6273 22.3151V19.7555C20.6273 19.6902 20.5744 19.6371 20.5093 19.6371V19.6374ZM12.5575 19.6374L15.7 14.952V19.6374H12.5575Z" fill="#8A9EDD"/>
<path d="M69.7531 36.6398C68.8386 35.6804 67.7076 35.1937 66.3921 35.1937C65.774 35.1937 65.1603 35.3283 64.5641 35.5945L64.9617 33.3371H70.3392C70.4043 33.3371 70.4572 33.284 70.4572 33.2187V30.4934C70.4572 30.4281 70.4043 30.375 70.3392 30.375H62.6619C62.6052 30.375 62.5564 30.4156 62.5459 30.4714L61.0581 38.378C61.052 38.4098 61.0595 38.4426 61.078 38.4686C61.0966 38.495 61.1252 38.5123 61.1573 38.517L63.5134 38.8589C63.5525 38.8646 63.5919 38.8501 63.6182 38.8207C64.2532 38.1108 64.9779 37.7514 65.7727 37.7514C66.4117 37.7514 66.9152 37.9671 67.3124 38.4115C67.7073 38.8532 67.9072 39.5329 67.9072 40.4311C67.9072 41.3922 67.7046 42.1179 67.3053 42.5873C66.9051 43.0581 66.4306 43.2867 65.8553 43.2867C65.3583 43.2867 64.9128 43.1041 64.5307 42.7436C64.1466 42.3814 63.9119 41.8805 63.8334 41.2552C63.8253 41.1913 63.768 41.1457 63.7042 41.1524L60.8109 41.4531C60.7792 41.4565 60.7499 41.4724 60.7303 41.4977C60.7105 41.5227 60.702 41.5552 60.7061 41.5867C60.8814 42.8819 61.427 43.9282 62.3274 44.6972C63.2267 45.4656 64.4033 45.8552 65.8243 45.8552C67.6054 45.8552 69.0177 45.1626 70.0216 43.7967C70.7567 42.7997 71.1296 41.6499 71.1296 40.379C71.1296 38.8555 70.6667 37.5972 69.7538 36.6391L69.7531 36.6398Z" fill="#8A9EDD"/>
<path d="M57.5856 11.8757H50.2849C50.237 11.8757 50.1982 11.9146 50.1982 11.9626V13.9511C50.1982 13.9991 50.237 14.038 50.2849 14.038H54.961C54.0081 15.2707 53.2321 16.6782 52.6538 18.225C52.0529 19.832 51.7302 21.4309 51.6948 22.9771C51.6941 23.0004 51.7032 23.0231 51.7194 23.04C51.7356 23.0569 51.7582 23.066 51.7815 23.066H53.8401C53.8631 23.066 53.8853 23.0569 53.9015 23.0403C53.9177 23.0238 53.9268 23.0018 53.9268 22.9784C53.9217 22.0055 54.0833 20.8838 54.4063 19.6447C54.7297 18.4056 55.2062 17.2192 55.8226 16.1188C56.4387 15.0187 57.0524 14.1638 57.6463 13.5784C57.6628 13.5622 57.6722 13.5395 57.6722 13.5162V11.9619C57.6722 11.9139 57.6334 11.875 57.5856 11.875V11.8757Z" fill="#F49F9F"/>
<path d="M70.7928 12.1544H70.374V11.8744H70.5136V11.7344H70.7928V12.1544Z" fill="#3E7CC6"/>
<path d="M69.7592 12.155H69.1445V11.875H69.7592V12.155ZM68.5298 12.155H67.915V11.875H68.5298V12.155ZM67.3003 12.155H66.6855V11.875H67.3003V12.155ZM66.0708 12.155H65.4561V11.875H66.0708V12.155Z" fill="#3E7CC6"/>
<path d="M64.8417 12.1544H64.4229V11.7344H64.7021V11.8744H64.8417V12.1544Z" fill="#3E7CC6"/>
<path d="M64.7021 11.1202H64.4229V10.5037H64.7021V11.1202ZM64.7021 9.88719H64.4229V9.27069H64.7021V9.88719ZM64.7021 8.65419H64.4229V8.03769H64.7021V8.65419ZM64.7021 7.42119H64.4229V6.80469H64.7021V7.42119Z" fill="#3E7CC6"/>
<path d="M64.7021 6.18531H64.4229V5.76562H64.8417V6.04564H64.7021V6.18531Z" fill="#3E7CC6"/>
<path d="M69.7592 6.04564H69.1445V5.76562H69.7592V6.04564ZM68.5298 6.04564H67.915V5.76562H68.5298V6.04564ZM67.3003 6.04564H66.6855V5.76562H67.3003V6.04564ZM66.0708 6.04564H65.4561V5.76562H66.0708V6.04564Z" fill="#3E7CC6"/>
<path d="M70.7928 6.18531H70.5136V6.04564H70.374V5.76562H70.7928V6.18531Z" fill="#3E7CC6"/>
<path d="M70.7929 11.1202H70.5137V10.5037H70.7929V11.1202ZM70.7929 9.88719H70.5137V9.27069H70.7929V9.88719ZM70.7929 8.65419H70.5137V8.03769H70.7929V8.65419ZM70.7929 7.42119H70.5137V6.80469H70.7929V7.42119Z" fill="#3E7CC6"/>
<path d="M65.0342 10.3591L65.0106 10.0801C65.2854 10.0568 65.5579 10.0037 65.8202 9.92284L65.9021 10.1903C65.6209 10.2769 65.3289 10.3337 65.0342 10.3588V10.3591ZM64.1507 10.3415C63.8576 10.3046 63.568 10.2363 63.2901 10.1383L63.3828 9.87415C63.6421 9.96545 63.9123 10.0294 64.1857 10.0639L64.151 10.3415H64.1507ZM66.7145 9.84134L66.5779 9.59718C66.8177 9.46224 67.0439 9.30127 67.2507 9.11865L67.4351 9.32866C67.2136 9.52447 66.9711 9.69694 66.7145 9.84168V9.84134ZM62.4916 9.75646C62.2407 9.60157 62.005 9.41963 61.7915 9.21503L61.9844 9.01247C62.1837 9.2032 62.4036 9.3733 62.6376 9.5177L62.4916 9.75612V9.75646ZM68.0327 8.6753L67.8084 8.50892C67.9723 8.28673 68.1129 8.04662 68.2262 7.7957L68.4805 7.91102C68.3591 8.18021 68.2083 8.43722 68.0327 8.67564V8.6753ZM61.2203 8.53868C61.0544 8.29383 60.9141 8.03073 60.8035 7.75714L61.0621 7.65197C61.1653 7.90729 61.2962 8.15247 61.4509 8.38108L61.2203 8.53834V8.53868ZM68.757 7.06827L68.4842 7.00943C68.5415 6.74091 68.5709 6.46428 68.5709 6.18664H68.8501C68.8501 6.48356 68.819 6.78014 68.7573 7.06793L68.757 7.06827ZM60.561 6.90425C60.5206 6.66888 60.5 6.42742 60.5 6.18698C60.5 6.13152 60.501 6.07572 60.5034 6.02026L60.7822 6.03108C60.7802 6.08282 60.7792 6.13524 60.7792 6.18698C60.7792 6.41187 60.7984 6.63709 60.8362 6.85691L60.561 6.90459V6.90425ZM68.5368 5.67125C68.5007 5.39733 68.4356 5.12712 68.3429 4.8674L68.6056 4.77305C68.7051 5.05137 68.7752 5.34119 68.8136 5.63473L68.5368 5.67125ZM60.9013 5.21268L60.6308 5.14302C60.704 4.85658 60.8086 4.57724 60.9407 4.31245L61.1903 4.43791C61.0669 4.68479 60.9694 4.94552 60.9013 5.21268ZM67.9834 4.12341C67.8381 3.88939 67.6671 3.66991 67.4756 3.4714L67.6762 3.27695C67.8813 3.48966 68.0644 3.72469 68.2201 3.97529L67.9834 4.12341ZM61.6364 3.74194L61.4189 3.56676C61.6037 3.33613 61.8131 3.12476 62.0417 2.93809L62.2178 3.1552C62.0043 3.32936 61.8087 3.52686 61.6361 3.74194H61.6364ZM66.843 2.94046C66.614 2.78659 66.3685 2.65672 66.1132 2.55493L66.2164 2.29487C66.4902 2.4041 66.7533 2.5431 66.9988 2.70813L66.8433 2.94046H66.843ZM62.909 2.70373L62.7823 2.45416C63.0453 2.3199 63.3231 2.21337 63.6084 2.13796L63.6796 2.4085C63.4139 2.47884 63.1545 2.57793 62.909 2.70339V2.70373ZM65.3184 2.33309C65.0487 2.28811 64.7688 2.27154 64.495 2.28405L64.4821 2.00438C64.7755 1.99085 65.0753 2.00877 65.3643 2.0568L65.3184 2.33309Z" fill="#3E7CC6"/>
<path d="M38.4062 43.4095C38.4029 43.4853 38.3658 44.2817 38.2242 45.7169C38.1914 46.0514 38.1527 46.421 38.1075 46.8241C37.8775 48.8738 37.4772 51.795 36.7897 55.4521C36.1702 58.7463 35.193 61.6025 33.8849 63.9421C33.4128 64.7858 32.677 65.7777 32.011 66.6093C31.2385 67.5744 29.7975 67.6428 28.937 66.7557C28.9221 66.7405 28.9073 66.7253 28.8925 66.7101C28.1614 65.9566 28.1135 64.7723 28.7809 63.9613C29.3042 63.3252 29.8916 62.5177 30.3287 61.6543C31.0004 60.3263 32.008 58.0679 32.647 54.6685C33.2975 51.2086 33.6806 48.422 33.9031 46.4643C33.9426 46.1166 33.977 45.795 34.007 45.5005C34.156 44.0358 34.1938 43.2404 34.1948 43.2222C34.2474 42.0565 35.2327 41.1532 36.3944 41.2053C37.5568 41.2573 38.4575 42.2438 38.4062 43.4095Z" fill="#3A72AA"/>
<path d="M53.4849 62.4621C52.8641 63.9623 51.9142 65.1865 50.7376 66.0022C49.7344 66.6981 48.6038 67.0637 47.4883 67.0637C47.2343 67.0637 46.9814 67.0448 46.7309 67.0065C45.438 66.809 44.2655 66.0979 43.4292 65.0032C42.6165 63.9396 42.1283 62.5639 41.9775 60.9146C41.6359 57.1747 42.3397 51.2156 42.8947 47.3864C42.9551 46.9704 43.0138 46.5795 43.0691 46.2193C43.2866 44.8044 43.4532 43.8633 43.4761 43.7341C43.6811 42.5849 44.7761 41.82 45.9222 42.0256C47.0681 42.2312 47.8309 43.3296 47.6255 44.4787C47.6208 44.5061 47.5135 45.1128 47.3581 46.0925C47.3062 46.4182 47.2492 46.7855 47.1888 47.1862C46.652 50.7462 45.8501 56.9643 46.1755 60.5287C46.2945 61.8327 46.7616 62.7347 47.3652 62.827C48.0052 62.9247 49.0034 62.2619 49.5915 60.8412C50.0376 59.7631 51.2711 59.2518 52.3461 59.6995C52.5933 59.8023 52.8105 59.9471 52.9933 60.1219C53.605 60.7073 53.8285 61.6319 53.4849 62.4621Z" fill="#3A72AA"/>
<path d="M38.4061 43.4095C38.4027 43.4853 38.3657 44.2817 38.224 45.7169C38.1913 46.0514 38.1525 46.421 38.1074 46.8241C35.933 46.2587 33.9033 46.4643 33.9033 46.4643C33.9428 46.1166 33.9772 45.795 34.0072 45.5005C34.1562 44.0358 34.194 43.2404 34.195 43.2222C34.2476 42.0565 35.2329 41.1532 36.3946 41.2053C37.557 41.2573 38.4577 42.2438 38.4065 43.4095H38.4061Z" fill="#23659B"/>
<path d="M47.6263 44.4787C47.6215 44.5061 47.5143 45.1128 47.3589 46.0925C47.3069 46.4182 47.2499 46.7855 47.1896 47.1862C45.7841 47.3763 44.2912 47.4266 42.8955 47.3864C42.9559 46.9704 43.0145 46.5795 43.0698 46.2193C43.2874 44.8044 43.4539 43.8633 43.4769 43.7341C43.6819 42.5849 44.7768 41.82 45.923 42.0256C47.0689 42.2312 47.8316 43.3296 47.6263 44.4787Z" fill="#23659B"/>
<path d="M55.2927 43.8675C54.4524 44.2588 52.859 45.0004 50.5812 45.5469C50.1114 45.6592 49.6127 45.7637 49.0853 45.8547C48.5215 45.9521 47.9458 46.0315 47.3584 46.0921C45.9893 46.2341 44.5575 46.276 43.0694 46.2189C41.5135 46.1587 39.8962 45.9899 38.224 45.7126C37.9987 45.6751 37.7728 45.6359 37.5459 45.5946C36.2992 45.3677 35.1169 45.3352 34.0068 45.4962C33.877 45.5145 33.7485 45.5361 33.6211 45.5601C32.657 45.7414 31.7495 46.0725 30.9041 46.553C29.5944 47.2977 28.9085 48.1543 28.9024 48.1624C28.4883 48.7177 27.8544 49.0105 27.2127 49.0105C26.7736 49.0105 26.3309 48.8736 25.9522 48.5895C25.0198 47.8905 24.8292 46.5659 25.5263 45.6308C25.6429 45.4746 26.7261 44.0684 28.8256 42.875C29.9232 42.2514 31.1075 41.7931 32.3525 41.5101C32.5056 41.4752 32.6597 41.4428 32.8144 41.4134C34.5534 41.0819 36.3983 41.089 38.2979 41.4347C42.9025 42.2717 46.333 42.0921 48.8327 41.6024C51.0998 41.1587 52.6011 40.4597 53.5173 40.0329C54.5731 39.5415 55.8265 40.0011 56.3168 41.06C56.8071 42.1191 56.3485 43.3758 55.2927 43.8675Z" fill="#3A72AA"/>
<path d="M52.994 60.1236C51.6212 59.3722 50.7859 60.6846 50.4416 61.2907C50.097 61.8967 49.4428 63.4476 47.6596 63.4574C45.8764 63.4672 46.1762 60.5304 46.1762 60.5304C46.2952 61.8345 46.7623 62.7364 47.3659 62.8287C48.0059 62.9264 49.0041 62.2636 49.5922 60.8429C50.0383 59.7648 51.2718 59.2535 52.3469 59.7012C52.594 59.804 52.8112 59.9488 52.994 60.1236Z" fill="#23659B"/>
<path d="M29.6314 52.3727V65.1674C29.6314 66.4758 28.5736 67.5367 27.2689 67.5367H17.9983C16.6936 67.5367 15.6357 66.4758 15.6357 65.1674V52.3727C15.6357 51.0278 16.7229 49.9375 18.064 49.9375H27.2031C28.5442 49.9375 29.6314 51.0278 29.6314 52.3727Z" fill="#8A9EDD"/>
<path d="M29.6308 52.2889V55.6061H15.6348V52.2889C15.6348 50.9903 16.6845 49.9375 17.9794 49.9375H27.2861C28.581 49.9375 29.6308 50.9903 29.6308 52.2889Z" fill="#4867AA"/>
<path d="M26.7956 51.1797H18.4877C17.6056 51.1797 16.8906 51.8968 16.8906 52.7813C16.8906 53.6659 17.6056 54.3829 18.4877 54.3829H26.7956C27.6776 54.3829 28.3926 53.6659 28.3926 52.7813C28.3926 51.8968 27.6776 51.1797 26.7956 51.1797Z" fill="#8A9EDD"/>
<path d="M18.2634 58.2893H17.7788C17.2882 58.2893 16.8906 57.8906 16.8906 57.3986C16.8906 56.9065 17.2882 56.5078 17.7788 56.5078H18.2634C18.7541 56.5078 19.1516 56.9065 19.1516 57.3986C19.1516 57.8906 18.7541 58.2893 18.2634 58.2893Z" fill="#D4E8FF"/>
<path d="M18.2634 60.93H17.7788C17.2882 60.93 16.8906 60.5313 16.8906 60.0392C16.8906 59.5471 17.2882 59.1484 17.7788 59.1484H18.2634C18.7541 59.1484 19.1516 59.5471 19.1516 60.0392C19.1516 60.5313 18.7541 60.93 18.2634 60.93Z" fill="#D4E8FF"/>
<path d="M18.2634 61.7812H17.7788C17.2883 61.7812 16.8906 62.1801 16.8906 62.672C16.8906 63.164 17.2883 63.5628 17.7788 63.5628H18.2634C18.754 63.5628 19.1516 63.164 19.1516 62.672C19.1516 62.1801 18.754 61.7812 18.2634 61.7812Z" fill="#D4E8FF"/>
<path d="M18.2634 64.4219H17.7788C17.2883 64.4219 16.8906 64.8207 16.8906 65.3126C16.8906 65.8046 17.2883 66.2034 17.7788 66.2034H18.2634C18.754 66.2034 19.1516 65.8046 19.1516 65.3126C19.1516 64.8207 18.754 64.4219 18.2634 64.4219Z" fill="#D4E8FF"/>
<path d="M21.3435 58.2893H20.8589C20.3683 58.2893 19.9707 57.8906 19.9707 57.3986C19.9707 56.9065 20.3683 56.5078 20.8589 56.5078H21.3435C21.8341 56.5078 22.2317 56.9065 22.2317 57.3986C22.2317 57.8906 21.8341 58.2893 21.3435 58.2893Z" fill="#D4E8FF"/>
<path d="M21.3435 60.93H20.8589C20.3683 60.93 19.9707 60.5313 19.9707 60.0392C19.9707 59.5471 20.3683 59.1484 20.8589 59.1484H21.3435C21.8341 59.1484 22.2317 59.5471 22.2317 60.0392C22.2317 60.5313 21.8341 60.93 21.3435 60.93Z" fill="#D4E8FF"/>
<path d="M21.3435 61.7812H20.8589C20.3684 61.7812 19.9707 62.1801 19.9707 62.672C19.9707 63.164 20.3684 63.5628 20.8589 63.5628H21.3435C21.834 63.5628 22.2317 63.164 22.2317 62.672C22.2317 62.1801 21.834 61.7812 21.3435 61.7812Z" fill="#D4E8FF"/>
<path d="M21.3435 64.4219H20.8589C20.3684 64.4219 19.9707 64.8207 19.9707 65.3126C19.9707 65.8046 20.3684 66.2034 20.8589 66.2034H21.3435C21.834 66.2034 22.2317 65.8046 22.2317 65.3126C22.2317 64.8207 21.834 64.4219 21.3435 64.4219Z" fill="#D4E8FF"/>
<path d="M24.4245 58.2893H23.94C23.4493 58.2893 23.0518 57.8906 23.0518 57.3986C23.0518 56.9065 23.4493 56.5078 23.94 56.5078H24.4245C24.9152 56.5078 25.3128 56.9065 25.3128 57.3986C25.3128 57.8906 24.9152 58.2893 24.4245 58.2893Z" fill="#D4E8FF"/>
<path d="M24.4245 60.93H23.94C23.4493 60.93 23.0518 60.5313 23.0518 60.0392C23.0518 59.5471 23.4493 59.1484 23.94 59.1484H24.4245C24.9152 59.1484 25.3128 59.5471 25.3128 60.0392C25.3128 60.5313 24.9152 60.93 24.4245 60.93Z" fill="#D4E8FF"/>
<path d="M24.4245 61.7812H23.94C23.4494 61.7812 23.0518 62.1801 23.0518 62.672C23.0518 63.164 23.4494 63.5628 23.94 63.5628H24.4245C24.9151 63.5628 25.3128 63.164 25.3128 62.672C25.3128 62.1801 24.9151 61.7812 24.4245 61.7812Z" fill="#D4E8FF"/>
<path d="M24.4245 64.4219H23.94C23.4494 64.4219 23.0518 64.8207 23.0518 65.3126C23.0518 65.8046 23.4494 66.2034 23.94 66.2034H24.4245C24.9151 66.2034 25.3128 65.8046 25.3128 65.3126C25.3128 64.8207 24.9151 64.4219 24.4245 64.4219Z" fill="#D4E8FF"/>
<path d="M27.5046 58.2893H27.0201C26.5294 58.2893 26.1318 57.8906 26.1318 57.3986C26.1318 56.9065 26.5294 56.5078 27.0201 56.5078H27.5046C27.9953 56.5078 28.3928 56.9065 28.3928 57.3986C28.3928 57.8906 27.9953 58.2893 27.5046 58.2893Z" fill="#EB5648"/>
<path d="M27.5046 60.93H27.0201C26.5294 60.93 26.1318 60.5313 26.1318 60.0392C26.1318 59.5471 26.5294 59.1484 27.0201 59.1484H27.5046C27.9953 59.1484 28.3928 59.5471 28.3928 60.0392C28.3928 60.5313 27.9953 60.93 27.5046 60.93Z" fill="#4867AA"/>
<path d="M27.5046 61.7812H27.0201C26.5295 61.7812 26.1318 62.1801 26.1318 62.672C26.1318 63.164 26.5295 63.5628 27.0201 63.5628H27.5046C27.9952 63.5628 28.3928 63.164 28.3928 62.672C28.3928 62.1801 27.9952 61.7812 27.5046 61.7812Z" fill="#4867AA"/>
<path d="M27.5046 64.4219H27.0201C26.5295 64.4219 26.1318 64.8207 26.1318 65.3126C26.1318 65.8046 26.5295 66.2034 27.0201 66.2034H27.5046C27.9952 66.2034 28.3928 65.8046 28.3928 65.3126C28.3928 64.8207 27.9952 64.4219 27.5046 64.4219Z" fill="#4867AA"/>
<path d="M44.3725 70.1357C43.9045 70.1357 17.1918 70.0998 17.8325 70.1012C15.9961 70.0944 15.9967 66.5564 17.8376 66.5547C18.1758 66.5577 43.2664 66.5861 44.3772 66.5895V66.8364L44.3725 70.1357Z" fill="#FCB4B4"/>
<path d="M19.1824 70.1057C18.9605 70.1084 18.0719 70.1019 17.8332 70.104C16.514 70.1513 15.9832 67.9163 16.8913 67.0157H16.8917C17.352 66.359 18.5221 66.5967 19.1871 66.5592L19.1824 70.1057Z" fill="#EB5648"/>
<path d="M19.9785 67.8556C20.0756 67.6108 44.4065 67.6439 44.5037 67.8867C44.4059 68.1312 20.0766 68.0981 19.9785 67.8556Z" fill="#F49F9F"/>
<path d="M44.373 70.1399C44.3737 69.543 44.3768 67.2319 44.3778 66.5938C45.4953 67.0232 47.906 67.9502 49.0043 68.3726C47.9111 68.7899 45.4848 69.7158 44.3734 70.1399H44.373Z" fill="#FFE7D7"/>
<path d="M47.1261 69.0864C46.9652 68.6383 46.9683 68.0877 47.1281 67.6484L49.004 68.3698L47.1261 69.0864Z" fill="#EB5648"/>
<path d="M44.3768 66.8333L20.1042 66.8878L20.1035 66.5547L44.3774 66.5861L44.3768 66.8333Z" fill="#F9C0C0"/>
<path d="M18.8429 70.1049L17.8332 70.1039C16.5137 70.1512 15.9833 67.9162 16.8914 67.0156H16.8917C16.8917 67.0156 16.8503 69.3237 18.8442 69.319L18.8429 70.1049Z" fill="#CE3932"/>
<path d="M20.1016 70.144C20.1016 70.144 20.1127 69.7389 20.0979 69.2945C20.0631 68.24 19.9893 66.5471 20.0362 66.5109C20.0433 66.1024 19.5132 66.1836 19.5182 66.5928L19.4447 66.5542C19.4525 66.1464 18.8586 66.1958 18.8644 66.606L18.8438 69.3057L18.8428 70.1423C18.8424 70.3161 18.9831 70.4578 19.1571 70.4582C19.3311 70.4582 19.472 70.3175 19.472 70.143C19.472 70.3175 19.613 70.4588 19.7863 70.4592C19.9603 70.4592 20.1013 70.3182 20.1016 70.144Z" fill="#93ABE5"/>
<path d="M20.0995 69.264L20.1032 66.4767C20.0827 66.3225 19.9512 66.2035 19.792 66.2038C19.6224 66.2038 19.4851 66.3381 19.478 66.5061L19.4737 66.4754C19.4531 66.3218 19.3219 66.2031 19.1624 66.2031C18.9888 66.2031 18.8478 66.3438 18.8475 66.5183L18.8438 69.3059C18.8643 69.4595 18.9955 69.5785 19.155 69.5785C19.329 69.5785 19.4703 69.4375 19.47 69.2633L19.4733 69.2352V69.3063C19.4939 69.4605 19.6254 69.5795 19.7846 69.5792C19.9586 69.5792 20.0995 69.4385 20.0999 69.2643L20.0995 69.264Z" fill="#BBCEEA"/>
<path d="M44.3732 70.1387L20.1111 70.1072L20.0986 69.2966L44.3712 69.2422L44.3732 70.1387Z" fill="#F49F9F"/>
<path d="M44.3731 70.1345L44.3711 69.2377C44.3711 69.2377 49.003 68.3675 49.0041 68.3672C47.9108 68.7845 45.4846 69.7104 44.3731 70.1345Z" fill="#EDD5C5"/>
<path d="M47.1265 69.0838C47.088 68.9732 47.0577 68.8572 47.0371 68.7365L49.0041 68.3672L47.1261 69.0838H47.1265Z" fill="#CE3932"/>
</g>
<defs>
<clipPath id="clip0_996_16383">
<rect width="80" height="78" fill="white" transform="translate(0.5)"/>
</clipPath>
</defs>
</svg>
