<svg width="80" height="80" viewBox="0 0 80 80" fill="none" xmlns="http://www.w3.org/2000/svg">
<g clip-path="url(#clip0_1016_2049)">
<path opacity="0.2" d="M36.2565 73.9982C50.8806 73.9982 62.7357 73.2291 62.7357 72.2803C62.7357 71.3316 50.8806 70.5625 36.2565 70.5625C21.6325 70.5625 9.77734 71.3316 9.77734 72.2803C9.77734 73.2291 21.6325 73.9982 36.2565 73.9982Z" fill="#FFF4F5"/>
<path d="M0.780273 46.2295L23.4302 26.2344L37.2628 39.7972C37.2628 39.7972 69.8051 33.7497 79.2188 36.4987L61.4141 60.3789L23.4302 59.8636L0.780273 46.2295Z" fill="#F1C5F9"/>
<g opacity="0.3">
<path d="M0.780273 46.2295L23.4302 26.2344L37.2628 39.7972C37.2628 39.7972 69.8051 33.7497 79.2188 36.4987L61.4141 60.3789L23.4302 59.8636L0.780273 46.2295Z" fill="#FDFDFD"/>
</g>
<path d="M61.4144 60.8207H61.4062L23.4223 60.3054C23.3202 60.304 23.2211 60.2762 23.1375 60.226L0.487587 46.5919C0.364668 46.518 0.285809 46.4012 0.271778 46.2729C0.257746 46.1445 0.309944 46.017 0.414622 45.9247L23.0642 25.9296C23.1636 25.8419 23.3019 25.7939 23.4437 25.797C23.5862 25.8002 23.7207 25.8545 23.8144 25.9467L37.4491 39.3156C40.9315 38.6791 70.3153 33.4365 79.383 36.0847C79.532 36.1282 79.6493 36.2282 79.7012 36.3559C79.7531 36.4836 79.7338 36.6247 79.649 36.7386L61.8443 60.6188C61.7503 60.7449 61.5881 60.8212 61.4141 60.8212L61.4144 60.8207ZM23.5952 59.4279L61.1379 59.9374L78.4229 36.7543C68.4937 34.4941 37.6882 40.1702 37.3711 40.2294C37.1893 40.2632 37.0012 40.2096 36.8792 40.0895L23.4111 26.8839L1.56664 46.1679L23.5952 59.4279Z" fill="#FDFDFD"/>
<path d="M0.780273 46.2344V50.1926L23.4302 62.1223V58.3153L0.780273 46.2344Z" fill="#39A1FF"/>
<g opacity="0.3">
<path d="M21.6411 57.3628C21.6411 58.2758 20.4787 58.8363 19.5737 58.3596L0.780273 48.4609V50.1942L23.4302 62.124V58.3169L21.6411 57.3626V57.3628Z" fill="#FDFDFD"/>
</g>
<path d="M23.4305 62.5567C23.3379 62.5567 23.2455 62.5353 23.1636 62.492L0.513685 50.5621C0.362141 50.4821 0.269531 50.3402 0.269531 50.1871V46.2288C0.269531 46.0692 0.369999 45.9222 0.531927 45.8447C0.694135 45.7669 0.892264 45.771 1.04998 45.855L23.6996 57.9359C23.85 58.0161 23.9415 58.1574 23.9415 58.3097V62.1168C23.9415 62.2759 23.8416 62.4227 23.6802 62.5005C23.6025 62.5379 23.5164 62.5565 23.4305 62.5565V62.5567ZM1.29189 49.9408L22.9194 61.332V58.5546L1.29189 47.0189V49.9408Z" fill="#FDFDFD"/>
<path d="M23.4307 58.3125V62.1196L61.4146 62.4494V58.3125H23.4307Z" fill="#39A1FF"/>
<g opacity="0.3">
<path d="M28.9598 60.5427C27.2325 60.5278 25.7599 59.6092 25.1445 58.3125H23.4307V62.1196L61.4146 62.4494V60.8245L28.9601 60.5427H28.9598Z" fill="#FDFDFD"/>
</g>
<path d="M61.4149 62.8914H61.4098L23.4259 62.5615C23.1456 62.5591 22.9199 62.3628 22.9199 62.1218V58.3147C22.9199 58.0718 23.1486 57.875 23.431 57.875H61.4149C61.6972 57.875 61.9259 58.0718 61.9259 58.3147V62.4516C61.9259 62.569 61.8715 62.6815 61.7744 62.7641C61.6787 62.8457 61.5493 62.8914 61.4149 62.8914ZM23.942 61.6864L60.9038 62.0073V58.7544H23.942V61.6864Z" fill="#FDFDFD"/>
<path d="M79.2188 36.5L61.4141 58.3115V62.4484L79.2188 41.5352V36.5Z" fill="#FF926B"/>
<path d="M79.2188 36.5L61.4141 58.3115V62.4484L79.2188 41.5352V36.5Z" fill="#39A1FF"/>
<g opacity="0.3">
<path d="M61.4141 62.4543L79.2188 41.5411V39.6719L61.4141 60.5851V62.4543Z" fill="#FDFDFD"/>
</g>
<path d="M61.4144 62.8909C61.3613 62.8909 61.3077 62.8839 61.2555 62.8691C61.0453 62.81 60.9033 62.6414 60.9033 62.4511V58.3142C60.9033 58.2237 60.9356 58.1355 60.9962 58.0614L78.8009 36.2496C78.9289 36.0927 79.1604 36.0251 79.3734 36.083C79.5859 36.141 79.7304 36.3105 79.7304 36.5025V41.5377C79.7304 41.6311 79.6959 41.7221 79.6316 41.7975L61.8269 62.7107C61.7287 62.8261 61.5743 62.8906 61.4146 62.8906L61.4144 62.8909ZM61.9257 58.4533V61.1066L78.708 41.394V37.8941L61.9257 58.4533Z" fill="#FDFDFD"/>
<path d="M23.4301 58.3107L37.6441 39.1894C37.6441 39.1894 38.4414 27.9696 21.9391 24.7578L1.78125 46.1383C1.78125 46.1383 14.3041 47.0544 23.4301 58.3109V58.3107Z" fill="#F1C5F9"/>
<g opacity="0.3">
<path d="M23.4301 58.3107L37.6441 39.1894C37.6441 39.1894 38.4414 27.9696 21.9391 24.7578L1.78125 46.1383C1.78125 46.1383 14.3041 47.0544 23.4301 58.3109V58.3107Z" fill="#FDFDFD"/>
</g>
<path d="M23.4304 58.7527C23.2634 58.7527 23.1068 58.6825 23.0111 58.5646C18.3767 52.8482 12.8436 49.8945 9.01772 48.4235C4.86541 46.8269 1.76859 46.5811 1.73772 46.5786C1.54913 46.5646 1.38496 46.4622 1.31115 46.3123C1.23734 46.1623 1.26541 45.9897 1.3844 45.8634L21.5423 24.4832C21.6649 24.3532 21.8619 24.2941 22.0519 24.3313C30.7716 26.0283 34.6876 29.973 36.437 32.9837C38.34 36.2583 38.1627 39.0993 38.1543 39.2188C38.1489 39.2934 38.1217 39.3658 38.0748 39.4289L23.8609 58.5504C23.7688 58.674 23.6111 58.7501 23.4405 58.753C23.4371 58.753 23.4337 58.753 23.4304 58.753V58.7527ZM2.74913 45.8122C4.00021 45.9957 6.41705 46.4642 9.39152 47.6034C13.2267 49.0726 18.7193 51.9785 23.4076 57.527L37.1378 39.0563C37.1476 38.5197 37.0963 36.0613 35.5 33.3372C33.1289 29.2911 28.6334 26.5709 22.1352 25.2501L2.74913 45.8122Z" fill="#FDFDFD"/>
<path d="M23.4301 58.3107L37.6441 39.1894C37.6441 39.1894 38.4414 27.9696 21.9391 24.7578L1.22754 44.0491C1.22754 44.0491 17.7969 44.4156 23.4301 58.3107Z" fill="#F1C5F9"/>
<g opacity="0.3">
<path d="M23.8177 58.3107L37.6452 39.1894C37.6452 39.1894 38.4206 27.9696 22.3673 24.7578L2.21875 44.0491C2.21875 44.0491 18.3377 44.4156 23.8177 58.3107Z" fill="#FDFDFD"/>
</g>
<path d="M23.4305 58.7528C23.4106 58.7528 23.3909 58.7518 23.3707 58.7499C23.1765 58.7301 23.0121 58.6168 22.9475 58.458C20.6646 52.8266 16.3242 48.7657 10.047 46.3877C5.34349 44.6059 1.25517 44.4919 1.21448 44.4909C1.0141 44.4861 0.835057 44.3811 0.75704 44.2222C0.679023 44.0633 0.716348 43.8798 0.852456 43.753L21.564 24.4617C21.688 24.3463 21.8741 24.2966 22.0523 24.3311C30.772 26.0282 34.688 29.9729 36.4375 32.9835C38.3405 36.2582 38.1631 39.0991 38.1547 39.2186C38.1494 39.2932 38.1221 39.3657 38.0753 39.4287L23.8613 58.5502C23.7667 58.6775 23.6037 58.753 23.4308 58.753L23.4305 58.7528ZM2.31991 43.6822C3.88249 43.8269 6.9622 44.263 10.4222 45.5684C14.7619 47.2058 20.4785 50.5659 23.5537 57.331L37.1382 39.0563C37.148 38.5198 37.0967 36.0614 35.5004 33.3373C33.1268 29.2866 28.624 26.5652 22.1138 25.2458L2.31991 43.6822Z" fill="#FDFDFD"/>
<path d="M23.431 58.3107L37.6449 39.1894C37.6449 39.1894 38.4422 27.9696 21.9399 24.7578L2.21875 42.2441C2.21875 42.2441 20.4812 41.7768 23.431 58.3107Z" fill="#F1C5F9"/>
<g opacity="0.3">
<path d="M24.1165 58.3107L37.6446 39.1894C37.6446 39.1894 38.4031 27.9696 22.6973 24.7578L3.92773 42.2441C3.92773 42.2441 21.3093 41.7768 24.1165 58.3107Z" fill="#FDFDFD"/>
</g>
<path d="M23.4305 58.7526C23.3954 58.7526 23.3601 58.7495 23.3247 58.743C23.1165 58.705 22.9573 58.5604 22.9251 58.3795C21.7318 51.6912 17.9017 47.019 11.5405 44.4932C6.76853 42.5981 2.27722 42.6843 2.23288 42.686C2.02156 42.6903 1.83409 42.587 1.75046 42.4235C1.66655 42.2598 1.7064 42.0685 1.85121 41.9401L21.5724 24.4538C21.6964 24.3437 21.8783 24.2974 22.052 24.3312C30.7717 26.0282 34.6877 29.9729 36.4372 32.9836C38.3402 36.2582 38.1628 39.0992 38.1544 39.2187C38.149 39.2933 38.1218 39.3657 38.075 39.4288L23.861 58.5503C23.7659 58.6782 23.6022 58.7531 23.4305 58.7531V58.7526ZM3.39555 41.8338C5.09902 41.9246 8.4066 42.2866 11.9317 43.6796C14.8694 44.8406 17.3387 46.4798 19.2706 48.5521C21.4422 50.8811 22.9315 53.7611 23.7072 57.1249L37.1382 39.0567C37.148 38.5201 37.0967 36.0617 35.5004 33.3376C33.1257 29.2852 28.6203 26.5631 22.1056 25.2444L3.39555 41.8338Z" fill="#FDFDFD"/>
<path d="M39.0184 38.0086L23.4307 58.3119C30.1499 54.972 41.2031 52.4144 59.6255 56.2914L77.1875 36.4977C77.1875 36.4977 56.8741 26.7622 39.0184 38.0083V38.0086Z" fill="#F1C5F9"/>
<g opacity="0.3">
<path d="M39.0184 38.0083L23.4307 58.3116C30.0099 55.0413 40.3385 51.6593 58.061 55.1597C58.7654 55.2987 59.5003 55.0793 59.9583 54.5982L77.1875 36.4977C77.1875 36.4977 56.8741 26.7622 39.0184 38.0083Z" fill="#FDFDFD"/>
</g>
<path d="M23.4303 58.7537C23.2928 58.7537 23.1573 58.7061 23.0579 58.6153C22.8954 58.4668 22.873 58.2418 23.0035 58.0715L38.5912 37.768C38.6246 37.7246 38.6669 37.6864 38.7158 37.6555C42.8524 35.0503 47.4652 33.3481 52.426 32.5969C56.3891 31.9966 60.5796 31.999 64.8807 32.6039C72.1952 33.6326 77.225 36.0147 77.4355 36.1156C77.5652 36.1777 77.6569 36.2854 77.6872 36.4102C77.7175 36.5353 77.683 36.6652 77.5932 36.7669L60.0313 56.5604C59.9081 56.6995 59.7007 56.7623 59.5037 56.7207C44.6577 53.5966 32.6069 54.2604 23.6857 58.6948C23.6057 58.7346 23.5176 58.7537 23.4303 58.7537ZM39.3935 38.3191L24.9688 57.1076C33.8473 53.3375 45.423 52.8965 59.4212 55.7986L76.4109 36.6498C74.937 36.0195 70.501 34.2812 64.6814 33.4672C58.1347 32.5515 48.4421 32.6522 39.3935 38.3191Z" fill="#FDFDFD"/>
<path d="M39.0178 38.0129L24.2188 57.2892C27.6366 53.4585 40.2229 50.1464 58.6453 54.0235L75.6833 34.7453C75.6833 34.7453 56.8736 26.7668 39.0178 38.0129Z" fill="#F1C5F9"/>
<g opacity="0.3">
<path d="M38.4609 37.2175L27.7518 51.1664C26.9478 52.2137 28.1764 53.5261 29.5403 53.0811C35.45 51.1522 45.0413 50.3947 57.2995 52.8386C57.8737 52.9531 58.4731 52.7669 58.8301 52.3632L74.1023 35.0829C74.0698 34.2549 73.8189 33.6075 73.4361 33.0946C68.9072 27.0293 42.6898 35.5098 39.0806 36.6986C38.874 36.8715 38.6677 37.0444 38.4612 37.2173L38.4609 37.2175Z" fill="#FDFDFD"/>
</g>
<path d="M24.2189 57.7232C24.1162 57.7232 24.0124 57.6967 23.9226 57.6416C23.6983 57.5042 23.6411 57.2388 23.7926 57.0411L38.5917 37.7648C38.6251 37.7213 38.6675 37.6831 38.7163 37.6522C42.8459 35.0513 47.3714 33.2584 52.1672 32.3232C56.0024 31.5753 60.0164 31.3723 64.0971 31.7185C71.044 32.3084 75.7143 34.2624 75.9097 34.3453C76.0466 34.4035 76.1462 34.5112 76.1813 34.6389C76.2164 34.7666 76.183 34.9014 76.0907 35.0059L59.0527 54.2839C58.9297 54.4233 58.7221 54.4865 58.5245 54.445C39.4319 50.4271 27.5986 54.218 24.6247 57.551C24.5242 57.6636 24.3727 57.723 24.2189 57.723V57.7232ZM39.3941 38.3156L26.6273 54.9446C28.9016 53.7558 32.0388 52.8416 35.7236 52.3258C40.3434 51.6796 48.0191 51.3689 58.4412 53.5226L74.8873 34.9142C73.442 34.3837 69.3663 33.0449 63.9573 32.5902C57.7466 32.0682 48.4505 32.6398 39.3938 38.3153L39.3941 38.3156Z" fill="#FDFDFD"/>
<path d="M39.0182 38.0089L24.4717 56.8515C27.8896 53.0208 39.6056 47.7967 58.0283 51.6741L74.6189 32.9457C74.6189 32.9457 56.8743 26.763 39.0182 38.0091V38.0089Z" fill="#F1C5F9"/>
<path d="M24.4718 57.2932C24.3688 57.2932 24.265 57.2666 24.1749 57.2113C23.9507 57.0735 23.894 56.8076 24.0464 56.6101L38.5929 37.7675C38.6263 37.7242 38.6681 37.6866 38.7167 37.6559C48.0565 31.7734 57.3644 30.694 63.5272 30.8222C70.2117 30.9625 74.6264 32.4756 74.811 32.5398C74.9586 32.5913 75.07 32.699 75.1121 32.8313C75.1542 32.9636 75.1222 33.1051 75.0257 33.214L58.435 51.9424C58.3118 52.0815 58.1044 52.1448 57.9072 52.103C49.8919 50.4163 42.2319 50.311 35.7554 51.799C28.6014 53.4427 25.6207 56.2882 24.8776 57.121C24.7771 57.2335 24.6256 57.293 24.4718 57.293V57.2932ZM39.3938 38.3197L27.2044 54.1091C32.7655 50.7959 43.3968 48.2162 57.8244 51.181L73.7889 33.1592C72.3411 32.7431 68.5374 31.8024 63.459 31.7007C57.4806 31.5783 48.4609 32.6338 39.3938 38.3197Z" fill="#FDFDFD"/>
<path d="M39.0182 38.0089L24.4717 56.8515C27.8896 53.0208 39.6056 47.7967 58.0283 51.6741L74.6189 32.9457C74.6189 32.9457 56.8743 26.763 39.0182 38.0091V38.0089Z" fill="#F1C5F9"/>
<path d="M24.4718 57.2932C24.3688 57.2932 24.265 57.2666 24.1749 57.2113C23.9507 57.0735 23.894 56.8076 24.0464 56.6101L38.5929 37.7675C38.6263 37.7242 38.6681 37.6866 38.7167 37.6559C48.0565 31.7734 57.3644 30.694 63.5272 30.8222C70.2117 30.9625 74.6264 32.4756 74.811 32.5398C74.9586 32.5913 75.07 32.699 75.1121 32.8313C75.1542 32.9636 75.1222 33.1051 75.0257 33.214L58.435 51.9424C58.3118 52.0815 58.1044 52.1448 57.9072 52.103C49.8919 50.4163 42.2319 50.311 35.7554 51.799C28.6014 53.4427 25.6207 56.2882 24.8776 57.121C24.7771 57.2335 24.6256 57.293 24.4718 57.293V57.2932ZM39.3938 38.3197L27.2044 54.1091C32.7655 50.7959 43.3968 48.2162 57.8244 51.181L73.7889 33.1592C72.3411 32.7431 68.5374 31.8024 63.459 31.7007C57.4806 31.5783 48.4609 32.6338 39.3938 38.3197Z" fill="#FDFDFD"/>
<g opacity="0.3">
<path d="M38.0479 37.4856L23.7051 54.8685C26.036 54.069 28.3673 53.2697 30.6983 52.4702C33.0797 51.4198 36.0913 50.3972 39.6705 49.8106C44.5993 49.0029 48.7446 49.3267 50.2126 49.5359C52.6665 49.8853 54.4457 50.1386 55.282 50.3291C55.3188 50.3375 55.421 50.361 55.5638 50.3757C56.376 50.4588 57.0986 50.1103 57.6256 49.7539L73.1499 32.8143C73.1499 32.8143 55.6536 27.1105 38.0479 37.4856Z" fill="#FDFDFD"/>
</g>
<path d="M39.0182 38.008L24.4717 56.8506C27.8896 53.0198 37.3605 45.2669 55.7829 49.1442L72.2335 30.7737C72.2335 30.7737 56.874 26.7619 39.0182 38.008Z" fill="#F1C5F9"/>
<path d="M24.4718 57.2935C24.3688 57.2935 24.265 57.2669 24.1749 57.2116C23.9507 57.0738 23.894 56.8079 24.0464 56.6104L38.5929 37.7678C38.6263 37.7246 38.6681 37.6869 38.7167 37.6562C48.0374 31.7858 56.6768 30.1102 62.2828 29.7381C68.3808 29.3341 72.2219 30.314 72.3824 30.356C72.5432 30.398 72.6695 30.5052 72.7208 30.6429C72.7719 30.7805 72.7413 30.931 72.6389 31.0454L56.1883 49.4159C56.0648 49.5538 55.8579 49.6159 55.6621 49.5746C37.3862 45.7284 28.0454 53.5712 24.8776 57.1216C24.7771 57.2341 24.6256 57.2935 24.4718 57.2935ZM39.3938 38.32L28.0219 53.0503C29.6981 51.8476 31.7726 50.6636 34.2949 49.7076C40.4423 47.3774 47.6025 47.0227 55.581 48.6529L71.3511 31.0423C69.97 30.7834 66.7245 30.3205 62.3089 30.6187C56.8623 30.9867 48.4713 32.6225 39.3941 38.32H39.3938Z" fill="#FDFDFD"/>
<path d="M24.4712 56.8504L39.0177 38.0078C39.0177 38.0078 38.9447 23.737 22.7113 23.0234L3.87891 39.7708C3.87891 39.7708 21.6469 38.1684 24.4712 56.8506V56.8504Z" fill="#F1C5F9"/>
<path d="M24.4718 57.2927C24.4334 57.2927 24.3947 57.289 24.3559 57.2813C24.1483 57.2398 23.9925 57.0915 23.9647 56.9097C22.82 49.3383 19.1111 44.2285 12.9405 41.7223C8.32569 39.8477 3.97554 40.2068 3.93204 40.2106C3.71819 40.2283 3.51361 40.1314 3.4196 39.9653C3.32586 39.7992 3.36235 39.6002 3.51192 39.4674L22.344 22.7203C22.4465 22.629 22.589 22.5778 22.7375 22.587C31.3735 22.9666 35.4846 27.1513 37.4126 30.5952C39.4862 34.2989 39.5283 37.8589 39.5288 38.0087C39.5294 38.0958 39.4996 38.1813 39.4435 38.254L24.897 57.0966C24.801 57.2212 24.6399 57.2929 24.4713 57.2929L24.4718 57.2927ZM5.12587 39.2974C6.82681 39.3126 9.98144 39.5563 13.3336 40.909C16.1978 42.0647 18.6015 43.7931 20.4781 46.0463C22.6014 48.5958 24.047 51.824 24.7831 55.6548L38.5031 37.8828C38.4742 37.2173 38.246 34.0937 36.4769 30.9497C33.8751 26.3255 29.3137 23.8117 22.9165 23.4766L5.12587 39.2974Z" fill="#FDFDFD"/>
<g opacity="0.3">
<path d="M41.5179 46.8924C39.1934 47.2497 37.3159 45.7811 37.0914 44.0442C37.8048 43.8472 38.5521 43.6803 39.2815 43.5844C40.1607 43.4688 40.9513 43.029 41.3635 42.351C41.5395 42.0617 41.6318 41.7567 41.5221 41.4858C41.3158 40.9758 39.7227 40.9896 38.1093 41.3798L41.9739 36.2724C40.9976 36.8073 40.0117 37.3834 39.0177 38.0095C39.0177 38.0095 39.0107 36.8225 38.6133 35.1172L33.9129 41.3105C33.2829 40.8427 32.5131 40.4182 31.768 40.3861C31.342 40.3678 30.9587 40.4687 30.6345 40.6426C29.4797 41.2629 29.5128 42.7163 30.6424 43.3707C30.9312 43.5381 31.2696 43.7617 31.6226 44.0522C28.5646 46.6758 23.4696 46.7323 20.2942 43.9447C16.0961 40.2596 9.94824 38.7719 5.67891 38.1713L3.87891 39.7721C3.87891 39.7721 21.6469 38.1696 24.4712 56.8519C27.8891 53.0212 37.36 45.2682 55.7824 49.1455L56.8662 47.9353C51.572 46.082 46.0266 46.1986 41.5179 46.8921V46.8924Z" fill="#FDFDFD"/>
</g>
</g>
<defs>
<clipPath id="clip0_1016_2049">
<rect width="79.4606" height="67.9999" fill="white" transform="translate(0.269531 6)"/>
</clipPath>
</defs>
</svg>
