<svg width="99" height="59" viewBox="0 0 99 59" fill="none" xmlns="http://www.w3.org/2000/svg">
<g opacity="0.1">
<path d="M51.6009 9.94996L10.4202 34.2208L2.45996 29.5595L43.6403 5.28906L51.6009 9.94996Z" fill="black"/>
</g>
<g opacity="0.1">
<path d="M66.8006 18.1225C75.5562 23.2492 71.2527 27.4559 65.8623 30.6328L63.2779 32.156L55.2508 27.4559L58.7647 25.3849C61.0318 24.0486 61.693 23.0877 60.0292 22.1135C58.3881 21.1527 56.7731 21.4794 54.4416 22.8534L32.6636 35.6888C30.468 36.9828 29.337 38.0845 31.1359 39.1381C32.858 40.1463 34.6312 39.7035 37.2543 38.1577L40.6757 36.1412L48.743 40.8649L46.5125 42.1796C41.3176 45.2414 33.7217 48.5859 24.2182 43.0216C17.2006 38.9124 17.8659 34.9378 25.4363 30.4762L45.6291 18.5752C52.7897 14.3551 60.1599 14.2348 66.8006 18.1228V18.1225Z" fill="black"/>
</g>
<g opacity="0.1">
<path d="M98.5002 37.4091L91.4965 41.5365L85.4195 37.9784L51.2425 58.1214L43.2822 53.4605L77.4592 33.3175L71.4245 29.784L78.4279 25.6562L98.5002 37.4091Z" fill="black"/>
</g>
<path d="M49.7601 5.46875L49.7507 8.8782L8.57031 33.149L8.5798 29.7395L49.7601 5.46875Z" fill="#E6E6E5"/>
<path d="M8.58046 29.739L8.57097 33.1485L0.610352 28.4872L0.619836 25.0781L8.58046 29.739Z" fill="#F0F0F0"/>
<path d="M49.7611 5.46558L8.58074 29.7364L0.620117 25.0755L41.8008 0.804688L49.7611 5.46558Z" fill="#F7C1C7"/>
<path d="M59.1189 18.758L59.1094 22.1675C59.1104 21.7786 58.8141 21.4097 58.1803 21.0387C56.5392 20.0778 54.9242 20.4045 52.5928 21.7786L52.6023 18.3692C54.934 16.9951 56.5487 16.6681 58.1898 17.6292C58.8235 18.0002 59.1199 18.3695 59.1189 18.758Z" fill="#E6E6E5"/>
<path d="M69.9704 19.5312L69.9609 22.9407C69.9538 25.4852 67.1699 27.6988 64.0137 29.559L64.0231 26.1495C67.1797 24.289 69.9633 22.0757 69.9704 19.5312Z" fill="#E6E6E5"/>
<path d="M61.4388 27.6691L61.4294 31.0783L53.4023 26.3782L53.4118 22.9688L61.4388 27.6691Z" fill="#F0F0F0"/>
<path d="M64.0236 26.1484L64.0141 29.5579L61.4297 31.0811L61.4392 27.672L64.0236 26.1484Z" fill="#E6E6E5"/>
<path d="M52.603 18.3672L52.5935 21.7766L30.8154 34.612L30.8249 31.2025L52.603 18.3672Z" fill="#E6E6E5"/>
<path d="M28.3955 36.9465L28.405 33.537C28.407 32.8146 29.388 32.0499 30.8248 31.2031L30.8153 34.6126C29.3785 35.4594 28.3975 36.224 28.3955 36.9465Z" fill="#E6E6E5"/>
<path d="M46.904 36.3828L46.8945 39.7919L44.6641 41.1066L44.6735 37.6971L46.904 36.3828Z" fill="#F0F0F0"/>
<path d="M17.4857 36.1985L17.4952 32.7891C17.4898 34.7193 19.0912 36.6152 22.3795 38.5406C31.8827 44.105 39.4785 40.7605 44.6735 37.6987L44.664 41.1081C39.469 44.1699 31.8732 47.5144 22.3697 41.9501C19.0814 40.0246 17.4799 38.1288 17.4854 36.1985H17.4857Z" fill="#F0F0F0"/>
<path d="M64.9614 13.6381C73.717 18.7648 69.4135 22.9716 64.0231 26.1485L61.4387 27.6716L53.4116 22.9716L56.9255 20.9005C59.1926 19.5642 59.8538 18.6034 58.19 17.6291C56.5489 16.6683 54.9339 16.995 52.6024 18.3691L30.8244 31.2044C28.6288 32.4984 27.4978 33.6001 29.2967 34.6537C31.0188 35.6619 32.792 35.2191 35.4151 33.6733L38.8365 31.6568L46.9038 36.3806L44.6733 37.6952C39.4784 40.757 31.8825 44.1016 22.3794 38.5372C15.3618 34.428 16.027 30.4535 23.5974 25.9918L43.7903 14.0909C50.9508 9.87071 58.3211 9.75047 64.9617 13.6384L64.9614 13.6381Z" fill="#F7C1C7"/>
<path d="M75.6216 28.8303L75.6121 32.2398L69.5771 28.7063L69.587 25.2969L75.6216 28.8303Z" fill="#F0F0F0"/>
<path d="M89.6587 37.0504L89.6493 40.4595L83.5723 36.9013L83.5818 33.4922L89.6587 37.0504Z" fill="#F0F0F0"/>
<path d="M96.6623 32.9219L96.6528 36.3313L89.6494 40.4587L89.6589 37.0496L96.6623 32.9219Z" fill="#E6E6E5"/>
<path d="M49.4047 53.6378L49.3952 57.0469L41.4346 52.386L41.4444 48.9766L49.4047 53.6378Z" fill="#F0F0F0"/>
<path d="M83.581 33.4922L83.5715 36.9013L49.3945 57.0443L49.404 53.6352L83.581 33.4922Z" fill="#E6E6E5"/>
<path d="M96.6619 32.9248L89.6586 37.0525L83.5816 33.4943L49.4046 53.6374L41.4443 48.9761L75.6213 28.8331L69.5866 25.2996L76.59 21.1719L96.6619 32.9248Z" fill="#F7C1C7"/>
</svg>
