<svg width="1920" height="2221" viewBox="0 0 1920 2221" fill="none" xmlns="http://www.w3.org/2000/svg">
<g clip-path="url(#clip0_1291_2944)">
<rect width="1920" height="2221" fill="#FDFDFD"/>
<g opacity="0.25" clip-path="url(#clip1_1291_2944)">
<path d="M1873.06 409.944L1871.64 395.836L1862.78 406.906L1867.39 406.127L1866.22 410.085L1868.44 410.743L1869.61 406.785L1873.06 409.944Z" fill="#FDFDFD" stroke="#510A5E" stroke-linecap="round" stroke-linejoin="round"/>
<path d="M1759.82 442.853L1753.66 431.522C1753.23 430.72 1753.46 429.613 1754.19 429.052L1761.42 423.486C1762.15 422.924 1763.1 423.119 1763.53 423.918L1769.7 435.249C1770.13 436.051 1769.89 437.158 1769.16 437.72L1761.94 443.285C1761.21 443.847 1760.26 443.652 1759.82 442.853Z" fill="#FDFDFD" stroke="#510A5E" stroke-linecap="round" stroke-linejoin="round"/>
<path d="M1759.82 442.853C1760.26 443.656 1761.26 443.952 1762.07 443.515L1770.99 438.664C1771.75 438.247 1772.05 437.313 1771.7 436.532L1772.41 435.687C1772.54 435.529 1772.57 435.306 1772.47 435.123L1770.45 431.418C1770.35 431.236 1770.15 431.133 1769.95 431.16L1768.86 431.299L1765.49 425.095C1765.14 424.456 1764.43 424.14 1763.75 424.254" fill="#FDFDFD"/>
<path d="M1759.82 442.853C1760.26 443.656 1761.26 443.952 1762.07 443.515L1770.99 438.664C1771.75 438.247 1772.05 437.313 1771.7 436.532L1772.41 435.687C1772.54 435.529 1772.57 435.306 1772.47 435.123L1770.45 431.418C1770.35 431.236 1770.15 431.133 1769.95 431.16L1768.86 431.299L1765.49 425.095C1765.14 424.456 1764.43 424.14 1763.75 424.254" stroke="#510A5E" stroke-linecap="round" stroke-linejoin="round"/>
<path d="M1736.65 400.236L1730.48 388.905C1730.05 388.103 1730.29 386.996 1731.02 386.434L1738.24 380.868C1738.97 380.307 1739.92 380.502 1740.35 381.301L1746.52 392.632C1746.95 393.434 1746.71 394.541 1745.98 395.102L1738.76 400.668C1738.03 401.23 1737.08 401.035 1736.65 400.236Z" fill="#FDFDFD" stroke="#510A5E" stroke-linecap="round" stroke-linejoin="round"/>
<path d="M1736.64 400.236C1737.08 401.039 1738.08 401.335 1738.89 400.898L1747.81 396.046C1748.57 395.629 1748.87 394.696 1748.52 393.915L1749.23 393.07C1749.36 392.912 1749.39 392.689 1749.29 392.506L1747.27 388.801C1747.17 388.618 1746.97 388.516 1746.77 388.543L1745.68 388.681L1742.31 382.478C1741.96 381.838 1741.25 381.522 1740.57 381.637" fill="#FDFDFD"/>
<path d="M1736.64 400.236C1737.08 401.039 1738.08 401.335 1738.89 400.898L1747.81 396.046C1748.57 395.629 1748.87 394.696 1748.52 393.915L1749.23 393.07C1749.36 392.912 1749.39 392.689 1749.29 392.506L1747.27 388.801C1747.17 388.618 1746.97 388.516 1746.77 388.543L1745.68 388.681L1742.31 382.478C1741.96 381.838 1741.25 381.522 1740.57 381.637" stroke="#510A5E" stroke-linecap="round" stroke-linejoin="round"/>
<path d="M1748.23 421.549L1742.07 410.218C1741.63 409.415 1741.87 408.309 1742.6 407.747L1749.83 402.181C1750.56 401.619 1751.51 401.814 1751.94 402.613L1758.1 413.944C1758.54 414.747 1758.3 415.853 1757.57 416.415L1750.34 421.981C1749.61 422.543 1748.67 422.348 1748.23 421.549Z" fill="#FDFDFD" stroke="#510A5E" stroke-linecap="round" stroke-linejoin="round"/>
<path d="M1748.23 421.549C1748.67 422.351 1749.67 422.647 1750.47 422.211L1759.39 417.359C1760.16 416.942 1760.46 416.008 1760.1 415.228L1760.82 414.382C1760.95 414.225 1760.97 414.001 1760.88 413.819L1758.86 410.114C1758.76 409.931 1758.56 409.828 1758.36 409.855L1757.27 409.994L1753.9 403.79C1753.55 403.151 1752.84 402.835 1752.16 402.95" fill="#FDFDFD"/>
<path d="M1748.23 421.549C1748.67 422.351 1749.67 422.647 1750.47 422.211L1759.39 417.359C1760.16 416.942 1760.46 416.008 1760.1 415.228L1760.82 414.382C1760.95 414.225 1760.97 414.001 1760.88 413.819L1758.86 410.114C1758.76 409.931 1758.56 409.828 1758.36 409.855L1757.27 409.994L1753.9 403.79C1753.55 403.151 1752.84 402.835 1752.16 402.95" stroke="#510A5E" stroke-linecap="round" stroke-linejoin="round"/>
<path d="M1839.91 379.762L1845.37 380.769C1846.62 380.999 1847.9 380.652 1848.87 379.825L1860.8 369.559C1861.72 368.77 1861.96 367.451 1861.38 366.391L1858.31 360.745C1858.09 360.343 1857.81 359.981 1857.47 359.67L1805.39 317.21L1741.04 370.149C1739.18 373.675 1787.75 418.029 1787.75 418.029C1789.34 419.505 1791.79 419.53 1793.4 418.082L1834.37 381.32C1835.87 379.969 1837.92 379.393 1839.91 379.762Z" fill="#FDFDFD" stroke="#510A5E" stroke-linecap="round" stroke-linejoin="round"/>
<path opacity="0.3" d="M1855.36 360.607L1855.74 360.268C1851.01 356.67 1806.46 322.752 1805.63 321.767C1804.75 320.729 1746.12 370.642 1746.12 370.642M1855.36 360.607L1855.28 360.549L1853.71 359.349C1852.35 358.314 1850.4 356.835 1848.07 355.056C1843.4 351.499 1837.17 346.745 1830.91 341.959C1824.65 337.173 1818.37 332.353 1813.59 328.666C1811.2 326.822 1809.19 325.26 1807.74 324.126C1807.02 323.56 1806.44 323.099 1806.03 322.762C1805.82 322.595 1805.65 322.456 1805.53 322.35C1805.51 322.34 1805.5 322.33 1805.49 322.32M1855.36 360.607L1791.45 417.499M1855.36 360.607L1855.7 360.865L1791.45 417.499M1805.49 322.32C1805.53 322.299 1805.56 322.282 1805.59 322.268C1805.63 322.249 1805.65 322.244 1805.65 322.244C1805.65 322.244 1805.65 322.244 1805.64 322.245C1805.63 322.247 1805.59 322.255 1805.53 322.247C1805.46 322.237 1805.34 322.203 1805.25 322.09L1805.63 321.767L1805.25 322.09C1805.3 322.153 1805.39 322.236 1805.49 322.32ZM1805.49 322.32C1805.39 322.374 1805.25 322.455 1805.08 322.564C1804.62 322.863 1803.96 323.338 1803.12 323.969C1801.44 325.229 1799.08 327.089 1796.27 329.355C1790.65 333.885 1783.25 340.025 1775.86 346.199C1768.48 352.372 1761.12 358.578 1755.61 363.241C1752.86 365.573 1750.57 367.518 1748.96 368.881C1748.16 369.562 1747.53 370.098 1747.1 370.463L1746.61 370.88L1746.48 370.987L1746.45 371.014L1746.44 371.021L1746.44 371.022C1746.44 371.023 1746.44 371.023 1746.12 370.642M1746.12 370.642L1746.44 371.023L1746.32 371.122L1746.17 371.139C1745.97 371.161 1745.88 371.211 1745.84 371.245C1745.81 371.272 1745.78 371.311 1745.76 371.401C1745.73 371.628 1745.82 372.054 1746.15 372.722C1746.79 374.023 1748.17 375.878 1750.11 378.125C1753.95 382.602 1759.86 388.5 1766.04 394.382C1772.22 400.261 1778.65 406.112 1783.54 410.495C1785.99 412.686 1788.05 414.51 1789.5 415.785C1790.22 416.423 1790.79 416.924 1791.18 417.265C1791.28 417.354 1791.37 417.432 1791.45 417.499M1746.12 370.642L1791.45 417.499" fill="#FDFDFD" stroke="#510A5E"/>
<path d="M1791.22 414.586L1747.79 372.875L1805.39 325.554L1808.67 322.863L1854.83 355.959C1855.76 356.622 1855.82 358.063 1854.95 358.869L1851.83 361.773L1794.92 414.571C1793.84 415.572 1792.25 415.579 1791.22 414.588L1791.22 414.586Z" fill="#FDFDFD"/>
<mask id="mask0_1291_2944" style="mask-type:luminance" maskUnits="userSpaceOnUse" x="1747" y="322" width="109" height="94">
<path d="M1791.22 414.586L1747.79 372.875L1805.39 325.554L1808.67 322.863L1854.83 355.959C1855.76 356.622 1855.82 358.063 1854.95 358.869L1851.83 361.773L1794.92 414.571C1793.84 415.572 1792.25 415.579 1791.22 414.588L1791.22 414.586Z" fill="white"/>
</mask>
<g mask="url(#mask0_1291_2944)">
<path d="M1851.83 361.77L1804.67 326.415L1808.67 322.863L1854.83 355.959C1855.76 356.622 1855.82 358.063 1854.95 358.869L1851.83 361.773L1851.83 361.77Z" fill="#FDFDFD"/>
<path d="M1852.14 358.549C1851.48 358.907 1850.72 358.712 1850.45 358.113C1850.18 357.515 1850.49 356.74 1851.14 356.383C1851.8 356.027 1852.56 356.22 1852.83 356.818C1853.11 357.417 1852.79 358.192 1852.14 358.549Z" fill="#FDFDFD" stroke="#510A5E" stroke-linecap="round" stroke-linejoin="round"/>
<path d="M1849.34 356.577C1848.73 356.909 1848.03 356.729 1847.78 356.173C1847.52 355.618 1847.81 354.899 1848.43 354.565C1849.04 354.232 1849.74 354.414 1849.99 354.97C1850.24 355.526 1849.96 356.244 1849.34 356.577Z" fill="#FDFDFD" stroke="#510A5E" stroke-linecap="round" stroke-linejoin="round"/>
<path d="M1846.81 354.668C1846.24 354.979 1845.59 354.81 1845.35 354.29C1845.11 353.772 1845.38 353.098 1845.95 352.787C1846.52 352.477 1847.17 352.645 1847.41 353.165C1847.65 353.684 1847.38 354.358 1846.81 354.668Z" fill="#FDFDFD" stroke="#510A5E" stroke-linecap="round" stroke-linejoin="round"/>
<path opacity="0.3" d="M1854.54 356.365L1854.54 356.366C1855.19 356.831 1855.27 357.896 1854.61 358.503L1854.61 358.503L1851.49 361.407L1851.49 361.407L1794.58 414.205C1793.69 415.034 1792.4 415.026 1791.57 414.227L1791.48 414.143L1791.48 414.141L1748.54 372.905L1805.71 325.941L1805.71 325.941L1808.69 323.493L1854.54 356.365Z" fill="#FDFDFD" stroke="#510A5E"/>
</g>
<path d="M1791.22 414.586L1747.79 372.875L1805.39 325.554L1808.67 322.863L1854.83 355.959C1855.76 356.622 1855.82 358.063 1854.95 358.869L1851.83 361.773L1794.92 414.571C1793.84 415.572 1792.25 415.579 1791.22 414.588L1791.22 414.586Z" fill="#FDFDFD" stroke="#510A5E" stroke-linecap="round" stroke-linejoin="round"/>
<path d="M1792.77 409.88L1746.19 370.767L1803.02 324.08L1806.26 321.425L1855.22 352.205C1856.21 352.819 1856.34 354.202 1855.49 354.996L1852.42 357.851L1796.56 409.781C1795.51 410.766 1793.88 410.807 1792.77 409.875L1792.77 409.88Z" fill="#FDFDFD" stroke="#510A5E" stroke-linecap="round" stroke-linejoin="round"/>
<path d="M1854.96 352.628L1854.96 352.629C1855.66 353.068 1855.76 354.059 1855.15 354.629L1855.15 354.63L1852.36 357.22L1803.14 324.862L1806.3 322.05L1854.96 352.628Z" fill="#FDFDFD" stroke="#510A5E"/>
<path d="M1852.58 354.749C1851.92 355.108 1851.14 354.937 1850.83 354.369C1850.52 353.802 1850.8 353.053 1851.46 352.694C1852.12 352.336 1852.9 352.507 1853.21 353.074C1853.52 353.642 1853.24 354.391 1852.58 354.749Z" fill="#FDFDFD"/>
<path d="M1852.58 354.749C1851.92 355.108 1851.14 354.937 1850.83 354.369C1850.52 353.802 1850.8 353.053 1851.46 352.694C1852.12 352.336 1852.9 352.507 1853.21 353.074C1853.52 353.642 1853.24 354.391 1852.58 354.749Z" stroke="#510A5E" stroke-linecap="round" stroke-linejoin="round"/>
<path d="M1852.58 354.749C1851.92 355.108 1851.14 354.937 1850.83 354.369C1850.52 353.802 1850.8 353.053 1851.46 352.694C1852.12 352.336 1852.9 352.507 1853.21 353.074C1853.52 353.642 1853.24 354.391 1852.58 354.749Z" stroke="#510A5E" stroke-opacity="0.3" stroke-linecap="round" stroke-linejoin="round"/>
<path d="M1849.62 352.919C1849.01 353.251 1848.28 353.093 1847.99 352.565C1847.71 352.036 1847.97 351.339 1848.58 351.008C1849.19 350.676 1849.92 350.834 1850.21 351.362C1850.49 351.89 1850.23 352.587 1849.62 352.919Z" fill="#FDFDFD"/>
<path d="M1849.62 352.919C1849.01 353.251 1848.28 353.093 1847.99 352.565C1847.71 352.036 1847.97 351.339 1848.58 351.008C1849.19 350.676 1849.92 350.834 1850.21 351.362C1850.49 351.89 1850.23 352.587 1849.62 352.919Z" stroke="#510A5E" stroke-linecap="round" stroke-linejoin="round"/>
<path d="M1849.62 352.919C1849.01 353.251 1848.28 353.093 1847.99 352.565C1847.71 352.036 1847.97 351.339 1848.58 351.008C1849.19 350.676 1849.92 350.834 1850.21 351.362C1850.49 351.89 1850.23 352.587 1849.62 352.919Z" stroke="#510A5E" stroke-opacity="0.3" stroke-linecap="round" stroke-linejoin="round"/>
<path d="M1846.93 351.139C1846.36 351.449 1845.67 351.3 1845.41 350.807C1845.14 350.315 1845.38 349.662 1845.95 349.351C1846.53 349.041 1847.21 349.19 1847.47 349.683C1847.74 350.175 1847.5 350.828 1846.93 351.139Z" fill="#FDFDFD"/>
<path d="M1846.93 351.139C1846.36 351.449 1845.67 351.3 1845.41 350.807C1845.14 350.315 1845.38 349.662 1845.95 349.351C1846.53 349.041 1847.21 349.19 1847.47 349.683C1847.74 350.175 1847.5 350.828 1846.93 351.139Z" stroke="#510A5E" stroke-linecap="round" stroke-linejoin="round"/>
<path d="M1846.93 351.139C1846.36 351.449 1845.67 351.3 1845.41 350.807C1845.14 350.315 1845.38 349.662 1845.95 349.351C1846.53 349.041 1847.21 349.19 1847.47 349.683C1847.74 350.175 1847.5 350.828 1846.93 351.139Z" stroke="#510A5E" stroke-opacity="0.3" stroke-linecap="round" stroke-linejoin="round"/>
<path opacity="0.3" d="M1850.06 357.95L1800.81 403.665C1800.81 403.665 1800.81 403.665 1800.81 403.665C1800.78 403.689 1800.75 403.688 1800.72 403.671L1800.72 403.67L1799.41 402.654L1799.4 402.653C1799.38 402.631 1799.38 402.592 1799.4 402.57L1799.4 402.567L1848.66 357.305L1848.66 357.305L1848.67 357.303C1848.75 357.225 1848.88 357.21 1848.99 357.276L1850.06 357.95Z" fill="#FDFDFD" stroke="#510A5E"/>
<path d="M1848.19 357.847L1849.07 358.413C1849.44 358.647 1849.48 359.16 1849.16 359.45L1843.97 364.215C1843.71 364.453 1843.32 364.483 1843.02 364.289L1841.96 363.59C1841.71 363.421 1841.68 363.053 1841.9 362.844L1847.25 357.933C1847.51 357.696 1847.89 357.665 1848.19 357.851L1848.19 357.847Z" fill="#FDFDFD" stroke="#510A5E" stroke-linecap="round" stroke-linejoin="round"/>
<path opacity="0.4" d="M1787.96 400.075L1757.35 375.213" stroke="#510A5E" stroke-width="2" stroke-linecap="round" stroke-linejoin="round"/>
<path opacity="0.4" d="M1794.34 402.219L1754.99 370.885" stroke="#510A5E" stroke-width="2" stroke-linecap="round" stroke-linejoin="round"/>
<path opacity="0.3" d="M1801.2 382.123L1812.59 371.978L1820.86 377.965L1809.44 388.158L1801.2 382.123Z" fill="#FDFDFD" stroke="#510A5E"/>
<path opacity="0.3" d="M1826.15 359.905L1834.7 365.609L1823.66 375.464L1815.36 369.516L1826.15 359.905Z" fill="#FDFDFD" stroke="#510A5E"/>
<path opacity="0.3" d="M1827.94 358.313L1836.88 350.345L1845.4 356.048L1836.51 363.987L1827.94 358.313Z" fill="#FDFDFD" stroke="#510A5E"/>
<path opacity="0.3" d="M1799.23 383.888L1807.32 390.061L1796.86 399.411L1788.81 393.172L1799.23 383.888Z" fill="#FDFDFD" stroke="#510A5E"/>
<path d="M1805.39 317.21L1741.04 370.149C1748.51 371.825 1788.9 390.87 1788.9 390.87C1792.03 392.361 1795.74 391.847 1798.34 389.561L1853.2 340.726C1855.3 338.883 1854.65 335.464 1852.02 334.515C1852.02 334.515 1817.53 315.141 1805.39 317.206L1805.39 317.21Z" fill="#FDFDFD" stroke="#510A5E" stroke-linecap="round" stroke-linejoin="round"/>
<g opacity="0.7">
<path d="M1794.73 388.266C1794.51 387.848 1794.58 387.312 1794.95 386.981C1795.84 386.171 1796.74 385.366 1797.64 384.567C1798.08 384.178 1798.74 384.217 1799.13 384.652C1799.52 385.087 1799.48 385.754 1799.05 386.143C1798.15 386.938 1797.26 387.74 1796.37 388.545C1795.94 388.937 1795.27 388.902 1794.88 388.474C1794.82 388.407 1794.77 388.341 1794.73 388.269L1794.73 388.266Z" fill="#FDFDFD"/>
</g>
<g opacity="0.7">
<path d="M1801.96 381.88C1801.73 381.456 1801.81 380.916 1802.19 380.584L1851.03 337.57C1851.03 337.57 1851.08 337.525 1851.07 337.457C1851.06 337.389 1851.02 337.366 1851 337.358C1847.06 335.279 1833.66 328.268 1826.79 325.382C1822.31 323.603 1817.57 322.312 1811.45 321.204C1810.87 321.103 1810.49 320.553 1810.6 319.978C1810.7 319.403 1811.25 319.023 1811.82 319.125C1818.09 320.256 1822.95 321.583 1827.59 323.425C1834.37 326.273 1846.91 332.809 1851.99 335.486C1852.64 335.829 1853.08 336.472 1853.17 337.203C1853.25 337.935 1852.98 338.664 1852.42 339.151L1803.59 382.166C1803.15 382.552 1802.48 382.51 1802.1 382.073C1802.04 382.013 1802 381.945 1801.96 381.88Z" fill="#FDFDFD"/>
</g>
</g>
<g opacity="0.25" clip-path="url(#clip2_1291_2944)">
<path d="M428.539 675.328L395.16 693.013C392.796 694.266 389.564 693.529 387.942 691.374L371.873 670.034C370.251 667.879 370.852 665.112 373.206 663.864L406.585 646.179C408.949 644.927 412.182 645.663 413.804 647.818L429.872 669.158C431.494 671.313 430.893 674.081 428.539 675.328Z" fill="#FDFDFD" stroke="#510A5E" stroke-linecap="round" stroke-linejoin="round"/>
<path d="M428.539 675.329C430.902 674.077 431.801 671.152 430.549 668.788L416.626 642.51C415.429 640.252 412.704 639.358 410.407 640.365L407.954 638.244C407.497 637.846 406.844 637.774 406.306 638.059L395.391 643.842C394.853 644.127 394.545 644.709 394.618 645.31L394.99 648.497L376.715 658.18C374.832 659.177 373.883 661.243 374.197 663.23" fill="#FDFDFD"/>
<path d="M428.539 675.329C430.902 674.077 431.801 671.152 430.549 668.788L416.626 642.51C415.429 640.252 412.704 639.358 410.407 640.365L407.954 638.244C407.497 637.846 406.844 637.774 406.306 638.059L395.391 643.842C394.853 644.127 394.545 644.709 394.618 645.31L394.99 648.497L376.715 658.18C374.832 659.177 373.883 661.243 374.197 663.23" stroke="#510A5E" stroke-linecap="round" stroke-linejoin="round"/>
<path d="M302.987 741.851L269.608 759.537C267.244 760.789 264.012 760.053 262.39 757.897L246.321 736.558C244.699 734.402 245.3 731.635 247.654 730.388L281.034 712.702C283.397 711.45 286.63 712.186 288.252 714.342L304.321 735.681C305.943 737.837 305.341 740.604 302.987 741.851Z" fill="#FDFDFD" stroke="#510A5E" stroke-linecap="round" stroke-linejoin="round"/>
<path d="M302.987 741.853C305.35 740.601 306.249 737.675 304.997 735.312L291.074 709.033C289.877 706.775 287.152 705.881 284.855 706.889L282.403 704.767C281.946 704.37 281.292 704.297 280.754 704.583L269.839 710.366C269.301 710.651 268.994 711.232 269.066 711.833L269.438 715.02L251.163 724.703C249.28 725.701 248.331 727.766 248.646 729.753" fill="#FDFDFD"/>
<path d="M302.987 741.853C305.35 740.601 306.249 737.675 304.997 735.312L291.074 709.033C289.877 706.775 287.152 705.881 284.855 706.889L282.403 704.767C281.946 704.37 281.292 704.297 280.754 704.583L269.839 710.366C269.301 710.651 268.994 711.232 269.066 711.833L269.438 715.02L251.163 724.703C249.28 725.701 248.331 727.766 248.646 729.753" stroke="#510A5E" stroke-linecap="round" stroke-linejoin="round"/>
<path d="M365.754 708.597L332.375 726.283C330.011 727.535 326.778 726.799 325.156 724.644L309.088 703.304C307.466 701.148 308.067 698.381 310.421 697.134L343.8 679.448C346.164 678.196 349.397 678.932 351.019 681.088L367.087 702.427C368.709 704.583 368.108 707.35 365.754 708.597Z" fill="#FDFDFD" stroke="#510A5E" stroke-linecap="round" stroke-linejoin="round"/>
<path d="M365.754 708.599C368.118 707.347 369.017 704.422 367.765 702.058L353.841 675.779C352.645 673.521 349.919 672.627 347.623 673.635L345.17 671.513C344.713 671.116 344.06 671.044 343.522 671.329L332.607 677.112C332.068 677.397 331.761 677.978 331.834 678.579L332.206 681.766L313.931 691.449C312.047 692.447 311.099 694.512 311.413 696.499" fill="#FDFDFD"/>
<path d="M365.754 708.599C368.118 707.347 369.017 704.422 367.765 702.058L353.841 675.779C352.645 673.521 349.919 672.627 347.623 673.635L345.17 671.513C344.713 671.116 344.06 671.044 343.522 671.329L332.607 677.112C332.068 677.397 331.761 677.978 331.834 678.579L332.206 681.766L313.931 691.449C312.047 692.447 311.099 694.512 311.413 696.499" stroke="#510A5E" stroke-linecap="round" stroke-linejoin="round"/>
<path d="M246.323 438.818L249.448 422.838C250.16 419.188 249.186 415.422 246.793 412.579L217.112 377.299C214.83 374.594 210.974 373.844 207.852 375.498L191.22 384.311C190.038 384.937 188.967 385.75 188.047 386.73L62.0394 537.884L215.013 728.037C225.281 733.598 356.722 592.768 356.722 592.768C361.094 588.175 361.246 581.007 357.057 576.237L250.71 455.087C246.801 450.636 245.18 444.628 246.323 438.818Z" fill="#FDFDFD" stroke="#510A5E" stroke-linecap="round" stroke-linejoin="round"/>
<path opacity="0.3" d="M189.789 392.582L190.679 391.439L356.57 581.937L356.467 582.053C356.206 582.346 355.818 582.781 355.311 583.347C354.299 584.479 352.813 586.136 350.921 588.236C347.138 592.437 341.73 598.412 335.233 605.506C322.239 619.694 304.89 638.359 287.467 656.268C270.041 674.181 252.554 691.326 239.279 702.481C232.633 708.066 227.079 712.119 223.131 714.028C221.139 714.991 219.654 715.358 218.674 715.197C218.207 715.12 217.868 714.926 217.624 714.621C217.372 714.306 217.186 713.83 217.117 713.136L217.102 712.984L217.004 712.866L216.619 713.186C217.004 712.866 217.003 712.865 217.002 712.864L216.997 712.858L216.977 712.834L216.899 712.74L216.59 712.369C216.317 712.041 215.912 711.554 215.384 710.919C214.328 709.65 212.78 707.787 210.81 705.415C206.87 700.672 201.246 693.893 194.506 685.751C181.027 669.466 163.086 647.726 145.241 625.906C127.396 604.086 109.649 582.189 96.5554 565.589C90.008 557.288 84.6275 550.315 80.9808 545.34C79.1564 542.851 77.772 540.871 76.8934 539.477C76.4522 538.777 76.1489 538.241 75.9802 537.871C75.9239 537.746 75.888 537.653 75.8667 537.585C75.9979 537.451 76.1689 537.261 76.3684 537.032C76.6748 536.68 77.0801 536.199 77.5765 535.6C78.5696 534.401 79.9344 532.719 81.616 530.626C84.9795 526.438 89.6153 520.597 95.0907 513.661C106.042 499.787 120.354 481.53 134.57 463.353C148.787 445.175 162.906 427.078 173.472 413.524C178.755 406.748 183.15 401.107 186.223 397.161C187.76 395.188 188.967 393.638 189.789 392.582Z" fill="#FDFDFD" stroke="#510A5E"/>
<path d="M346.757 582.506L223.221 708.343L86.4831 538.149L78.7055 528.463L177.102 394.338C179.071 391.645 183.295 391.511 185.627 394.078L194.032 403.321L346.832 571.662C349.728 574.853 349.697 579.509 346.761 582.491L346.757 582.506Z" fill="#FDFDFD"/>
<mask id="mask1_1291_2944" style="mask-type:luminance" maskUnits="userSpaceOnUse" x="78" y="392" width="271" height="317">
<path d="M346.757 582.506L223.221 708.343L86.4831 538.149L78.7055 528.463L177.102 394.338C179.071 391.645 183.295 391.511 185.627 394.078L194.032 403.321L346.832 571.662C349.728 574.853 349.697 579.509 346.761 582.491L346.757 582.506Z" fill="white"/>
</mask>
<g mask="url(#mask1_1291_2944)">
<path d="M194.022 403.327L88.9802 540.284L78.7055 528.463L177.102 394.338C179.071 391.645 183.295 391.511 185.627 394.078L194.032 403.321L194.022 403.327Z" fill="#FDFDFD"/>
<path d="M184.591 402.318C185.619 404.259 185.024 406.457 183.262 407.243C181.5 408.029 179.241 407.085 178.217 405.154C177.194 403.222 177.784 401.015 179.546 400.229C181.308 399.443 183.567 400.387 184.591 402.318Z" fill="#FDFDFD" stroke="#510A5E" stroke-linecap="round" stroke-linejoin="round"/>
<path d="M178.741 410.442C179.693 412.239 179.143 414.29 177.506 415.009C175.874 415.738 173.777 414.869 172.82 413.062C171.863 411.256 172.418 409.214 174.055 408.495C175.691 407.775 177.784 408.636 178.741 410.442Z" fill="#FDFDFD" stroke="#510A5E" stroke-linecap="round" stroke-linejoin="round"/>
<path d="M173.062 417.794C173.953 419.475 173.439 421.384 171.908 422.072C170.382 422.745 168.417 421.94 167.527 420.259C166.636 418.578 167.15 416.668 168.681 415.98C170.207 415.307 172.171 416.112 173.062 417.794Z" fill="#FDFDFD" stroke="#510A5E" stroke-linecap="round" stroke-linejoin="round"/>
<path opacity="0.3" d="M177.505 394.633L177.505 394.633C179.275 392.214 183.122 392.064 185.257 394.414L185.257 394.415L193.662 403.657L193.662 403.658L346.461 571.998L346.832 571.662L346.461 571.998C349.188 575.002 349.146 579.356 346.405 582.141L346.319 582.228L346.315 582.243L223.259 707.591L86.873 537.836L86.8729 537.836L79.3357 528.45L177.505 394.633Z" fill="#FDFDFD" stroke="#510A5E"/>
</g>
<path d="M346.757 582.506L223.221 708.343L86.4831 538.149L78.7055 528.463L177.102 394.338C179.071 391.645 183.295 391.511 185.627 394.078L194.032 403.321L346.832 571.662C349.728 574.853 349.697 579.509 346.761 582.491L346.757 582.506Z" fill="#FDFDFD" stroke="#510A5E" stroke-linecap="round" stroke-linejoin="round"/>
<path d="M333.028 577.822L216.998 712.971L82.0942 545.055L74.4217 535.497L166.124 393.081C167.953 390.216 172.007 389.877 174.304 392.401L182.568 401.473L332.858 566.701C335.709 569.83 335.778 574.605 333.013 577.817L333.028 577.822Z" fill="#FDFDFD" stroke="#510A5E" stroke-linecap="round" stroke-linejoin="round"/>
<path d="M166.544 393.351L166.545 393.35C168.196 390.765 171.857 390.456 173.934 392.738L173.934 392.738L181.941 401.526L84.4858 546.312L75.0504 535.462L166.544 393.351Z" fill="#FDFDFD" stroke="#510A5E"/>
<path d="M173.493 400.901C174.522 402.842 173.997 405.126 172.325 406.012C170.653 406.898 168.469 406.049 167.44 404.109C166.412 402.168 166.937 399.884 168.609 398.998C170.281 398.112 172.465 398.961 173.493 400.901Z" fill="#FDFDFD"/>
<path d="M173.493 400.901C174.522 402.842 173.997 405.126 172.325 406.012C170.653 406.898 168.469 406.049 167.44 404.109C166.412 402.168 166.937 399.884 168.609 398.998C170.281 398.112 172.465 398.961 173.493 400.901Z" stroke="#510A5E" stroke-linecap="round" stroke-linejoin="round"/>
<path d="M173.493 400.901C174.522 402.842 173.997 405.126 172.325 406.012C170.653 406.898 168.469 406.049 167.44 404.109C166.412 402.168 166.937 399.884 168.609 398.998C170.281 398.112 172.465 398.961 173.493 400.901Z" stroke="#510A5E" stroke-opacity="0.25" stroke-linecap="round" stroke-linejoin="round"/>
<path d="M168.039 409.516C168.991 411.313 168.506 413.44 166.949 414.265C165.393 415.09 163.36 414.296 162.408 412.499C161.456 410.703 161.941 408.575 163.498 407.751C165.054 406.926 167.087 407.719 168.039 409.516Z" fill="#FDFDFD"/>
<path d="M168.039 409.516C168.991 411.313 168.506 413.44 166.949 414.265C165.393 415.09 163.36 414.296 162.408 412.499C161.456 410.703 161.941 408.575 163.498 407.751C165.054 406.926 167.087 407.719 168.039 409.516Z" stroke="#510A5E" stroke-linecap="round" stroke-linejoin="round"/>
<path d="M168.039 409.516C168.991 411.313 168.506 413.44 166.949 414.265C165.393 415.09 163.36 414.296 162.408 412.499C161.456 410.703 161.941 408.575 163.498 407.751C165.054 406.926 167.087 407.719 168.039 409.516Z" stroke="#510A5E" stroke-opacity="0.25" stroke-linecap="round" stroke-linejoin="round"/>
<path d="M162.737 417.342C163.627 419.023 163.169 421.014 161.718 421.783C160.267 422.551 158.362 421.813 157.471 420.132C156.58 418.45 157.039 416.46 158.49 415.691C159.941 414.922 161.846 415.661 162.737 417.342Z" fill="#FDFDFD"/>
<path d="M162.737 417.342C163.627 419.023 163.169 421.014 161.718 421.783C160.267 422.551 158.362 421.813 157.471 420.132C156.58 418.45 157.039 416.46 158.49 415.691C159.941 414.922 161.846 415.661 162.737 417.342Z" stroke="#510A5E" stroke-linecap="round" stroke-linejoin="round"/>
<path d="M162.737 417.342C163.627 419.023 163.169 421.014 161.718 421.783C160.267 422.551 158.362 421.813 157.471 420.132C156.58 418.45 157.039 416.46 158.49 415.691C159.941 414.922 161.846 415.661 162.737 417.342Z" stroke="#510A5E" stroke-opacity="0.25" stroke-linecap="round" stroke-linejoin="round"/>
<path opacity="0.3" d="M183.161 407.363L183.161 407.364L315.802 553.428C315.803 553.429 315.803 553.429 315.803 553.43C316.182 553.851 316.204 554.483 315.857 554.923L315.856 554.923L312.838 558.749L312.837 558.751C312.405 559.304 311.578 559.332 311.112 558.806L311.109 558.803L180.134 413.096L180.134 413.096L180.132 413.094C179.608 412.517 179.539 411.654 179.964 410.986C179.964 410.986 179.964 410.985 179.964 410.985L182.243 407.441C182.243 407.441 182.243 407.441 182.243 407.441C182.243 407.441 182.243 407.441 182.243 407.441C182.45 407.12 182.908 407.084 183.161 407.363Z" fill="#FDFDFD" stroke="#510A5E"/>
<path d="M182.418 413.869L184.103 411.29C184.798 410.233 186.304 410.125 187.143 411.058L200.93 426.42C201.62 427.187 201.695 428.328 201.117 429.188L199.035 432.273C198.532 433.019 197.454 433.098 196.85 432.422L182.638 416.608C181.954 415.85 181.874 414.724 182.428 413.864L182.418 413.869Z" fill="#FDFDFD" stroke="#510A5E" stroke-linecap="round" stroke-linejoin="round"/>
<path opacity="0.4" d="M304.167 591.584L230.381 680.442" stroke="#510A5E" stroke-width="2" stroke-linecap="round" stroke-linejoin="round"/>
<path opacity="0.4" d="M310.641 572.982L217.622 687.203" stroke="#510A5E" stroke-width="2" stroke-linecap="round" stroke-linejoin="round"/>
<path opacity="0.3" d="M252.079 553.762L221.438 518.613L240.411 493.013L271.196 528.253L252.079 553.762Z" fill="#FDFDFD" stroke="#510A5E"/>
<path opacity="0.3" d="M186.526 478.558L204.623 452.052L234.46 486.208L215.608 511.922L186.526 478.558Z" fill="#FDFDFD" stroke="#510A5E"/>
<path opacity="0.3" d="M183.23 474.767L158.869 446.818L176.968 420.407L201.241 448.189L183.23 474.767Z" fill="#FDFDFD" stroke="#510A5E"/>
<path opacity="0.3" d="M255.86 558.101L275.404 533.056L303.747 565.496L284.001 590.386L255.86 558.101Z" fill="#FDFDFD" stroke="#510A5E"/>
<path d="M62.0399 537.887L215.014 728.04C220.161 706.214 277.225 588.536 277.225 588.536C281.689 579.428 280.304 568.545 273.692 560.85L132.434 398.638C127.102 392.431 117.07 394.214 114.206 401.885C114.206 401.885 56.3702 502.289 62.0303 537.892L62.0399 537.887Z" fill="#FDFDFD" stroke="#510A5E" stroke-linecap="round" stroke-linejoin="round"/>
<g opacity="0.7">
<path d="M269.797 571.384C268.567 572.035 267 571.795 266.04 570.704C263.697 568.069 261.367 565.415 259.057 562.75C257.932 561.463 258.066 559.51 259.353 558.385C260.64 557.26 262.594 557.394 263.718 558.681C266.018 561.326 268.337 563.961 270.666 566.591C271.801 567.873 271.676 569.822 270.409 570.961C270.214 571.126 270.018 571.267 269.806 571.379L269.797 571.384Z" fill="#FDFDFD"/>
</g>
<g opacity="0.7">
<path d="M251.325 550.013C250.076 550.674 248.498 550.415 247.538 549.299L123.131 404.911C123.131 404.911 123.001 404.759 122.802 404.778C122.603 404.797 122.533 404.921 122.51 404.97C116.297 416.445 95.3376 455.459 86.6652 475.485C81.3116 488.56 77.3817 502.394 73.9416 520.288C73.6261 521.968 72.003 523.062 70.3222 522.747C68.6415 522.431 67.5477 520.808 67.8632 519.127C71.3761 500.814 75.4189 486.612 80.9612 473.08C89.5183 453.325 109.058 416.81 117.061 402.024C118.086 400.127 119.982 398.852 122.127 398.626C124.272 398.401 126.397 399.231 127.808 400.871L252.215 545.259C253.33 546.551 253.186 548.509 251.894 549.625C251.718 549.78 251.517 549.911 251.325 550.013Z" fill="#FDFDFD"/>
</g>
</g>
<g opacity="0.25" clip-path="url(#clip3_1291_2944)">
<path d="M1809.67 1374.87L1756.5 1379.65L1797.81 1413.46L1795.07 1396.07L1809.92 1400.64L1812.49 1392.29L1797.64 1387.72L1809.67 1374.87Z" fill="#FDFDFD" stroke="#510A5E" stroke-linecap="round" stroke-linejoin="round"/>
<path d="M1928.93 1802.53L1886.01 1825.27C1882.97 1826.88 1878.82 1825.93 1876.73 1823.16L1856.07 1795.73C1853.99 1792.96 1854.76 1789.4 1857.79 1787.8L1900.7 1765.06C1903.74 1763.45 1907.9 1764.4 1909.98 1767.17L1930.64 1794.6C1932.72 1797.37 1931.95 1800.93 1928.93 1802.53Z" fill="#FDFDFD" stroke="#510A5E" stroke-linecap="round" stroke-linejoin="round"/>
<path d="M1928.92 1802.53C1931.96 1800.92 1933.12 1797.16 1931.51 1794.13L1913.61 1760.34C1912.07 1757.44 1908.57 1756.29 1905.61 1757.58L1902.46 1754.86C1901.87 1754.35 1901.03 1754.25 1900.34 1754.62L1886.31 1762.05C1885.62 1762.42 1885.22 1763.17 1885.32 1763.94L1885.79 1768.04L1862.3 1780.49C1859.88 1781.77 1858.66 1784.42 1859.06 1786.98" fill="#FDFDFD"/>
<path d="M1928.92 1802.53C1931.96 1800.92 1933.12 1797.16 1931.51 1794.13L1913.61 1760.34C1912.07 1757.44 1908.57 1756.29 1905.61 1757.58L1902.46 1754.86C1901.87 1754.35 1901.03 1754.25 1900.34 1754.62L1886.31 1762.05C1885.62 1762.42 1885.22 1763.17 1885.32 1763.94L1885.79 1768.04L1862.3 1780.49C1859.88 1781.77 1858.66 1784.42 1859.06 1786.98" stroke="#510A5E" stroke-linecap="round" stroke-linejoin="round"/>
<path d="M1767.52 1888.06L1724.6 1910.79C1721.57 1912.4 1717.41 1911.46 1715.32 1908.69L1694.67 1881.25C1692.58 1878.48 1693.35 1874.92 1696.38 1873.32L1739.29 1850.58C1742.33 1848.97 1746.49 1849.92 1748.57 1852.69L1769.23 1880.13C1771.32 1882.9 1770.54 1886.45 1767.52 1888.06Z" fill="#FDFDFD" stroke="#510A5E" stroke-linecap="round" stroke-linejoin="round"/>
<path d="M1767.52 1888.06C1770.56 1886.45 1771.71 1882.69 1770.1 1879.65L1752.2 1845.86C1750.66 1842.96 1747.16 1841.81 1744.21 1843.11L1741.05 1840.38C1740.47 1839.87 1739.63 1839.78 1738.93 1840.14L1724.9 1847.58C1724.21 1847.94 1723.81 1848.69 1723.91 1849.46L1724.39 1853.56L1700.89 1866.01C1698.47 1867.29 1697.25 1869.95 1697.66 1872.5" fill="#FDFDFD"/>
<path d="M1767.52 1888.06C1770.56 1886.45 1771.71 1882.69 1770.1 1879.65L1752.2 1845.86C1750.66 1842.96 1747.16 1841.81 1744.21 1843.11L1741.05 1840.38C1740.47 1839.87 1739.63 1839.78 1738.93 1840.14L1724.9 1847.58C1724.21 1847.94 1723.81 1848.69 1723.91 1849.46L1724.39 1853.56L1700.89 1866.01C1698.47 1867.29 1697.25 1869.95 1697.66 1872.5" stroke="#510A5E" stroke-linecap="round" stroke-linejoin="round"/>
<path d="M1848.21 1845.3L1805.3 1868.04C1802.26 1869.65 1798.11 1868.7 1796.02 1865.93L1775.36 1838.49C1773.28 1835.72 1774.05 1832.17 1777.08 1830.56L1819.99 1807.83C1823.03 1806.22 1827.18 1807.16 1829.27 1809.93L1849.93 1837.37C1852.01 1840.14 1851.24 1843.7 1848.21 1845.3Z" fill="#FDFDFD" stroke="#510A5E" stroke-linecap="round" stroke-linejoin="round"/>
<path d="M1848.21 1845.3C1851.25 1843.69 1852.41 1839.93 1850.8 1836.89L1832.9 1803.11C1831.36 1800.2 1827.86 1799.05 1824.9 1800.35L1821.75 1797.62C1821.16 1797.11 1820.32 1797.02 1819.63 1797.39L1805.6 1804.82C1804.91 1805.19 1804.51 1805.93 1804.61 1806.71L1805.08 1810.8L1781.59 1823.25C1779.17 1824.53 1777.95 1827.19 1778.35 1829.74" fill="#FDFDFD"/>
<path d="M1848.21 1845.3C1851.25 1843.69 1852.41 1839.93 1850.8 1836.89L1832.9 1803.11C1831.36 1800.2 1827.86 1799.05 1824.9 1800.35L1821.75 1797.62C1821.16 1797.11 1820.32 1797.02 1819.63 1797.39L1805.6 1804.82C1804.91 1805.19 1804.51 1805.93 1804.61 1806.71L1805.08 1810.8L1781.59 1823.25C1779.17 1824.53 1777.95 1827.19 1778.35 1829.74" stroke="#510A5E" stroke-linecap="round" stroke-linejoin="round"/>
<path d="M1694.67 1498.45L1698.69 1477.9C1699.6 1473.21 1698.35 1468.37 1695.28 1464.71L1657.12 1419.36C1654.18 1415.88 1649.23 1414.92 1645.21 1417.04L1623.83 1428.37C1622.31 1429.18 1620.94 1430.22 1619.75 1431.48L1457.76 1625.81L1654.42 1870.27C1667.62 1877.41 1836.6 1696.36 1836.6 1696.36C1842.22 1690.46 1842.42 1681.24 1837.03 1675.11L1700.31 1519.36C1695.29 1513.64 1693.2 1505.92 1694.67 1498.45Z" fill="#FDFDFD" stroke="#510A5E" stroke-linecap="round" stroke-linejoin="round"/>
<path opacity="0.3" d="M1623.13 1437.31L1622.79 1436.93C1615.4 1446.42 1478.77 1621.92 1474.92 1625.12M1623.13 1437.31L1623.09 1437.37L1621.88 1438.92C1620.82 1440.27 1619.27 1442.27 1617.29 1444.8C1613.34 1449.88 1607.69 1457.13 1600.9 1465.84C1587.32 1483.26 1569.17 1506.53 1550.89 1529.9C1532.61 1553.27 1514.21 1576.74 1500.13 1594.58C1493.1 1603.49 1487.14 1611 1482.81 1616.38C1480.65 1619.08 1478.9 1621.24 1477.62 1622.78C1476.98 1623.55 1476.46 1624.16 1476.07 1624.62C1475.78 1624.95 1475.54 1625.21 1475.37 1625.38M1623.13 1437.31L1836.6 1682.44M1623.13 1437.31L1623.39 1436.97L1836.6 1682.44M1475.37 1625.38C1475.37 1625.36 1475.37 1625.35 1475.36 1625.34C1475.36 1625.31 1475.36 1625.29 1475.36 1625.29C1475.36 1625.29 1475.36 1625.3 1475.36 1625.31C1475.35 1625.34 1475.33 1625.43 1475.24 1625.5L1474.92 1625.12M1475.37 1625.38C1475.32 1625.43 1475.28 1625.47 1475.24 1625.5L1474.92 1625.12M1475.37 1625.38C1475.4 1625.48 1475.45 1625.63 1475.55 1625.85C1475.77 1626.33 1476.16 1627.03 1476.73 1627.93C1477.86 1629.73 1479.65 1632.28 1481.99 1635.48C1486.68 1641.87 1493.6 1650.84 1502.02 1661.51C1518.85 1682.85 1541.67 1711.01 1564.61 1739.06C1587.55 1767.11 1610.62 1795.06 1627.95 1815.99C1636.61 1826.46 1643.84 1835.18 1648.91 1841.27C1651.44 1844.32 1653.43 1846.72 1654.79 1848.35L1655.68 1849.43L1656.34 1850.21L1656.73 1850.69L1656.83 1850.81L1656.86 1850.84L1656.87 1850.85C1656.87 1850.85 1656.87 1850.85 1656.48 1851.17M1474.92 1625.12C1470.98 1628.39 1656.48 1851.17 1656.48 1851.17M1656.48 1851.17L1656.87 1850.85L1656.97 1850.97L1656.98 1851.12C1657.07 1852.03 1657.32 1852.67 1657.66 1853.11C1658 1853.53 1658.47 1853.8 1659.1 1853.9C1660.41 1854.11 1662.35 1853.62 1664.92 1852.38C1670.01 1849.92 1677.16 1844.7 1685.71 1837.52C1702.78 1823.17 1725.26 1801.13 1747.67 1778.1C1770.07 1755.07 1792.37 1731.08 1809.08 1712.84C1817.43 1703.72 1824.38 1696.03 1829.25 1690.63C1831.68 1687.93 1833.59 1685.8 1834.89 1684.35C1835.54 1683.62 1836.04 1683.06 1836.38 1682.68L1836.6 1682.44M1656.48 1851.17L1836.6 1682.44" fill="#FDFDFD" stroke="#510A5E"/>
<path d="M1823.79 1683.17L1664.97 1844.95L1489.18 1626.15L1479.18 1613.69L1605.68 1441.26C1608.21 1437.8 1613.64 1437.63 1616.64 1440.93L1627.45 1452.81L1823.89 1669.23C1827.61 1673.33 1827.57 1679.32 1823.8 1683.15L1823.79 1683.17Z" fill="#FDFDFD"/>
<mask id="mask2_1291_2944" style="mask-type:luminance" maskUnits="userSpaceOnUse" x="1479" y="1438" width="348" height="407">
<path d="M1823.79 1683.17L1664.97 1844.95L1489.18 1626.15L1479.18 1613.69L1605.68 1441.26C1608.21 1437.8 1613.64 1437.63 1616.64 1440.93L1627.45 1452.81L1823.89 1669.23C1827.61 1673.33 1827.57 1679.32 1823.8 1683.15L1823.79 1683.17Z" fill="white"/>
</mask>
<g mask="url(#mask2_1291_2944)">
<path d="M1627.43 1452.82L1492.39 1628.89L1479.18 1613.69L1605.68 1441.26C1608.21 1437.8 1613.64 1437.63 1616.64 1440.93L1627.45 1452.81L1627.43 1452.82Z" fill="#FDFDFD"/>
<path d="M1615.31 1451.52C1616.63 1454.02 1615.86 1456.84 1613.6 1457.85C1611.34 1458.86 1608.43 1457.65 1607.11 1455.17C1605.8 1452.68 1606.56 1449.85 1608.82 1448.84C1611.09 1447.83 1613.99 1449.04 1615.31 1451.52Z" fill="#FDFDFD" stroke="#510A5E" stroke-linecap="round" stroke-linejoin="round"/>
<path d="M1607.79 1461.96C1609.01 1464.27 1608.31 1466.91 1606.2 1467.83C1604.1 1468.77 1601.41 1467.65 1600.18 1465.33C1598.95 1463.01 1599.66 1460.38 1601.77 1459.46C1603.87 1458.53 1606.56 1459.64 1607.79 1461.96Z" fill="#FDFDFD" stroke="#510A5E" stroke-linecap="round" stroke-linejoin="round"/>
<path d="M1600.49 1471.42C1601.63 1473.58 1600.97 1476.03 1599 1476.92C1597.04 1477.78 1594.52 1476.75 1593.37 1474.59C1592.23 1472.42 1592.89 1469.97 1594.86 1469.09C1596.82 1468.22 1599.34 1469.25 1600.49 1471.42Z" fill="#FDFDFD" stroke="#510A5E" stroke-linecap="round" stroke-linejoin="round"/>
<path opacity="0.3" d="M1606.08 1441.56L1606.08 1441.56C1608.42 1438.37 1613.47 1438.18 1616.27 1441.27L1616.27 1441.27L1627.08 1453.15L1627.08 1453.15L1823.52 1669.57C1827.07 1673.48 1827.02 1679.17 1823.44 1682.8L1823.35 1682.89L1823.35 1682.91L1665.01 1844.2L1489.57 1625.83L1489.57 1625.83L1479.81 1613.68L1606.08 1441.56Z" fill="#FDFDFD" stroke="#510A5E"/>
</g>
<path d="M1823.79 1683.17L1664.97 1844.95L1489.18 1626.15L1479.18 1613.69L1605.68 1441.26C1608.21 1437.8 1613.64 1437.63 1616.64 1440.93L1627.45 1452.81L1823.89 1669.23C1827.61 1673.33 1827.57 1679.32 1823.8 1683.15L1823.79 1683.17Z" fill="#FDFDFD" stroke="#510A5E" stroke-linecap="round" stroke-linejoin="round"/>
<path d="M1806.14 1677.15L1656.97 1850.9L1483.54 1635.03L1473.67 1622.74L1591.57 1439.65C1593.92 1435.97 1599.13 1435.53 1602.08 1438.77L1612.71 1450.44L1805.92 1662.85C1809.59 1666.88 1809.67 1673.02 1806.12 1677.15L1806.14 1677.15Z" fill="#FDFDFD" stroke="#510A5E" stroke-linecap="round" stroke-linejoin="round"/>
<path d="M1591.99 1439.92L1591.99 1439.92C1594.16 1436.51 1598.98 1436.11 1601.71 1439.11L1601.71 1439.11L1612.08 1450.49L1486.63 1636.88L1474.31 1622.71L1591.99 1439.92Z" fill="#FDFDFD" stroke="#510A5E"/>
<path d="M1601.04 1449.71C1602.36 1452.2 1601.69 1455.14 1599.54 1456.28C1597.39 1457.41 1594.58 1456.32 1593.26 1453.83C1591.94 1451.33 1592.61 1448.4 1594.76 1447.26C1596.91 1446.12 1599.72 1447.21 1601.04 1449.71Z" fill="#FDFDFD"/>
<path d="M1601.04 1449.71C1602.36 1452.2 1601.69 1455.14 1599.54 1456.28C1597.39 1457.41 1594.58 1456.32 1593.26 1453.83C1591.94 1451.33 1592.61 1448.4 1594.76 1447.26C1596.91 1446.12 1599.72 1447.21 1601.04 1449.71Z" stroke="#510A5E" stroke-linecap="round" stroke-linejoin="round"/>
<path d="M1601.04 1449.71C1602.36 1452.2 1601.69 1455.14 1599.54 1456.28C1597.39 1457.41 1594.58 1456.32 1593.26 1453.83C1591.94 1451.33 1592.61 1448.4 1594.76 1447.26C1596.91 1446.12 1599.72 1447.21 1601.04 1449.71Z" stroke="#510A5E" stroke-opacity="0.3" stroke-linecap="round" stroke-linejoin="round"/>
<path d="M1594.03 1460.77C1595.25 1463.08 1594.63 1465.82 1592.63 1466.88C1590.63 1467.94 1588.01 1466.92 1586.79 1464.61C1585.57 1462.3 1586.19 1459.56 1588.19 1458.5C1590.19 1457.44 1592.81 1458.46 1594.03 1460.77Z" fill="#FDFDFD"/>
<path d="M1594.03 1460.77C1595.25 1463.08 1594.63 1465.82 1592.63 1466.88C1590.63 1467.94 1588.01 1466.92 1586.79 1464.61C1585.57 1462.3 1586.19 1459.56 1588.19 1458.5C1590.19 1457.44 1592.81 1458.46 1594.03 1460.77Z" stroke="#510A5E" stroke-linecap="round" stroke-linejoin="round"/>
<path d="M1594.03 1460.77C1595.25 1463.08 1594.63 1465.82 1592.63 1466.88C1590.63 1467.94 1588.01 1466.92 1586.79 1464.61C1585.57 1462.3 1586.19 1459.56 1588.19 1458.5C1590.19 1457.44 1592.81 1458.46 1594.03 1460.77Z" stroke="#510A5E" stroke-opacity="0.3" stroke-linecap="round" stroke-linejoin="round"/>
<path d="M1587.21 1470.84C1588.36 1473.01 1587.77 1475.57 1585.9 1476.55C1584.04 1477.54 1581.59 1476.59 1580.44 1474.43C1579.3 1472.27 1579.89 1469.71 1581.75 1468.72C1583.62 1467.73 1586.07 1468.68 1587.21 1470.84Z" fill="#FDFDFD"/>
<path d="M1587.21 1470.84C1588.36 1473.01 1587.77 1475.57 1585.9 1476.55C1584.04 1477.54 1581.59 1476.59 1580.44 1474.43C1579.3 1472.27 1579.89 1469.71 1581.75 1468.72C1583.62 1467.73 1586.07 1468.68 1587.21 1470.84Z" stroke="#510A5E" stroke-linecap="round" stroke-linejoin="round"/>
<path d="M1587.21 1470.84C1588.36 1473.01 1587.77 1475.57 1585.9 1476.55C1584.04 1477.54 1581.59 1476.59 1580.44 1474.43C1579.3 1472.27 1579.89 1469.71 1581.75 1468.72C1583.62 1467.73 1586.07 1468.68 1587.21 1470.84Z" stroke="#510A5E" stroke-opacity="0.3" stroke-linecap="round" stroke-linejoin="round"/>
<path opacity="0.3" d="M1613.58 1457.92L1613.58 1457.92L1784.1 1645.7C1784.1 1645.7 1784.1 1645.7 1784.1 1645.7C1784.63 1646.29 1784.67 1647.18 1784.18 1647.8L1784.18 1647.8L1780.3 1652.72L1780.29 1652.72C1779.68 1653.51 1778.52 1653.55 1777.86 1652.8L1777.85 1652.8L1609.47 1465.48L1609.47 1465.48L1609.47 1465.48C1608.75 1464.69 1608.66 1463.5 1609.24 1462.59C1609.24 1462.59 1609.24 1462.59 1609.24 1462.59L1612.17 1458.03C1612.17 1458.03 1612.17 1458.03 1612.17 1458.03C1612.17 1458.03 1612.17 1458.03 1612.17 1458.03C1612.49 1457.54 1613.19 1457.49 1613.58 1457.92Z" fill="#FDFDFD" stroke="#510A5E"/>
<path d="M1612.51 1466.38L1614.68 1463.06C1615.58 1461.7 1617.51 1461.56 1618.59 1462.76L1636.31 1482.51C1637.2 1483.5 1637.3 1484.97 1636.55 1486.07L1633.88 1490.04C1633.23 1491 1631.85 1491.1 1631.07 1490.23L1612.8 1469.9C1611.92 1468.92 1611.82 1467.48 1612.53 1466.37L1612.51 1466.38Z" fill="#FDFDFD" stroke="#510A5E" stroke-linecap="round" stroke-linejoin="round"/>
<path opacity="0.4" d="M1769.04 1694.85L1674.18 1809.09" stroke="#510A5E" stroke-width="2" stroke-linecap="round" stroke-linejoin="round"/>
<path opacity="0.4" d="M1777.36 1670.94L1657.77 1817.78" stroke="#510A5E" stroke-width="2" stroke-linecap="round" stroke-linejoin="round"/>
<path opacity="0.3" d="M1702.08 1646.44L1662.5 1601.04L1687.06 1567.89L1726.83 1613.41L1702.08 1646.44Z" fill="#FDFDFD" stroke="#510A5E"/>
<path opacity="0.3" d="M1617.62 1549.54L1641.05 1515.22L1679.6 1559.35L1655.19 1592.65L1617.62 1549.54Z" fill="#FDFDFD" stroke="#510A5E"/>
<path opacity="0.3" d="M1613.57 1544.89L1582.06 1508.74L1605.5 1474.54L1636.89 1510.48L1613.57 1544.89Z" fill="#FDFDFD" stroke="#510A5E"/>
<path opacity="0.3" d="M1706.75 1651.79L1732.05 1619.37L1768.68 1661.29L1743.12 1693.52L1706.75 1651.79Z" fill="#FDFDFD" stroke="#510A5E"/>
<path d="M1457.76 1625.81L1654.42 1870.27C1661.04 1842.21 1734.4 1690.92 1734.4 1690.92C1740.14 1679.21 1738.36 1665.22 1729.86 1655.33L1548.26 1446.79C1541.4 1438.81 1528.5 1441.1 1524.82 1450.96C1524.82 1450.96 1450.47 1580.04 1457.74 1625.81L1457.76 1625.81Z" fill="#FDFDFD" stroke="#510A5E" stroke-linecap="round" stroke-linejoin="round"/>
<g opacity="0.7">
<path d="M1724.85 1668.87C1723.27 1669.71 1721.26 1669.4 1720.02 1667.99C1717.01 1664.61 1714.01 1661.19 1711.04 1657.77C1709.6 1656.11 1709.77 1653.6 1711.42 1652.16C1713.08 1650.71 1715.59 1650.88 1717.04 1652.54C1719.99 1655.94 1722.98 1659.33 1725.97 1662.71C1727.43 1664.35 1727.27 1666.86 1725.64 1668.32C1725.39 1668.54 1725.14 1668.72 1724.86 1668.86L1724.85 1668.87Z" fill="#FDFDFD"/>
</g>
<g opacity="0.7">
<path d="M1701.1 1641.39C1699.5 1642.24 1697.47 1641.91 1696.23 1640.47L1536.3 1454.85C1536.3 1454.85 1536.13 1454.65 1535.87 1454.68C1535.62 1454.7 1535.53 1454.86 1535.5 1454.92C1527.51 1469.68 1500.57 1519.83 1489.42 1545.58C1482.53 1562.39 1477.48 1580.17 1473.06 1603.18C1472.65 1605.34 1470.57 1606.74 1468.41 1606.34C1466.24 1605.93 1464.84 1603.85 1465.24 1601.69C1469.76 1578.14 1474.96 1559.88 1482.08 1542.49C1493.08 1517.09 1518.2 1470.15 1528.49 1451.14C1529.81 1448.7 1532.25 1447.06 1535.01 1446.77C1537.76 1446.48 1540.5 1447.55 1542.31 1449.66L1702.25 1635.28C1703.68 1636.94 1703.5 1639.46 1701.83 1640.89C1701.61 1641.09 1701.35 1641.26 1701.1 1641.39Z" fill="#FDFDFD"/>
</g>
</g>
<g clip-path="url(#clip4_1291_2944)">
<path d="M265.583 1592.72L238.118 1578.86L126.419 1522.51L91.3152 1504.8C82.2529 1500.23 78.6183 1489.15 83.2027 1480.07L86.7623 1473.02L146.383 1354.97L216.072 1216.97C220.657 1207.9 231.729 1204.24 240.791 1208.81L294.554 1235.94L339.965 1258.85L415.058 1296.74C424.121 1301.31 427.748 1312.38 423.171 1321.46L410.398 1346.75L330.764 1504.44L290.303 1584.56C285.718 1593.64 274.646 1597.3 265.584 1592.73L265.583 1592.72Z" fill="white"/>
<path d="M89.5706 1504.36C85.8477 1502.03 83.0808 1498.5 81.6923 1494.27C80.1204 1489.48 80.508 1484.36 82.7812 1479.86L215.649 1216.76C217.924 1212.26 221.814 1208.9 226.603 1207.32C231.394 1205.74 236.509 1206.12 241.004 1208.39L415.272 1296.31C424.553 1300.99 428.28 1312.37 423.593 1321.67L290.725 1584.77C288.452 1589.28 284.56 1592.63 279.771 1594.21C274.981 1595.79 269.866 1595.41 265.371 1593.15L91.1029 1505.22C90.5757 1504.95 90.0647 1504.67 89.5706 1504.36ZM416.282 1297.97C415.82 1297.68 415.341 1297.41 414.845 1297.16L240.577 1209.23C236.307 1207.08 231.449 1206.72 226.901 1208.22C222.351 1209.72 218.656 1212.91 216.497 1217.18L83.6277 1480.28C81.467 1484.56 81.1017 1489.42 82.5938 1493.97C84.0875 1498.52 87.2594 1502.21 91.532 1504.37L265.8 1592.3C270.07 1594.45 274.928 1594.81 279.477 1593.31C284.026 1591.8 287.722 1588.62 289.88 1584.34L422.75 1321.24C426.95 1312.9 424.029 1302.81 416.283 1297.97L416.282 1297.97Z" fill="#390075" fill-opacity="0.2"/>
<path d="M266.31 1590.18L265.137 1592.5L266.03 1592.95L267.206 1590.62C274.897 1594.2 284.13 1591.03 287.99 1583.39L420.85 1320.29C422.755 1316.52 423.079 1312.23 421.764 1308.22L421.32 1308.36L421.764 1308.22C420.602 1304.68 418.284 1301.72 415.165 1299.77C414.753 1299.52 414.325 1299.27 413.882 1299.05C413.881 1299.05 413.881 1299.05 413.881 1299.05L239.614 1211.13C231.837 1207.21 222.316 1210.35 218.381 1218.14L218.381 1218.14L85.5203 1481.24C83.6151 1485.01 83.2913 1489.3 84.6066 1493.31C85.9219 1497.32 88.7193 1500.58 92.4883 1502.48L266.31 1590.18ZM213.752 1215.8L213.306 1215.58L213.752 1215.8C218.977 1205.46 231.632 1201.28 241.959 1206.49L416.227 1294.41C421.228 1296.94 424.948 1301.26 426.697 1306.59C428.445 1311.92 428.013 1317.61 425.483 1322.63C425.483 1322.63 425.483 1322.63 425.483 1322.63L292.623 1585.72C287.398 1596.07 274.743 1600.25 264.417 1595.04L90.1484 1507.12C89.5627 1506.82 88.993 1506.5 88.4428 1506.16C84.3003 1503.57 81.2222 1499.65 79.6787 1494.94C77.9305 1489.61 78.3623 1483.92 80.892 1478.9L213.752 1215.8Z" stroke="#390075" stroke-opacity="0.2"/>
<path d="M440.592 1399.01L210.854 1583.57C202.924 1589.94 191.353 1588.68 185 1580.75L62.9231 1428.4C56.572 1420.47 57.8516 1408.89 65.7832 1402.52L295.522 1217.96C303.452 1211.59 315.023 1212.85 321.376 1220.78L443.453 1373.13C449.804 1381.06 448.524 1392.64 440.593 1399.01L440.592 1399.01Z" fill="white"/>
<path d="M189.348 1585.25C187.574 1584.15 185.98 1582.73 184.631 1581.05L62.5539 1428.7C56.0506 1420.58 57.3665 1408.67 65.486 1402.15L295.224 1217.59C303.344 1211.07 315.242 1212.36 321.743 1220.48L443.82 1372.83C446.971 1376.76 448.402 1381.69 447.848 1386.7C447.294 1391.72 444.823 1396.22 440.888 1399.38L211.148 1583.94C207.214 1587.1 202.289 1588.54 197.281 1587.99C194.416 1587.68 191.718 1586.74 189.346 1585.26L189.348 1585.25ZM316.548 1217.1C310.269 1213.17 301.92 1213.43 295.817 1218.33L66.0787 1402.89C58.3668 1409.08 57.1181 1420.39 63.293 1428.1L185.37 1580.45C188.363 1584.19 192.629 1586.53 197.387 1587.05C202.143 1587.57 206.82 1586.2 210.557 1583.2L440.296 1398.64C444.033 1395.64 446.38 1391.36 446.906 1386.6C447.433 1381.84 446.074 1377.16 443.082 1373.42L321.006 1221.07C319.718 1219.46 318.204 1218.14 316.548 1217.1Z" fill="#390075" fill-opacity="0.2"/>
<path d="M197.048 1590.11C193.949 1589.77 191.027 1588.77 188.443 1587.2L188.22 1587.06C186.247 1585.83 184.473 1584.25 182.973 1582.38L182.583 1582.69L182.973 1582.38L60.8945 1430.03C53.6605 1421 55.1247 1407.75 64.1594 1400.49L293.895 1215.94C298.271 1212.42 303.75 1210.82 309.323 1211.42L309.323 1211.42C314.897 1212.03 319.895 1214.77 323.399 1219.15L323.399 1219.15L445.478 1371.5C452.712 1380.53 451.248 1393.78 442.213 1401.04L212.477 1585.59C208.1 1589.11 202.62 1590.71 197.048 1590.11ZM308.752 1216.59L308.701 1217.05L308.752 1216.59C304.556 1216.13 300.432 1217.34 297.137 1219.99L67.4004 1404.54C60.6004 1410 59.4972 1419.98 64.945 1426.77L187.024 1579.13C189.66 1582.42 193.426 1584.49 197.621 1584.94C201.817 1585.4 205.941 1584.19 209.236 1581.55L438.972 1396.99C445.772 1391.53 446.876 1381.56 441.428 1374.76L319.349 1222.4C318.222 1221 316.887 1219.81 315.401 1218.88L314.977 1218.62L314.972 1218.62C313.089 1217.53 310.98 1216.83 308.752 1216.59Z" stroke="#390075" stroke-opacity="0.2"/>
<path d="M307.238 1399.45L307.366 1399.55C309.615 1401.26 311.7 1403.24 313.461 1405.54L313.462 1405.54C315.223 1407.82 316.584 1410.45 317.487 1413.24L317.488 1413.24C319.303 1418.82 319.013 1425.07 316.601 1430.42L316.6 1430.42C315.405 1433.1 313.689 1435.54 311.638 1437.56L311.638 1437.56C309.586 1439.59 307.215 1441.22 304.713 1442.47C299.688 1444.94 294.207 1445.95 288.805 1445.8C283.343 1445.62 278.227 1444.21 273.426 1442.26C268.633 1440.29 264.213 1437.76 259.989 1435.08C257.522 1433.5 255.11 1431.87 252.716 1430.24C246.961 1426.34 241.305 1422.51 235.223 1419.72L235.221 1419.72C234.144 1419.23 233.058 1418.77 231.962 1418.34L231.956 1418.34C230.874 1417.93 229.781 1417.57 228.672 1417.27L228.67 1417.27C226.458 1416.67 224.192 1416.33 221.995 1416.4L221.989 1416.4C220.897 1416.44 219.823 1416.58 218.795 1416.84L218.795 1416.84L218.782 1416.84C217.762 1417.12 216.795 1417.52 215.897 1418.04L215.89 1418.05L215.883 1418.05C214.122 1419.15 212.697 1420.71 211.811 1422.67L211.81 1422.67C210.081 1426.59 210.452 1431.54 212.119 1435.75C212.22 1436.04 212.343 1436.31 212.462 1436.56C212.495 1436.63 212.526 1436.69 212.558 1436.76C212.647 1436.94 212.731 1437.12 212.81 1437.3L212.814 1437.31L212.818 1437.32C212.974 1437.65 213.167 1437.98 213.347 1438.3C213.45 1438.48 213.548 1438.65 213.634 1438.81L213.643 1438.83L213.653 1438.84C213.871 1439.18 214.098 1439.51 214.323 1439.84C214.412 1439.97 214.501 1440.11 214.589 1440.24L214.598 1440.25L214.607 1440.26L215.707 1441.7L215.708 1441.7C215.763 1441.77 215.818 1441.84 215.873 1441.91C216.577 1442.83 217.29 1443.75 217.942 1444.79C218.639 1445.92 219.286 1447.13 219.609 1448.55C219.93 1449.96 219.898 1451.52 219.343 1452.9L219.341 1452.91C218.8 1454.3 217.801 1455.48 216.669 1456.29C214.331 1457.91 211.656 1458.49 208.998 1458.44C206.834 1458.34 204.878 1457.89 202.943 1457.44C202.482 1457.33 202.023 1457.22 201.563 1457.12C199.21 1456.6 196.835 1456.18 194.548 1456.5C189.966 1457.09 185.667 1460.36 183.965 1464.76C182.252 1469.13 183.059 1474.51 186.1 1478.21L186.103 1478.21L186.146 1478.26C186.248 1478.39 186.233 1478.57 186.108 1478.67C185.988 1478.77 185.808 1478.76 185.705 1478.64C182.356 1474.85 181.261 1469.25 182.957 1464.39C184.68 1459.52 189.16 1455.82 194.315 1454.95L194.317 1454.95C196.919 1454.51 199.493 1454.89 201.93 1455.35C202.307 1455.42 202.684 1455.49 203.061 1455.57C205.096 1455.97 207.129 1456.36 209.027 1456.38L209.034 1456.38C211.269 1456.36 213.617 1455.71 215.289 1454.44L215.293 1454.44C216.133 1453.79 216.741 1452.97 217.062 1452.07C217.401 1451.14 217.377 1450.12 217.128 1449.16L217.127 1449.16C216.599 1447.21 215.052 1445.3 213.52 1443.46C213.519 1443.46 213.519 1443.46 213.519 1443.46L212.34 1442.02C212.276 1441.93 212.212 1441.84 212.149 1441.76C211.821 1441.31 211.494 1440.87 211.185 1440.42C211.066 1440.22 210.948 1440.03 210.833 1439.84C210.602 1439.47 210.381 1439.11 210.181 1438.73C210.071 1438.5 209.962 1438.29 209.857 1438.09C209.66 1437.71 209.476 1437.36 209.322 1436.96L209.318 1436.96L209.315 1436.95C208.267 1434.54 207.598 1431.96 207.404 1429.3C207.221 1426.65 207.497 1423.88 208.552 1421.29L208.553 1421.29C209.595 1418.7 211.515 1416.39 213.888 1414.83C215.088 1414.07 216.388 1413.49 217.725 1413.07C219.067 1412.68 220.432 1412.46 221.792 1412.36C227.237 1412.02 232.404 1413.62 237.048 1415.57C243.706 1418.37 249.671 1422.13 255.527 1425.83C257.983 1427.38 260.421 1428.91 262.882 1430.36C262.882 1430.36 262.882 1430.36 262.882 1430.36L263.136 1429.93M307.238 1399.45L288.925 1439.29C286.726 1439.3 284.491 1439.03 282.254 1438.58L282.254 1438.58C280.024 1438.12 277.811 1437.46 275.629 1436.65M307.238 1399.45C305.338 1398.11 302.71 1398.56 301.352 1400.46C299.986 1402.36 300.422 1405.01 302.324 1406.38L307.238 1399.45ZM263.136 1429.93C267.274 1432.37 271.477 1434.58 275.804 1436.18M263.136 1429.93C260.702 1428.5 258.28 1426.97 255.832 1425.43C249.961 1421.72 243.94 1417.92 237.242 1415.1C232.572 1413.15 227.319 1411.52 221.759 1411.86L263.136 1429.93ZM275.804 1436.18L275.629 1436.65M275.804 1436.18C277.965 1436.98 280.153 1437.63 282.355 1438.09L275.629 1436.65M275.804 1436.18L275.63 1436.65C275.63 1436.65 275.629 1436.65 275.629 1436.65" stroke="#390075" stroke-opacity="0.2"/>
<path d="M234.413 1360.92L179.235 1209.52C176.806 1202.85 180.235 1195.48 186.897 1193.04L203.779 1186.85C210.441 1184.41 217.805 1187.84 220.233 1194.5L275.411 1345.91L275.448 1347.38L276.468 1391.06L276.763 1403.7C276.84 1407.04 272.631 1408.58 270.541 1405.98L262.636 1396.12L235.328 1362.07L234.411 1360.92L234.413 1360.92Z" fill="#FDFDFD"/>
<path d="M263.019 1395.82L236.031 1362.18C237.783 1360.72 238.114 1358.56 238.413 1356.6C238.436 1356.45 238.46 1356.29 238.483 1356.14C238.844 1353.86 239.303 1351.86 241.613 1350.74C244.022 1349.66 245.878 1350.68 247.93 1351.92C248.008 1351.97 248.086 1352.02 248.165 1352.06C250.095 1353.24 252.254 1354.55 254.943 1353.53C257.655 1352.58 258.461 1350.18 259.181 1348.03C259.21 1347.94 259.239 1347.86 259.268 1347.77C260.037 1345.49 260.799 1343.51 263.339 1342.79C265.824 1342.15 267.457 1343.38 269.204 1344.89C269.319 1344.99 269.435 1345.09 269.552 1345.2C271.039 1346.5 272.685 1347.94 274.961 1347.92L275.965 1391.08L276.259 1403.72C276.325 1406.58 272.716 1407.9 270.925 1405.67L263.019 1395.82Z" stroke="#390075" stroke-opacity="0.2"/>
<path d="M234.867 1362.03L235.146 1361.84C236.977 1360.59 237.287 1358.58 237.616 1356.45C237.998 1353.97 238.395 1351.4 241.266 1350.01C244.179 1348.7 246.395 1350.04 248.538 1351.35C250.495 1352.53 252.345 1353.66 254.662 1352.78C257.007 1351.95 257.698 1349.9 258.43 1347.72C259.23 1345.34 260.059 1342.88 263.124 1342.01C266.221 1341.21 268.173 1342.92 270.062 1344.57C271.686 1345.98 273.218 1347.32 275.418 1347.09L275.754 1347.06L277.072 1403.7C277.109 1405.36 276.127 1406.8 274.568 1407.37C273.009 1407.94 271.333 1407.48 270.295 1406.18L234.868 1362.03L234.867 1362.03ZM275.146 1347.73C272.856 1347.83 271.228 1346.41 269.652 1345.03C267.802 1343.42 266.057 1341.89 263.286 1342.61C260.544 1343.39 259.804 1345.59 259.02 1347.92C258.273 1350.14 257.501 1352.44 254.875 1353.36C252.281 1354.35 250.214 1353.09 248.215 1351.88C246.117 1350.6 244.136 1349.4 241.53 1350.57C238.96 1351.82 238.607 1354.11 238.232 1356.54C237.912 1358.61 237.583 1360.75 235.768 1362.15L270.779 1405.79C271.833 1407.1 273.317 1407.17 274.354 1406.79C275.392 1406.41 276.486 1405.4 276.448 1403.72L275.145 1347.73L275.146 1347.73Z" fill="#390075" fill-opacity="0.2"/>
<g opacity="0.55">
<path d="M271.678 1406.9C271.857 1406.47 271.953 1405.99 271.943 1405.45L271.648 1392.81L270.631 1349.14L270.594 1347.67L215.403 1196.28C212.973 1189.62 205.607 1186.2 198.942 1188.64L203.768 1186.87C210.433 1184.43 217.799 1187.85 220.228 1194.52L275.419 1345.9L275.456 1347.37L276.473 1391.04L276.768 1403.69C276.834 1406.49 273.867 1408.03 271.678 1406.9Z" fill="white"/>
</g>
<path d="M186.408 1191.7L186.408 1191.7C181.31 1193.56 177.91 1198.05 177.18 1203.09L177.156 1203.27C176.864 1205.48 177.084 1207.78 177.896 1210.01L233.073 1361.41L233.073 1361.41C233.126 1361.56 233.203 1361.69 233.302 1361.82L269.43 1406.87C269.43 1406.87 269.43 1406.87 269.43 1406.87C270.774 1408.54 272.935 1409.15 274.953 1408.41C276.971 1407.67 278.237 1405.81 278.188 1403.66L186.408 1191.7ZM186.408 1191.7L203.291 1185.51C210.678 1182.81 218.879 1186.62 221.573 1194.01L276.75 1345.41C276.804 1345.56 276.833 1345.71 276.836 1345.87L276.836 1345.87L278.188 1403.66L186.408 1191.7ZM233.916 1360.86L233.916 1360.86L234.907 1360.99L234.908 1360.99L233.916 1360.86ZM235.643 1360.13L235.671 1360.21L273.806 1405.26L273.976 1405.73C273.976 1405.73 273.977 1405.73 273.977 1405.73C274.283 1405.61 275.371 1405.11 275.339 1403.73L275.339 1403.73L273.995 1346.26L273.985 1345.83L273.86 1345.81L218.894 1194.99C216.739 1189.08 210.177 1186.03 204.267 1188.19C204.267 1188.19 204.267 1188.19 204.267 1188.19L187.384 1194.38C181.471 1196.54 178.417 1203.11 180.574 1209.03C180.574 1209.03 180.574 1209.03 180.574 1209.03L235.643 1360.13Z" stroke="#390075" stroke-opacity="0.2"/>
<path d="M262.63 1396.15C266.479 1392.37 271.085 1390.68 276.459 1391.08L276.754 1403.73C276.831 1407.07 272.623 1408.61 270.533 1406.01L262.629 1396.15L262.63 1396.15Z" fill="#390075" fill-opacity="0.2"/>
<path d="M183.215 1224.09L183.222 1224.03C183.244 1223.91 183.281 1223.79 183.333 1223.68L183.334 1223.68C183.494 1223.33 183.783 1223.07 184.138 1222.94L225.129 1207.92L225.129 1207.92C225.484 1207.79 225.876 1207.81 226.218 1207.97C226.561 1208.12 226.826 1208.41 226.956 1208.77L231.681 1221.73L231.681 1221.73C231.951 1222.47 231.569 1223.29 230.831 1223.56C230.831 1223.56 230.831 1223.56 230.831 1223.56L189.84 1238.58L189.84 1238.58C189.101 1238.85 188.284 1238.47 188.014 1237.73L183.289 1224.77C183.289 1224.77 183.289 1224.77 183.289 1224.77C183.21 1224.55 183.185 1224.32 183.215 1224.09ZM183.1 1223.1C183.321 1222.82 183.62 1222.59 183.966 1222.47L224.957 1207.45C225.437 1207.27 225.967 1207.3 226.429 1207.51C226.892 1207.73 227.251 1208.12 227.426 1208.6L183.1 1223.1ZM224.937 1211.56L224.584 1211.69L224.534 1211.24L224.533 1211.24L223.715 1211.13L223.827 1211.43L186.922 1224.95L186.453 1225.13L186.624 1225.59L190.031 1234.94L190.202 1235.41L190.672 1235.24L228.046 1221.55L228.515 1221.38L228.344 1220.91L224.937 1211.56Z" stroke="#390075" stroke-opacity="0.2"/>
</g>
<g clip-path="url(#clip5_1291_2944)">
<path d="M1620.31 1103.1L1594.84 1085.85L1491.23 1015.72L1458.67 993.677C1450.27 987.987 1448.08 976.538 1453.78 968.118L1458.21 961.577L1532.39 852.089L1619.11 724.106C1624.81 715.686 1636.26 713.47 1644.66 719.16L1694.53 752.919L1736.65 781.434L1806.3 828.586C1814.71 834.276 1816.89 845.715 1811.19 854.145L1795.3 877.597L1696.21 1023.85L1645.87 1098.16C1640.16 1106.58 1628.72 1108.79 1620.31 1103.1L1620.31 1103.1Z" fill="white"/>
<path d="M1457 993.014C1453.6 990.23 1451.31 986.381 1450.47 982.008C1449.52 977.054 1450.56 972.027 1453.39 967.85L1618.71 723.836C1621.54 719.66 1625.83 716.831 1630.78 715.873C1635.73 714.914 1640.76 715.941 1644.93 718.764L1806.57 828.189C1815.17 834.014 1817.42 845.774 1811.59 854.405L1646.26 1098.42C1643.43 1102.6 1639.14 1105.42 1634.19 1106.38C1629.24 1107.34 1624.21 1106.31 1620.05 1103.49L1458.41 994.066C1457.92 993.735 1457.45 993.384 1457 993.014ZM1807.36 829.96C1806.94 829.614 1806.49 829.285 1806.03 828.973L1644.4 719.548C1640.44 716.867 1635.66 715.893 1630.96 716.803C1626.26 717.714 1622.19 720.399 1619.5 724.367L1454.17 968.379C1451.49 972.347 1450.5 977.123 1451.4 981.826C1452.3 986.53 1454.98 990.592 1458.94 993.278L1620.58 1102.7C1624.54 1105.38 1629.31 1106.36 1634.02 1105.45C1638.72 1104.54 1642.79 1101.85 1645.48 1097.88L1810.8 853.872C1816.03 846.135 1814.42 835.751 1807.36 829.958L1807.36 829.96Z" fill="#390075" fill-opacity="0.2"/>
<path d="M1621.36 1100.67L1619.9 1102.82L1620.73 1103.38L1622.19 1101.23C1629.36 1105.76 1638.92 1103.79 1643.73 1096.7L1809.04 852.69C1811.41 849.193 1812.28 844.979 1811.49 840.833L1811.03 840.921L1811.49 840.833C1810.79 837.173 1808.87 833.947 1806.02 831.615C1805.64 831.307 1805.25 831.012 1804.84 830.735C1804.84 830.735 1804.84 830.735 1804.84 830.735L1643.2 721.315C1635.99 716.432 1626.14 718.338 1621.25 725.561L1621.25 725.561L1455.93 969.576C1453.56 973.074 1452.69 977.287 1453.49 981.433C1454.28 985.579 1456.64 989.165 1460.13 991.531L1621.36 1100.67ZM1616.96 722.654L1616.54 722.374L1616.96 722.654C1623.46 713.058 1636.54 710.528 1646.12 717.012L1807.76 826.433C1812.4 829.575 1815.53 834.336 1816.59 839.845C1817.64 845.354 1816.49 850.947 1813.34 855.597C1813.34 855.597 1813.34 855.597 1813.34 855.597L1648.02 1099.61C1641.52 1109.21 1628.44 1111.74 1618.86 1105.25L1457.22 995.833C1456.68 995.465 1456.15 995.075 1455.65 994.663C1451.87 991.565 1449.32 987.285 1448.39 982.421C1447.34 976.912 1448.49 971.318 1451.64 966.669L1616.96 722.654Z" stroke="#390075" stroke-opacity="0.2"/>
<path d="M1818.59 933.285L1567.2 1087.05C1558.52 1092.36 1547.2 1089.63 1541.91 1080.96L1440.25 914.285C1434.96 905.614 1437.71 894.289 1446.39 888.979L1697.78 735.219C1706.46 729.911 1717.78 732.636 1723.07 741.308L1824.72 907.981C1830.01 916.652 1827.27 927.978 1818.59 933.288L1818.59 933.285Z" fill="white"/>
<path d="M1545.65 1085.98C1544.03 1084.65 1542.63 1083.05 1541.51 1081.2L1439.85 914.532C1434.43 905.653 1437.26 894.007 1446.14 888.574L1697.53 734.811C1706.42 729.376 1718.05 732.178 1723.47 741.057L1825.13 907.73C1827.75 912.032 1828.54 917.101 1827.35 922.001C1826.16 926.903 1823.14 931.053 1818.83 933.688L1567.44 1087.45C1563.14 1090.08 1558.07 1090.88 1553.17 1089.7C1550.37 1089.03 1547.81 1087.75 1545.65 1085.98L1545.65 1085.98ZM1718.75 737.045C1713.02 732.35 1704.71 731.535 1698.03 735.62L1446.64 889.382C1438.2 894.543 1435.52 905.603 1440.66 914.036L1542.32 1080.71C1544.81 1084.8 1548.74 1087.66 1553.39 1088.78C1558.05 1089.9 1562.86 1089.14 1566.95 1086.64L1818.34 932.878C1822.43 930.377 1825.3 926.436 1826.43 921.78C1827.56 917.124 1826.81 912.311 1824.32 908.224L1722.66 741.552C1721.59 739.793 1720.26 738.284 1718.75 737.045Z" fill="#390075" fill-opacity="0.2"/>
<path d="M1552.67 1091.77C1549.64 1091.04 1546.87 1089.68 1544.5 1087.79L1544.3 1087.62C1542.5 1086.15 1540.94 1084.36 1539.69 1082.31L1539.27 1082.57L1539.69 1082.31L1438.03 915.639C1432.01 905.76 1435.15 892.803 1445.04 886.757L1696.43 732.998C1701.22 730.069 1706.85 729.178 1712.3 730.491L1712.3 730.491C1717.76 731.803 1722.36 735.16 1725.28 739.946L1725.28 739.946L1826.94 906.62C1832.96 916.499 1829.82 929.456 1819.94 935.502L1568.55 1089.26C1563.76 1092.19 1558.12 1093.08 1552.67 1091.77ZM1711.08 735.541L1710.97 735.991L1711.08 735.541C1706.98 734.553 1702.73 735.223 1699.13 737.428L1447.74 891.188C1440.3 895.739 1437.93 905.491 1442.47 912.928L1544.13 1079.6C1546.32 1083.2 1549.79 1085.73 1553.9 1086.72C1558 1087.71 1562.24 1087.04 1565.85 1084.83L1817.24 931.074C1824.68 926.523 1827.05 916.771 1822.51 909.333L1720.85 742.659C1719.91 741.12 1718.74 739.773 1717.38 738.662L1717 738.345L1716.99 738.353C1715.26 737.026 1713.26 736.065 1711.08 735.541Z" stroke="#390075" stroke-opacity="0.2"/>
<path d="M1686.26 916.721L1686.38 916.834C1688.39 918.819 1690.21 921.05 1691.66 923.549L1691.66 923.551C1693.12 926.036 1694.13 928.826 1694.67 931.708L1694.67 931.709C1695.76 937.469 1694.68 943.635 1691.6 948.63L1691.6 948.632C1690.07 951.137 1688.06 953.336 1685.77 955.082L1685.77 955.083C1683.47 956.837 1680.92 958.15 1678.28 959.063C1672.98 960.88 1667.41 961.181 1662.07 960.34C1656.68 959.463 1651.78 957.418 1647.27 954.867C1642.77 952.304 1638.71 949.233 1634.86 946.031C1632.61 944.154 1630.43 942.225 1628.26 940.311C1623.05 935.709 1617.93 931.187 1612.25 927.646L1612.25 927.645C1611.24 927.023 1610.23 926.429 1609.19 925.864L1609.19 925.862C1608.17 925.319 1607.13 924.816 1606.07 924.375L1606.07 924.375C1603.95 923.506 1601.74 922.877 1599.56 922.661L1599.55 922.66C1598.46 922.566 1597.38 922.568 1596.33 922.691L1596.33 922.691L1596.31 922.693C1595.27 922.842 1594.26 923.115 1593.3 923.515L1593.29 923.519L1593.28 923.522C1591.4 924.387 1589.78 925.75 1588.66 927.581L1588.65 927.585C1586.44 931.252 1586.18 936.208 1587.29 940.596C1587.36 940.894 1587.44 941.178 1587.53 941.444C1587.55 941.516 1587.58 941.586 1587.6 941.654C1587.66 941.85 1587.73 942.035 1587.78 942.227L1587.78 942.236L1587.79 942.246C1587.9 942.589 1588.05 942.947 1588.19 943.282C1588.27 943.472 1588.34 943.655 1588.41 943.824L1588.41 943.842L1588.42 943.859C1588.59 944.223 1588.78 944.583 1588.96 944.939C1589.03 945.08 1589.1 945.221 1589.17 945.361L1589.18 945.375L1589.19 945.388L1590.09 946.953L1590.09 946.954C1590.14 947.032 1590.19 947.109 1590.23 947.187C1590.81 948.185 1591.4 949.193 1591.92 950.308C1592.46 951.516 1592.95 952.8 1593.09 954.245C1593.23 955.691 1593 957.229 1592.27 958.527L1592.27 958.533C1591.55 959.852 1590.41 960.887 1589.19 961.548C1586.66 962.858 1583.94 963.089 1581.31 962.702C1579.17 962.327 1577.29 961.629 1575.43 960.938C1574.98 960.774 1574.54 960.61 1574.1 960.451C1571.83 959.628 1569.53 958.913 1567.22 958.938C1562.6 958.941 1557.92 961.633 1555.67 965.782C1553.41 969.899 1553.53 975.338 1556.07 979.39L1556.08 979.397L1556.11 979.454C1556.2 979.587 1556.16 979.766 1556.02 979.854C1555.89 979.938 1555.71 979.901 1555.63 979.772C1552.79 975.589 1552.42 969.893 1554.72 965.288C1557.05 960.677 1561.96 957.576 1567.19 957.372L1567.19 957.372C1569.83 957.262 1572.33 957.972 1574.69 958.736C1575.05 958.855 1575.42 958.977 1575.78 959.098C1577.75 959.753 1579.72 960.407 1581.6 960.663L1581.6 960.664C1583.82 960.936 1586.23 960.589 1588.05 959.541L1588.06 959.539C1588.98 958.999 1589.68 958.27 1590.12 957.413C1590.57 956.536 1590.68 955.522 1590.55 954.54L1590.55 954.535C1590.28 952.533 1588.99 950.439 1587.7 948.42C1587.7 948.419 1587.7 948.419 1587.7 948.418L1586.71 946.84C1586.66 946.746 1586.61 946.652 1586.56 946.559C1586.29 946.075 1586.02 945.594 1585.77 945.108C1585.68 944.895 1585.59 944.691 1585.5 944.491C1585.31 944.092 1585.14 943.71 1584.99 943.307C1584.91 943.068 1584.83 942.846 1584.75 942.631C1584.6 942.229 1584.47 941.853 1584.36 941.446L1584.36 941.437L1584.36 941.429C1583.63 938.907 1583.29 936.267 1583.44 933.601C1583.6 930.943 1584.22 928.237 1585.6 925.798L1585.6 925.797C1586.96 923.369 1589.16 921.318 1591.72 920.075C1593 919.475 1594.37 919.059 1595.74 918.82C1597.13 918.605 1598.51 918.559 1599.87 918.632C1605.31 918.991 1610.23 921.233 1614.59 923.756C1620.84 927.385 1626.27 931.878 1631.61 936.29C1633.85 938.14 1636.07 939.976 1638.33 941.728C1638.33 941.728 1638.33 941.728 1638.33 941.728L1638.64 941.333M1686.26 916.721L1663.02 953.896C1660.84 953.628 1658.66 953.08 1656.5 952.342L1656.5 952.342C1654.34 951.604 1652.23 950.669 1650.17 949.588M1686.26 916.721C1684.55 915.153 1681.89 915.261 1680.3 916.969C1678.7 918.686 1678.79 921.369 1680.51 922.964L1686.26 916.721ZM1638.64 941.333C1642.43 944.281 1646.32 947.001 1650.4 949.145M1638.64 941.333C1636.4 939.6 1634.2 937.776 1631.97 935.931C1626.61 931.509 1621.13 926.973 1614.84 923.323C1610.46 920.786 1605.46 918.499 1599.9 918.132L1638.64 941.333ZM1650.4 949.145L1650.17 949.588M1650.4 949.145C1652.44 950.216 1654.53 951.141 1656.66 951.869L1650.17 949.588M1650.4 949.145L1650.17 949.588C1650.17 949.588 1650.17 949.588 1650.17 949.588" stroke="#390075" stroke-opacity="0.2"/>
<path d="M1618.95 869.226L1583.52 712.023C1581.96 705.102 1586.3 698.224 1593.22 696.653L1610.75 692.673C1617.67 691.102 1624.54 695.435 1626.1 702.355L1661.52 859.559L1661.37 861.022L1656.82 904.475L1655.5 917.053C1655.15 920.377 1650.78 921.37 1649.04 918.52L1642.45 907.737L1619.71 870.483L1618.94 869.228L1618.95 869.226Z" fill="#FDFDFD"/>
<path d="M1642.87 907.486L1620.39 870.681C1622.31 869.457 1622.92 867.351 1623.46 865.448C1623.51 865.299 1623.55 865.15 1623.59 865.004C1624.24 862.781 1624.95 860.862 1627.39 860.046C1629.91 859.277 1631.62 860.527 1633.5 862.022C1633.57 862.079 1633.64 862.136 1633.72 862.194C1635.48 863.605 1637.45 865.183 1640.25 864.512C1643.06 863.909 1644.17 861.633 1645.16 859.597C1645.2 859.514 1645.24 859.431 1645.28 859.349C1646.33 857.189 1647.34 855.321 1649.95 854.924C1652.49 854.61 1653.96 856.035 1655.5 857.761C1655.6 857.875 1655.7 857.991 1655.8 858.107C1657.11 859.589 1658.56 861.228 1660.82 861.503L1656.31 904.433L1654.99 917.007C1654.69 919.857 1650.95 920.706 1649.46 918.266L1642.87 907.486Z" stroke="#390075" stroke-opacity="0.2"/>
<path d="M1619.26 870.38L1619.56 870.228C1621.53 869.227 1622.1 867.269 1622.69 865.195C1623.39 862.784 1624.11 860.29 1627.13 859.279C1630.19 858.345 1632.22 859.963 1634.18 861.527C1635.97 862.956 1637.66 864.307 1640.07 863.727C1642.5 863.207 1643.45 861.259 1644.45 859.196C1645.55 856.937 1646.68 854.601 1649.83 854.126C1653.01 853.73 1654.73 855.671 1656.39 857.547C1657.82 859.16 1659.17 860.684 1661.38 860.735L1661.72 860.743L1655.8 917.095C1655.63 918.747 1654.47 920.048 1652.85 920.415C1651.23 920.783 1649.63 920.106 1648.77 918.692L1619.26 870.381L1619.26 870.38ZM1661.03 861.338C1658.74 861.144 1657.31 859.526 1655.92 857.959C1654.29 856.122 1652.76 854.387 1649.92 854.741C1647.1 855.166 1646.09 857.255 1645.01 859.466C1643.99 861.573 1642.93 863.751 1640.21 864.332C1637.51 864.982 1635.62 863.472 1633.79 862.013C1631.87 860.482 1630.06 859.035 1627.32 859.87C1624.62 860.774 1623.97 863.004 1623.29 865.365C1622.71 867.378 1622.11 869.458 1620.13 870.62L1649.3 918.366C1650.17 919.801 1651.64 920.052 1652.71 919.807C1653.79 919.563 1655.01 918.702 1655.18 917.029L1661.03 861.338L1661.03 861.338Z" fill="#390075" fill-opacity="0.2"/>
<g opacity="0.55">
<path d="M1650.05 919.578C1650.28 919.177 1650.44 918.707 1650.49 918.173L1651.81 905.597L1656.37 862.15L1656.52 860.686L1621.08 703.502C1619.52 696.582 1612.65 692.25 1605.73 693.82L1610.74 692.683C1617.66 691.113 1624.53 695.445 1626.09 702.365L1661.53 859.549L1661.38 861.012L1656.82 904.46L1655.5 917.036C1655.21 919.827 1652.07 920.974 1650.05 919.578Z" fill="white"/>
</g>
<path d="M1592.91 695.261L1592.91 695.261C1587.61 696.462 1583.67 700.484 1582.3 705.387L1582.25 705.562C1581.68 707.711 1581.61 710.024 1582.13 712.339L1617.56 869.542L1617.56 869.542C1617.59 869.692 1617.65 869.837 1617.73 869.972L1647.82 919.263C1647.82 919.263 1647.82 919.263 1647.82 919.263C1648.94 921.094 1651.01 921.966 1653.1 921.491C1655.2 921.016 1656.69 919.336 1656.92 917.197L1592.91 695.261ZM1592.91 695.261L1610.44 691.28C1618.11 689.539 1625.76 694.364 1627.49 702.038L1662.92 859.241C1662.95 859.393 1662.96 859.549 1662.94 859.703L1662.94 859.704L1656.92 917.196L1592.91 695.261ZM1618.46 869.097L1618.46 869.103L1619.43 869.358L1619.43 869.353L1618.46 869.097ZM1620.27 868.6L1620.29 868.68L1652.37 918.221L1652.47 918.708C1652.48 918.708 1652.48 918.708 1652.48 918.708C1652.79 918.637 1653.94 918.271 1654.08 916.903L1654.08 916.903L1660.07 859.726L1660.12 859.3L1660 859.268L1624.71 702.67C1623.32 696.53 1617.21 692.669 1611.07 694.063C1611.07 694.063 1611.07 694.063 1611.07 694.063L1593.53 698.044C1587.39 699.437 1583.53 705.567 1584.91 711.706C1584.91 711.706 1584.91 711.706 1584.91 711.706L1620.27 868.6Z" stroke="#390075" stroke-opacity="0.2"/>
<path d="M1642.44 907.76C1646.74 904.499 1651.53 903.413 1656.81 904.498L1655.49 917.075C1655.14 920.399 1650.77 921.392 1649.02 918.542L1642.44 907.76L1642.44 907.76Z" fill="#390075" fill-opacity="0.2"/>
<path d="M1585.61 726.981L1585.63 726.926C1585.66 726.806 1585.71 726.692 1585.78 726.587L1585.78 726.586C1585.98 726.265 1586.31 726.038 1586.67 725.954L1629.24 716.287L1629.25 716.287C1629.61 716.203 1630 716.269 1630.32 716.471C1630.64 716.673 1630.87 716.993 1630.95 717.362L1633.98 730.824L1633.98 730.825C1634.16 731.592 1633.67 732.357 1632.91 732.531C1632.91 732.531 1632.91 732.531 1632.91 732.531L1590.34 742.199L1590.34 742.199C1589.57 742.373 1588.81 741.892 1588.63 741.124L1585.6 727.663C1585.6 727.663 1585.6 727.662 1585.6 727.662C1585.55 727.435 1585.55 727.202 1585.61 726.981ZM1585.62 725.988C1585.88 725.731 1586.2 725.548 1586.56 725.467L1629.13 715.8C1629.63 715.686 1630.16 715.776 1630.59 716.048C1631.02 716.321 1631.32 716.753 1631.44 717.251L1585.62 725.988ZM1628.59 719.874L1628.22 719.956L1628.23 719.501L1628.23 719.5L1627.43 719.29L1627.5 719.607L1589.18 728.311L1588.69 728.422L1588.8 728.909L1590.99 738.615L1591.1 739.103L1591.59 738.992L1630.4 730.178L1630.89 730.067L1630.78 729.58L1628.59 719.874Z" stroke="#390075" stroke-opacity="0.2"/>
</g>
<path d="M244.038 1309.51L195.859 1286.52L214.164 1336.67L220.669 1320.31L231.12 1331.81L237.586 1325.93L227.135 1314.43L244.038 1309.51Z" fill="#FDFDFD" stroke="#510A5E" stroke-linecap="round" stroke-linejoin="round"/>
</g>
<defs>
<clipPath id="clip0_1291_2944">
<rect width="1920" height="2221" fill="white"/>
</clipPath>
<clipPath id="clip1_1291_2944">
<rect width="154.077" height="153.52" fill="white" transform="translate(1831.86 279) rotate(61.459)"/>
</clipPath>
<clipPath id="clip2_1291_2944">
<rect width="451.234" height="449.603" fill="white" transform="translate(-49.0029 459.156) rotate(-27.9161)"/>
</clipPath>
<clipPath id="clip3_1291_2944">
<rect width="580.107" height="578.01" fill="white" transform="translate(1315 1524.59) rotate(-27.9161)"/>
</clipPath>
<clipPath id="clip4_1291_2944">
<rect width="478.432" height="396.227" fill="white" transform="translate(96.1064 1075) rotate(32.0235)"/>
</clipPath>
<clipPath id="clip5_1291_2944">
<rect width="478.432" height="396.227" fill="white" transform="translate(1518.22 568) rotate(39.3478)"/>
</clipPath>
</defs>
</svg>
